M48
;DRILL file {KiCad 4.0.2+dfsg1-stable} date Sun 27 May 2018 10:54:59 CEST
;FORMAT={2:4/ absolute / inch / suppress leading zeros}
FMAT,2
INCH,TZ
T1C0.016
T2C0.040
T3C0.043
%
G90
G05
M72
T1
X5850Y-6400
X5850Y-7400
X5850Y-8400
X5850Y-9400
X5850Y-10400
X5850Y-11400
X5850Y-12400
X5850Y-13400
X5850Y-14400
X5850Y-15400
X5850Y-16400
X5850Y-17400
X5850Y-18400
X5850Y-19400
X5850Y-20400
X5850Y-21400
X5850Y-22400
X5850Y-23400
X5850Y-24400
X5850Y-25400
X5850Y-26400
X5850Y-27400
X5850Y-28400
X5850Y-29400
X5850Y-30400
X6200Y-5400
X7500Y-31200
X7683Y-13326
X8136Y-24380
X8365Y-13308
X8487Y-19111
X8675Y-7765
X8837Y-24762
X10080Y-5540
X10478Y-9521
X10478Y-15245
X10478Y-20970
X10478Y-26694
X10495Y-7047
X10890Y-19969
X10894Y-14245
X10896Y-25694
X10901Y-11020
X10901Y-16745
X10901Y-22469
X10901Y-28194
X10903Y-8521
X11074Y-18433
X11134Y-24277
X11152Y-12814
X11198Y-21470
X11201Y-10014
X11201Y-15738
X11201Y-27187
X11686Y-28372
X11693Y-11198
X11697Y-22689
X11698Y-16940
X12087Y-29156
X12117Y-19492
X12117Y-18997
X12118Y-14287
X12118Y-7943
X12118Y-8566
X12119Y-25247
X12119Y-25739
X12119Y-20004
X12119Y-13299
X12119Y-13791
X12119Y-24744
X12307Y-27098
X12319Y-15747
X12320Y-9903
X12320Y-21356
X12982Y-17903
X12995Y-12176
X13008Y-23547
X13021Y-9520
X13021Y-15244
X13021Y-20969
X13021Y-26693
X13024Y-10521
X13024Y-16245
X13024Y-21970
X13024Y-27694
X14505Y-24022
X15150Y-7500
X15376Y-17700
X15554Y-11958
X15649Y-31275
X15704Y-8801
X15871Y-10426
X15871Y-15715
X15871Y-21440
X15871Y-27163
X16000Y-5400
X17059Y-14444
X17059Y-16981
X17059Y-18077
X17059Y-19140
X17059Y-21038
X17059Y-22705
X17059Y-25893
X17059Y-28430
X17064Y-13646
X17931Y-7500
X19000Y-5400
X19550Y-31200
X19600Y-5400
X19952Y-26826
X20082Y-18503
X20100Y-27393
X20101Y-30777
X20161Y-23000
X20199Y-16086
X20200Y-15200
X20200Y-6634
X20201Y-12779
X20201Y-13842
X20201Y-22377
X20202Y-19022
X20204Y-10592
X21100Y-28454
X21107Y-25212
X21112Y-26774
X21199Y-22020
X21200Y-20120
X21200Y-15200
X21203Y-13667
X21204Y-16878
X21204Y-18604
X21216Y-8475
X21243Y-10242
X21302Y-11837
X21600Y-31200
X22099Y-23642
X22100Y-27274
X22202Y-19023
X22267Y-10591
X22617Y-26860
X23099Y-30777
X23100Y-26214
X23102Y-23008
X23200Y-17763
X23200Y-6633
X23205Y-22376
X23300Y-9476
X23944Y-19641
X23965Y-29546
X23965Y-29783
X23966Y-30255
X23966Y-30491
X24069Y-24646
X24200Y-5400
X24202Y-29546
X24202Y-29783
X24202Y-30255
X24202Y-30491
X24450Y-6520
X24450Y-6914
X24450Y-7307
X24450Y-7701
X24450Y-8095
X24450Y-8489
X24674Y-29546
X24674Y-29783
X24674Y-30964
X24674Y-31200
X24911Y-29546
X24911Y-29783
X24911Y-30964
X24911Y-31200
X25319Y-12646
X25319Y-16650
X25319Y-20650
X25383Y-29546
X25383Y-29783
X25619Y-29546
X25619Y-29783
X26600Y-5400
X26800Y-9580
X26802Y-11259
X26802Y-12952
X26803Y-19707
X26803Y-21386
X26803Y-28131
X26804Y-23072
X26804Y-18001
X26805Y-16318
X26806Y-14629
X26806Y-24757
X26806Y-26441
X28383Y-19127
X28600Y-8500
X29000Y-5400
X31500Y-5400
X31500Y-6380
X31500Y-7380
X31500Y-8380
X31500Y-9380
X31500Y-10380
X31500Y-11380
X31500Y-12380
X31500Y-13380
X31500Y-14380
X31500Y-15380
X31500Y-16380
X31500Y-17380
X31500Y-18380
X31500Y-19380
X31500Y-20380
X31500Y-21380
X31500Y-22380
X31500Y-23380
X31500Y-24380
X31500Y-25380
X31500Y-26380
X31500Y-27380
X31500Y-28380
X31500Y-29380
X31500Y-30380
T2
X10000Y-30900
X11000Y-30900
X12000Y-30900
X13000Y-30900
X14000Y-30900
X15000Y-30900
X18648Y-9143
X18648Y-10143
X18648Y-11143
X18648Y-12143
X18648Y-13143
X18648Y-14143
X18648Y-15143
X18648Y-16143
X18648Y-17143
X18648Y-18143
X18648Y-19143
X18648Y-20143
X18648Y-21143
X18648Y-22143
X18648Y-23143
X18648Y-24143
X18648Y-25143
X18648Y-26143
X18648Y-27143
X18648Y-28163
X24648Y-9143
X24648Y-10143
X24648Y-11143
X24648Y-12143
X24648Y-13143
X24648Y-14143
X24648Y-15143
X24648Y-16143
X24648Y-17143
X24648Y-18143
X24648Y-19143
X24648Y-20143
X24648Y-21143
X24648Y-22143
X24648Y-23143
X24648Y-24143
X24648Y-25143
X24648Y-26143
X24648Y-27143
X24648Y-28123
X26000Y-6884
X26003Y-30884
X27000Y-6884
X27003Y-30884
X28000Y-6884
X28003Y-30884
T3
X6700Y-6900
X6700Y-7900
X6700Y-8900
X6700Y-9900
X6700Y-10900
X6700Y-11900
X6700Y-12900
X6700Y-13900
X6700Y-14900
X6700Y-15900
X6700Y-16900
X6700Y-17900
X6700Y-19900
X6700Y-20900
X6700Y-21900
X6700Y-22900
X6700Y-23900
X6700Y-24900
X6700Y-25900
X6700Y-26900
X6700Y-27900
X6700Y-28900
X6700Y-29900
X6700Y-30900
X17000Y-6000
X18000Y-6000
X30700Y-6880
X30700Y-7880
X30700Y-8880
X30700Y-9880
X30700Y-10880
X30700Y-11880
X30700Y-12880
X30700Y-13880
X30700Y-14880
X30700Y-15880
X30700Y-16880
X30700Y-17880
X30700Y-19884
X30700Y-20884
X30700Y-21884
X30700Y-22884
X30700Y-23884
X30700Y-24884
X30700Y-25884
X30700Y-26884
X30700Y-27884
X30700Y-28884
X30700Y-29884
X30700Y-30884
T0
M30
