G04 #@! TF.FileFunction,Legend,Top*
%FSLAX46Y46*%
G04 Gerber Fmt 4.6, Leading zero omitted, Abs format (unit mm)*
G04 Created by KiCad (PCBNEW 4.0.2+dfsg1-stable) date Sun 27 May 2018 11:19:34 CEST*
%MOMM*%
G01*
G04 APERTURE LIST*
%ADD10C,0.100000*%
%ADD11C,0.200000*%
%ADD12C,0.150000*%
%ADD13C,0.500000*%
%ADD14C,0.350000*%
%ADD15C,0.300000*%
%ADD16C,0.304800*%
%ADD17C,0.002540*%
%ADD18C,0.254000*%
%ADD19O,2.398980X2.398980*%
%ADD20R,2.398980X2.398980*%
%ADD21O,2.650000X2.127200*%
%ADD22R,2.650000X2.127200*%
%ADD23O,2.127200X2.432000*%
%ADD24R,2.127200X2.432000*%
%ADD25R,1.900000X1.700000*%
%ADD26R,1.900000X1.000000*%
%ADD27R,1.000000X1.900000*%
%ADD28R,1.700000X1.900000*%
G04 APERTURE END LIST*
D10*
D11*
X51663600Y-27635200D02*
G75*
G03X51663600Y-27635200I-99806J0D01*
G01*
X51409600Y-48971200D02*
G75*
G03X51409600Y-48971200I-99806J0D01*
G01*
X51153806Y-70156594D02*
G75*
G03X51153806Y-70156594I-99806J0D01*
G01*
X28395406Y-65279793D02*
G75*
G03X28395406Y-65279793I-99806J0D01*
G01*
X28395406Y-50733462D02*
G75*
G03X28395406Y-50733462I-99806J0D01*
G01*
X28395406Y-36187131D02*
G75*
G03X28395406Y-36187131I-99806J0D01*
G01*
X28395406Y-21640800D02*
G75*
G03X28395406Y-21640800I-99806J0D01*
G01*
X24168838Y-47516171D02*
X24168838Y-46016171D01*
X24502172Y-47087600D01*
X24835505Y-46016171D01*
X24835505Y-47516171D01*
X25740267Y-47516171D02*
X25740267Y-46730457D01*
X25692648Y-46587600D01*
X25597410Y-46516171D01*
X25406933Y-46516171D01*
X25311695Y-46587600D01*
X25740267Y-47444743D02*
X25645029Y-47516171D01*
X25406933Y-47516171D01*
X25311695Y-47444743D01*
X25264076Y-47301886D01*
X25264076Y-47159029D01*
X25311695Y-47016171D01*
X25406933Y-46944743D01*
X25645029Y-46944743D01*
X25740267Y-46873314D01*
X26645029Y-47516171D02*
X26645029Y-46016171D01*
X26645029Y-47444743D02*
X26549791Y-47516171D01*
X26359314Y-47516171D01*
X26264076Y-47444743D01*
X26216457Y-47373314D01*
X26168838Y-47230457D01*
X26168838Y-46801886D01*
X26216457Y-46659029D01*
X26264076Y-46587600D01*
X26359314Y-46516171D01*
X26549791Y-46516171D01*
X26645029Y-46587600D01*
X27502172Y-47444743D02*
X27406934Y-47516171D01*
X27216457Y-47516171D01*
X27121219Y-47444743D01*
X27073600Y-47301886D01*
X27073600Y-46730457D01*
X27121219Y-46587600D01*
X27216457Y-46516171D01*
X27406934Y-46516171D01*
X27502172Y-46587600D01*
X27549791Y-46730457D01*
X27549791Y-46873314D01*
X27073600Y-47016171D01*
X28645029Y-46516171D02*
X28835505Y-47516171D01*
X29025982Y-46801886D01*
X29216458Y-47516171D01*
X29406934Y-46516171D01*
X29787886Y-47516171D02*
X29787886Y-46516171D01*
X29787886Y-46016171D02*
X29740267Y-46087600D01*
X29787886Y-46159029D01*
X29835505Y-46087600D01*
X29787886Y-46016171D01*
X29787886Y-46159029D01*
X30121219Y-46516171D02*
X30502171Y-46516171D01*
X30264076Y-46016171D02*
X30264076Y-47301886D01*
X30311695Y-47444743D01*
X30406933Y-47516171D01*
X30502171Y-47516171D01*
X30835505Y-47516171D02*
X30835505Y-46016171D01*
X31264077Y-47516171D02*
X31264077Y-46730457D01*
X31216458Y-46587600D01*
X31121220Y-46516171D01*
X30978362Y-46516171D01*
X30883124Y-46587600D01*
X30835505Y-46659029D01*
X32502172Y-47516171D02*
X32502172Y-46016171D01*
X32597410Y-46944743D02*
X32883125Y-47516171D01*
X32883125Y-46516171D02*
X32502172Y-47087600D01*
X33311696Y-47516171D02*
X33311696Y-46516171D01*
X33311696Y-46016171D02*
X33264077Y-46087600D01*
X33311696Y-46159029D01*
X33359315Y-46087600D01*
X33311696Y-46016171D01*
X33311696Y-46159029D01*
X34216458Y-47444743D02*
X34121220Y-47516171D01*
X33930743Y-47516171D01*
X33835505Y-47444743D01*
X33787886Y-47373314D01*
X33740267Y-47230457D01*
X33740267Y-46801886D01*
X33787886Y-46659029D01*
X33835505Y-46587600D01*
X33930743Y-46516171D01*
X34121220Y-46516171D01*
X34216458Y-46587600D01*
X35073601Y-47516171D02*
X35073601Y-46730457D01*
X35025982Y-46587600D01*
X34930744Y-46516171D01*
X34740267Y-46516171D01*
X34645029Y-46587600D01*
X35073601Y-47444743D02*
X34978363Y-47516171D01*
X34740267Y-47516171D01*
X34645029Y-47444743D01*
X34597410Y-47301886D01*
X34597410Y-47159029D01*
X34645029Y-47016171D01*
X34740267Y-46944743D01*
X34978363Y-46944743D01*
X35073601Y-46873314D01*
X35978363Y-47516171D02*
X35978363Y-46016171D01*
X35978363Y-47444743D02*
X35883125Y-47516171D01*
X35692648Y-47516171D01*
X35597410Y-47444743D01*
X35549791Y-47373314D01*
X35502172Y-47230457D01*
X35502172Y-46801886D01*
X35549791Y-46659029D01*
X35597410Y-46587600D01*
X35692648Y-46516171D01*
X35883125Y-46516171D01*
X35978363Y-46587600D01*
X22962837Y-33190571D02*
X22962837Y-31690571D01*
X23296171Y-32762000D01*
X23629504Y-31690571D01*
X23629504Y-33190571D01*
X24534266Y-33190571D02*
X24534266Y-32404857D01*
X24486647Y-32262000D01*
X24391409Y-32190571D01*
X24200932Y-32190571D01*
X24105694Y-32262000D01*
X24534266Y-33119143D02*
X24439028Y-33190571D01*
X24200932Y-33190571D01*
X24105694Y-33119143D01*
X24058075Y-32976286D01*
X24058075Y-32833429D01*
X24105694Y-32690571D01*
X24200932Y-32619143D01*
X24439028Y-32619143D01*
X24534266Y-32547714D01*
X25439028Y-33190571D02*
X25439028Y-31690571D01*
X25439028Y-33119143D02*
X25343790Y-33190571D01*
X25153313Y-33190571D01*
X25058075Y-33119143D01*
X25010456Y-33047714D01*
X24962837Y-32904857D01*
X24962837Y-32476286D01*
X25010456Y-32333429D01*
X25058075Y-32262000D01*
X25153313Y-32190571D01*
X25343790Y-32190571D01*
X25439028Y-32262000D01*
X26296171Y-33119143D02*
X26200933Y-33190571D01*
X26010456Y-33190571D01*
X25915218Y-33119143D01*
X25867599Y-32976286D01*
X25867599Y-32404857D01*
X25915218Y-32262000D01*
X26010456Y-32190571D01*
X26200933Y-32190571D01*
X26296171Y-32262000D01*
X26343790Y-32404857D01*
X26343790Y-32547714D01*
X25867599Y-32690571D01*
X27391409Y-32190571D02*
X27772361Y-32190571D01*
X27534266Y-33190571D02*
X27534266Y-31904857D01*
X27581885Y-31762000D01*
X27677123Y-31690571D01*
X27772361Y-31690571D01*
X28248552Y-33190571D02*
X28153314Y-33119143D01*
X28105695Y-33047714D01*
X28058076Y-32904857D01*
X28058076Y-32476286D01*
X28105695Y-32333429D01*
X28153314Y-32262000D01*
X28248552Y-32190571D01*
X28391410Y-32190571D01*
X28486648Y-32262000D01*
X28534267Y-32333429D01*
X28581886Y-32476286D01*
X28581886Y-32904857D01*
X28534267Y-33047714D01*
X28486648Y-33119143D01*
X28391410Y-33190571D01*
X28248552Y-33190571D01*
X29010457Y-33190571D02*
X29010457Y-32190571D01*
X29010457Y-32476286D02*
X29058076Y-32333429D01*
X29105695Y-32262000D01*
X29200933Y-32190571D01*
X29296172Y-32190571D01*
X30248553Y-32190571D02*
X30629505Y-32190571D01*
X30391410Y-33190571D02*
X30391410Y-31904857D01*
X30439029Y-31762000D01*
X30534267Y-31690571D01*
X30629505Y-31690571D01*
X30962839Y-33190571D02*
X30962839Y-32190571D01*
X30962839Y-32476286D02*
X31010458Y-32333429D01*
X31058077Y-32262000D01*
X31153315Y-32190571D01*
X31248554Y-32190571D01*
X31581887Y-33190571D02*
X31581887Y-32190571D01*
X31581887Y-31690571D02*
X31534268Y-31762000D01*
X31581887Y-31833429D01*
X31629506Y-31762000D01*
X31581887Y-31690571D01*
X31581887Y-31833429D01*
X31962839Y-31690571D02*
X32581887Y-31690571D01*
X32248553Y-32262000D01*
X32391411Y-32262000D01*
X32486649Y-32333429D01*
X32534268Y-32404857D01*
X32581887Y-32547714D01*
X32581887Y-32904857D01*
X32534268Y-33047714D01*
X32486649Y-33119143D01*
X32391411Y-33190571D01*
X32105696Y-33190571D01*
X32010458Y-33119143D01*
X31962839Y-33047714D01*
X33439030Y-33190571D02*
X33439030Y-31690571D01*
X33439030Y-33119143D02*
X33343792Y-33190571D01*
X33153315Y-33190571D01*
X33058077Y-33119143D01*
X33010458Y-33047714D01*
X32962839Y-32904857D01*
X32962839Y-32476286D01*
X33010458Y-32333429D01*
X33058077Y-32262000D01*
X33153315Y-32190571D01*
X33343792Y-32190571D01*
X33439030Y-32262000D01*
X35105697Y-33119143D02*
X35010459Y-33190571D01*
X34819982Y-33190571D01*
X34724744Y-33119143D01*
X34677125Y-33047714D01*
X34629506Y-32904857D01*
X34629506Y-32476286D01*
X34677125Y-32333429D01*
X34724744Y-32262000D01*
X34819982Y-32190571D01*
X35010459Y-32190571D01*
X35105697Y-32262000D01*
X35962840Y-33190571D02*
X35962840Y-32404857D01*
X35915221Y-32262000D01*
X35819983Y-32190571D01*
X35629506Y-32190571D01*
X35534268Y-32262000D01*
X35962840Y-33119143D02*
X35867602Y-33190571D01*
X35629506Y-33190571D01*
X35534268Y-33119143D01*
X35486649Y-32976286D01*
X35486649Y-32833429D01*
X35534268Y-32690571D01*
X35629506Y-32619143D01*
X35867602Y-32619143D01*
X35962840Y-32547714D01*
X36439030Y-33190571D02*
X36439030Y-32190571D01*
X36439030Y-32333429D02*
X36486649Y-32262000D01*
X36581887Y-32190571D01*
X36724745Y-32190571D01*
X36819983Y-32262000D01*
X36867602Y-32404857D01*
X36867602Y-33190571D01*
X36867602Y-32404857D02*
X36915221Y-32262000D01*
X37010459Y-32190571D01*
X37153316Y-32190571D01*
X37248554Y-32262000D01*
X37296173Y-32404857D01*
X37296173Y-33190571D01*
X37772363Y-32190571D02*
X37772363Y-33690571D01*
X37772363Y-32262000D02*
X37867601Y-32190571D01*
X38058078Y-32190571D01*
X38153316Y-32262000D01*
X38200935Y-32333429D01*
X38248554Y-32476286D01*
X38248554Y-32904857D01*
X38200935Y-33047714D01*
X38153316Y-33119143D01*
X38058078Y-33190571D01*
X37867601Y-33190571D01*
X37772363Y-33119143D01*
X39391411Y-31833429D02*
X39439030Y-31762000D01*
X39534268Y-31690571D01*
X39772364Y-31690571D01*
X39867602Y-31762000D01*
X39915221Y-31833429D01*
X39962840Y-31976286D01*
X39962840Y-32119143D01*
X39915221Y-32333429D01*
X39343792Y-33190571D01*
X39962840Y-33190571D01*
X40581887Y-31690571D02*
X40677126Y-31690571D01*
X40772364Y-31762000D01*
X40819983Y-31833429D01*
X40867602Y-31976286D01*
X40915221Y-32262000D01*
X40915221Y-32619143D01*
X40867602Y-32904857D01*
X40819983Y-33047714D01*
X40772364Y-33119143D01*
X40677126Y-33190571D01*
X40581887Y-33190571D01*
X40486649Y-33119143D01*
X40439030Y-33047714D01*
X40391411Y-32904857D01*
X40343792Y-32619143D01*
X40343792Y-32262000D01*
X40391411Y-31976286D01*
X40439030Y-31833429D01*
X40486649Y-31762000D01*
X40581887Y-31690571D01*
X41867602Y-33190571D02*
X41296173Y-33190571D01*
X41581887Y-33190571D02*
X41581887Y-31690571D01*
X41486649Y-31904857D01*
X41391411Y-32047714D01*
X41296173Y-32119143D01*
X42439030Y-32333429D02*
X42343792Y-32262000D01*
X42296173Y-32190571D01*
X42248554Y-32047714D01*
X42248554Y-31976286D01*
X42296173Y-31833429D01*
X42343792Y-31762000D01*
X42439030Y-31690571D01*
X42629507Y-31690571D01*
X42724745Y-31762000D01*
X42772364Y-31833429D01*
X42819983Y-31976286D01*
X42819983Y-32047714D01*
X42772364Y-32190571D01*
X42724745Y-32262000D01*
X42629507Y-32333429D01*
X42439030Y-32333429D01*
X42343792Y-32404857D01*
X42296173Y-32476286D01*
X42248554Y-32619143D01*
X42248554Y-32904857D01*
X42296173Y-33047714D01*
X42343792Y-33119143D01*
X42439030Y-33190571D01*
X42629507Y-33190571D01*
X42724745Y-33119143D01*
X42772364Y-33047714D01*
X42819983Y-32904857D01*
X42819983Y-32619143D01*
X42772364Y-32476286D01*
X42724745Y-32404857D01*
X42629507Y-32333429D01*
X30549810Y-16357048D02*
X30792667Y-16447524D01*
X31197429Y-16447524D01*
X31359333Y-16357048D01*
X31440286Y-16266571D01*
X31521238Y-16085619D01*
X31521238Y-15904667D01*
X31440286Y-15723714D01*
X31359333Y-15633238D01*
X31197429Y-15542762D01*
X30873619Y-15452286D01*
X30711714Y-15361810D01*
X30630762Y-15271333D01*
X30549810Y-15090381D01*
X30549810Y-14909429D01*
X30630762Y-14728476D01*
X30711714Y-14638000D01*
X30873619Y-14547524D01*
X31278381Y-14547524D01*
X31521238Y-14638000D01*
X32978381Y-16447524D02*
X32978381Y-15452286D01*
X32897429Y-15271333D01*
X32735524Y-15180857D01*
X32411715Y-15180857D01*
X32249810Y-15271333D01*
X32978381Y-16357048D02*
X32816477Y-16447524D01*
X32411715Y-16447524D01*
X32249810Y-16357048D01*
X32168858Y-16176095D01*
X32168858Y-15995143D01*
X32249810Y-15814190D01*
X32411715Y-15723714D01*
X32816477Y-15723714D01*
X32978381Y-15633238D01*
X33706953Y-16357048D02*
X33868857Y-16447524D01*
X34192667Y-16447524D01*
X34354572Y-16357048D01*
X34435524Y-16176095D01*
X34435524Y-16085619D01*
X34354572Y-15904667D01*
X34192667Y-15814190D01*
X33949810Y-15814190D01*
X33787905Y-15723714D01*
X33706953Y-15542762D01*
X33706953Y-15452286D01*
X33787905Y-15271333D01*
X33949810Y-15180857D01*
X34192667Y-15180857D01*
X34354572Y-15271333D01*
X35164095Y-15180857D02*
X35164095Y-16809429D01*
X35083143Y-16990381D01*
X34921238Y-17080857D01*
X34840285Y-17080857D01*
X35164095Y-14547524D02*
X35083143Y-14638000D01*
X35164095Y-14728476D01*
X35245047Y-14638000D01*
X35164095Y-14547524D01*
X35164095Y-14728476D01*
X36702190Y-16447524D02*
X36702190Y-15452286D01*
X36621238Y-15271333D01*
X36459333Y-15180857D01*
X36135524Y-15180857D01*
X35973619Y-15271333D01*
X36702190Y-16357048D02*
X36540286Y-16447524D01*
X36135524Y-16447524D01*
X35973619Y-16357048D01*
X35892667Y-16176095D01*
X35892667Y-15995143D01*
X35973619Y-15814190D01*
X36135524Y-15723714D01*
X36540286Y-15723714D01*
X36702190Y-15633238D01*
X30630762Y-18312286D02*
X31197429Y-18312286D01*
X31440286Y-19307524D02*
X30630762Y-19307524D01*
X30630762Y-17407524D01*
X31440286Y-17407524D01*
X32006952Y-18040857D02*
X32411714Y-19307524D01*
X32816476Y-18040857D01*
X33464095Y-19307524D02*
X33464095Y-18040857D01*
X33464095Y-17407524D02*
X33383143Y-17498000D01*
X33464095Y-17588476D01*
X33545047Y-17498000D01*
X33464095Y-17407524D01*
X33464095Y-17588476D01*
X34516476Y-19307524D02*
X34354571Y-19217048D01*
X34273619Y-19036095D01*
X34273619Y-17407524D01*
X35083143Y-19217048D02*
X35245047Y-19307524D01*
X35568857Y-19307524D01*
X35730762Y-19217048D01*
X35811714Y-19036095D01*
X35811714Y-18945619D01*
X35730762Y-18764667D01*
X35568857Y-18674190D01*
X35326000Y-18674190D01*
X35164095Y-18583714D01*
X35083143Y-18402762D01*
X35083143Y-18312286D01*
X35164095Y-18131333D01*
X35326000Y-18040857D01*
X35568857Y-18040857D01*
X35730762Y-18131333D01*
D12*
X14504827Y-13831867D02*
X14981018Y-13831867D01*
X14409589Y-14117581D02*
X14742922Y-13117581D01*
X15076256Y-14117581D01*
X16171494Y-14117581D02*
X16171494Y-13117581D01*
X16171494Y-13593771D02*
X16742923Y-13593771D01*
X16742923Y-14117581D02*
X16742923Y-13117581D01*
X17647685Y-14117581D02*
X17647685Y-13593771D01*
X17600066Y-13498533D01*
X17504828Y-13450914D01*
X17314351Y-13450914D01*
X17219113Y-13498533D01*
X17647685Y-14069962D02*
X17552447Y-14117581D01*
X17314351Y-14117581D01*
X17219113Y-14069962D01*
X17171494Y-13974724D01*
X17171494Y-13879486D01*
X17219113Y-13784248D01*
X17314351Y-13736629D01*
X17552447Y-13736629D01*
X17647685Y-13689010D01*
X18552447Y-14069962D02*
X18457209Y-14117581D01*
X18266732Y-14117581D01*
X18171494Y-14069962D01*
X18123875Y-14022343D01*
X18076256Y-13927105D01*
X18076256Y-13641390D01*
X18123875Y-13546152D01*
X18171494Y-13498533D01*
X18266732Y-13450914D01*
X18457209Y-13450914D01*
X18552447Y-13498533D01*
X18981018Y-14117581D02*
X18981018Y-13117581D01*
X19076256Y-13736629D02*
X19361971Y-14117581D01*
X19361971Y-13450914D02*
X18981018Y-13831867D01*
X20171495Y-14069962D02*
X20076257Y-14117581D01*
X19885780Y-14117581D01*
X19790542Y-14069962D01*
X19742923Y-13974724D01*
X19742923Y-13593771D01*
X19790542Y-13498533D01*
X19885780Y-13450914D01*
X20076257Y-13450914D01*
X20171495Y-13498533D01*
X20219114Y-13593771D01*
X20219114Y-13689010D01*
X19742923Y-13784248D01*
X20647685Y-14117581D02*
X20647685Y-13450914D01*
X20647685Y-13641390D02*
X20695304Y-13546152D01*
X20742923Y-13498533D01*
X20838161Y-13450914D01*
X20933400Y-13450914D01*
X21219114Y-14069962D02*
X21314352Y-14117581D01*
X21504828Y-14117581D01*
X21600067Y-14069962D01*
X21647686Y-13974724D01*
X21647686Y-13927105D01*
X21600067Y-13831867D01*
X21504828Y-13784248D01*
X21361971Y-13784248D01*
X21266733Y-13736629D01*
X21219114Y-13641390D01*
X21219114Y-13593771D01*
X21266733Y-13498533D01*
X21361971Y-13450914D01*
X21504828Y-13450914D01*
X21600067Y-13498533D01*
X22076257Y-13450914D02*
X22076257Y-14450914D01*
X22076257Y-13498533D02*
X22171495Y-13450914D01*
X22361972Y-13450914D01*
X22457210Y-13498533D01*
X22504829Y-13546152D01*
X22552448Y-13641390D01*
X22552448Y-13927105D01*
X22504829Y-14022343D01*
X22457210Y-14069962D01*
X22361972Y-14117581D01*
X22171495Y-14117581D01*
X22076257Y-14069962D01*
X23409591Y-14117581D02*
X23409591Y-13593771D01*
X23361972Y-13498533D01*
X23266734Y-13450914D01*
X23076257Y-13450914D01*
X22981019Y-13498533D01*
X23409591Y-14069962D02*
X23314353Y-14117581D01*
X23076257Y-14117581D01*
X22981019Y-14069962D01*
X22933400Y-13974724D01*
X22933400Y-13879486D01*
X22981019Y-13784248D01*
X23076257Y-13736629D01*
X23314353Y-13736629D01*
X23409591Y-13689010D01*
X24314353Y-14069962D02*
X24219115Y-14117581D01*
X24028638Y-14117581D01*
X23933400Y-14069962D01*
X23885781Y-14022343D01*
X23838162Y-13927105D01*
X23838162Y-13641390D01*
X23885781Y-13546152D01*
X23933400Y-13498533D01*
X24028638Y-13450914D01*
X24219115Y-13450914D01*
X24314353Y-13498533D01*
X25123877Y-14069962D02*
X25028639Y-14117581D01*
X24838162Y-14117581D01*
X24742924Y-14069962D01*
X24695305Y-13974724D01*
X24695305Y-13593771D01*
X24742924Y-13498533D01*
X24838162Y-13450914D01*
X25028639Y-13450914D01*
X25123877Y-13498533D01*
X25171496Y-13593771D01*
X25171496Y-13689010D01*
X24695305Y-13784248D01*
X25600067Y-14022343D02*
X25647686Y-14069962D01*
X25600067Y-14117581D01*
X25552448Y-14069962D01*
X25600067Y-14022343D01*
X25600067Y-14117581D01*
X26600067Y-13165200D02*
X26504829Y-13117581D01*
X26361972Y-13117581D01*
X26219114Y-13165200D01*
X26123876Y-13260438D01*
X26076257Y-13355676D01*
X26028638Y-13546152D01*
X26028638Y-13689010D01*
X26076257Y-13879486D01*
X26123876Y-13974724D01*
X26219114Y-14069962D01*
X26361972Y-14117581D01*
X26457210Y-14117581D01*
X26600067Y-14069962D01*
X26647686Y-14022343D01*
X26647686Y-13689010D01*
X26457210Y-13689010D01*
X27457210Y-14069962D02*
X27361972Y-14117581D01*
X27171495Y-14117581D01*
X27076257Y-14069962D01*
X27028638Y-13974724D01*
X27028638Y-13593771D01*
X27076257Y-13498533D01*
X27171495Y-13450914D01*
X27361972Y-13450914D01*
X27457210Y-13498533D01*
X27504829Y-13593771D01*
X27504829Y-13689010D01*
X27028638Y-13784248D01*
X27933400Y-13450914D02*
X27933400Y-14117581D01*
X27933400Y-13546152D02*
X27981019Y-13498533D01*
X28076257Y-13450914D01*
X28219115Y-13450914D01*
X28314353Y-13498533D01*
X28361972Y-13593771D01*
X28361972Y-14117581D01*
X28695305Y-13450914D02*
X29076257Y-13450914D01*
X28838162Y-13117581D02*
X28838162Y-13974724D01*
X28885781Y-14069962D01*
X28981019Y-14117581D01*
X29076257Y-14117581D01*
X30171496Y-13450914D02*
X30171496Y-14450914D01*
X30171496Y-13498533D02*
X30266734Y-13450914D01*
X30457211Y-13450914D01*
X30552449Y-13498533D01*
X30600068Y-13546152D01*
X30647687Y-13641390D01*
X30647687Y-13927105D01*
X30600068Y-14022343D01*
X30552449Y-14069962D01*
X30457211Y-14117581D01*
X30266734Y-14117581D01*
X30171496Y-14069962D01*
X31076258Y-14117581D02*
X31076258Y-13450914D01*
X31076258Y-13641390D02*
X31123877Y-13546152D01*
X31171496Y-13498533D01*
X31266734Y-13450914D01*
X31361973Y-13450914D01*
X31838163Y-14117581D02*
X31742925Y-14069962D01*
X31695306Y-14022343D01*
X31647687Y-13927105D01*
X31647687Y-13641390D01*
X31695306Y-13546152D01*
X31742925Y-13498533D01*
X31838163Y-13450914D01*
X31981021Y-13450914D01*
X32076259Y-13498533D01*
X32123878Y-13546152D01*
X32171497Y-13641390D01*
X32171497Y-13927105D01*
X32123878Y-14022343D01*
X32076259Y-14069962D01*
X31981021Y-14117581D01*
X31838163Y-14117581D01*
X32600068Y-13450914D02*
X32600068Y-14308057D01*
X32552449Y-14403295D01*
X32457211Y-14450914D01*
X32409592Y-14450914D01*
X32600068Y-13117581D02*
X32552449Y-13165200D01*
X32600068Y-13212819D01*
X32647687Y-13165200D01*
X32600068Y-13117581D01*
X32600068Y-13212819D01*
X33457211Y-14069962D02*
X33361973Y-14117581D01*
X33171496Y-14117581D01*
X33076258Y-14069962D01*
X33028639Y-13974724D01*
X33028639Y-13593771D01*
X33076258Y-13498533D01*
X33171496Y-13450914D01*
X33361973Y-13450914D01*
X33457211Y-13498533D01*
X33504830Y-13593771D01*
X33504830Y-13689010D01*
X33028639Y-13784248D01*
X34361973Y-14069962D02*
X34266735Y-14117581D01*
X34076258Y-14117581D01*
X33981020Y-14069962D01*
X33933401Y-14022343D01*
X33885782Y-13927105D01*
X33885782Y-13641390D01*
X33933401Y-13546152D01*
X33981020Y-13498533D01*
X34076258Y-13450914D01*
X34266735Y-13450914D01*
X34361973Y-13498533D01*
X34647687Y-13450914D02*
X35028639Y-13450914D01*
X34790544Y-13117581D02*
X34790544Y-13974724D01*
X34838163Y-14069962D01*
X34933401Y-14117581D01*
X35028639Y-14117581D01*
X36123878Y-14117581D02*
X36123878Y-13117581D01*
X36123878Y-13498533D02*
X36219116Y-13450914D01*
X36409593Y-13450914D01*
X36504831Y-13498533D01*
X36552450Y-13546152D01*
X36600069Y-13641390D01*
X36600069Y-13927105D01*
X36552450Y-14022343D01*
X36504831Y-14069962D01*
X36409593Y-14117581D01*
X36219116Y-14117581D01*
X36123878Y-14069962D01*
X36933402Y-13450914D02*
X37171497Y-14117581D01*
X37409593Y-13450914D02*
X37171497Y-14117581D01*
X37076259Y-14355676D01*
X37028640Y-14403295D01*
X36933402Y-14450914D01*
D11*
X52236715Y-13902571D02*
X52236715Y-15116857D01*
X52179572Y-15259714D01*
X52122429Y-15331143D01*
X52008144Y-15402571D01*
X51836715Y-15402571D01*
X51722429Y-15331143D01*
X52236715Y-14831143D02*
X52122429Y-14902571D01*
X51893858Y-14902571D01*
X51779572Y-14831143D01*
X51722429Y-14759714D01*
X51665286Y-14616857D01*
X51665286Y-14188286D01*
X51722429Y-14045429D01*
X51779572Y-13974000D01*
X51893858Y-13902571D01*
X52122429Y-13902571D01*
X52236715Y-13974000D01*
X52808143Y-14902571D02*
X52808143Y-13902571D01*
X52808143Y-13402571D02*
X52751000Y-13474000D01*
X52808143Y-13545429D01*
X52865286Y-13474000D01*
X52808143Y-13402571D01*
X52808143Y-13545429D01*
X53208144Y-13902571D02*
X53665287Y-13902571D01*
X53379572Y-13402571D02*
X53379572Y-14688286D01*
X53436715Y-14831143D01*
X53551001Y-14902571D01*
X53665287Y-14902571D01*
X54065286Y-14902571D02*
X54065286Y-13402571D01*
X54579572Y-14902571D02*
X54579572Y-14116857D01*
X54522429Y-13974000D01*
X54408143Y-13902571D01*
X54236715Y-13902571D01*
X54122429Y-13974000D01*
X54065286Y-14045429D01*
X55665286Y-13902571D02*
X55665286Y-14902571D01*
X55151000Y-13902571D02*
X55151000Y-14688286D01*
X55208143Y-14831143D01*
X55322429Y-14902571D01*
X55493857Y-14902571D01*
X55608143Y-14831143D01*
X55665286Y-14759714D01*
X56236714Y-14902571D02*
X56236714Y-13402571D01*
X56236714Y-13974000D02*
X56351000Y-13902571D01*
X56579571Y-13902571D01*
X56693857Y-13974000D01*
X56751000Y-14045429D01*
X56808143Y-14188286D01*
X56808143Y-14616857D01*
X56751000Y-14759714D01*
X56693857Y-14831143D01*
X56579571Y-14902571D01*
X56351000Y-14902571D01*
X56236714Y-14831143D01*
X57322428Y-14759714D02*
X57379571Y-14831143D01*
X57322428Y-14902571D01*
X57265285Y-14831143D01*
X57322428Y-14759714D01*
X57322428Y-14902571D01*
X58408143Y-14831143D02*
X58293857Y-14902571D01*
X58065286Y-14902571D01*
X57951000Y-14831143D01*
X57893857Y-14759714D01*
X57836714Y-14616857D01*
X57836714Y-14188286D01*
X57893857Y-14045429D01*
X57951000Y-13974000D01*
X58065286Y-13902571D01*
X58293857Y-13902571D01*
X58408143Y-13974000D01*
X59093857Y-14902571D02*
X58979571Y-14831143D01*
X58922428Y-14759714D01*
X58865285Y-14616857D01*
X58865285Y-14188286D01*
X58922428Y-14045429D01*
X58979571Y-13974000D01*
X59093857Y-13902571D01*
X59265285Y-13902571D01*
X59379571Y-13974000D01*
X59436714Y-14045429D01*
X59493857Y-14188286D01*
X59493857Y-14616857D01*
X59436714Y-14759714D01*
X59379571Y-14831143D01*
X59265285Y-14902571D01*
X59093857Y-14902571D01*
X60008142Y-14902571D02*
X60008142Y-13902571D01*
X60008142Y-14045429D02*
X60065285Y-13974000D01*
X60179571Y-13902571D01*
X60350999Y-13902571D01*
X60465285Y-13974000D01*
X60522428Y-14116857D01*
X60522428Y-14902571D01*
X60522428Y-14116857D02*
X60579571Y-13974000D01*
X60693857Y-13902571D01*
X60865285Y-13902571D01*
X60979571Y-13974000D01*
X61036714Y-14116857D01*
X61036714Y-14902571D01*
X62465285Y-13331143D02*
X61436714Y-15259714D01*
X63322428Y-14831143D02*
X63208142Y-14902571D01*
X62979571Y-14902571D01*
X62865285Y-14831143D01*
X62808142Y-14688286D01*
X62808142Y-14116857D01*
X62865285Y-13974000D01*
X62979571Y-13902571D01*
X63208142Y-13902571D01*
X63322428Y-13974000D01*
X63379571Y-14116857D01*
X63379571Y-14259714D01*
X62808142Y-14402571D01*
X63779571Y-13902571D02*
X64065285Y-14902571D01*
X64350999Y-13902571D01*
X64808142Y-14902571D02*
X64808142Y-13902571D01*
X64808142Y-13402571D02*
X64750999Y-13474000D01*
X64808142Y-13545429D01*
X64865285Y-13474000D01*
X64808142Y-13402571D01*
X64808142Y-13545429D01*
X65551000Y-14902571D02*
X65436714Y-14831143D01*
X65379571Y-14688286D01*
X65379571Y-13402571D01*
X65950999Y-14831143D02*
X66065285Y-14902571D01*
X66293857Y-14902571D01*
X66408142Y-14831143D01*
X66465285Y-14688286D01*
X66465285Y-14616857D01*
X66408142Y-14474000D01*
X66293857Y-14402571D01*
X66122428Y-14402571D01*
X66008142Y-14331143D01*
X65950999Y-14188286D01*
X65950999Y-14116857D01*
X66008142Y-13974000D01*
X66122428Y-13902571D01*
X66293857Y-13902571D01*
X66408142Y-13974000D01*
X66979571Y-14331143D02*
X67893857Y-14331143D01*
X68979571Y-14902571D02*
X68979571Y-13402571D01*
X68979571Y-14831143D02*
X68865285Y-14902571D01*
X68636714Y-14902571D01*
X68522428Y-14831143D01*
X68465285Y-14759714D01*
X68408142Y-14616857D01*
X68408142Y-14188286D01*
X68465285Y-14045429D01*
X68522428Y-13974000D01*
X68636714Y-13902571D01*
X68865285Y-13902571D01*
X68979571Y-13974000D01*
X70008142Y-14831143D02*
X69893856Y-14902571D01*
X69665285Y-14902571D01*
X69550999Y-14831143D01*
X69493856Y-14688286D01*
X69493856Y-14116857D01*
X69550999Y-13974000D01*
X69665285Y-13902571D01*
X69893856Y-13902571D01*
X70008142Y-13974000D01*
X70065285Y-14116857D01*
X70065285Y-14259714D01*
X69493856Y-14402571D01*
X70465285Y-13902571D02*
X70750999Y-14902571D01*
X71036713Y-13902571D01*
X71493856Y-14902571D02*
X71493856Y-13902571D01*
X71493856Y-13402571D02*
X71436713Y-13474000D01*
X71493856Y-13545429D01*
X71550999Y-13474000D01*
X71493856Y-13402571D01*
X71493856Y-13545429D01*
X72236714Y-14902571D02*
X72122428Y-14831143D01*
X72065285Y-14688286D01*
X72065285Y-13402571D01*
X72636713Y-14831143D02*
X72750999Y-14902571D01*
X72979571Y-14902571D01*
X73093856Y-14831143D01*
X73150999Y-14688286D01*
X73150999Y-14616857D01*
X73093856Y-14474000D01*
X72979571Y-14402571D01*
X72808142Y-14402571D01*
X72693856Y-14331143D01*
X72636713Y-14188286D01*
X72636713Y-14116857D01*
X72693856Y-13974000D01*
X72808142Y-13902571D01*
X72979571Y-13902571D01*
X73093856Y-13974000D01*
X74522428Y-13331143D02*
X73493857Y-15259714D01*
X75093857Y-14902571D02*
X74979571Y-14831143D01*
X74922428Y-14688286D01*
X74922428Y-13402571D01*
X76065285Y-14902571D02*
X76065285Y-14116857D01*
X76008142Y-13974000D01*
X75893856Y-13902571D01*
X75665285Y-13902571D01*
X75550999Y-13974000D01*
X76065285Y-14831143D02*
X75950999Y-14902571D01*
X75665285Y-14902571D01*
X75550999Y-14831143D01*
X75493856Y-14688286D01*
X75493856Y-14545429D01*
X75550999Y-14402571D01*
X75665285Y-14331143D01*
X75950999Y-14331143D01*
X76065285Y-14259714D01*
X76579570Y-14831143D02*
X76693856Y-14902571D01*
X76922428Y-14902571D01*
X77036713Y-14831143D01*
X77093856Y-14688286D01*
X77093856Y-14616857D01*
X77036713Y-14474000D01*
X76922428Y-14402571D01*
X76750999Y-14402571D01*
X76636713Y-14331143D01*
X76579570Y-14188286D01*
X76579570Y-14116857D01*
X76636713Y-13974000D01*
X76750999Y-13902571D01*
X76922428Y-13902571D01*
X77036713Y-13974000D01*
X77608142Y-14902571D02*
X77608142Y-13902571D01*
X77608142Y-13402571D02*
X77550999Y-13474000D01*
X77608142Y-13545429D01*
X77665285Y-13474000D01*
X77608142Y-13402571D01*
X77608142Y-13545429D01*
X78179571Y-14902571D02*
X78179571Y-13402571D01*
X78293857Y-14331143D02*
X78636714Y-14902571D01*
X78636714Y-13902571D02*
X78179571Y-14474000D01*
D12*
X72444077Y-76322181D02*
X71872648Y-76322181D01*
X72158362Y-76322181D02*
X72158362Y-75322181D01*
X72063124Y-75465038D01*
X71967886Y-75560276D01*
X71872648Y-75607895D01*
X72825029Y-75417419D02*
X72872648Y-75369800D01*
X72967886Y-75322181D01*
X73205982Y-75322181D01*
X73301220Y-75369800D01*
X73348839Y-75417419D01*
X73396458Y-75512657D01*
X73396458Y-75607895D01*
X73348839Y-75750752D01*
X72777410Y-76322181D01*
X73396458Y-76322181D01*
X73825029Y-75941229D02*
X74586934Y-75941229D01*
X74205982Y-76322181D02*
X74205982Y-75560276D01*
X73479067Y-20391381D02*
X72907638Y-20391381D01*
X73193352Y-20391381D02*
X73193352Y-19391381D01*
X73098114Y-19534238D01*
X73002876Y-19629476D01*
X72907638Y-19677095D01*
X73907638Y-20010429D02*
X74669543Y-20010429D01*
X73479067Y-17902181D02*
X72907638Y-17902181D01*
X73193352Y-17902181D02*
X73193352Y-16902181D01*
X73098114Y-17045038D01*
X73002876Y-17140276D01*
X72907638Y-17187895D01*
X73907638Y-17521229D02*
X74669543Y-17521229D01*
X74288591Y-17902181D02*
X74288591Y-17140276D01*
D11*
X20485229Y-45450114D02*
X21399515Y-45450114D01*
X22485229Y-44707257D02*
X22256658Y-44707257D01*
X22142372Y-44764400D01*
X22085229Y-44821543D01*
X21970943Y-44992971D01*
X21913800Y-45221543D01*
X21913800Y-45678686D01*
X21970943Y-45792971D01*
X22028086Y-45850114D01*
X22142372Y-45907257D01*
X22370943Y-45907257D01*
X22485229Y-45850114D01*
X22542372Y-45792971D01*
X22599515Y-45678686D01*
X22599515Y-45392971D01*
X22542372Y-45278686D01*
X22485229Y-45221543D01*
X22370943Y-45164400D01*
X22142372Y-45164400D01*
X22028086Y-45221543D01*
X21970943Y-45278686D01*
X21913800Y-45392971D01*
X20434429Y-50174514D02*
X21348715Y-50174514D01*
X20891572Y-50631657D02*
X20891572Y-49717371D01*
X21805858Y-49431657D02*
X22605858Y-49431657D01*
X22091572Y-50631657D01*
X20485229Y-60715514D02*
X21399515Y-60715514D01*
X20942372Y-61172657D02*
X20942372Y-60258371D01*
X22028086Y-61172657D02*
X22256658Y-61172657D01*
X22370943Y-61115514D01*
X22428086Y-61058371D01*
X22542372Y-60886943D01*
X22599515Y-60658371D01*
X22599515Y-60201229D01*
X22542372Y-60086943D01*
X22485229Y-60029800D01*
X22370943Y-59972657D01*
X22142372Y-59972657D01*
X22028086Y-60029800D01*
X21970943Y-60086943D01*
X21913800Y-60201229D01*
X21913800Y-60486943D01*
X21970943Y-60601229D01*
X22028086Y-60658371D01*
X22142372Y-60715514D01*
X22370943Y-60715514D01*
X22485229Y-60658371D01*
X22542372Y-60601229D01*
X22599515Y-60486943D01*
X20485229Y-63255514D02*
X21399515Y-63255514D01*
X22028086Y-63712657D02*
X22256658Y-63712657D01*
X22370943Y-63655514D01*
X22428086Y-63598371D01*
X22542372Y-63426943D01*
X22599515Y-63198371D01*
X22599515Y-62741229D01*
X22542372Y-62626943D01*
X22485229Y-62569800D01*
X22370943Y-62512657D01*
X22142372Y-62512657D01*
X22028086Y-62569800D01*
X21970943Y-62626943D01*
X21913800Y-62741229D01*
X21913800Y-63026943D01*
X21970943Y-63141229D01*
X22028086Y-63198371D01*
X22142372Y-63255514D01*
X22370943Y-63255514D01*
X22485229Y-63198371D01*
X22542372Y-63141229D01*
X22599515Y-63026943D01*
X20371000Y-79511514D02*
X21285286Y-79511514D01*
X22485286Y-79968657D02*
X21799571Y-79968657D01*
X22142429Y-79968657D02*
X22142429Y-78768657D01*
X22028143Y-78940086D01*
X21913857Y-79054371D01*
X21799571Y-79111514D01*
X22942428Y-78882943D02*
X22999571Y-78825800D01*
X23113857Y-78768657D01*
X23399571Y-78768657D01*
X23513857Y-78825800D01*
X23571000Y-78882943D01*
X23628143Y-78997229D01*
X23628143Y-79111514D01*
X23571000Y-79282943D01*
X22885286Y-79968657D01*
X23628143Y-79968657D01*
X20371000Y-77885914D02*
X21285286Y-77885914D01*
X20828143Y-78343057D02*
X20828143Y-77428771D01*
X22485286Y-78343057D02*
X21799571Y-78343057D01*
X22142429Y-78343057D02*
X22142429Y-77143057D01*
X22028143Y-77314486D01*
X21913857Y-77428771D01*
X21799571Y-77485914D01*
X22942428Y-77257343D02*
X22999571Y-77200200D01*
X23113857Y-77143057D01*
X23399571Y-77143057D01*
X23513857Y-77200200D01*
X23571000Y-77257343D01*
X23628143Y-77371629D01*
X23628143Y-77485914D01*
X23571000Y-77657343D01*
X22885286Y-78343057D01*
X23628143Y-78343057D01*
X20485229Y-30743514D02*
X21399515Y-30743514D01*
X21856658Y-30000657D02*
X22599515Y-30000657D01*
X22199515Y-30457800D01*
X22370943Y-30457800D01*
X22485229Y-30514943D01*
X22542372Y-30572086D01*
X22599515Y-30686371D01*
X22599515Y-30972086D01*
X22542372Y-31086371D01*
X22485229Y-31143514D01*
X22370943Y-31200657D01*
X22028086Y-31200657D01*
X21913800Y-31143514D01*
X21856658Y-31086371D01*
X20485229Y-32775514D02*
X21399515Y-32775514D01*
X20942372Y-33232657D02*
X20942372Y-32318371D01*
X22485229Y-32432657D02*
X22485229Y-33232657D01*
X22199515Y-31975514D02*
X21913800Y-32832657D01*
X22656658Y-32832657D01*
X20485229Y-18373714D02*
X21399515Y-18373714D01*
X22599515Y-18830857D02*
X21913800Y-18830857D01*
X22256658Y-18830857D02*
X22256658Y-17630857D01*
X22142372Y-17802286D01*
X22028086Y-17916571D01*
X21913800Y-17973714D01*
X20485229Y-16748114D02*
X21399515Y-16748114D01*
X20942372Y-17205257D02*
X20942372Y-16290971D01*
X22599515Y-17205257D02*
X21913800Y-17205257D01*
X22256658Y-17205257D02*
X22256658Y-16005257D01*
X22142372Y-16176686D01*
X22028086Y-16290971D01*
X21913800Y-16348114D01*
D13*
X38925619Y-14478771D02*
X40830381Y-14478771D01*
X48044219Y-14453371D02*
X49948981Y-14453371D01*
X48996600Y-15405752D02*
X48996600Y-13500990D01*
D12*
X65060581Y-20289781D02*
X64727247Y-19813590D01*
X64489152Y-20289781D02*
X64489152Y-19289781D01*
X64870105Y-19289781D01*
X64965343Y-19337400D01*
X65012962Y-19385019D01*
X65060581Y-19480257D01*
X65060581Y-19623114D01*
X65012962Y-19718352D01*
X64965343Y-19765971D01*
X64870105Y-19813590D01*
X64489152Y-19813590D01*
X65441533Y-20242162D02*
X65584390Y-20289781D01*
X65822486Y-20289781D01*
X65917724Y-20242162D01*
X65965343Y-20194543D01*
X66012962Y-20099305D01*
X66012962Y-20004067D01*
X65965343Y-19908829D01*
X65917724Y-19861210D01*
X65822486Y-19813590D01*
X65632009Y-19765971D01*
X65536771Y-19718352D01*
X65489152Y-19670733D01*
X65441533Y-19575495D01*
X65441533Y-19480257D01*
X65489152Y-19385019D01*
X65536771Y-19337400D01*
X65632009Y-19289781D01*
X65870105Y-19289781D01*
X66012962Y-19337400D01*
X66298676Y-19289781D02*
X66870105Y-19289781D01*
X66584390Y-20289781D02*
X66584390Y-19289781D01*
X70704153Y-21280381D02*
X70132724Y-21280381D01*
X70418438Y-21280381D02*
X70418438Y-20280381D01*
X70323200Y-20423238D01*
X70227962Y-20518476D01*
X70132724Y-20566095D01*
X71085105Y-20375619D02*
X71132724Y-20328000D01*
X71227962Y-20280381D01*
X71466058Y-20280381D01*
X71561296Y-20328000D01*
X71608915Y-20375619D01*
X71656534Y-20470857D01*
X71656534Y-20566095D01*
X71608915Y-20708952D01*
X71037486Y-21280381D01*
X71656534Y-21280381D01*
X71942248Y-20280381D02*
X72275581Y-21280381D01*
X72608915Y-20280381D01*
X67716496Y-19820000D02*
X67621258Y-19772381D01*
X67478401Y-19772381D01*
X67335543Y-19820000D01*
X67240305Y-19915238D01*
X67192686Y-20010476D01*
X67145067Y-20200952D01*
X67145067Y-20343810D01*
X67192686Y-20534286D01*
X67240305Y-20629524D01*
X67335543Y-20724762D01*
X67478401Y-20772381D01*
X67573639Y-20772381D01*
X67716496Y-20724762D01*
X67764115Y-20677143D01*
X67764115Y-20343810D01*
X67573639Y-20343810D01*
X68192686Y-20772381D02*
X68192686Y-19772381D01*
X68764115Y-20772381D01*
X68764115Y-19772381D01*
X69240305Y-20772381D02*
X69240305Y-19772381D01*
X69478400Y-19772381D01*
X69621258Y-19820000D01*
X69716496Y-19915238D01*
X69764115Y-20010476D01*
X69811734Y-20200952D01*
X69811734Y-20343810D01*
X69764115Y-20534286D01*
X69716496Y-20629524D01*
X69621258Y-20724762D01*
X69478400Y-20772381D01*
X69240305Y-20772381D01*
D14*
X37223862Y-17117960D02*
X37061957Y-17037008D01*
X36819100Y-17037008D01*
X36576243Y-17117960D01*
X36414338Y-17279865D01*
X36333386Y-17441770D01*
X36252434Y-17765579D01*
X36252434Y-18008436D01*
X36333386Y-18332246D01*
X36414338Y-18494150D01*
X36576243Y-18656055D01*
X36819100Y-18737008D01*
X36981005Y-18737008D01*
X37223862Y-18656055D01*
X37304814Y-18575103D01*
X37304814Y-18008436D01*
X36981005Y-18008436D01*
X38033386Y-18737008D02*
X38033386Y-17037008D01*
X39004814Y-18737008D01*
X39004814Y-17037008D01*
X39814338Y-18737008D02*
X39814338Y-17037008D01*
X40219100Y-17037008D01*
X40461957Y-17117960D01*
X40623862Y-17279865D01*
X40704814Y-17441770D01*
X40785766Y-17765579D01*
X40785766Y-18008436D01*
X40704814Y-18332246D01*
X40623862Y-18494150D01*
X40461957Y-18656055D01*
X40219100Y-18737008D01*
X39814338Y-18737008D01*
D15*
X48752057Y-18327571D02*
X48752057Y-19184714D01*
X48752057Y-18756142D02*
X47552057Y-18756142D01*
X47723486Y-18898999D01*
X47837771Y-19041857D01*
X47894914Y-19184714D01*
X47666343Y-17756143D02*
X47609200Y-17684714D01*
X47552057Y-17541857D01*
X47552057Y-17184714D01*
X47609200Y-17041857D01*
X47666343Y-16970428D01*
X47780629Y-16899000D01*
X47894914Y-16899000D01*
X48066343Y-16970428D01*
X48752057Y-17827571D01*
X48752057Y-16899000D01*
X47552057Y-16470429D02*
X48752057Y-15970429D01*
X47552057Y-15470429D01*
D11*
X64897000Y-75488800D02*
X65354200Y-76530200D01*
X71120000Y-76822952D02*
X71120000Y-75156286D01*
X71120000Y-74322952D02*
X71000952Y-74442000D01*
X71120000Y-74561048D01*
X71239048Y-74442000D01*
X71120000Y-74322952D01*
X71120000Y-74561048D01*
X67811744Y-75726857D02*
X67126029Y-75726857D01*
X67468887Y-75726857D02*
X67468887Y-74526857D01*
X67354601Y-74698286D01*
X67240315Y-74812571D01*
X67126029Y-74869714D01*
X68268886Y-74641143D02*
X68326029Y-74584000D01*
X68440315Y-74526857D01*
X68726029Y-74526857D01*
X68840315Y-74584000D01*
X68897458Y-74641143D01*
X68954601Y-74755429D01*
X68954601Y-74869714D01*
X68897458Y-75041143D01*
X68211744Y-75726857D01*
X68954601Y-75726857D01*
X69297458Y-74526857D02*
X69697458Y-75726857D01*
X70097458Y-74526857D01*
X63160485Y-75168057D02*
X63160485Y-73968057D01*
X63617628Y-73968057D01*
X63731914Y-74025200D01*
X63789057Y-74082343D01*
X63846200Y-74196629D01*
X63846200Y-74368057D01*
X63789057Y-74482343D01*
X63731914Y-74539486D01*
X63617628Y-74596629D01*
X63160485Y-74596629D01*
X64246200Y-73968057D02*
X64531914Y-75168057D01*
X64760485Y-74310914D01*
X64989057Y-75168057D01*
X65274771Y-73968057D01*
X65731914Y-75168057D02*
X65731914Y-73968057D01*
X66131914Y-74825200D01*
X66531914Y-73968057D01*
X66531914Y-75168057D01*
X39116000Y-76949300D02*
X38773100Y-77495400D01*
X36372800Y-76949300D02*
X36080700Y-77444600D01*
D15*
X39017629Y-75213471D02*
X39874772Y-75213471D01*
X39446201Y-76713471D02*
X39446201Y-75213471D01*
D11*
X34677572Y-75542857D02*
X35420429Y-75542857D01*
X35020429Y-76000000D01*
X35191857Y-76000000D01*
X35306143Y-76057143D01*
X35363286Y-76114286D01*
X35420429Y-76228571D01*
X35420429Y-76514286D01*
X35363286Y-76628571D01*
X35306143Y-76685714D01*
X35191857Y-76742857D01*
X34849000Y-76742857D01*
X34734714Y-76685714D01*
X34677572Y-76628571D01*
X35934714Y-76628571D02*
X35991857Y-76685714D01*
X35934714Y-76742857D01*
X35877571Y-76685714D01*
X35934714Y-76628571D01*
X35934714Y-76742857D01*
X36391858Y-75542857D02*
X37134715Y-75542857D01*
X36734715Y-76000000D01*
X36906143Y-76000000D01*
X37020429Y-76057143D01*
X37077572Y-76114286D01*
X37134715Y-76228571D01*
X37134715Y-76514286D01*
X37077572Y-76628571D01*
X37020429Y-76685714D01*
X36906143Y-76742857D01*
X36563286Y-76742857D01*
X36449000Y-76685714D01*
X36391858Y-76628571D01*
X37477572Y-75542857D02*
X37877572Y-76742857D01*
X38277572Y-75542857D01*
X32134286Y-76400000D02*
X32705715Y-76400000D01*
X32020001Y-76742857D02*
X32420001Y-75542857D01*
X32820001Y-76742857D01*
X33905715Y-76628571D02*
X33848572Y-76685714D01*
X33677143Y-76742857D01*
X33562857Y-76742857D01*
X33391429Y-76685714D01*
X33277143Y-76571429D01*
X33220000Y-76457143D01*
X33162857Y-76228571D01*
X33162857Y-76057143D01*
X33220000Y-75828571D01*
X33277143Y-75714286D01*
X33391429Y-75600000D01*
X33562857Y-75542857D01*
X33677143Y-75542857D01*
X33848572Y-75600000D01*
X33905715Y-75657143D01*
X30480000Y-76949300D02*
X30480000Y-75323700D01*
X30251429Y-73993457D02*
X29680000Y-73993457D01*
X29622857Y-74564886D01*
X29680000Y-74507743D01*
X29794286Y-74450600D01*
X30080000Y-74450600D01*
X30194286Y-74507743D01*
X30251429Y-74564886D01*
X30308572Y-74679171D01*
X30308572Y-74964886D01*
X30251429Y-75079171D01*
X30194286Y-75136314D01*
X30080000Y-75193457D01*
X29794286Y-75193457D01*
X29680000Y-75136314D01*
X29622857Y-75079171D01*
X30651429Y-73993457D02*
X31051429Y-75193457D01*
X31451429Y-73993457D01*
X27025714Y-76742857D02*
X27025714Y-75542857D01*
X27311429Y-75542857D01*
X27482857Y-75600000D01*
X27597143Y-75714286D01*
X27654286Y-75828571D01*
X27711429Y-76057143D01*
X27711429Y-76228571D01*
X27654286Y-76457143D01*
X27597143Y-76571429D01*
X27482857Y-76685714D01*
X27311429Y-76742857D01*
X27025714Y-76742857D01*
X28911429Y-76628571D02*
X28854286Y-76685714D01*
X28682857Y-76742857D01*
X28568571Y-76742857D01*
X28397143Y-76685714D01*
X28282857Y-76571429D01*
X28225714Y-76457143D01*
X28168571Y-76228571D01*
X28168571Y-76057143D01*
X28225714Y-75828571D01*
X28282857Y-75714286D01*
X28397143Y-75600000D01*
X28568571Y-75542857D01*
X28682857Y-75542857D01*
X28854286Y-75600000D01*
X28911429Y-75657143D01*
X24371300Y-75412600D02*
X24790400Y-76682600D01*
X23482415Y-73923600D02*
X23368129Y-73866457D01*
X23196700Y-73866457D01*
X23025272Y-73923600D01*
X22910986Y-74037886D01*
X22853843Y-74152171D01*
X22796700Y-74380743D01*
X22796700Y-74552171D01*
X22853843Y-74780743D01*
X22910986Y-74895029D01*
X23025272Y-75009314D01*
X23196700Y-75066457D01*
X23310986Y-75066457D01*
X23482415Y-75009314D01*
X23539558Y-74952171D01*
X23539558Y-74552171D01*
X23310986Y-74552171D01*
X24053843Y-75066457D02*
X24053843Y-73866457D01*
X24739558Y-75066457D01*
X24739558Y-73866457D01*
X25310986Y-75066457D02*
X25310986Y-73866457D01*
X25596701Y-73866457D01*
X25768129Y-73923600D01*
X25882415Y-74037886D01*
X25939558Y-74152171D01*
X25996701Y-74380743D01*
X25996701Y-74552171D01*
X25939558Y-74780743D01*
X25882415Y-74895029D01*
X25768129Y-75009314D01*
X25596701Y-75066457D01*
X25310986Y-75066457D01*
D12*
X41656000Y-12750800D02*
X47244000Y-12750800D01*
X47249080Y-17940020D02*
X41650920Y-17940020D01*
X41656000Y-12750800D02*
X41650920Y-18338800D01*
X41650920Y-18338800D02*
X47249080Y-18338800D01*
X47249080Y-18338800D02*
X47244000Y-12750800D01*
D16*
X77978000Y-79970000D02*
G75*
G03X79502000Y-78446000I0J1524000D01*
G01*
D12*
X80578960Y-64476000D02*
X81076800Y-64476000D01*
X81076800Y-48976920D02*
X81076800Y-79975080D01*
X80578960Y-79975080D02*
X80578960Y-48976920D01*
X75277980Y-48976920D02*
X75277980Y-79975080D01*
X74879200Y-79975080D02*
X74879200Y-48976920D01*
X80578960Y-66975360D02*
X81076800Y-66975360D01*
X80578960Y-61976640D02*
X81076800Y-61976640D01*
X80578960Y-69576320D02*
X81076800Y-69576320D01*
X80578960Y-59375680D02*
X81076800Y-59375680D01*
X80578960Y-51776000D02*
X81076800Y-51776000D01*
X80578960Y-54275360D02*
X81076800Y-54275360D01*
X80578960Y-56873780D02*
X81076800Y-56873780D01*
X80578960Y-72075680D02*
X81076800Y-72075680D01*
X80578960Y-74674100D02*
X81076800Y-74674100D01*
X81076800Y-79774420D02*
X80578960Y-79774420D01*
X80578960Y-49177580D02*
X81076800Y-49177580D01*
X81076800Y-77170920D02*
X80578960Y-77170920D01*
X81076800Y-48979460D02*
X74879200Y-48979460D01*
X74879200Y-79972540D02*
X81076800Y-79972540D01*
D16*
X77978000Y-46939200D02*
G75*
G03X79502000Y-45415200I0J1524000D01*
G01*
D12*
X80578960Y-31445200D02*
X81076800Y-31445200D01*
X81076800Y-15946120D02*
X81076800Y-46944280D01*
X80578960Y-46944280D02*
X80578960Y-15946120D01*
X75277980Y-15946120D02*
X75277980Y-46944280D01*
X74879200Y-46944280D02*
X74879200Y-15946120D01*
X80578960Y-33944560D02*
X81076800Y-33944560D01*
X80578960Y-28945840D02*
X81076800Y-28945840D01*
X80578960Y-36545520D02*
X81076800Y-36545520D01*
X80578960Y-26344880D02*
X81076800Y-26344880D01*
X80578960Y-18745200D02*
X81076800Y-18745200D01*
X80578960Y-21244560D02*
X81076800Y-21244560D01*
X80578960Y-23842980D02*
X81076800Y-23842980D01*
X80578960Y-39044880D02*
X81076800Y-39044880D01*
X80578960Y-41643300D02*
X81076800Y-41643300D01*
X81076800Y-46743620D02*
X80578960Y-46743620D01*
X80578960Y-16146780D02*
X81076800Y-16146780D01*
X81076800Y-44140120D02*
X80578960Y-44140120D01*
X81076800Y-15948660D02*
X74879200Y-15948660D01*
X74879200Y-46941740D02*
X81076800Y-46941740D01*
D16*
X17018000Y-49022000D02*
G75*
G03X15494000Y-50546000I0J-1524000D01*
G01*
D12*
X14417040Y-64516000D02*
X13919200Y-64516000D01*
X13919200Y-80015080D02*
X13919200Y-49016920D01*
X14417040Y-49016920D02*
X14417040Y-80015080D01*
X19718020Y-80015080D02*
X19718020Y-49016920D01*
X20116800Y-49016920D02*
X20116800Y-80015080D01*
X14417040Y-62016640D02*
X13919200Y-62016640D01*
X14417040Y-67015360D02*
X13919200Y-67015360D01*
X14417040Y-59415680D02*
X13919200Y-59415680D01*
X14417040Y-69616320D02*
X13919200Y-69616320D01*
X14417040Y-77216000D02*
X13919200Y-77216000D01*
X14417040Y-74716640D02*
X13919200Y-74716640D01*
X14417040Y-72118220D02*
X13919200Y-72118220D01*
X14417040Y-56916320D02*
X13919200Y-56916320D01*
X14417040Y-54317900D02*
X13919200Y-54317900D01*
X13919200Y-49217580D02*
X14417040Y-49217580D01*
X14417040Y-79814420D02*
X13919200Y-79814420D01*
X13919200Y-51821080D02*
X14417040Y-51821080D01*
X13919200Y-80012540D02*
X20116800Y-80012540D01*
X20116800Y-49019460D02*
X13919200Y-49019460D01*
D16*
X17018000Y-16002000D02*
G75*
G03X15494000Y-17526000I0J-1524000D01*
G01*
D12*
X14417040Y-31496000D02*
X13919200Y-31496000D01*
X13919200Y-46995080D02*
X13919200Y-15996920D01*
X14417040Y-15996920D02*
X14417040Y-46995080D01*
X19718020Y-46995080D02*
X19718020Y-15996920D01*
X20116800Y-15996920D02*
X20116800Y-46995080D01*
X14417040Y-28996640D02*
X13919200Y-28996640D01*
X14417040Y-33995360D02*
X13919200Y-33995360D01*
X14417040Y-26395680D02*
X13919200Y-26395680D01*
X14417040Y-36596320D02*
X13919200Y-36596320D01*
X14417040Y-44196000D02*
X13919200Y-44196000D01*
X14417040Y-41696640D02*
X13919200Y-41696640D01*
X14417040Y-39098220D02*
X13919200Y-39098220D01*
X14417040Y-23896320D02*
X13919200Y-23896320D01*
X14417040Y-21297900D02*
X13919200Y-21297900D01*
X13919200Y-16197580D02*
X14417040Y-16197580D01*
X14417040Y-46794420D02*
X13919200Y-46794420D01*
X13919200Y-18801080D02*
X14417040Y-18801080D01*
X13919200Y-46992540D02*
X20116800Y-46992540D01*
X20116800Y-15999460D02*
X13919200Y-15999460D01*
D16*
X63110401Y-72956401D02*
G75*
G03X64634401Y-71432401I0J1524000D01*
G01*
X66494337Y-20623275D02*
X66494337Y-23366475D01*
X66494337Y-20623275D02*
X60499937Y-20623275D01*
X43481937Y-20623275D02*
X49857337Y-20623275D01*
X66494337Y-56894475D02*
X66494337Y-35050475D01*
X66494337Y-58164475D02*
X66494337Y-57910475D01*
X66494337Y-58926475D02*
X66494337Y-58672475D01*
X66494337Y-59688475D02*
X66494337Y-59434475D01*
X66494337Y-60958475D02*
X66494337Y-60704475D01*
X66494337Y-61720475D02*
X66494337Y-61466475D01*
X66494337Y-63244475D02*
X66494337Y-62228475D01*
X66494337Y-64006475D02*
X66494337Y-63752475D01*
X66494337Y-65276475D02*
X66494337Y-65022475D01*
X66494337Y-66038475D02*
X66494337Y-65784475D01*
X66494337Y-68070475D02*
X66494337Y-67054475D01*
X66494337Y-68832475D02*
X66494337Y-68578475D01*
X66494337Y-69594475D02*
X66494337Y-69340475D01*
X66494337Y-70356475D02*
X66494337Y-70102475D01*
X66494337Y-71626475D02*
X66494337Y-71372475D01*
X66494337Y-33780475D02*
X66494337Y-34034475D01*
X66494337Y-33018475D02*
X66494337Y-33272475D01*
X66494337Y-32256475D02*
X66494337Y-32510475D01*
X66494337Y-31494475D02*
X66494337Y-31748475D01*
X66494337Y-30224475D02*
X66494337Y-30478475D01*
X66494337Y-29462475D02*
X66494337Y-29716475D01*
X66494337Y-28700475D02*
X66494337Y-28954475D01*
X66494337Y-26668475D02*
X66494337Y-27684475D01*
X66494337Y-25144475D02*
X66494337Y-26160475D01*
X66494337Y-24382475D02*
X66494337Y-24611075D01*
X61261937Y-74014075D02*
X62653201Y-74013041D01*
X43481937Y-74014075D02*
X49831937Y-74014075D01*
X43481937Y-74014075D02*
X43481937Y-73506075D01*
X43481937Y-20623275D02*
X43481937Y-21309075D01*
X43481937Y-67130675D02*
X43481937Y-70864475D01*
X43481937Y-59028075D02*
X43476201Y-64320401D01*
X43507337Y-29945075D02*
X43481937Y-35406075D01*
D12*
X66683242Y-79715360D02*
X72398242Y-79715360D01*
X72398242Y-79715360D02*
X72398242Y-77175360D01*
X72398242Y-77175360D02*
X66683242Y-77175360D01*
X64498242Y-76895360D02*
X66048242Y-76895360D01*
X66048242Y-79995360D02*
X64498242Y-79995360D01*
X64498242Y-79995360D02*
X64498242Y-76895360D01*
X67310000Y-18756000D02*
X72390000Y-18756000D01*
X72390000Y-18756000D02*
X72390000Y-16216000D01*
X72390000Y-16216000D02*
X67310000Y-16216000D01*
X64490000Y-15936000D02*
X66040000Y-15936000D01*
X67310000Y-16216000D02*
X67310000Y-18756000D01*
X66040000Y-19036000D02*
X64490000Y-19036000D01*
X64490000Y-19036000D02*
X64490000Y-15936000D01*
X37096000Y-70985160D02*
X35896000Y-70985160D01*
X35896000Y-69235160D02*
X37096000Y-69235160D01*
X37096000Y-56445160D02*
X35896000Y-56445160D01*
X35896000Y-54695160D02*
X37096000Y-54695160D01*
X37096000Y-41905160D02*
X35896000Y-41905160D01*
X35896000Y-40155160D02*
X37096000Y-40155160D01*
X23800853Y-69571774D02*
X24572198Y-70491028D01*
X23231621Y-71615906D02*
X22460276Y-70696652D01*
X23758379Y-55130094D02*
X24529724Y-56049348D01*
X23189147Y-57174226D02*
X22417802Y-56254972D01*
X23800853Y-40615774D02*
X24572198Y-41535028D01*
X23231621Y-42659906D02*
X22460276Y-41740652D01*
X37096000Y-73086840D02*
X35896000Y-73086840D01*
X35896000Y-71336840D02*
X37096000Y-71336840D01*
X37096000Y-58546840D02*
X35896000Y-58546840D01*
X35896000Y-56796840D02*
X37096000Y-56796840D01*
X37096000Y-44006840D02*
X35896000Y-44006840D01*
X35896000Y-42256840D02*
X37096000Y-42256840D01*
X27562001Y-64622000D02*
X27562001Y-64737000D01*
X31712001Y-64622000D02*
X31712001Y-64737000D01*
X31712001Y-73522000D02*
X31712001Y-73407000D01*
X27562001Y-73522000D02*
X27562001Y-73407000D01*
X27562001Y-64622000D02*
X31712001Y-64622000D01*
X27562001Y-73522000D02*
X31712001Y-73522000D01*
X27562001Y-64737000D02*
X26187001Y-64737000D01*
X27562001Y-50082000D02*
X27562001Y-50197000D01*
X31712001Y-50082000D02*
X31712001Y-50197000D01*
X31712001Y-58982000D02*
X31712001Y-58867000D01*
X27562001Y-58982000D02*
X27562001Y-58867000D01*
X27562001Y-50082000D02*
X31712001Y-50082000D01*
X27562001Y-58982000D02*
X31712001Y-58982000D01*
X27562001Y-50197000D02*
X26187001Y-50197000D01*
X27562001Y-35542000D02*
X27562001Y-35657000D01*
X31712001Y-35542000D02*
X31712001Y-35657000D01*
X31712001Y-44442000D02*
X31712001Y-44327000D01*
X27562001Y-44442000D02*
X27562001Y-44327000D01*
X27562001Y-35542000D02*
X31712001Y-35542000D01*
X27562001Y-44442000D02*
X31712001Y-44442000D01*
X27562001Y-35657000D02*
X26187001Y-35657000D01*
X37096000Y-66642440D02*
X35896000Y-66642440D01*
X35896000Y-64892440D02*
X37096000Y-64892440D01*
X37096000Y-52102440D02*
X35896000Y-52102440D01*
X35896000Y-50352440D02*
X37096000Y-50352440D01*
X37096000Y-37562440D02*
X35896000Y-37562440D01*
X35896000Y-35812440D02*
X37096000Y-35812440D01*
X37096000Y-68744120D02*
X35896000Y-68744120D01*
X35896000Y-66994120D02*
X37096000Y-66994120D01*
X37096000Y-54204120D02*
X35896000Y-54204120D01*
X35896000Y-52454120D02*
X37096000Y-52454120D01*
X37096000Y-39664120D02*
X35896000Y-39664120D01*
X35896000Y-37914120D02*
X37096000Y-37914120D01*
X23906616Y-66219934D02*
X24677961Y-67139188D01*
X23337384Y-68264066D02*
X22566039Y-67344812D01*
X23906616Y-51679934D02*
X24677961Y-52599188D01*
X23337384Y-53724066D02*
X22566039Y-52804812D01*
X23906616Y-37139934D02*
X24677961Y-38059188D01*
X23337384Y-39184066D02*
X22566039Y-38264812D01*
X50414000Y-70909000D02*
X50529000Y-70909000D01*
X50414000Y-66759000D02*
X50529000Y-66759000D01*
X59314000Y-66759000D02*
X59199000Y-66759000D01*
X59314000Y-70909000D02*
X59199000Y-70909000D01*
X50414000Y-70909000D02*
X50414000Y-66759000D01*
X59314000Y-70909000D02*
X59314000Y-66759000D01*
X50529000Y-70909000D02*
X50529000Y-72284000D01*
X23906616Y-22599934D02*
X24677961Y-23519188D01*
X23337384Y-24644066D02*
X22566039Y-23724812D01*
X37096000Y-29466840D02*
X35896000Y-29466840D01*
X35896000Y-27716840D02*
X37096000Y-27716840D01*
X37096000Y-23022440D02*
X35896000Y-23022440D01*
X35896000Y-21272440D02*
X37096000Y-21272440D01*
X42590000Y-73086840D02*
X41390000Y-73086840D01*
X41390000Y-71336840D02*
X42590000Y-71336840D01*
X42590000Y-66642440D02*
X41390000Y-66642440D01*
X41390000Y-64892440D02*
X42590000Y-64892440D01*
X42590000Y-58546840D02*
X41390000Y-58546840D01*
X41390000Y-56796840D02*
X42590000Y-56796840D01*
X42590000Y-52102440D02*
X41390000Y-52102440D01*
X41390000Y-50352440D02*
X42590000Y-50352440D01*
X42590000Y-44006840D02*
X41390000Y-44006840D01*
X41390000Y-42256840D02*
X42590000Y-42256840D01*
X42590000Y-37562440D02*
X41390000Y-37562440D01*
X41390000Y-35812440D02*
X42590000Y-35812440D01*
X42590000Y-29466840D02*
X41390000Y-29466840D01*
X41390000Y-27716840D02*
X42590000Y-27716840D01*
X42590000Y-25124120D02*
X41390000Y-25124120D01*
X41390000Y-23374120D02*
X42590000Y-23374120D01*
X44258200Y-46665600D02*
X44258200Y-47865600D01*
X42508200Y-47865600D02*
X42508200Y-46665600D01*
X37096000Y-25124120D02*
X35896000Y-25124120D01*
X35896000Y-23374120D02*
X37096000Y-23374120D01*
X55516007Y-34408829D02*
X55516007Y-33208829D01*
X57266007Y-33208829D02*
X57266007Y-34408829D01*
X54726007Y-33208829D02*
X54726007Y-34408829D01*
X52976007Y-34408829D02*
X52976007Y-33208829D01*
X58056007Y-34408829D02*
X58056007Y-33208829D01*
X59806007Y-33208829D02*
X59806007Y-34408829D01*
X52186007Y-33208829D02*
X52186007Y-34408829D01*
X50436007Y-34408829D02*
X50436007Y-33208829D01*
X57517000Y-18048829D02*
X57517000Y-19248829D01*
X55767000Y-19248829D02*
X55767000Y-18048829D01*
X54809671Y-18048829D02*
X54809671Y-19248829D01*
X53059671Y-19248829D02*
X53059671Y-18048829D01*
X59806007Y-18048829D02*
X59806007Y-19248829D01*
X58056007Y-19248829D02*
X58056007Y-18048829D01*
X50436007Y-19248829D02*
X50436007Y-18048829D01*
X52186007Y-18048829D02*
X52186007Y-19248829D01*
X55513000Y-55638000D02*
X55513000Y-54438000D01*
X57263000Y-54438000D02*
X57263000Y-55638000D01*
X54723000Y-54438000D02*
X54723000Y-55638000D01*
X52973000Y-55638000D02*
X52973000Y-54438000D01*
X58053000Y-55638000D02*
X58053000Y-54438000D01*
X59803000Y-54438000D02*
X59803000Y-55638000D01*
X52183000Y-54438000D02*
X52183000Y-55638000D01*
X50433000Y-55638000D02*
X50433000Y-54438000D01*
X57263000Y-39358000D02*
X57263000Y-40558000D01*
X55513000Y-40558000D02*
X55513000Y-39358000D01*
X54723000Y-39358000D02*
X54723000Y-40558000D01*
X52973000Y-40558000D02*
X52973000Y-39358000D01*
X59803000Y-39358000D02*
X59803000Y-40558000D01*
X58053000Y-40558000D02*
X58053000Y-39358000D01*
X50433000Y-40558000D02*
X50433000Y-39358000D01*
X52183000Y-39358000D02*
X52183000Y-40558000D01*
X55259000Y-76974000D02*
X55259000Y-75774000D01*
X57009000Y-75774000D02*
X57009000Y-76974000D01*
X54469000Y-75774000D02*
X54469000Y-76974000D01*
X52719000Y-76974000D02*
X52719000Y-75774000D01*
X57799000Y-76974000D02*
X57799000Y-75774000D01*
X59549000Y-75774000D02*
X59549000Y-76974000D01*
X51929000Y-75774000D02*
X51929000Y-76974000D01*
X50179000Y-76974000D02*
X50179000Y-75774000D01*
X57009000Y-60534000D02*
X57009000Y-61734000D01*
X55259000Y-61734000D02*
X55259000Y-60534000D01*
X54469000Y-60534000D02*
X54469000Y-61734000D01*
X52719000Y-61734000D02*
X52719000Y-60534000D01*
X59549000Y-60534000D02*
X59549000Y-61734000D01*
X57799000Y-61734000D02*
X57799000Y-60534000D01*
X50179000Y-61734000D02*
X50179000Y-60534000D01*
X51929000Y-60534000D02*
X51929000Y-61734000D01*
X72228000Y-26136455D02*
X71028000Y-26136455D01*
X71028000Y-24386455D02*
X72228000Y-24386455D01*
X72228000Y-30420868D02*
X71028000Y-30420868D01*
X71028000Y-28670868D02*
X72228000Y-28670868D01*
X72228000Y-34705281D02*
X71028000Y-34705281D01*
X71028000Y-32955281D02*
X72228000Y-32955281D01*
X72228000Y-38989694D02*
X71028000Y-38989694D01*
X71028000Y-37239694D02*
X72228000Y-37239694D01*
X72228000Y-43274107D02*
X71028000Y-43274107D01*
X71028000Y-41524107D02*
X72228000Y-41524107D01*
X72228000Y-47558520D02*
X71028000Y-47558520D01*
X71028000Y-45808520D02*
X72228000Y-45808520D01*
X72228000Y-51842933D02*
X71028000Y-51842933D01*
X71028000Y-50092933D02*
X72228000Y-50092933D01*
X72228000Y-56127346D02*
X71028000Y-56127346D01*
X71028000Y-54377346D02*
X72228000Y-54377346D01*
X72228000Y-60411759D02*
X71028000Y-60411759D01*
X71028000Y-58661759D02*
X72228000Y-58661759D01*
X72228000Y-64696172D02*
X71028000Y-64696172D01*
X71028000Y-62946172D02*
X72228000Y-62946172D01*
X72228000Y-68980585D02*
X71028000Y-68980585D01*
X71028000Y-67230585D02*
X72228000Y-67230585D01*
X72228000Y-73264998D02*
X71028000Y-73264998D01*
X71028000Y-71514998D02*
X72228000Y-71514998D01*
X27562001Y-21002000D02*
X27562001Y-21117000D01*
X31712001Y-21002000D02*
X31712001Y-21117000D01*
X31712001Y-29902000D02*
X31712001Y-29787000D01*
X27562001Y-29902000D02*
X27562001Y-29787000D01*
X27562001Y-21002000D02*
X31712001Y-21002000D01*
X27562001Y-29902000D02*
X31712001Y-29902000D01*
X27562001Y-21117000D02*
X26187001Y-21117000D01*
X50922000Y-28397000D02*
X51037000Y-28397000D01*
X50922000Y-24247000D02*
X51037000Y-24247000D01*
X59822000Y-24247000D02*
X59707000Y-24247000D01*
X59822000Y-28397000D02*
X59707000Y-28397000D01*
X50922000Y-28397000D02*
X50922000Y-24247000D01*
X59822000Y-28397000D02*
X59822000Y-24247000D01*
X51037000Y-28397000D02*
X51037000Y-29772000D01*
X50668000Y-49733000D02*
X50783000Y-49733000D01*
X50668000Y-45583000D02*
X50783000Y-45583000D01*
X59568000Y-45583000D02*
X59453000Y-45583000D01*
X59568000Y-49733000D02*
X59453000Y-49733000D01*
X50668000Y-49733000D02*
X50668000Y-45583000D01*
X59568000Y-49733000D02*
X59568000Y-45583000D01*
X50783000Y-49733000D02*
X50783000Y-51108000D01*
X23758379Y-26137774D02*
X24529724Y-27057028D01*
X23189147Y-28181906D02*
X22417802Y-27262652D01*
X37096000Y-27365160D02*
X35896000Y-27365160D01*
X35896000Y-25615160D02*
X37096000Y-25615160D01*
X26670000Y-77216000D02*
X39370000Y-77216000D01*
X39370000Y-77216000D02*
X39370000Y-79756000D01*
X39370000Y-79756000D02*
X26670000Y-79756000D01*
X23850000Y-76936000D02*
X25400000Y-76936000D01*
X26670000Y-77216000D02*
X26670000Y-79756000D01*
X25400000Y-80036000D02*
X23850000Y-80036000D01*
X23850000Y-80036000D02*
X23850000Y-76936000D01*
D17*
G36*
X24498300Y-20721320D02*
X24533860Y-20701000D01*
X24617680Y-20650200D01*
X24734520Y-20574000D01*
X24871680Y-20480020D01*
X25011380Y-20386040D01*
X25123140Y-20309840D01*
X25204420Y-20259040D01*
X25237440Y-20241260D01*
X25255220Y-20246340D01*
X25321260Y-20279360D01*
X25417780Y-20327620D01*
X25471120Y-20358100D01*
X25560020Y-20396200D01*
X25603200Y-20403820D01*
X25610820Y-20391120D01*
X25643840Y-20322540D01*
X25694640Y-20208240D01*
X25760680Y-20058380D01*
X25834340Y-19880580D01*
X25915620Y-19687540D01*
X25996900Y-19491960D01*
X26075640Y-19306540D01*
X26144220Y-19138900D01*
X26197560Y-19001740D01*
X26235660Y-18907760D01*
X26248360Y-18867120D01*
X26243280Y-18859500D01*
X26200100Y-18816320D01*
X26123900Y-18757900D01*
X25958800Y-18623280D01*
X25793700Y-18420080D01*
X25694640Y-18188940D01*
X25661620Y-17929860D01*
X25689560Y-17691100D01*
X25783540Y-17462500D01*
X25943560Y-17256760D01*
X26136600Y-17104360D01*
X26365200Y-17005300D01*
X26619200Y-16974820D01*
X26863040Y-17002760D01*
X27096720Y-17094200D01*
X27302460Y-17251680D01*
X27391360Y-17353280D01*
X27510740Y-17561560D01*
X27579320Y-17785080D01*
X27586940Y-17840960D01*
X27576780Y-18087340D01*
X27503120Y-18323560D01*
X27373580Y-18534380D01*
X27193240Y-18707100D01*
X27170380Y-18722340D01*
X27086560Y-18785840D01*
X27030680Y-18829020D01*
X26987500Y-18864580D01*
X27299920Y-19616420D01*
X27350720Y-19738340D01*
X27437080Y-19944080D01*
X27513280Y-20121880D01*
X27571700Y-20261580D01*
X27614880Y-20355560D01*
X27632660Y-20393660D01*
X27635200Y-20396200D01*
X27663140Y-20401280D01*
X27719020Y-20380960D01*
X27825700Y-20330160D01*
X27894280Y-20294600D01*
X27975560Y-20253960D01*
X28011120Y-20241260D01*
X28041600Y-20256500D01*
X28117800Y-20307300D01*
X28229560Y-20380960D01*
X28364180Y-20472400D01*
X28493720Y-20561300D01*
X28610560Y-20637500D01*
X28696920Y-20693380D01*
X28737560Y-20716240D01*
X28745180Y-20716240D01*
X28783280Y-20695920D01*
X28849320Y-20637500D01*
X28953460Y-20540980D01*
X29098240Y-20398740D01*
X29121100Y-20375880D01*
X29240480Y-20253960D01*
X29337000Y-20152360D01*
X29400500Y-20081240D01*
X29425900Y-20048220D01*
X29425900Y-20048220D01*
X29403040Y-20007580D01*
X29349700Y-19921220D01*
X29270960Y-19801840D01*
X29174440Y-19662140D01*
X28925520Y-19298920D01*
X29062680Y-18956020D01*
X29105860Y-18851880D01*
X29159200Y-18724880D01*
X29197300Y-18633440D01*
X29217620Y-18595340D01*
X29255720Y-18580100D01*
X29349700Y-18559780D01*
X29484320Y-18531840D01*
X29646880Y-18501360D01*
X29801820Y-18470880D01*
X29941520Y-18445480D01*
X30040580Y-18425160D01*
X30086300Y-18417540D01*
X30096460Y-18409920D01*
X30106620Y-18389600D01*
X30111700Y-18341340D01*
X30116780Y-18257520D01*
X30116780Y-18122900D01*
X30116780Y-17929860D01*
X30116780Y-17909540D01*
X30116780Y-17724120D01*
X30111700Y-17579340D01*
X30106620Y-17482820D01*
X30101540Y-17444720D01*
X30101540Y-17444720D01*
X30058360Y-17434560D01*
X29959300Y-17414240D01*
X29819600Y-17386300D01*
X29654500Y-17355820D01*
X29644340Y-17353280D01*
X29476700Y-17320260D01*
X29339540Y-17292320D01*
X29243020Y-17269460D01*
X29199840Y-17256760D01*
X29192220Y-17246600D01*
X29159200Y-17180560D01*
X29110940Y-17078960D01*
X29057600Y-16951960D01*
X29001720Y-16822420D01*
X28956000Y-16705580D01*
X28925520Y-16619220D01*
X28915360Y-16578580D01*
X28915360Y-16578580D01*
X28940760Y-16537940D01*
X28996640Y-16454120D01*
X29077920Y-16334740D01*
X29174440Y-16192500D01*
X29182060Y-16182340D01*
X29276040Y-16042640D01*
X29354780Y-15923260D01*
X29405580Y-15839440D01*
X29425900Y-15801340D01*
X29423360Y-15798800D01*
X29392880Y-15758160D01*
X29321760Y-15676880D01*
X29220160Y-15570200D01*
X29095700Y-15448280D01*
X29057600Y-15410180D01*
X28922980Y-15275560D01*
X28826460Y-15189200D01*
X28768040Y-15143480D01*
X28740100Y-15133320D01*
X28740100Y-15133320D01*
X28696920Y-15158720D01*
X28608020Y-15217140D01*
X28488640Y-15298420D01*
X28346400Y-15394940D01*
X28336240Y-15400020D01*
X28196540Y-15496540D01*
X28079700Y-15575280D01*
X27998420Y-15631160D01*
X27962860Y-15651480D01*
X27955240Y-15651480D01*
X27899360Y-15636240D01*
X27800300Y-15600680D01*
X27675840Y-15552420D01*
X27546300Y-15501620D01*
X27429460Y-15450820D01*
X27340560Y-15410180D01*
X27299920Y-15387320D01*
X27297380Y-15384780D01*
X27284680Y-15333980D01*
X27259280Y-15229840D01*
X27228800Y-15085060D01*
X27198320Y-14914880D01*
X27193240Y-14886940D01*
X27160220Y-14721840D01*
X27134820Y-14582140D01*
X27114500Y-14488160D01*
X27104340Y-14447520D01*
X27081480Y-14442440D01*
X27000200Y-14437360D01*
X26875740Y-14434820D01*
X26723340Y-14432280D01*
X26565860Y-14432280D01*
X26410920Y-14437360D01*
X26278840Y-14442440D01*
X26184860Y-14447520D01*
X26146760Y-14455140D01*
X26144220Y-14457680D01*
X26128980Y-14508480D01*
X26106120Y-14615160D01*
X26078180Y-14759940D01*
X26045160Y-14930120D01*
X26040080Y-14960600D01*
X26007060Y-15128240D01*
X25979120Y-15265400D01*
X25958800Y-15356840D01*
X25948640Y-15394940D01*
X25933400Y-15402560D01*
X25864820Y-15433040D01*
X25753060Y-15478760D01*
X25615900Y-15534640D01*
X25295860Y-15664180D01*
X24902160Y-15394940D01*
X24866600Y-15372080D01*
X24724360Y-15275560D01*
X24610060Y-15196820D01*
X24528780Y-15146020D01*
X24495760Y-15125700D01*
X24493220Y-15128240D01*
X24452580Y-15161260D01*
X24373840Y-15234920D01*
X24269700Y-15339060D01*
X24145240Y-15460980D01*
X24053800Y-15552420D01*
X23944580Y-15664180D01*
X23876000Y-15737840D01*
X23840440Y-15786100D01*
X23825200Y-15814040D01*
X23830280Y-15831820D01*
X23855680Y-15872460D01*
X23911560Y-15958820D01*
X23992840Y-16078200D01*
X24089360Y-16217900D01*
X24168100Y-16334740D01*
X24251920Y-16466820D01*
X24307800Y-16560800D01*
X24328120Y-16606520D01*
X24323040Y-16624300D01*
X24295100Y-16703040D01*
X24249380Y-16817340D01*
X24188420Y-16957040D01*
X24053800Y-17266920D01*
X23848060Y-17307560D01*
X23726140Y-17330420D01*
X23553420Y-17363440D01*
X23388320Y-17396460D01*
X23129240Y-17444720D01*
X23119080Y-18392140D01*
X23159720Y-18409920D01*
X23197820Y-18420080D01*
X23294340Y-18440400D01*
X23431500Y-18468340D01*
X23591520Y-18498820D01*
X23728680Y-18524220D01*
X23865840Y-18552160D01*
X23964900Y-18569940D01*
X24010620Y-18580100D01*
X24020780Y-18595340D01*
X24056340Y-18661380D01*
X24104600Y-18768060D01*
X24160480Y-18895060D01*
X24216360Y-19029680D01*
X24264620Y-19151600D01*
X24297640Y-19245580D01*
X24310340Y-19293840D01*
X24292560Y-19329400D01*
X24239220Y-19410680D01*
X24163020Y-19527520D01*
X24069040Y-19664680D01*
X23975060Y-19801840D01*
X23896320Y-19918680D01*
X23840440Y-20002500D01*
X23817580Y-20040600D01*
X23830280Y-20068540D01*
X23883620Y-20134580D01*
X23987760Y-20241260D01*
X24142700Y-20393660D01*
X24168100Y-20419060D01*
X24290020Y-20535900D01*
X24394160Y-20632420D01*
X24465280Y-20695920D01*
X24498300Y-20721320D01*
X24498300Y-20721320D01*
G37*
X24498300Y-20721320D02*
X24533860Y-20701000D01*
X24617680Y-20650200D01*
X24734520Y-20574000D01*
X24871680Y-20480020D01*
X25011380Y-20386040D01*
X25123140Y-20309840D01*
X25204420Y-20259040D01*
X25237440Y-20241260D01*
X25255220Y-20246340D01*
X25321260Y-20279360D01*
X25417780Y-20327620D01*
X25471120Y-20358100D01*
X25560020Y-20396200D01*
X25603200Y-20403820D01*
X25610820Y-20391120D01*
X25643840Y-20322540D01*
X25694640Y-20208240D01*
X25760680Y-20058380D01*
X25834340Y-19880580D01*
X25915620Y-19687540D01*
X25996900Y-19491960D01*
X26075640Y-19306540D01*
X26144220Y-19138900D01*
X26197560Y-19001740D01*
X26235660Y-18907760D01*
X26248360Y-18867120D01*
X26243280Y-18859500D01*
X26200100Y-18816320D01*
X26123900Y-18757900D01*
X25958800Y-18623280D01*
X25793700Y-18420080D01*
X25694640Y-18188940D01*
X25661620Y-17929860D01*
X25689560Y-17691100D01*
X25783540Y-17462500D01*
X25943560Y-17256760D01*
X26136600Y-17104360D01*
X26365200Y-17005300D01*
X26619200Y-16974820D01*
X26863040Y-17002760D01*
X27096720Y-17094200D01*
X27302460Y-17251680D01*
X27391360Y-17353280D01*
X27510740Y-17561560D01*
X27579320Y-17785080D01*
X27586940Y-17840960D01*
X27576780Y-18087340D01*
X27503120Y-18323560D01*
X27373580Y-18534380D01*
X27193240Y-18707100D01*
X27170380Y-18722340D01*
X27086560Y-18785840D01*
X27030680Y-18829020D01*
X26987500Y-18864580D01*
X27299920Y-19616420D01*
X27350720Y-19738340D01*
X27437080Y-19944080D01*
X27513280Y-20121880D01*
X27571700Y-20261580D01*
X27614880Y-20355560D01*
X27632660Y-20393660D01*
X27635200Y-20396200D01*
X27663140Y-20401280D01*
X27719020Y-20380960D01*
X27825700Y-20330160D01*
X27894280Y-20294600D01*
X27975560Y-20253960D01*
X28011120Y-20241260D01*
X28041600Y-20256500D01*
X28117800Y-20307300D01*
X28229560Y-20380960D01*
X28364180Y-20472400D01*
X28493720Y-20561300D01*
X28610560Y-20637500D01*
X28696920Y-20693380D01*
X28737560Y-20716240D01*
X28745180Y-20716240D01*
X28783280Y-20695920D01*
X28849320Y-20637500D01*
X28953460Y-20540980D01*
X29098240Y-20398740D01*
X29121100Y-20375880D01*
X29240480Y-20253960D01*
X29337000Y-20152360D01*
X29400500Y-20081240D01*
X29425900Y-20048220D01*
X29425900Y-20048220D01*
X29403040Y-20007580D01*
X29349700Y-19921220D01*
X29270960Y-19801840D01*
X29174440Y-19662140D01*
X28925520Y-19298920D01*
X29062680Y-18956020D01*
X29105860Y-18851880D01*
X29159200Y-18724880D01*
X29197300Y-18633440D01*
X29217620Y-18595340D01*
X29255720Y-18580100D01*
X29349700Y-18559780D01*
X29484320Y-18531840D01*
X29646880Y-18501360D01*
X29801820Y-18470880D01*
X29941520Y-18445480D01*
X30040580Y-18425160D01*
X30086300Y-18417540D01*
X30096460Y-18409920D01*
X30106620Y-18389600D01*
X30111700Y-18341340D01*
X30116780Y-18257520D01*
X30116780Y-18122900D01*
X30116780Y-17929860D01*
X30116780Y-17909540D01*
X30116780Y-17724120D01*
X30111700Y-17579340D01*
X30106620Y-17482820D01*
X30101540Y-17444720D01*
X30101540Y-17444720D01*
X30058360Y-17434560D01*
X29959300Y-17414240D01*
X29819600Y-17386300D01*
X29654500Y-17355820D01*
X29644340Y-17353280D01*
X29476700Y-17320260D01*
X29339540Y-17292320D01*
X29243020Y-17269460D01*
X29199840Y-17256760D01*
X29192220Y-17246600D01*
X29159200Y-17180560D01*
X29110940Y-17078960D01*
X29057600Y-16951960D01*
X29001720Y-16822420D01*
X28956000Y-16705580D01*
X28925520Y-16619220D01*
X28915360Y-16578580D01*
X28915360Y-16578580D01*
X28940760Y-16537940D01*
X28996640Y-16454120D01*
X29077920Y-16334740D01*
X29174440Y-16192500D01*
X29182060Y-16182340D01*
X29276040Y-16042640D01*
X29354780Y-15923260D01*
X29405580Y-15839440D01*
X29425900Y-15801340D01*
X29423360Y-15798800D01*
X29392880Y-15758160D01*
X29321760Y-15676880D01*
X29220160Y-15570200D01*
X29095700Y-15448280D01*
X29057600Y-15410180D01*
X28922980Y-15275560D01*
X28826460Y-15189200D01*
X28768040Y-15143480D01*
X28740100Y-15133320D01*
X28740100Y-15133320D01*
X28696920Y-15158720D01*
X28608020Y-15217140D01*
X28488640Y-15298420D01*
X28346400Y-15394940D01*
X28336240Y-15400020D01*
X28196540Y-15496540D01*
X28079700Y-15575280D01*
X27998420Y-15631160D01*
X27962860Y-15651480D01*
X27955240Y-15651480D01*
X27899360Y-15636240D01*
X27800300Y-15600680D01*
X27675840Y-15552420D01*
X27546300Y-15501620D01*
X27429460Y-15450820D01*
X27340560Y-15410180D01*
X27299920Y-15387320D01*
X27297380Y-15384780D01*
X27284680Y-15333980D01*
X27259280Y-15229840D01*
X27228800Y-15085060D01*
X27198320Y-14914880D01*
X27193240Y-14886940D01*
X27160220Y-14721840D01*
X27134820Y-14582140D01*
X27114500Y-14488160D01*
X27104340Y-14447520D01*
X27081480Y-14442440D01*
X27000200Y-14437360D01*
X26875740Y-14434820D01*
X26723340Y-14432280D01*
X26565860Y-14432280D01*
X26410920Y-14437360D01*
X26278840Y-14442440D01*
X26184860Y-14447520D01*
X26146760Y-14455140D01*
X26144220Y-14457680D01*
X26128980Y-14508480D01*
X26106120Y-14615160D01*
X26078180Y-14759940D01*
X26045160Y-14930120D01*
X26040080Y-14960600D01*
X26007060Y-15128240D01*
X25979120Y-15265400D01*
X25958800Y-15356840D01*
X25948640Y-15394940D01*
X25933400Y-15402560D01*
X25864820Y-15433040D01*
X25753060Y-15478760D01*
X25615900Y-15534640D01*
X25295860Y-15664180D01*
X24902160Y-15394940D01*
X24866600Y-15372080D01*
X24724360Y-15275560D01*
X24610060Y-15196820D01*
X24528780Y-15146020D01*
X24495760Y-15125700D01*
X24493220Y-15128240D01*
X24452580Y-15161260D01*
X24373840Y-15234920D01*
X24269700Y-15339060D01*
X24145240Y-15460980D01*
X24053800Y-15552420D01*
X23944580Y-15664180D01*
X23876000Y-15737840D01*
X23840440Y-15786100D01*
X23825200Y-15814040D01*
X23830280Y-15831820D01*
X23855680Y-15872460D01*
X23911560Y-15958820D01*
X23992840Y-16078200D01*
X24089360Y-16217900D01*
X24168100Y-16334740D01*
X24251920Y-16466820D01*
X24307800Y-16560800D01*
X24328120Y-16606520D01*
X24323040Y-16624300D01*
X24295100Y-16703040D01*
X24249380Y-16817340D01*
X24188420Y-16957040D01*
X24053800Y-17266920D01*
X23848060Y-17307560D01*
X23726140Y-17330420D01*
X23553420Y-17363440D01*
X23388320Y-17396460D01*
X23129240Y-17444720D01*
X23119080Y-18392140D01*
X23159720Y-18409920D01*
X23197820Y-18420080D01*
X23294340Y-18440400D01*
X23431500Y-18468340D01*
X23591520Y-18498820D01*
X23728680Y-18524220D01*
X23865840Y-18552160D01*
X23964900Y-18569940D01*
X24010620Y-18580100D01*
X24020780Y-18595340D01*
X24056340Y-18661380D01*
X24104600Y-18768060D01*
X24160480Y-18895060D01*
X24216360Y-19029680D01*
X24264620Y-19151600D01*
X24297640Y-19245580D01*
X24310340Y-19293840D01*
X24292560Y-19329400D01*
X24239220Y-19410680D01*
X24163020Y-19527520D01*
X24069040Y-19664680D01*
X23975060Y-19801840D01*
X23896320Y-19918680D01*
X23840440Y-20002500D01*
X23817580Y-20040600D01*
X23830280Y-20068540D01*
X23883620Y-20134580D01*
X23987760Y-20241260D01*
X24142700Y-20393660D01*
X24168100Y-20419060D01*
X24290020Y-20535900D01*
X24394160Y-20632420D01*
X24465280Y-20695920D01*
X24498300Y-20721320D01*
D18*
G36*
X48133000Y-80137000D02*
X41529000Y-80137000D01*
X41529000Y-75057000D01*
X48133000Y-75057000D01*
X48133000Y-80137000D01*
X48133000Y-80137000D01*
G37*
X48133000Y-80137000D02*
X41529000Y-80137000D01*
X41529000Y-75057000D01*
X48133000Y-75057000D01*
X48133000Y-80137000D01*
%LPC*%
D19*
X45720000Y-15240000D03*
D20*
X43180000Y-15240000D03*
D19*
X77978000Y-70826000D03*
X77978000Y-75906000D03*
X77978000Y-73366000D03*
X77978000Y-68286000D03*
X77978000Y-65746000D03*
X77978000Y-63206000D03*
X77978000Y-60666000D03*
X77978000Y-58126000D03*
X77978000Y-55586000D03*
X77978000Y-53046000D03*
X77978000Y-50506000D03*
X77978000Y-78446000D03*
X77978000Y-37795200D03*
X77978000Y-42875200D03*
X77978000Y-40335200D03*
X77978000Y-35255200D03*
X77978000Y-32715200D03*
X77978000Y-30175200D03*
X77978000Y-27635200D03*
X77978000Y-25095200D03*
X77978000Y-22555200D03*
X77978000Y-20015200D03*
X77978000Y-17475200D03*
X77978000Y-45415200D03*
X17018000Y-58166000D03*
X17018000Y-53086000D03*
X17018000Y-55626000D03*
X17018000Y-60706000D03*
X17018000Y-63246000D03*
X17018000Y-65786000D03*
X17018000Y-68326000D03*
X17018000Y-70866000D03*
X17018000Y-73406000D03*
X17018000Y-75946000D03*
X17018000Y-78486000D03*
X17018000Y-50546000D03*
X17018000Y-25146000D03*
X17018000Y-20066000D03*
X17018000Y-22606000D03*
X17018000Y-27686000D03*
X17018000Y-30226000D03*
X17018000Y-32766000D03*
X17018000Y-35306000D03*
X17018000Y-37846000D03*
X17018000Y-40386000D03*
X17018000Y-42926000D03*
X17018000Y-45466000D03*
X17018000Y-17526000D03*
D21*
X62605080Y-68944376D03*
X62605080Y-66404376D03*
X62605080Y-63864376D03*
X62605080Y-61324376D03*
X62605080Y-58784376D03*
X62605080Y-56244376D03*
X62605080Y-53704376D03*
X62605080Y-51164376D03*
X62605080Y-48624376D03*
X62605080Y-46084376D03*
X62605080Y-43544376D03*
X62605080Y-41004376D03*
X62605080Y-38464376D03*
X62605080Y-35924376D03*
X62605080Y-33384376D03*
X62605080Y-30844376D03*
X62605080Y-28304376D03*
X47365080Y-23224376D03*
X47365080Y-25764376D03*
X47365080Y-28304376D03*
X47365080Y-30844376D03*
X47365080Y-33384376D03*
X47365080Y-35924376D03*
X47365080Y-38464376D03*
X47365080Y-41004376D03*
X47365080Y-43544376D03*
X47365080Y-46084376D03*
X47365080Y-48624376D03*
X47365080Y-51164376D03*
X47365080Y-53704376D03*
X47365080Y-56244376D03*
X47365080Y-58784376D03*
X47365080Y-61324376D03*
X47365080Y-63864376D03*
X47365080Y-66404376D03*
X47365080Y-71535176D03*
D22*
X47365080Y-68944376D03*
X62605080Y-25764376D03*
X62605080Y-23224376D03*
D21*
X62605080Y-71432401D03*
D23*
X68588242Y-78445360D03*
X71128242Y-78445360D03*
X66048242Y-78445360D03*
D24*
X68580000Y-17486000D03*
D23*
X66040000Y-17486000D03*
X71120000Y-17486000D03*
D25*
X35146000Y-70110160D03*
X37846000Y-70110160D03*
X35146000Y-55570160D03*
X37846000Y-55570160D03*
X35146000Y-41030160D03*
X37846000Y-41030160D03*
D10*
G36*
X25645786Y-71809373D02*
X24343510Y-72902112D01*
X23122214Y-71446627D01*
X24424490Y-70353888D01*
X25645786Y-71809373D01*
X25645786Y-71809373D01*
G37*
G36*
X23910260Y-69741053D02*
X22607984Y-70833792D01*
X21386688Y-69378307D01*
X22688964Y-68285568D01*
X23910260Y-69741053D01*
X23910260Y-69741053D01*
G37*
G36*
X25603312Y-57367693D02*
X24301036Y-58460432D01*
X23079740Y-57004947D01*
X24382016Y-55912208D01*
X25603312Y-57367693D01*
X25603312Y-57367693D01*
G37*
G36*
X23867786Y-55299373D02*
X22565510Y-56392112D01*
X21344214Y-54936627D01*
X22646490Y-53843888D01*
X23867786Y-55299373D01*
X23867786Y-55299373D01*
G37*
G36*
X25645786Y-42853373D02*
X24343510Y-43946112D01*
X23122214Y-42490627D01*
X24424490Y-41397888D01*
X25645786Y-42853373D01*
X25645786Y-42853373D01*
G37*
G36*
X23910260Y-40785053D02*
X22607984Y-41877792D01*
X21386688Y-40422307D01*
X22688964Y-39329568D01*
X23910260Y-40785053D01*
X23910260Y-40785053D01*
G37*
D25*
X35146000Y-72211840D03*
X37846000Y-72211840D03*
X35146000Y-57671840D03*
X37846000Y-57671840D03*
X35146000Y-43131840D03*
X37846000Y-43131840D03*
D26*
X26937001Y-65262000D03*
X26937001Y-66532000D03*
X26937001Y-67802000D03*
X26937001Y-69072000D03*
X26937001Y-70342000D03*
X26937001Y-71612000D03*
X26937001Y-72882000D03*
X32337001Y-72882000D03*
X32337001Y-71612000D03*
X32337001Y-70342000D03*
X32337001Y-69072000D03*
X32337001Y-67802000D03*
X32337001Y-66532000D03*
X32337001Y-65262000D03*
X26937001Y-50722000D03*
X26937001Y-51992000D03*
X26937001Y-53262000D03*
X26937001Y-54532000D03*
X26937001Y-55802000D03*
X26937001Y-57072000D03*
X26937001Y-58342000D03*
X32337001Y-58342000D03*
X32337001Y-57072000D03*
X32337001Y-55802000D03*
X32337001Y-54532000D03*
X32337001Y-53262000D03*
X32337001Y-51992000D03*
X32337001Y-50722000D03*
X26937001Y-36182000D03*
X26937001Y-37452000D03*
X26937001Y-38722000D03*
X26937001Y-39992000D03*
X26937001Y-41262000D03*
X26937001Y-42532000D03*
X26937001Y-43802000D03*
X32337001Y-43802000D03*
X32337001Y-42532000D03*
X32337001Y-41262000D03*
X32337001Y-39992000D03*
X32337001Y-38722000D03*
X32337001Y-37452000D03*
X32337001Y-36182000D03*
D25*
X35146000Y-65767440D03*
X37846000Y-65767440D03*
X35146000Y-51227440D03*
X37846000Y-51227440D03*
X35146000Y-36687440D03*
X37846000Y-36687440D03*
X35146000Y-67869120D03*
X37846000Y-67869120D03*
X35146000Y-53329120D03*
X37846000Y-53329120D03*
X35146000Y-38789120D03*
X37846000Y-38789120D03*
D10*
G36*
X25751549Y-68457533D02*
X24449273Y-69550272D01*
X23227977Y-68094787D01*
X24530253Y-67002048D01*
X25751549Y-68457533D01*
X25751549Y-68457533D01*
G37*
G36*
X24016023Y-66389213D02*
X22713747Y-67481952D01*
X21492451Y-66026467D01*
X22794727Y-64933728D01*
X24016023Y-66389213D01*
X24016023Y-66389213D01*
G37*
G36*
X25751549Y-53917533D02*
X24449273Y-55010272D01*
X23227977Y-53554787D01*
X24530253Y-52462048D01*
X25751549Y-53917533D01*
X25751549Y-53917533D01*
G37*
G36*
X24016023Y-51849213D02*
X22713747Y-52941952D01*
X21492451Y-51486467D01*
X22794727Y-50393728D01*
X24016023Y-51849213D01*
X24016023Y-51849213D01*
G37*
G36*
X25751549Y-39377533D02*
X24449273Y-40470272D01*
X23227977Y-39014787D01*
X24530253Y-37922048D01*
X25751549Y-39377533D01*
X25751549Y-39377533D01*
G37*
G36*
X24016023Y-37309213D02*
X22713747Y-38401952D01*
X21492451Y-36946467D01*
X22794727Y-35853728D01*
X24016023Y-37309213D01*
X24016023Y-37309213D01*
G37*
D27*
X51054000Y-71534000D03*
X52324000Y-71534000D03*
X53594000Y-71534000D03*
X54864000Y-71534000D03*
X56134000Y-71534000D03*
X57404000Y-71534000D03*
X58674000Y-71534000D03*
X58674000Y-66134000D03*
X57404000Y-66134000D03*
X56134000Y-66134000D03*
X54864000Y-66134000D03*
X53594000Y-66134000D03*
X52324000Y-66134000D03*
X51054000Y-66134000D03*
D10*
G36*
X25751549Y-24837533D02*
X24449273Y-25930272D01*
X23227977Y-24474787D01*
X24530253Y-23382048D01*
X25751549Y-24837533D01*
X25751549Y-24837533D01*
G37*
G36*
X24016023Y-22769213D02*
X22713747Y-23861952D01*
X21492451Y-22406467D01*
X22794727Y-21313728D01*
X24016023Y-22769213D01*
X24016023Y-22769213D01*
G37*
D25*
X35146000Y-28591840D03*
X37846000Y-28591840D03*
X35146000Y-22147440D03*
X37846000Y-22147440D03*
X40640000Y-72211840D03*
X43340000Y-72211840D03*
X40640000Y-65767440D03*
X43340000Y-65767440D03*
X40640000Y-57671840D03*
X43340000Y-57671840D03*
X40640000Y-51227440D03*
X43340000Y-51227440D03*
X40640000Y-43131840D03*
X43340000Y-43131840D03*
X40640000Y-36687440D03*
X43340000Y-36687440D03*
X40640000Y-28591840D03*
X43340000Y-28591840D03*
X40640000Y-24249120D03*
X43340000Y-24249120D03*
D28*
X43383200Y-48615600D03*
X43383200Y-45915600D03*
D25*
X35146000Y-24249120D03*
X37846000Y-24249120D03*
D28*
X56391007Y-32458829D03*
X56391007Y-35158829D03*
X53851007Y-35158829D03*
X53851007Y-32458829D03*
X58931007Y-32458829D03*
X58931007Y-35158829D03*
X51311007Y-35158829D03*
X51311007Y-32458829D03*
X56642000Y-19998829D03*
X56642000Y-17298829D03*
X53934671Y-19998829D03*
X53934671Y-17298829D03*
X58931007Y-19998829D03*
X58931007Y-17298829D03*
X51311007Y-17298829D03*
X51311007Y-19998829D03*
X56388000Y-53688000D03*
X56388000Y-56388000D03*
X53848000Y-56388000D03*
X53848000Y-53688000D03*
X58928000Y-53688000D03*
X58928000Y-56388000D03*
X51308000Y-56388000D03*
X51308000Y-53688000D03*
X56388000Y-41308000D03*
X56388000Y-38608000D03*
X53848000Y-41308000D03*
X53848000Y-38608000D03*
X58928000Y-41308000D03*
X58928000Y-38608000D03*
X51308000Y-38608000D03*
X51308000Y-41308000D03*
X56134000Y-75024000D03*
X56134000Y-77724000D03*
X53594000Y-77724000D03*
X53594000Y-75024000D03*
X58674000Y-75024000D03*
X58674000Y-77724000D03*
X51054000Y-77724000D03*
X51054000Y-75024000D03*
X56134000Y-62484000D03*
X56134000Y-59784000D03*
X53594000Y-62484000D03*
X53594000Y-59784000D03*
X58674000Y-62484000D03*
X58674000Y-59784000D03*
X51054000Y-59784000D03*
X51054000Y-62484000D03*
D25*
X70278000Y-25261455D03*
X72978000Y-25261455D03*
X70278000Y-29545868D03*
X72978000Y-29545868D03*
X70278000Y-33830281D03*
X72978000Y-33830281D03*
X70278000Y-38114694D03*
X72978000Y-38114694D03*
X70278000Y-42399107D03*
X72978000Y-42399107D03*
X70278000Y-46683520D03*
X72978000Y-46683520D03*
X70278000Y-50967933D03*
X72978000Y-50967933D03*
X70278000Y-55252346D03*
X72978000Y-55252346D03*
X70278000Y-59536759D03*
X72978000Y-59536759D03*
X70278000Y-63821172D03*
X72978000Y-63821172D03*
X70278000Y-68105585D03*
X72978000Y-68105585D03*
X70278000Y-72389998D03*
X72978000Y-72389998D03*
D26*
X26937001Y-21642000D03*
X26937001Y-22912000D03*
X26937001Y-24182000D03*
X26937001Y-25452000D03*
X26937001Y-26722000D03*
X26937001Y-27992000D03*
X26937001Y-29262000D03*
X32337001Y-29262000D03*
X32337001Y-27992000D03*
X32337001Y-26722000D03*
X32337001Y-25452000D03*
X32337001Y-24182000D03*
X32337001Y-22912000D03*
X32337001Y-21642000D03*
D27*
X51562000Y-29022000D03*
X52832000Y-29022000D03*
X54102000Y-29022000D03*
X55372000Y-29022000D03*
X56642000Y-29022000D03*
X57912000Y-29022000D03*
X59182000Y-29022000D03*
X59182000Y-23622000D03*
X57912000Y-23622000D03*
X56642000Y-23622000D03*
X55372000Y-23622000D03*
X54102000Y-23622000D03*
X52832000Y-23622000D03*
X51562000Y-23622000D03*
X51308000Y-50358000D03*
X52578000Y-50358000D03*
X53848000Y-50358000D03*
X55118000Y-50358000D03*
X56388000Y-50358000D03*
X57658000Y-50358000D03*
X58928000Y-50358000D03*
X58928000Y-44958000D03*
X57658000Y-44958000D03*
X56388000Y-44958000D03*
X55118000Y-44958000D03*
X53848000Y-44958000D03*
X52578000Y-44958000D03*
X51308000Y-44958000D03*
D10*
G36*
X25603312Y-28375373D02*
X24301036Y-29468112D01*
X23079740Y-28012627D01*
X24382016Y-26919888D01*
X25603312Y-28375373D01*
X25603312Y-28375373D01*
G37*
G36*
X23867786Y-26307053D02*
X22565510Y-27399792D01*
X21344214Y-25944307D01*
X22646490Y-24851568D01*
X23867786Y-26307053D01*
X23867786Y-26307053D01*
G37*
D25*
X35146000Y-26490160D03*
X37846000Y-26490160D03*
D24*
X25400000Y-78486000D03*
D23*
X27940000Y-78486000D03*
X30480000Y-78486000D03*
X33020000Y-78486000D03*
X35560000Y-78486000D03*
X38100000Y-78486000D03*
M02*
