G04 #@! TF.FileFunction,Legend,Bot*
%FSLAX46Y46*%
G04 Gerber Fmt 4.6, Leading zero omitted, Abs format (unit mm)*
G04 Created by KiCad (PCBNEW 4.0.2+dfsg1-stable) date Sun 27 May 2018 10:56:58 CEST*
%MOMM*%
G01*
G04 APERTURE LIST*
%ADD10C,0.100000*%
%ADD11C,0.200000*%
%ADD12C,0.150000*%
%ADD13C,0.254000*%
%ADD14O,2.398980X2.398980*%
%ADD15R,2.398980X2.398980*%
%ADD16O,2.650000X2.127200*%
%ADD17R,2.650000X2.127200*%
%ADD18O,2.127200X2.432000*%
%ADD19R,2.127200X2.432000*%
%ADD20R,1.700000X1.900000*%
%ADD21R,1.900000X1.700000*%
%ADD22R,2.200860X1.200100*%
G04 APERTURE END LIST*
D10*
D11*
X44259500Y-13716000D02*
X42672000Y-13589000D01*
X45021500Y-13652500D02*
X46355000Y-12890500D01*
X68566489Y-16116262D02*
G75*
G03X66040000Y-16129000I-1256489J-1346238D01*
G01*
X71668282Y-20625191D02*
X71668282Y-19625191D01*
X71668282Y-19910906D02*
X71596854Y-19768049D01*
X71525425Y-19696620D01*
X71382568Y-19625191D01*
X71239711Y-19625191D01*
X70168283Y-20553763D02*
X70311140Y-20625191D01*
X70596854Y-20625191D01*
X70739711Y-20553763D01*
X70811140Y-20410906D01*
X70811140Y-19839477D01*
X70739711Y-19696620D01*
X70596854Y-19625191D01*
X70311140Y-19625191D01*
X70168283Y-19696620D01*
X70096854Y-19839477D01*
X70096854Y-19982334D01*
X70811140Y-20125191D01*
X69525426Y-20553763D02*
X69382569Y-20625191D01*
X69096854Y-20625191D01*
X68953997Y-20553763D01*
X68882569Y-20410906D01*
X68882569Y-20339477D01*
X68953997Y-20196620D01*
X69096854Y-20125191D01*
X69311140Y-20125191D01*
X69453997Y-20053763D01*
X69525426Y-19910906D01*
X69525426Y-19839477D01*
X69453997Y-19696620D01*
X69311140Y-19625191D01*
X69096854Y-19625191D01*
X68953997Y-19696620D01*
X67668283Y-20553763D02*
X67811140Y-20625191D01*
X68096854Y-20625191D01*
X68239711Y-20553763D01*
X68311140Y-20410906D01*
X68311140Y-19839477D01*
X68239711Y-19696620D01*
X68096854Y-19625191D01*
X67811140Y-19625191D01*
X67668283Y-19696620D01*
X67596854Y-19839477D01*
X67596854Y-19982334D01*
X68311140Y-20125191D01*
X67168283Y-19625191D02*
X66596854Y-19625191D01*
X66953997Y-19125191D02*
X66953997Y-20410906D01*
X66882569Y-20553763D01*
X66739711Y-20625191D01*
X66596854Y-20625191D01*
X66311140Y-19268049D02*
X66025426Y-19053763D01*
X65739711Y-19268049D01*
D12*
X38345477Y-74861381D02*
X38345477Y-73861381D01*
X38345477Y-74242333D02*
X38250239Y-74194714D01*
X38059762Y-74194714D01*
X37964524Y-74242333D01*
X37916905Y-74289952D01*
X37869286Y-74385190D01*
X37869286Y-74670905D01*
X37916905Y-74766143D01*
X37964524Y-74813762D01*
X38059762Y-74861381D01*
X38250239Y-74861381D01*
X38345477Y-74813762D01*
X37297858Y-74861381D02*
X37393096Y-74813762D01*
X37440715Y-74718524D01*
X37440715Y-73861381D01*
X36488333Y-74194714D02*
X36488333Y-74861381D01*
X36916905Y-74194714D02*
X36916905Y-74718524D01*
X36869286Y-74813762D01*
X36774048Y-74861381D01*
X36631190Y-74861381D01*
X36535952Y-74813762D01*
X36488333Y-74766143D01*
X35631190Y-74813762D02*
X35726428Y-74861381D01*
X35916905Y-74861381D01*
X36012143Y-74813762D01*
X36059762Y-74718524D01*
X36059762Y-74337571D01*
X36012143Y-74242333D01*
X35916905Y-74194714D01*
X35726428Y-74194714D01*
X35631190Y-74242333D01*
X35583571Y-74337571D01*
X35583571Y-74432810D01*
X36059762Y-74528048D01*
X34393095Y-74194714D02*
X34393095Y-75194714D01*
X34393095Y-74242333D02*
X34297857Y-74194714D01*
X34107380Y-74194714D01*
X34012142Y-74242333D01*
X33964523Y-74289952D01*
X33916904Y-74385190D01*
X33916904Y-74670905D01*
X33964523Y-74766143D01*
X34012142Y-74813762D01*
X34107380Y-74861381D01*
X34297857Y-74861381D01*
X34393095Y-74813762D01*
X33488333Y-74861381D02*
X33488333Y-74194714D01*
X33488333Y-73861381D02*
X33535952Y-73909000D01*
X33488333Y-73956619D01*
X33440714Y-73909000D01*
X33488333Y-73861381D01*
X33488333Y-73956619D01*
X32869286Y-74861381D02*
X32964524Y-74813762D01*
X33012143Y-74718524D01*
X33012143Y-73861381D01*
X32345476Y-74861381D02*
X32440714Y-74813762D01*
X32488333Y-74718524D01*
X32488333Y-73861381D01*
X30774046Y-74861381D02*
X30774046Y-74337571D01*
X30821665Y-74242333D01*
X30916903Y-74194714D01*
X31107380Y-74194714D01*
X31202618Y-74242333D01*
X30774046Y-74813762D02*
X30869284Y-74861381D01*
X31107380Y-74861381D01*
X31202618Y-74813762D01*
X31250237Y-74718524D01*
X31250237Y-74623286D01*
X31202618Y-74528048D01*
X31107380Y-74480429D01*
X30869284Y-74480429D01*
X30774046Y-74432810D01*
X30297856Y-74194714D02*
X30297856Y-74861381D01*
X30297856Y-74289952D02*
X30250237Y-74242333D01*
X30154999Y-74194714D01*
X30012141Y-74194714D01*
X29916903Y-74242333D01*
X29869284Y-74337571D01*
X29869284Y-74861381D01*
X28964522Y-74861381D02*
X28964522Y-73861381D01*
X28964522Y-74813762D02*
X29059760Y-74861381D01*
X29250237Y-74861381D01*
X29345475Y-74813762D01*
X29393094Y-74766143D01*
X29440713Y-74670905D01*
X29440713Y-74385190D01*
X29393094Y-74289952D01*
X29345475Y-74242333D01*
X29250237Y-74194714D01*
X29059760Y-74194714D01*
X28964522Y-74242333D01*
X39416905Y-75744714D02*
X39416905Y-76744714D01*
X39416905Y-75792333D02*
X39321667Y-75744714D01*
X39131190Y-75744714D01*
X39035952Y-75792333D01*
X38988333Y-75839952D01*
X38940714Y-75935190D01*
X38940714Y-76220905D01*
X38988333Y-76316143D01*
X39035952Y-76363762D01*
X39131190Y-76411381D01*
X39321667Y-76411381D01*
X39416905Y-76363762D01*
X38512143Y-76411381D02*
X38512143Y-75744714D01*
X38512143Y-75935190D02*
X38464524Y-75839952D01*
X38416905Y-75792333D01*
X38321667Y-75744714D01*
X38226428Y-75744714D01*
X37512142Y-76363762D02*
X37607380Y-76411381D01*
X37797857Y-76411381D01*
X37893095Y-76363762D01*
X37940714Y-76268524D01*
X37940714Y-75887571D01*
X37893095Y-75792333D01*
X37797857Y-75744714D01*
X37607380Y-75744714D01*
X37512142Y-75792333D01*
X37464523Y-75887571D01*
X37464523Y-75982810D01*
X37940714Y-76078048D01*
X37035952Y-76030429D02*
X36274047Y-76030429D01*
X35369285Y-76411381D02*
X35369285Y-75887571D01*
X35416904Y-75792333D01*
X35512142Y-75744714D01*
X35702619Y-75744714D01*
X35797857Y-75792333D01*
X35369285Y-76363762D02*
X35464523Y-76411381D01*
X35702619Y-76411381D01*
X35797857Y-76363762D01*
X35845476Y-76268524D01*
X35845476Y-76173286D01*
X35797857Y-76078048D01*
X35702619Y-76030429D01*
X35464523Y-76030429D01*
X35369285Y-75982810D01*
X34893095Y-76411381D02*
X34893095Y-75744714D01*
X34893095Y-75839952D02*
X34845476Y-75792333D01*
X34750238Y-75744714D01*
X34607380Y-75744714D01*
X34512142Y-75792333D01*
X34464523Y-75887571D01*
X34464523Y-76411381D01*
X34464523Y-75887571D02*
X34416904Y-75792333D01*
X34321666Y-75744714D01*
X34178809Y-75744714D01*
X34083571Y-75792333D01*
X34035952Y-75887571D01*
X34035952Y-76411381D01*
X33559762Y-75744714D02*
X33559762Y-76744714D01*
X33559762Y-75792333D02*
X33464524Y-75744714D01*
X33274047Y-75744714D01*
X33178809Y-75792333D01*
X33131190Y-75839952D01*
X33083571Y-75935190D01*
X33083571Y-76220905D01*
X33131190Y-76316143D01*
X33178809Y-76363762D01*
X33274047Y-76411381D01*
X33464524Y-76411381D01*
X33559762Y-76363762D01*
X31464523Y-76411381D02*
X31464523Y-75411381D01*
X31464523Y-76363762D02*
X31559761Y-76411381D01*
X31750238Y-76411381D01*
X31845476Y-76363762D01*
X31893095Y-76316143D01*
X31940714Y-76220905D01*
X31940714Y-75935190D01*
X31893095Y-75839952D01*
X31845476Y-75792333D01*
X31750238Y-75744714D01*
X31559761Y-75744714D01*
X31464523Y-75792333D01*
X30607380Y-76363762D02*
X30702618Y-76411381D01*
X30893095Y-76411381D01*
X30988333Y-76363762D01*
X31035952Y-76268524D01*
X31035952Y-75887571D01*
X30988333Y-75792333D01*
X30893095Y-75744714D01*
X30702618Y-75744714D01*
X30607380Y-75792333D01*
X30559761Y-75887571D01*
X30559761Y-75982810D01*
X31035952Y-76078048D01*
X30131190Y-76411381D02*
X30131190Y-75411381D01*
X30131190Y-75792333D02*
X30035952Y-75744714D01*
X29845475Y-75744714D01*
X29750237Y-75792333D01*
X29702618Y-75839952D01*
X29654999Y-75935190D01*
X29654999Y-76220905D01*
X29702618Y-76316143D01*
X29750237Y-76363762D01*
X29845475Y-76411381D01*
X30035952Y-76411381D01*
X30131190Y-76363762D01*
X28797856Y-75744714D02*
X28797856Y-76411381D01*
X29226428Y-75744714D02*
X29226428Y-76268524D01*
X29178809Y-76363762D01*
X29083571Y-76411381D01*
X28940713Y-76411381D01*
X28845475Y-76363762D01*
X28797856Y-76316143D01*
X27893094Y-75744714D02*
X27893094Y-76554238D01*
X27940713Y-76649476D01*
X27988332Y-76697095D01*
X28083571Y-76744714D01*
X28226428Y-76744714D01*
X28321666Y-76697095D01*
X27893094Y-76363762D02*
X27988332Y-76411381D01*
X28178809Y-76411381D01*
X28274047Y-76363762D01*
X28321666Y-76316143D01*
X28369285Y-76220905D01*
X28369285Y-75935190D01*
X28321666Y-75839952D01*
X28274047Y-75792333D01*
X28178809Y-75744714D01*
X27988332Y-75744714D01*
X27893094Y-75792333D01*
X72675239Y-76207881D02*
X72770477Y-76160262D01*
X72818096Y-76065024D01*
X72818096Y-75207881D01*
X71865714Y-76207881D02*
X71865714Y-75684071D01*
X71913333Y-75588833D01*
X72008571Y-75541214D01*
X72199048Y-75541214D01*
X72294286Y-75588833D01*
X71865714Y-76160262D02*
X71960952Y-76207881D01*
X72199048Y-76207881D01*
X72294286Y-76160262D01*
X72341905Y-76065024D01*
X72341905Y-75969786D01*
X72294286Y-75874548D01*
X72199048Y-75826929D01*
X71960952Y-75826929D01*
X71865714Y-75779310D01*
X71437143Y-76160262D02*
X71341905Y-76207881D01*
X71151429Y-76207881D01*
X71056190Y-76160262D01*
X71008571Y-76065024D01*
X71008571Y-76017405D01*
X71056190Y-75922167D01*
X71151429Y-75874548D01*
X71294286Y-75874548D01*
X71389524Y-75826929D01*
X71437143Y-75731690D01*
X71437143Y-75684071D01*
X71389524Y-75588833D01*
X71294286Y-75541214D01*
X71151429Y-75541214D01*
X71056190Y-75588833D01*
X70199047Y-76160262D02*
X70294285Y-76207881D01*
X70484762Y-76207881D01*
X70580000Y-76160262D01*
X70627619Y-76065024D01*
X70627619Y-75684071D01*
X70580000Y-75588833D01*
X70484762Y-75541214D01*
X70294285Y-75541214D01*
X70199047Y-75588833D01*
X70151428Y-75684071D01*
X70151428Y-75779310D01*
X70627619Y-75874548D01*
X69722857Y-76207881D02*
X69722857Y-75541214D01*
X69722857Y-75731690D02*
X69675238Y-75636452D01*
X69627619Y-75588833D01*
X69532381Y-75541214D01*
X69437142Y-75541214D01*
X67913332Y-76207881D02*
X67913332Y-75207881D01*
X67913332Y-76160262D02*
X68008570Y-76207881D01*
X68199047Y-76207881D01*
X68294285Y-76160262D01*
X68341904Y-76112643D01*
X68389523Y-76017405D01*
X68389523Y-75731690D01*
X68341904Y-75636452D01*
X68294285Y-75588833D01*
X68199047Y-75541214D01*
X68008570Y-75541214D01*
X67913332Y-75588833D01*
X67056189Y-76160262D02*
X67151427Y-76207881D01*
X67341904Y-76207881D01*
X67437142Y-76160262D01*
X67484761Y-76065024D01*
X67484761Y-75684071D01*
X67437142Y-75588833D01*
X67341904Y-75541214D01*
X67151427Y-75541214D01*
X67056189Y-75588833D01*
X67008570Y-75684071D01*
X67008570Y-75779310D01*
X67484761Y-75874548D01*
X66579999Y-76207881D02*
X66579999Y-75207881D01*
X66579999Y-75588833D02*
X66484761Y-75541214D01*
X66294284Y-75541214D01*
X66199046Y-75588833D01*
X66151427Y-75636452D01*
X66103808Y-75731690D01*
X66103808Y-76017405D01*
X66151427Y-76112643D01*
X66199046Y-76160262D01*
X66294284Y-76207881D01*
X66484761Y-76207881D01*
X66579999Y-76160262D01*
X65246665Y-75541214D02*
X65246665Y-76207881D01*
X65675237Y-75541214D02*
X65675237Y-76065024D01*
X65627618Y-76160262D01*
X65532380Y-76207881D01*
X65389522Y-76207881D01*
X65294284Y-76160262D01*
X65246665Y-76112643D01*
X64341903Y-75541214D02*
X64341903Y-76350738D01*
X64389522Y-76445976D01*
X64437141Y-76493595D01*
X64532380Y-76541214D01*
X64675237Y-76541214D01*
X64770475Y-76493595D01*
X64341903Y-76160262D02*
X64437141Y-76207881D01*
X64627618Y-76207881D01*
X64722856Y-76160262D01*
X64770475Y-76112643D01*
X64818094Y-76017405D01*
X64818094Y-75731690D01*
X64770475Y-75636452D01*
X64722856Y-75588833D01*
X64627618Y-75541214D01*
X64437141Y-75541214D01*
X64341903Y-75588833D01*
X48981857Y-17597381D02*
X49553286Y-17597381D01*
X49267572Y-17597381D02*
X49267572Y-16597381D01*
X49362810Y-16740238D01*
X49458048Y-16835476D01*
X49553286Y-16883095D01*
X48600905Y-16692619D02*
X48553286Y-16645000D01*
X48458048Y-16597381D01*
X48219952Y-16597381D01*
X48124714Y-16645000D01*
X48077095Y-16692619D01*
X48029476Y-16787857D01*
X48029476Y-16883095D01*
X48077095Y-17025952D01*
X48648524Y-17597381D01*
X48029476Y-17597381D01*
X47696143Y-16930714D02*
X47458048Y-17597381D01*
X47219952Y-16930714D01*
X46077095Y-17597381D02*
X46077095Y-16930714D01*
X46077095Y-16597381D02*
X46124714Y-16645000D01*
X46077095Y-16692619D01*
X46029476Y-16645000D01*
X46077095Y-16597381D01*
X46077095Y-16692619D01*
X45600905Y-16930714D02*
X45600905Y-17597381D01*
X45600905Y-17025952D02*
X45553286Y-16978333D01*
X45458048Y-16930714D01*
X45315190Y-16930714D01*
X45219952Y-16978333D01*
X45172333Y-17073571D01*
X45172333Y-17597381D01*
X44458048Y-17930714D02*
X44458048Y-16502143D01*
X43219952Y-16645000D02*
X43315190Y-16597381D01*
X43458047Y-16597381D01*
X43600905Y-16645000D01*
X43696143Y-16740238D01*
X43743762Y-16835476D01*
X43791381Y-17025952D01*
X43791381Y-17168810D01*
X43743762Y-17359286D01*
X43696143Y-17454524D01*
X43600905Y-17549762D01*
X43458047Y-17597381D01*
X43362809Y-17597381D01*
X43219952Y-17549762D01*
X43172333Y-17502143D01*
X43172333Y-17168810D01*
X43362809Y-17168810D01*
X42743762Y-17597381D02*
X42743762Y-16597381D01*
X42172333Y-17597381D01*
X42172333Y-16597381D01*
X41696143Y-17597381D02*
X41696143Y-16597381D01*
X41458048Y-16597381D01*
X41315190Y-16645000D01*
X41219952Y-16740238D01*
X41172333Y-16835476D01*
X41124714Y-17025952D01*
X41124714Y-17168810D01*
X41172333Y-17359286D01*
X41219952Y-17454524D01*
X41315190Y-17549762D01*
X41458048Y-17597381D01*
X41696143Y-17597381D01*
D11*
X49974500Y-15621000D02*
X59944000Y-15621000D01*
X59423571Y-16569571D02*
X58852142Y-16569571D01*
X59209285Y-16069571D02*
X59209285Y-17355286D01*
X59137857Y-17498143D01*
X58994999Y-17569571D01*
X58852142Y-17569571D01*
X58352142Y-17569571D02*
X58352142Y-16569571D01*
X58352142Y-16855286D02*
X58280714Y-16712429D01*
X58209285Y-16641000D01*
X58066428Y-16569571D01*
X57923571Y-16569571D01*
X57423571Y-17569571D02*
X57423571Y-16569571D01*
X57423571Y-16069571D02*
X57495000Y-16141000D01*
X57423571Y-16212429D01*
X57352143Y-16141000D01*
X57423571Y-16069571D01*
X57423571Y-16212429D01*
X56066428Y-16569571D02*
X56066428Y-17783857D01*
X56137857Y-17926714D01*
X56209285Y-17998143D01*
X56352142Y-18069571D01*
X56566428Y-18069571D01*
X56709285Y-17998143D01*
X56066428Y-17498143D02*
X56209285Y-17569571D01*
X56494999Y-17569571D01*
X56637857Y-17498143D01*
X56709285Y-17426714D01*
X56780714Y-17283857D01*
X56780714Y-16855286D01*
X56709285Y-16712429D01*
X56637857Y-16641000D01*
X56494999Y-16569571D01*
X56209285Y-16569571D01*
X56066428Y-16641000D01*
X54709285Y-16569571D02*
X54709285Y-17783857D01*
X54780714Y-17926714D01*
X54852142Y-17998143D01*
X54994999Y-18069571D01*
X55209285Y-18069571D01*
X55352142Y-17998143D01*
X54709285Y-17498143D02*
X54852142Y-17569571D01*
X55137856Y-17569571D01*
X55280714Y-17498143D01*
X55352142Y-17426714D01*
X55423571Y-17283857D01*
X55423571Y-16855286D01*
X55352142Y-16712429D01*
X55280714Y-16641000D01*
X55137856Y-16569571D01*
X54852142Y-16569571D01*
X54709285Y-16641000D01*
X53423571Y-17498143D02*
X53566428Y-17569571D01*
X53852142Y-17569571D01*
X53994999Y-17498143D01*
X54066428Y-17355286D01*
X54066428Y-16783857D01*
X53994999Y-16641000D01*
X53852142Y-16569571D01*
X53566428Y-16569571D01*
X53423571Y-16641000D01*
X53352142Y-16783857D01*
X53352142Y-16926714D01*
X54066428Y-17069571D01*
X52709285Y-17569571D02*
X52709285Y-16569571D01*
X52709285Y-16855286D02*
X52637857Y-16712429D01*
X52566428Y-16641000D01*
X52423571Y-16569571D01*
X52280714Y-16569571D01*
X51852143Y-17498143D02*
X51709286Y-17569571D01*
X51423571Y-17569571D01*
X51280714Y-17498143D01*
X51209286Y-17355286D01*
X51209286Y-17283857D01*
X51280714Y-17141000D01*
X51423571Y-17069571D01*
X51637857Y-17069571D01*
X51780714Y-16998143D01*
X51852143Y-16855286D01*
X51852143Y-16783857D01*
X51780714Y-16641000D01*
X51637857Y-16569571D01*
X51423571Y-16569571D01*
X51280714Y-16641000D01*
X59610071Y-14775571D02*
X59610071Y-13275571D01*
X59610071Y-13847000D02*
X59467214Y-13775571D01*
X59181500Y-13775571D01*
X59038643Y-13847000D01*
X58967214Y-13918429D01*
X58895785Y-14061286D01*
X58895785Y-14489857D01*
X58967214Y-14632714D01*
X59038643Y-14704143D01*
X59181500Y-14775571D01*
X59467214Y-14775571D01*
X59610071Y-14704143D01*
X58038642Y-14775571D02*
X58181500Y-14704143D01*
X58252928Y-14561286D01*
X58252928Y-13275571D01*
X56824357Y-13775571D02*
X56824357Y-14775571D01*
X57467214Y-13775571D02*
X57467214Y-14561286D01*
X57395786Y-14704143D01*
X57252928Y-14775571D01*
X57038643Y-14775571D01*
X56895786Y-14704143D01*
X56824357Y-14632714D01*
X55538643Y-14704143D02*
X55681500Y-14775571D01*
X55967214Y-14775571D01*
X56110071Y-14704143D01*
X56181500Y-14561286D01*
X56181500Y-13989857D01*
X56110071Y-13847000D01*
X55967214Y-13775571D01*
X55681500Y-13775571D01*
X55538643Y-13847000D01*
X55467214Y-13989857D01*
X55467214Y-14132714D01*
X56181500Y-14275571D01*
X53681500Y-13775571D02*
X53681500Y-15275571D01*
X53681500Y-13847000D02*
X53538643Y-13775571D01*
X53252929Y-13775571D01*
X53110072Y-13847000D01*
X53038643Y-13918429D01*
X52967214Y-14061286D01*
X52967214Y-14489857D01*
X53038643Y-14632714D01*
X53110072Y-14704143D01*
X53252929Y-14775571D01*
X53538643Y-14775571D01*
X53681500Y-14704143D01*
X52324357Y-14775571D02*
X52324357Y-13775571D01*
X52324357Y-13275571D02*
X52395786Y-13347000D01*
X52324357Y-13418429D01*
X52252929Y-13347000D01*
X52324357Y-13275571D01*
X52324357Y-13418429D01*
X51395785Y-14775571D02*
X51538643Y-14704143D01*
X51610071Y-14561286D01*
X51610071Y-13275571D01*
X50610071Y-14775571D02*
X50752929Y-14704143D01*
X50824357Y-14561286D01*
X50824357Y-13275571D01*
X26035000Y-13208000D02*
X26035000Y-15240000D01*
X38341428Y-13712071D02*
X38341428Y-15212071D01*
X38341428Y-13783500D02*
X38198571Y-13712071D01*
X37912857Y-13712071D01*
X37770000Y-13783500D01*
X37698571Y-13854929D01*
X37627142Y-13997786D01*
X37627142Y-14426357D01*
X37698571Y-14569214D01*
X37770000Y-14640643D01*
X37912857Y-14712071D01*
X38198571Y-14712071D01*
X38341428Y-14640643D01*
X36984285Y-14712071D02*
X36984285Y-13712071D01*
X36984285Y-13997786D02*
X36912857Y-13854929D01*
X36841428Y-13783500D01*
X36698571Y-13712071D01*
X36555714Y-13712071D01*
X35484286Y-14640643D02*
X35627143Y-14712071D01*
X35912857Y-14712071D01*
X36055714Y-14640643D01*
X36127143Y-14497786D01*
X36127143Y-13926357D01*
X36055714Y-13783500D01*
X35912857Y-13712071D01*
X35627143Y-13712071D01*
X35484286Y-13783500D01*
X35412857Y-13926357D01*
X35412857Y-14069214D01*
X36127143Y-14212071D01*
X34770000Y-14140643D02*
X33627143Y-14140643D01*
X32270000Y-14712071D02*
X32270000Y-13926357D01*
X32341429Y-13783500D01*
X32484286Y-13712071D01*
X32770000Y-13712071D01*
X32912857Y-13783500D01*
X32270000Y-14640643D02*
X32412857Y-14712071D01*
X32770000Y-14712071D01*
X32912857Y-14640643D01*
X32984286Y-14497786D01*
X32984286Y-14354929D01*
X32912857Y-14212071D01*
X32770000Y-14140643D01*
X32412857Y-14140643D01*
X32270000Y-14069214D01*
X31555714Y-14712071D02*
X31555714Y-13712071D01*
X31555714Y-13854929D02*
X31484286Y-13783500D01*
X31341428Y-13712071D01*
X31127143Y-13712071D01*
X30984286Y-13783500D01*
X30912857Y-13926357D01*
X30912857Y-14712071D01*
X30912857Y-13926357D02*
X30841428Y-13783500D01*
X30698571Y-13712071D01*
X30484286Y-13712071D01*
X30341428Y-13783500D01*
X30270000Y-13926357D01*
X30270000Y-14712071D01*
X29555714Y-13712071D02*
X29555714Y-15212071D01*
X29555714Y-13783500D02*
X29412857Y-13712071D01*
X29127143Y-13712071D01*
X28984286Y-13783500D01*
X28912857Y-13854929D01*
X28841428Y-13997786D01*
X28841428Y-14426357D01*
X28912857Y-14569214D01*
X28984286Y-14640643D01*
X29127143Y-14712071D01*
X29412857Y-14712071D01*
X29555714Y-14640643D01*
X28270000Y-14640643D02*
X28127143Y-14712071D01*
X27841428Y-14712071D01*
X27698571Y-14640643D01*
X27627143Y-14497786D01*
X27627143Y-14426357D01*
X27698571Y-14283500D01*
X27841428Y-14212071D01*
X28055714Y-14212071D01*
X28198571Y-14140643D01*
X28270000Y-13997786D01*
X28270000Y-13926357D01*
X28198571Y-13783500D01*
X28055714Y-13712071D01*
X27841428Y-13712071D01*
X27698571Y-13783500D01*
X24320000Y-14704143D02*
X24177143Y-14775571D01*
X23891428Y-14775571D01*
X23748571Y-14704143D01*
X23677143Y-14561286D01*
X23677143Y-14489857D01*
X23748571Y-14347000D01*
X23891428Y-14275571D01*
X24105714Y-14275571D01*
X24248571Y-14204143D01*
X24320000Y-14061286D01*
X24320000Y-13989857D01*
X24248571Y-13847000D01*
X24105714Y-13775571D01*
X23891428Y-13775571D01*
X23748571Y-13847000D01*
X22462857Y-14704143D02*
X22605714Y-14775571D01*
X22891428Y-14775571D01*
X23034285Y-14704143D01*
X23105714Y-14561286D01*
X23105714Y-13989857D01*
X23034285Y-13847000D01*
X22891428Y-13775571D01*
X22605714Y-13775571D01*
X22462857Y-13847000D01*
X22391428Y-13989857D01*
X22391428Y-14132714D01*
X23105714Y-14275571D01*
X21748571Y-13775571D02*
X21748571Y-14775571D01*
X21748571Y-13918429D02*
X21677143Y-13847000D01*
X21534285Y-13775571D01*
X21320000Y-13775571D01*
X21177143Y-13847000D01*
X21105714Y-13989857D01*
X21105714Y-14775571D01*
X20462857Y-14704143D02*
X20320000Y-14775571D01*
X20034285Y-14775571D01*
X19891428Y-14704143D01*
X19820000Y-14561286D01*
X19820000Y-14489857D01*
X19891428Y-14347000D01*
X20034285Y-14275571D01*
X20248571Y-14275571D01*
X20391428Y-14204143D01*
X20462857Y-14061286D01*
X20462857Y-13989857D01*
X20391428Y-13847000D01*
X20248571Y-13775571D01*
X20034285Y-13775571D01*
X19891428Y-13847000D01*
X18962856Y-14775571D02*
X19105714Y-14704143D01*
X19177142Y-14632714D01*
X19248571Y-14489857D01*
X19248571Y-14061286D01*
X19177142Y-13918429D01*
X19105714Y-13847000D01*
X18962856Y-13775571D01*
X18748571Y-13775571D01*
X18605714Y-13847000D01*
X18534285Y-13918429D01*
X18462856Y-14061286D01*
X18462856Y-14489857D01*
X18534285Y-14632714D01*
X18605714Y-14704143D01*
X18748571Y-14775571D01*
X18962856Y-14775571D01*
X17819999Y-14775571D02*
X17819999Y-13775571D01*
X17819999Y-14061286D02*
X17748571Y-13918429D01*
X17677142Y-13847000D01*
X17534285Y-13775571D01*
X17391428Y-13775571D01*
X16962857Y-14704143D02*
X16820000Y-14775571D01*
X16534285Y-14775571D01*
X16391428Y-14704143D01*
X16320000Y-14561286D01*
X16320000Y-14489857D01*
X16391428Y-14347000D01*
X16534285Y-14275571D01*
X16748571Y-14275571D01*
X16891428Y-14204143D01*
X16962857Y-14061286D01*
X16962857Y-13989857D01*
X16891428Y-13847000D01*
X16748571Y-13775571D01*
X16534285Y-13775571D01*
X16391428Y-13847000D01*
X80135464Y-15143871D02*
X80278322Y-15072443D01*
X80349750Y-14929586D01*
X80349750Y-13643871D01*
X78921179Y-15143871D02*
X78921179Y-14358157D01*
X78992608Y-14215300D01*
X79135465Y-14143871D01*
X79421179Y-14143871D01*
X79564036Y-14215300D01*
X78921179Y-15072443D02*
X79064036Y-15143871D01*
X79421179Y-15143871D01*
X79564036Y-15072443D01*
X79635465Y-14929586D01*
X79635465Y-14786729D01*
X79564036Y-14643871D01*
X79421179Y-14572443D01*
X79064036Y-14572443D01*
X78921179Y-14501014D01*
X78278322Y-15072443D02*
X78135465Y-15143871D01*
X77849750Y-15143871D01*
X77706893Y-15072443D01*
X77635465Y-14929586D01*
X77635465Y-14858157D01*
X77706893Y-14715300D01*
X77849750Y-14643871D01*
X78064036Y-14643871D01*
X78206893Y-14572443D01*
X78278322Y-14429586D01*
X78278322Y-14358157D01*
X78206893Y-14215300D01*
X78064036Y-14143871D01*
X77849750Y-14143871D01*
X77706893Y-14215300D01*
X76421179Y-15072443D02*
X76564036Y-15143871D01*
X76849750Y-15143871D01*
X76992607Y-15072443D01*
X77064036Y-14929586D01*
X77064036Y-14358157D01*
X76992607Y-14215300D01*
X76849750Y-14143871D01*
X76564036Y-14143871D01*
X76421179Y-14215300D01*
X76349750Y-14358157D01*
X76349750Y-14501014D01*
X77064036Y-14643871D01*
X75706893Y-15143871D02*
X75706893Y-14143871D01*
X75706893Y-14429586D02*
X75635465Y-14286729D01*
X75564036Y-14215300D01*
X75421179Y-14143871D01*
X75278322Y-14143871D01*
X74849751Y-15072443D02*
X74706894Y-15143871D01*
X74421179Y-15143871D01*
X74278322Y-15072443D01*
X74206894Y-14929586D01*
X74206894Y-14858157D01*
X74278322Y-14715300D01*
X74421179Y-14643871D01*
X74635465Y-14643871D01*
X74778322Y-14572443D01*
X74849751Y-14429586D01*
X74849751Y-14358157D01*
X74778322Y-14215300D01*
X74635465Y-14143871D01*
X74421179Y-14143871D01*
X74278322Y-14215300D01*
X72064036Y-15643871D02*
X72064036Y-13501014D01*
X69206894Y-15143871D02*
X69206894Y-13643871D01*
X69206894Y-15072443D02*
X69349751Y-15143871D01*
X69635465Y-15143871D01*
X69778323Y-15072443D01*
X69849751Y-15001014D01*
X69921180Y-14858157D01*
X69921180Y-14429586D01*
X69849751Y-14286729D01*
X69778323Y-14215300D01*
X69635465Y-14143871D01*
X69349751Y-14143871D01*
X69206894Y-14215300D01*
X68492608Y-15143871D02*
X68492608Y-14143871D01*
X68492608Y-14429586D02*
X68421180Y-14286729D01*
X68349751Y-14215300D01*
X68206894Y-14143871D01*
X68064037Y-14143871D01*
X67564037Y-15143871D02*
X67564037Y-14143871D01*
X67564037Y-13643871D02*
X67635466Y-13715300D01*
X67564037Y-13786729D01*
X67492609Y-13715300D01*
X67564037Y-13643871D01*
X67564037Y-13786729D01*
X66992608Y-14143871D02*
X66635465Y-15143871D01*
X66278323Y-14143871D01*
X65135466Y-15072443D02*
X65278323Y-15143871D01*
X65564037Y-15143871D01*
X65706894Y-15072443D01*
X65778323Y-14929586D01*
X65778323Y-14358157D01*
X65706894Y-14215300D01*
X65564037Y-14143871D01*
X65278323Y-14143871D01*
X65135466Y-14215300D01*
X65064037Y-14358157D01*
X65064037Y-14501014D01*
X65778323Y-14643871D01*
X64421180Y-15143871D02*
X64421180Y-14143871D01*
X64421180Y-14429586D02*
X64349752Y-14286729D01*
X64278323Y-14215300D01*
X64135466Y-14143871D01*
X63992609Y-14143871D01*
X63564038Y-15072443D02*
X63421181Y-15143871D01*
X63135466Y-15143871D01*
X62992609Y-15072443D01*
X62921181Y-14929586D01*
X62921181Y-14858157D01*
X62992609Y-14715300D01*
X63135466Y-14643871D01*
X63349752Y-14643871D01*
X63492609Y-14572443D01*
X63564038Y-14429586D01*
X63564038Y-14358157D01*
X63492609Y-14215300D01*
X63349752Y-14143871D01*
X63135466Y-14143871D01*
X62992609Y-14215300D01*
X80390952Y-63190429D02*
X79629047Y-63190429D01*
X80390952Y-68270429D02*
X79629047Y-68270429D01*
X80390952Y-60650429D02*
X79629047Y-60650429D01*
X80009999Y-61031381D02*
X80009999Y-60269476D01*
X80390952Y-65730429D02*
X79629047Y-65730429D01*
X80009999Y-66111381D02*
X80009999Y-65349476D01*
X80390952Y-55570429D02*
X79629047Y-55570429D01*
X80009999Y-55951381D02*
X80009999Y-55189476D01*
X80390952Y-58110429D02*
X79629047Y-58110429D01*
X80390952Y-50490429D02*
X79629047Y-50490429D01*
X80009999Y-50871381D02*
X80009999Y-50109476D01*
X80390952Y-53030429D02*
X79629047Y-53030429D01*
X80390952Y-78430429D02*
X79629047Y-78430429D01*
X80390952Y-70810429D02*
X79629047Y-70810429D01*
X80009999Y-71191381D02*
X80009999Y-70429476D01*
X80390952Y-73350429D02*
X79629047Y-73350429D01*
X80390952Y-75890429D02*
X79629047Y-75890429D01*
X80009999Y-76271381D02*
X80009999Y-75509476D01*
X80390952Y-45410429D02*
X79629047Y-45410429D01*
X80390952Y-37790429D02*
X79629047Y-37790429D01*
X80009999Y-38171381D02*
X80009999Y-37409476D01*
X80390952Y-40330429D02*
X79629047Y-40330429D01*
X80390952Y-32710429D02*
X79629047Y-32710429D01*
X80009999Y-33091381D02*
X80009999Y-32329476D01*
X80390952Y-42870429D02*
X79629047Y-42870429D01*
X80009999Y-43251381D02*
X80009999Y-42489476D01*
X80390952Y-35250429D02*
X79629047Y-35250429D01*
X80390952Y-30170429D02*
X79629047Y-30170429D01*
X80390952Y-27630429D02*
X79629047Y-27630429D01*
X80009999Y-28011381D02*
X80009999Y-27249476D01*
X80390952Y-25090429D02*
X79629047Y-25090429D01*
X80390952Y-22550429D02*
X79629047Y-22550429D01*
X80009999Y-22931381D02*
X80009999Y-22169476D01*
X80390952Y-20010429D02*
X79629047Y-20010429D01*
X80390952Y-17470429D02*
X79629047Y-17470429D01*
X80009999Y-17851381D02*
X80009999Y-17089476D01*
X76168166Y-62364881D02*
X75977690Y-62364881D01*
X75882451Y-62317262D01*
X75834832Y-62269643D01*
X75739594Y-62126786D01*
X75691975Y-61936310D01*
X75691975Y-61555357D01*
X75739594Y-61460119D01*
X75787213Y-61412500D01*
X75882451Y-61364881D01*
X76072928Y-61364881D01*
X76168166Y-61412500D01*
X76215785Y-61460119D01*
X76263404Y-61555357D01*
X76263404Y-61793452D01*
X76215785Y-61888690D01*
X76168166Y-61936310D01*
X76072928Y-61983929D01*
X75882451Y-61983929D01*
X75787213Y-61936310D01*
X75739594Y-61888690D01*
X75691975Y-61793452D01*
X75691976Y-67444881D02*
X76263405Y-67444881D01*
X75977691Y-67444881D02*
X75977691Y-66444881D01*
X76072929Y-66587738D01*
X76168167Y-66682976D01*
X76263405Y-66730595D01*
X75072929Y-66444881D02*
X74977690Y-66444881D01*
X74882452Y-66492500D01*
X74834833Y-66540119D01*
X74787214Y-66635357D01*
X74739595Y-66825833D01*
X74739595Y-67063929D01*
X74787214Y-67254405D01*
X74834833Y-67349643D01*
X74882452Y-67397262D01*
X74977690Y-67444881D01*
X75072929Y-67444881D01*
X75168167Y-67397262D01*
X75215786Y-67349643D01*
X75263405Y-67254405D01*
X75311024Y-67063929D01*
X75311024Y-66825833D01*
X75263405Y-66635357D01*
X75215786Y-66540119D01*
X75168167Y-66492500D01*
X75072929Y-66444881D01*
X75691976Y-72524881D02*
X76263405Y-72524881D01*
X75977691Y-72524881D02*
X75977691Y-71524881D01*
X76072929Y-71667738D01*
X76168167Y-71762976D01*
X76263405Y-71810595D01*
X74739595Y-72524881D02*
X75311024Y-72524881D01*
X75025310Y-72524881D02*
X75025310Y-71524881D01*
X75120548Y-71667738D01*
X75215786Y-71762976D01*
X75311024Y-71810595D01*
X75691976Y-77604881D02*
X76263405Y-77604881D01*
X75977691Y-77604881D02*
X75977691Y-76604881D01*
X76072929Y-76747738D01*
X76168167Y-76842976D01*
X76263405Y-76890595D01*
X75311024Y-76700119D02*
X75263405Y-76652500D01*
X75168167Y-76604881D01*
X74930071Y-76604881D01*
X74834833Y-76652500D01*
X74787214Y-76700119D01*
X74739595Y-76795357D01*
X74739595Y-76890595D01*
X74787214Y-77033452D01*
X75358643Y-77604881D01*
X74739595Y-77604881D01*
X75739594Y-38504881D02*
X76215785Y-38504881D01*
X76263404Y-38981071D01*
X76215785Y-38933452D01*
X76120547Y-38885833D01*
X75882451Y-38885833D01*
X75787213Y-38933452D01*
X75739594Y-38981071D01*
X75691975Y-39076310D01*
X75691975Y-39314405D01*
X75739594Y-39409643D01*
X75787213Y-39457262D01*
X75882451Y-39504881D01*
X76120547Y-39504881D01*
X76215785Y-39457262D01*
X76263404Y-39409643D01*
X75787213Y-33758214D02*
X75787213Y-34424881D01*
X76025309Y-33377262D02*
X76263404Y-34091548D01*
X75644356Y-34091548D01*
X75787213Y-43584881D02*
X75977690Y-43584881D01*
X76072928Y-43632500D01*
X76120547Y-43680119D01*
X76215785Y-43822976D01*
X76263404Y-44013452D01*
X76263404Y-44394405D01*
X76215785Y-44489643D01*
X76168166Y-44537262D01*
X76072928Y-44584881D01*
X75882451Y-44584881D01*
X75787213Y-44537262D01*
X75739594Y-44489643D01*
X75691975Y-44394405D01*
X75691975Y-44156310D01*
X75739594Y-44061071D01*
X75787213Y-44013452D01*
X75882451Y-43965833D01*
X76072928Y-43965833D01*
X76168166Y-44013452D01*
X76215785Y-44061071D01*
X76263404Y-44156310D01*
X76072928Y-56713452D02*
X76168166Y-56665833D01*
X76215785Y-56618214D01*
X76263404Y-56522976D01*
X76263404Y-56475357D01*
X76215785Y-56380119D01*
X76168166Y-56332500D01*
X76072928Y-56284881D01*
X75882451Y-56284881D01*
X75787213Y-56332500D01*
X75739594Y-56380119D01*
X75691975Y-56475357D01*
X75691975Y-56522976D01*
X75739594Y-56618214D01*
X75787213Y-56665833D01*
X75882451Y-56713452D01*
X76072928Y-56713452D01*
X76168166Y-56761071D01*
X76215785Y-56808690D01*
X76263404Y-56903929D01*
X76263404Y-57094405D01*
X76215785Y-57189643D01*
X76168166Y-57237262D01*
X76072928Y-57284881D01*
X75882451Y-57284881D01*
X75787213Y-57237262D01*
X75739594Y-57189643D01*
X75691975Y-57094405D01*
X75691975Y-56903929D01*
X75739594Y-56808690D01*
X75787213Y-56761071D01*
X75882451Y-56713452D01*
X76311023Y-51204881D02*
X75644356Y-51204881D01*
X76072928Y-52204881D01*
X76263404Y-23360119D02*
X76215785Y-23312500D01*
X76120547Y-23264881D01*
X75882451Y-23264881D01*
X75787213Y-23312500D01*
X75739594Y-23360119D01*
X75691975Y-23455357D01*
X75691975Y-23550595D01*
X75739594Y-23693452D01*
X76311023Y-24264881D01*
X75691975Y-24264881D01*
X76311023Y-28344881D02*
X75691975Y-28344881D01*
X76025309Y-28725833D01*
X75882451Y-28725833D01*
X75787213Y-28773452D01*
X75739594Y-28821071D01*
X75691975Y-28916310D01*
X75691975Y-29154405D01*
X75739594Y-29249643D01*
X75787213Y-29297262D01*
X75882451Y-29344881D01*
X76168166Y-29344881D01*
X76263404Y-29297262D01*
X76311023Y-29249643D01*
X75691975Y-19184881D02*
X76263404Y-19184881D01*
X75977690Y-19184881D02*
X75977690Y-18184881D01*
X76072928Y-18327738D01*
X76168166Y-18422976D01*
X76263404Y-18470595D01*
X20685023Y-71254881D02*
X21256452Y-71254881D01*
X20970738Y-71254881D02*
X20970738Y-70254881D01*
X21065976Y-70397738D01*
X21161214Y-70492976D01*
X21256452Y-70540595D01*
X19732642Y-71254881D02*
X20304071Y-71254881D01*
X20018357Y-71254881D02*
X20018357Y-70254881D01*
X20113595Y-70397738D01*
X20208833Y-70492976D01*
X20304071Y-70540595D01*
X19304071Y-70873929D02*
X18542166Y-70873929D01*
X18923118Y-71254881D02*
X18923118Y-70492976D01*
X20685023Y-68714881D02*
X21256452Y-68714881D01*
X20970738Y-68714881D02*
X20970738Y-67714881D01*
X21065976Y-67857738D01*
X21161214Y-67952976D01*
X21256452Y-68000595D01*
X20065976Y-67714881D02*
X19970737Y-67714881D01*
X19875499Y-67762500D01*
X19827880Y-67810119D01*
X19780261Y-67905357D01*
X19732642Y-68095833D01*
X19732642Y-68333929D01*
X19780261Y-68524405D01*
X19827880Y-68619643D01*
X19875499Y-68667262D01*
X19970737Y-68714881D01*
X20065976Y-68714881D01*
X20161214Y-68667262D01*
X20208833Y-68619643D01*
X20256452Y-68524405D01*
X20304071Y-68333929D01*
X20304071Y-68095833D01*
X20256452Y-67905357D01*
X20208833Y-67810119D01*
X20161214Y-67762500D01*
X20065976Y-67714881D01*
X19304071Y-68333929D02*
X18542166Y-68333929D01*
X20685023Y-66174881D02*
X21256452Y-66174881D01*
X20970738Y-66174881D02*
X20970738Y-65174881D01*
X21065976Y-65317738D01*
X21161214Y-65412976D01*
X21256452Y-65460595D01*
X20065976Y-65174881D02*
X19970737Y-65174881D01*
X19875499Y-65222500D01*
X19827880Y-65270119D01*
X19780261Y-65365357D01*
X19732642Y-65555833D01*
X19732642Y-65793929D01*
X19780261Y-65984405D01*
X19827880Y-66079643D01*
X19875499Y-66127262D01*
X19970737Y-66174881D01*
X20065976Y-66174881D01*
X20161214Y-66127262D01*
X20208833Y-66079643D01*
X20256452Y-65984405D01*
X20304071Y-65793929D01*
X20304071Y-65555833D01*
X20256452Y-65365357D01*
X20208833Y-65270119D01*
X20161214Y-65222500D01*
X20065976Y-65174881D01*
X19304071Y-65793929D02*
X18542166Y-65793929D01*
X18923118Y-66174881D02*
X18923118Y-65412976D01*
X20685023Y-73794881D02*
X21256452Y-73794881D01*
X20970738Y-73794881D02*
X20970738Y-72794881D01*
X21065976Y-72937738D01*
X21161214Y-73032976D01*
X21256452Y-73080595D01*
X19732642Y-73794881D02*
X20304071Y-73794881D01*
X20018357Y-73794881D02*
X20018357Y-72794881D01*
X20113595Y-72937738D01*
X20208833Y-73032976D01*
X20304071Y-73080595D01*
X19304071Y-73413929D02*
X18542166Y-73413929D01*
X20685023Y-76334881D02*
X21256452Y-76334881D01*
X20970738Y-76334881D02*
X20970738Y-75334881D01*
X21065976Y-75477738D01*
X21161214Y-75572976D01*
X21256452Y-75620595D01*
X20304071Y-75430119D02*
X20256452Y-75382500D01*
X20161214Y-75334881D01*
X19923118Y-75334881D01*
X19827880Y-75382500D01*
X19780261Y-75430119D01*
X19732642Y-75525357D01*
X19732642Y-75620595D01*
X19780261Y-75763452D01*
X20351690Y-76334881D01*
X19732642Y-76334881D01*
X19304071Y-75953929D02*
X18542166Y-75953929D01*
X18923118Y-76334881D02*
X18923118Y-75572976D01*
X20685023Y-78874881D02*
X21256452Y-78874881D01*
X20970738Y-78874881D02*
X20970738Y-77874881D01*
X21065976Y-78017738D01*
X21161214Y-78112976D01*
X21256452Y-78160595D01*
X20304071Y-77970119D02*
X20256452Y-77922500D01*
X20161214Y-77874881D01*
X19923118Y-77874881D01*
X19827880Y-77922500D01*
X19780261Y-77970119D01*
X19732642Y-78065357D01*
X19732642Y-78160595D01*
X19780261Y-78303452D01*
X20351690Y-78874881D01*
X19732642Y-78874881D01*
X19304071Y-78493929D02*
X18542166Y-78493929D01*
X20319881Y-52474881D02*
X19653214Y-52474881D01*
X20081786Y-53474881D01*
X19272262Y-53093929D02*
X18510357Y-53093929D01*
X20319881Y-49934881D02*
X19653214Y-49934881D01*
X20081786Y-50934881D01*
X19272262Y-50553929D02*
X18510357Y-50553929D01*
X18891309Y-50934881D02*
X18891309Y-50172976D01*
X20177024Y-61094881D02*
X19986548Y-61094881D01*
X19891309Y-61047262D01*
X19843690Y-60999643D01*
X19748452Y-60856786D01*
X19700833Y-60666310D01*
X19700833Y-60285357D01*
X19748452Y-60190119D01*
X19796071Y-60142500D01*
X19891309Y-60094881D01*
X20081786Y-60094881D01*
X20177024Y-60142500D01*
X20224643Y-60190119D01*
X20272262Y-60285357D01*
X20272262Y-60523452D01*
X20224643Y-60618690D01*
X20177024Y-60666310D01*
X20081786Y-60713929D01*
X19891309Y-60713929D01*
X19796071Y-60666310D01*
X19748452Y-60618690D01*
X19700833Y-60523452D01*
X19272262Y-60713929D02*
X18510357Y-60713929D01*
X18891309Y-61094881D02*
X18891309Y-60332976D01*
X20081786Y-55443452D02*
X20177024Y-55395833D01*
X20224643Y-55348214D01*
X20272262Y-55252976D01*
X20272262Y-55205357D01*
X20224643Y-55110119D01*
X20177024Y-55062500D01*
X20081786Y-55014881D01*
X19891309Y-55014881D01*
X19796071Y-55062500D01*
X19748452Y-55110119D01*
X19700833Y-55205357D01*
X19700833Y-55252976D01*
X19748452Y-55348214D01*
X19796071Y-55395833D01*
X19891309Y-55443452D01*
X20081786Y-55443452D01*
X20177024Y-55491071D01*
X20224643Y-55538690D01*
X20272262Y-55633929D01*
X20272262Y-55824405D01*
X20224643Y-55919643D01*
X20177024Y-55967262D01*
X20081786Y-56014881D01*
X19891309Y-56014881D01*
X19796071Y-55967262D01*
X19748452Y-55919643D01*
X19700833Y-55824405D01*
X19700833Y-55633929D01*
X19748452Y-55538690D01*
X19796071Y-55491071D01*
X19891309Y-55443452D01*
X19272262Y-55633929D02*
X18510357Y-55633929D01*
X18891309Y-56014881D02*
X18891309Y-55252976D01*
X20081786Y-57983452D02*
X20177024Y-57935833D01*
X20224643Y-57888214D01*
X20272262Y-57792976D01*
X20272262Y-57745357D01*
X20224643Y-57650119D01*
X20177024Y-57602500D01*
X20081786Y-57554881D01*
X19891309Y-57554881D01*
X19796071Y-57602500D01*
X19748452Y-57650119D01*
X19700833Y-57745357D01*
X19700833Y-57792976D01*
X19748452Y-57888214D01*
X19796071Y-57935833D01*
X19891309Y-57983452D01*
X20081786Y-57983452D01*
X20177024Y-58031071D01*
X20224643Y-58078690D01*
X20272262Y-58173929D01*
X20272262Y-58364405D01*
X20224643Y-58459643D01*
X20177024Y-58507262D01*
X20081786Y-58554881D01*
X19891309Y-58554881D01*
X19796071Y-58507262D01*
X19748452Y-58459643D01*
X19700833Y-58364405D01*
X19700833Y-58173929D01*
X19748452Y-58078690D01*
X19796071Y-58031071D01*
X19891309Y-57983452D01*
X19272262Y-58173929D02*
X18510357Y-58173929D01*
X20177024Y-63634881D02*
X19986548Y-63634881D01*
X19891309Y-63587262D01*
X19843690Y-63539643D01*
X19748452Y-63396786D01*
X19700833Y-63206310D01*
X19700833Y-62825357D01*
X19748452Y-62730119D01*
X19796071Y-62682500D01*
X19891309Y-62634881D01*
X20081786Y-62634881D01*
X20177024Y-62682500D01*
X20224643Y-62730119D01*
X20272262Y-62825357D01*
X20272262Y-63063452D01*
X20224643Y-63158690D01*
X20177024Y-63206310D01*
X20081786Y-63253929D01*
X19891309Y-63253929D01*
X19796071Y-63206310D01*
X19748452Y-63158690D01*
X19700833Y-63063452D01*
X19272262Y-63253929D02*
X18510357Y-63253929D01*
X19796071Y-44854881D02*
X19986548Y-44854881D01*
X20081786Y-44902500D01*
X20129405Y-44950119D01*
X20224643Y-45092976D01*
X20272262Y-45283452D01*
X20272262Y-45664405D01*
X20224643Y-45759643D01*
X20177024Y-45807262D01*
X20081786Y-45854881D01*
X19891309Y-45854881D01*
X19796071Y-45807262D01*
X19748452Y-45759643D01*
X19700833Y-45664405D01*
X19700833Y-45426310D01*
X19748452Y-45331071D01*
X19796071Y-45283452D01*
X19891309Y-45235833D01*
X20081786Y-45235833D01*
X20177024Y-45283452D01*
X20224643Y-45331071D01*
X20272262Y-45426310D01*
X19272262Y-45473929D02*
X18510357Y-45473929D01*
X19796071Y-42314881D02*
X19986548Y-42314881D01*
X20081786Y-42362500D01*
X20129405Y-42410119D01*
X20224643Y-42552976D01*
X20272262Y-42743452D01*
X20272262Y-43124405D01*
X20224643Y-43219643D01*
X20177024Y-43267262D01*
X20081786Y-43314881D01*
X19891309Y-43314881D01*
X19796071Y-43267262D01*
X19748452Y-43219643D01*
X19700833Y-43124405D01*
X19700833Y-42886310D01*
X19748452Y-42791071D01*
X19796071Y-42743452D01*
X19891309Y-42695833D01*
X20081786Y-42695833D01*
X20177024Y-42743452D01*
X20224643Y-42791071D01*
X20272262Y-42886310D01*
X19272262Y-42933929D02*
X18510357Y-42933929D01*
X18891309Y-43314881D02*
X18891309Y-42552976D01*
X19748452Y-37234881D02*
X20224643Y-37234881D01*
X20272262Y-37711071D01*
X20224643Y-37663452D01*
X20129405Y-37615833D01*
X19891309Y-37615833D01*
X19796071Y-37663452D01*
X19748452Y-37711071D01*
X19700833Y-37806310D01*
X19700833Y-38044405D01*
X19748452Y-38139643D01*
X19796071Y-38187262D01*
X19891309Y-38234881D01*
X20129405Y-38234881D01*
X20224643Y-38187262D01*
X20272262Y-38139643D01*
X19272262Y-37853929D02*
X18510357Y-37853929D01*
X18891309Y-38234881D02*
X18891309Y-37472976D01*
X19748452Y-39774881D02*
X20224643Y-39774881D01*
X20272262Y-40251071D01*
X20224643Y-40203452D01*
X20129405Y-40155833D01*
X19891309Y-40155833D01*
X19796071Y-40203452D01*
X19748452Y-40251071D01*
X19700833Y-40346310D01*
X19700833Y-40584405D01*
X19748452Y-40679643D01*
X19796071Y-40727262D01*
X19891309Y-40774881D01*
X20129405Y-40774881D01*
X20224643Y-40727262D01*
X20272262Y-40679643D01*
X19272262Y-40393929D02*
X18510357Y-40393929D01*
X19796071Y-32488214D02*
X19796071Y-33154881D01*
X20034167Y-32107262D02*
X20272262Y-32821548D01*
X19653214Y-32821548D01*
X19272262Y-32773929D02*
X18510357Y-32773929D01*
X18891309Y-33154881D02*
X18891309Y-32392976D01*
X19796071Y-35028214D02*
X19796071Y-35694881D01*
X20034167Y-34647262D02*
X20272262Y-35361548D01*
X19653214Y-35361548D01*
X19272262Y-35313929D02*
X18510357Y-35313929D01*
X20319881Y-29614881D02*
X19700833Y-29614881D01*
X20034167Y-29995833D01*
X19891309Y-29995833D01*
X19796071Y-30043452D01*
X19748452Y-30091071D01*
X19700833Y-30186310D01*
X19700833Y-30424405D01*
X19748452Y-30519643D01*
X19796071Y-30567262D01*
X19891309Y-30614881D01*
X20177024Y-30614881D01*
X20272262Y-30567262D01*
X20319881Y-30519643D01*
X19272262Y-30233929D02*
X18510357Y-30233929D01*
X20319881Y-27074881D02*
X19700833Y-27074881D01*
X20034167Y-27455833D01*
X19891309Y-27455833D01*
X19796071Y-27503452D01*
X19748452Y-27551071D01*
X19700833Y-27646310D01*
X19700833Y-27884405D01*
X19748452Y-27979643D01*
X19796071Y-28027262D01*
X19891309Y-28074881D01*
X20177024Y-28074881D01*
X20272262Y-28027262D01*
X20319881Y-27979643D01*
X19272262Y-27693929D02*
X18510357Y-27693929D01*
X18891309Y-28074881D02*
X18891309Y-27312976D01*
X20272262Y-24630119D02*
X20224643Y-24582500D01*
X20129405Y-24534881D01*
X19891309Y-24534881D01*
X19796071Y-24582500D01*
X19748452Y-24630119D01*
X19700833Y-24725357D01*
X19700833Y-24820595D01*
X19748452Y-24963452D01*
X20319881Y-25534881D01*
X19700833Y-25534881D01*
X19272262Y-25153929D02*
X18510357Y-25153929D01*
X20272262Y-22090119D02*
X20224643Y-22042500D01*
X20129405Y-21994881D01*
X19891309Y-21994881D01*
X19796071Y-22042500D01*
X19748452Y-22090119D01*
X19700833Y-22185357D01*
X19700833Y-22280595D01*
X19748452Y-22423452D01*
X20319881Y-22994881D01*
X19700833Y-22994881D01*
X19272262Y-22613929D02*
X18510357Y-22613929D01*
X18891309Y-22994881D02*
X18891309Y-22232976D01*
X19700833Y-20454881D02*
X20272262Y-20454881D01*
X19986548Y-20454881D02*
X19986548Y-19454881D01*
X20081786Y-19597738D01*
X20177024Y-19692976D01*
X20272262Y-19740595D01*
X19272262Y-20073929D02*
X18510357Y-20073929D01*
X19700833Y-17914881D02*
X20272262Y-17914881D01*
X19986548Y-17914881D02*
X19986548Y-16914881D01*
X20081786Y-17057738D01*
X20177024Y-17152976D01*
X20272262Y-17200595D01*
X19272262Y-17533929D02*
X18510357Y-17533929D01*
X18891309Y-17914881D02*
X18891309Y-17152976D01*
D12*
X51929000Y-71974000D02*
X51929000Y-70774000D01*
X50179000Y-70774000D02*
X50179000Y-71974000D01*
X35572000Y-71476200D02*
X34372000Y-71476200D01*
X34372000Y-73226200D02*
X35572000Y-73226200D01*
X35572000Y-56936200D02*
X34372000Y-56936200D01*
X34372000Y-58686200D02*
X35572000Y-58686200D01*
X35572000Y-42396200D02*
X34372000Y-42396200D01*
X34372000Y-44146200D02*
X35572000Y-44146200D01*
X35572000Y-67133480D02*
X34372000Y-67133480D01*
X34372000Y-68883480D02*
X35572000Y-68883480D01*
X35572000Y-52593480D02*
X34372000Y-52593480D01*
X34372000Y-54343480D02*
X35572000Y-54343480D01*
X35572000Y-38053480D02*
X34372000Y-38053480D01*
X34372000Y-39803480D02*
X35572000Y-39803480D01*
X35572000Y-65031800D02*
X34372000Y-65031800D01*
X34372000Y-66781800D02*
X35572000Y-66781800D01*
X35572000Y-50491800D02*
X34372000Y-50491800D01*
X34372000Y-52241800D02*
X35572000Y-52241800D01*
X35572000Y-35951800D02*
X34372000Y-35951800D01*
X34372000Y-37701800D02*
X35572000Y-37701800D01*
X35572000Y-69374520D02*
X34372000Y-69374520D01*
X34372000Y-71124520D02*
X35572000Y-71124520D01*
X35572000Y-54834520D02*
X34372000Y-54834520D01*
X34372000Y-56584520D02*
X35572000Y-56584520D01*
X35572000Y-40294520D02*
X34372000Y-40294520D01*
X34372000Y-42044520D02*
X35572000Y-42044520D01*
X30492000Y-66367000D02*
X29292000Y-66367000D01*
X29292000Y-68117000D02*
X30492000Y-68117000D01*
X30492000Y-51827000D02*
X29292000Y-51827000D01*
X29292000Y-53577000D02*
X30492000Y-53577000D01*
X30492000Y-37287000D02*
X29292000Y-37287000D01*
X29292000Y-39037000D02*
X30492000Y-39037000D01*
X25412000Y-71476196D02*
X24212000Y-71476196D01*
X24212000Y-73226196D02*
X25412000Y-73226196D01*
X25412000Y-56936196D02*
X24212000Y-56936196D01*
X24212000Y-58686196D02*
X25412000Y-58686196D01*
X25412000Y-42396196D02*
X24212000Y-42396196D01*
X24212000Y-44146196D02*
X25412000Y-44146196D01*
X24212000Y-68929932D02*
X25412000Y-68929932D01*
X25412000Y-67179932D02*
X24212000Y-67179932D01*
X24212000Y-54389932D02*
X25412000Y-54389932D01*
X25412000Y-52639932D02*
X24212000Y-52639932D01*
X24212000Y-39849932D02*
X25412000Y-39849932D01*
X25412000Y-38099932D02*
X24212000Y-38099932D01*
X24212000Y-66781800D02*
X25412000Y-66781800D01*
X25412000Y-65031800D02*
X24212000Y-65031800D01*
X24212000Y-52241800D02*
X25412000Y-52241800D01*
X25412000Y-50491800D02*
X24212000Y-50491800D01*
X24212000Y-37701800D02*
X25412000Y-37701800D01*
X25412000Y-35951800D02*
X24212000Y-35951800D01*
X28843000Y-70198000D02*
X28843000Y-71398000D01*
X30593000Y-71398000D02*
X30593000Y-70198000D01*
X28843000Y-55658000D02*
X28843000Y-56858000D01*
X30593000Y-56858000D02*
X30593000Y-55658000D01*
X28843000Y-41118000D02*
X28843000Y-42318000D01*
X30593000Y-42318000D02*
X30593000Y-41118000D01*
X24212000Y-71078064D02*
X25412000Y-71078064D01*
X25412000Y-69328064D02*
X24212000Y-69328064D01*
X24212000Y-56538064D02*
X25412000Y-56538064D01*
X25412000Y-54788064D02*
X24212000Y-54788064D01*
X24212000Y-41998064D02*
X25412000Y-41998064D01*
X25412000Y-40248064D02*
X24212000Y-40248064D01*
X30492000Y-22747000D02*
X29292000Y-22747000D01*
X29292000Y-24497000D02*
X30492000Y-24497000D01*
X35572000Y-25754520D02*
X34372000Y-25754520D01*
X34372000Y-27504520D02*
X35572000Y-27504520D01*
X35572000Y-21411800D02*
X34372000Y-21411800D01*
X34372000Y-23161800D02*
X35572000Y-23161800D01*
X35572000Y-62879000D02*
X34372000Y-62879000D01*
X34372000Y-64629000D02*
X35572000Y-64629000D01*
X35572000Y-48401000D02*
X34372000Y-48401000D01*
X34372000Y-50151000D02*
X35572000Y-50151000D01*
X35572000Y-33669000D02*
X34372000Y-33669000D01*
X34372000Y-35419000D02*
X35572000Y-35419000D01*
X25412000Y-17159000D02*
X24212000Y-17159000D01*
X24212000Y-18909000D02*
X25412000Y-18909000D01*
X71579740Y-26761275D02*
X72280780Y-26761275D01*
X72280780Y-26761275D02*
X72280780Y-26512355D01*
X72280780Y-23962295D02*
X72280780Y-23761635D01*
X72280780Y-23761635D02*
X71579740Y-23761635D01*
X71579740Y-31046615D02*
X72280780Y-31046615D01*
X72280780Y-31046615D02*
X72280780Y-30797695D01*
X72280780Y-28247635D02*
X72280780Y-28046975D01*
X72280780Y-28046975D02*
X71579740Y-28046975D01*
X71579740Y-35331955D02*
X72280780Y-35331955D01*
X72280780Y-35331955D02*
X72280780Y-35083035D01*
X72280780Y-32532975D02*
X72280780Y-32332315D01*
X72280780Y-32332315D02*
X71579740Y-32332315D01*
X71579740Y-39617295D02*
X72280780Y-39617295D01*
X72280780Y-39617295D02*
X72280780Y-39368375D01*
X72280780Y-36818315D02*
X72280780Y-36617655D01*
X72280780Y-36617655D02*
X71579740Y-36617655D01*
X71579740Y-43902635D02*
X72280780Y-43902635D01*
X72280780Y-43902635D02*
X72280780Y-43653715D01*
X72280780Y-41103655D02*
X72280780Y-40902995D01*
X72280780Y-40902995D02*
X71579740Y-40902995D01*
X71579740Y-48187975D02*
X72280780Y-48187975D01*
X72280780Y-48187975D02*
X72280780Y-47939055D01*
X72280780Y-45388995D02*
X72280780Y-45188335D01*
X72280780Y-45188335D02*
X71579740Y-45188335D01*
X71579740Y-52473315D02*
X72280780Y-52473315D01*
X72280780Y-52473315D02*
X72280780Y-52224395D01*
X72280780Y-49674335D02*
X72280780Y-49473675D01*
X72280780Y-49473675D02*
X71579740Y-49473675D01*
X71579740Y-56758655D02*
X72280780Y-56758655D01*
X72280780Y-56758655D02*
X72280780Y-56509735D01*
X72280780Y-53959675D02*
X72280780Y-53759015D01*
X72280780Y-53759015D02*
X71579740Y-53759015D01*
X71579740Y-61043995D02*
X72280780Y-61043995D01*
X72280780Y-61043995D02*
X72280780Y-60795075D01*
X72280780Y-58245015D02*
X72280780Y-58044355D01*
X72280780Y-58044355D02*
X71579740Y-58044355D01*
X71579740Y-65329335D02*
X72280780Y-65329335D01*
X72280780Y-65329335D02*
X72280780Y-65080415D01*
X72280780Y-62530355D02*
X72280780Y-62329695D01*
X72280780Y-62329695D02*
X71579740Y-62329695D01*
X71579740Y-69614675D02*
X72280780Y-69614675D01*
X72280780Y-69614675D02*
X72280780Y-69365755D01*
X72280780Y-66815695D02*
X72280780Y-66615035D01*
X72280780Y-66615035D02*
X71579740Y-66615035D01*
X71579740Y-73900015D02*
X72280780Y-73900015D01*
X72280780Y-73900015D02*
X72280780Y-73651095D01*
X72280780Y-71101035D02*
X72280780Y-70900375D01*
X72280780Y-70900375D02*
X71579740Y-70900375D01*
X35572000Y-23513480D02*
X34372000Y-23513480D01*
X34372000Y-25263480D02*
X35572000Y-25263480D01*
X52186007Y-29302000D02*
X52186007Y-28102000D01*
X50436007Y-28102000D02*
X50436007Y-29302000D01*
X52186007Y-23032000D02*
X52186007Y-21832000D01*
X50436007Y-21832000D02*
X50436007Y-23032000D01*
X57433335Y-29302000D02*
X57433335Y-28102000D01*
X55683335Y-28102000D02*
X55683335Y-29302000D01*
X57433335Y-23032000D02*
X57433335Y-21832000D01*
X55683335Y-21832000D02*
X55683335Y-23032000D01*
X54809671Y-29302000D02*
X54809671Y-28102000D01*
X53059671Y-28102000D02*
X53059671Y-29302000D01*
X54809671Y-23032000D02*
X54809671Y-21832000D01*
X53059671Y-21832000D02*
X53059671Y-23032000D01*
X60057000Y-29302000D02*
X60057000Y-28102000D01*
X58307000Y-28102000D02*
X58307000Y-29302000D01*
X60057000Y-23032000D02*
X60057000Y-21832000D01*
X58307000Y-21832000D02*
X58307000Y-23032000D01*
X52183000Y-50718000D02*
X52183000Y-49518000D01*
X50433000Y-49518000D02*
X50433000Y-50718000D01*
X52183000Y-44368000D02*
X52183000Y-43168000D01*
X50433000Y-43168000D02*
X50433000Y-44368000D01*
X57263000Y-50718000D02*
X57263000Y-49518000D01*
X55513000Y-49518000D02*
X55513000Y-50718000D01*
X57263000Y-44368000D02*
X57263000Y-43168000D01*
X55513000Y-43168000D02*
X55513000Y-44368000D01*
X54723000Y-50718000D02*
X54723000Y-49518000D01*
X52973000Y-49518000D02*
X52973000Y-50718000D01*
X54723000Y-44368000D02*
X54723000Y-43168000D01*
X52973000Y-43168000D02*
X52973000Y-44368000D01*
X59803000Y-50718000D02*
X59803000Y-49518000D01*
X58053000Y-49518000D02*
X58053000Y-50718000D01*
X59803000Y-44368000D02*
X59803000Y-43168000D01*
X58053000Y-43168000D02*
X58053000Y-44368000D01*
X51929000Y-65544000D02*
X51929000Y-64344000D01*
X50179000Y-64344000D02*
X50179000Y-65544000D01*
X57009000Y-71974000D02*
X57009000Y-70774000D01*
X55259000Y-70774000D02*
X55259000Y-71974000D01*
X57009000Y-65544000D02*
X57009000Y-64344000D01*
X55259000Y-64344000D02*
X55259000Y-65544000D01*
X54469000Y-71974000D02*
X54469000Y-70774000D01*
X52719000Y-70774000D02*
X52719000Y-71974000D01*
X54469000Y-65544000D02*
X54469000Y-64344000D01*
X52719000Y-64344000D02*
X52719000Y-65544000D01*
X59549000Y-71974000D02*
X59549000Y-70774000D01*
X57799000Y-70774000D02*
X57799000Y-71974000D01*
X59549000Y-65544000D02*
X59549000Y-64344000D01*
X57799000Y-64344000D02*
X57799000Y-65544000D01*
X24212000Y-23161800D02*
X25412000Y-23161800D01*
X25412000Y-21411800D02*
X24212000Y-21411800D01*
X24212000Y-25309932D02*
X25412000Y-25309932D01*
X25412000Y-23559932D02*
X24212000Y-23559932D01*
X28843000Y-26578000D02*
X28843000Y-27778000D01*
X30593000Y-27778000D02*
X30593000Y-26578000D01*
X25412000Y-27856196D02*
X24212000Y-27856196D01*
X24212000Y-29606196D02*
X25412000Y-29606196D01*
X24212000Y-27458064D02*
X25412000Y-27458064D01*
X25412000Y-25708064D02*
X24212000Y-25708064D01*
X35572000Y-27856200D02*
X34372000Y-27856200D01*
X34372000Y-29606200D02*
X35572000Y-29606200D01*
X45050000Y-18175000D02*
X43850000Y-18175000D01*
X43850000Y-19925000D02*
X45050000Y-19925000D01*
X55972000Y-32145000D02*
X54772000Y-32145000D01*
X54772000Y-33895000D02*
X55972000Y-33895000D01*
X55718000Y-53100000D02*
X54518000Y-53100000D01*
X54518000Y-54850000D02*
X55718000Y-54850000D01*
X54264000Y-76567000D02*
X55464000Y-76567000D01*
X55464000Y-74817000D02*
X54264000Y-74817000D01*
D13*
G36*
X49149000Y-80137000D02*
X40259000Y-80137000D01*
X40259000Y-73787000D01*
X49149000Y-73787000D01*
X49149000Y-80137000D01*
X49149000Y-80137000D01*
G37*
X49149000Y-80137000D02*
X40259000Y-80137000D01*
X40259000Y-73787000D01*
X49149000Y-73787000D01*
X49149000Y-80137000D01*
%LPC*%
D14*
X45720000Y-15240000D03*
D15*
X43180000Y-15240000D03*
D14*
X77978000Y-70826000D03*
X77978000Y-75906000D03*
X77978000Y-73366000D03*
X77978000Y-68286000D03*
X77978000Y-65746000D03*
X77978000Y-63206000D03*
X77978000Y-60666000D03*
X77978000Y-58126000D03*
X77978000Y-55586000D03*
X77978000Y-53046000D03*
X77978000Y-50506000D03*
X77978000Y-78446000D03*
X77978000Y-37795200D03*
X77978000Y-42875200D03*
X77978000Y-40335200D03*
X77978000Y-35255200D03*
X77978000Y-32715200D03*
X77978000Y-30175200D03*
X77978000Y-27635200D03*
X77978000Y-25095200D03*
X77978000Y-22555200D03*
X77978000Y-20015200D03*
X77978000Y-17475200D03*
X77978000Y-45415200D03*
X17018000Y-58166000D03*
X17018000Y-53086000D03*
X17018000Y-55626000D03*
X17018000Y-60706000D03*
X17018000Y-63246000D03*
X17018000Y-65786000D03*
X17018000Y-68326000D03*
X17018000Y-70866000D03*
X17018000Y-73406000D03*
X17018000Y-75946000D03*
X17018000Y-78486000D03*
X17018000Y-50546000D03*
X17018000Y-25146000D03*
X17018000Y-20066000D03*
X17018000Y-22606000D03*
X17018000Y-27686000D03*
X17018000Y-30226000D03*
X17018000Y-32766000D03*
X17018000Y-35306000D03*
X17018000Y-37846000D03*
X17018000Y-40386000D03*
X17018000Y-42926000D03*
X17018000Y-45466000D03*
X17018000Y-17526000D03*
D16*
X62605080Y-68944376D03*
X62605080Y-66404376D03*
X62605080Y-63864376D03*
X62605080Y-61324376D03*
X62605080Y-58784376D03*
X62605080Y-56244376D03*
X62605080Y-53704376D03*
X62605080Y-51164376D03*
X62605080Y-48624376D03*
X62605080Y-46084376D03*
X62605080Y-43544376D03*
X62605080Y-41004376D03*
X62605080Y-38464376D03*
X62605080Y-35924376D03*
X62605080Y-33384376D03*
X62605080Y-30844376D03*
X62605080Y-28304376D03*
X47365080Y-23224376D03*
X47365080Y-25764376D03*
X47365080Y-28304376D03*
X47365080Y-30844376D03*
X47365080Y-33384376D03*
X47365080Y-35924376D03*
X47365080Y-38464376D03*
X47365080Y-41004376D03*
X47365080Y-43544376D03*
X47365080Y-46084376D03*
X47365080Y-48624376D03*
X47365080Y-51164376D03*
X47365080Y-53704376D03*
X47365080Y-56244376D03*
X47365080Y-58784376D03*
X47365080Y-61324376D03*
X47365080Y-63864376D03*
X47365080Y-66404376D03*
X47365080Y-71535176D03*
D17*
X47365080Y-68944376D03*
X62605080Y-25764376D03*
X62605080Y-23224376D03*
D16*
X62605080Y-71432401D03*
D18*
X68588242Y-78445360D03*
X71128242Y-78445360D03*
X66048242Y-78445360D03*
D19*
X68580000Y-17486000D03*
D18*
X66040000Y-17486000D03*
X71120000Y-17486000D03*
D20*
X51054000Y-70024000D03*
X51054000Y-72724000D03*
D21*
X33622000Y-72351200D03*
X36322000Y-72351200D03*
X33622000Y-57811200D03*
X36322000Y-57811200D03*
X33622000Y-43271200D03*
X36322000Y-43271200D03*
X33622000Y-68008480D03*
X36322000Y-68008480D03*
X33622000Y-53468480D03*
X36322000Y-53468480D03*
X33622000Y-38928480D03*
X36322000Y-38928480D03*
X33622000Y-65906800D03*
X36322000Y-65906800D03*
X33622000Y-51366800D03*
X36322000Y-51366800D03*
X33622000Y-36826800D03*
X36322000Y-36826800D03*
X33622000Y-70249520D03*
X36322000Y-70249520D03*
X33622000Y-55709520D03*
X36322000Y-55709520D03*
X33622000Y-41169520D03*
X36322000Y-41169520D03*
X28542000Y-67242000D03*
X31242000Y-67242000D03*
X28542000Y-52702000D03*
X31242000Y-52702000D03*
X28542000Y-38162000D03*
X31242000Y-38162000D03*
X23462000Y-72351196D03*
X26162000Y-72351196D03*
X23462000Y-57811196D03*
X26162000Y-57811196D03*
X23462000Y-43271196D03*
X26162000Y-43271196D03*
X26162000Y-68054932D03*
X23462000Y-68054932D03*
X26162000Y-53514932D03*
X23462000Y-53514932D03*
X26162000Y-38974932D03*
X23462000Y-38974932D03*
X26162000Y-65906800D03*
X23462000Y-65906800D03*
X26162000Y-51366800D03*
X23462000Y-51366800D03*
X26162000Y-36826800D03*
X23462000Y-36826800D03*
D20*
X29718000Y-72148000D03*
X29718000Y-69448000D03*
X29718000Y-57608000D03*
X29718000Y-54908000D03*
X29718000Y-43068000D03*
X29718000Y-40368000D03*
D21*
X26162000Y-70203064D03*
X23462000Y-70203064D03*
X26162000Y-55663064D03*
X23462000Y-55663064D03*
X26162000Y-41123064D03*
X23462000Y-41123064D03*
X28542000Y-23622000D03*
X31242000Y-23622000D03*
X33622000Y-26629520D03*
X36322000Y-26629520D03*
X33622000Y-22286800D03*
X36322000Y-22286800D03*
X33622000Y-63754000D03*
X36322000Y-63754000D03*
X33622000Y-49276000D03*
X36322000Y-49276000D03*
X33622000Y-34544000D03*
X36322000Y-34544000D03*
X23462000Y-18034000D03*
X26162000Y-18034000D03*
D22*
X70129400Y-26211455D03*
X70129400Y-24311455D03*
X73131680Y-25261455D03*
X70129400Y-30496795D03*
X70129400Y-28596795D03*
X73131680Y-29546795D03*
X70129400Y-34782135D03*
X70129400Y-32882135D03*
X73131680Y-33832135D03*
X70129400Y-39067475D03*
X70129400Y-37167475D03*
X73131680Y-38117475D03*
X70129400Y-43352815D03*
X70129400Y-41452815D03*
X73131680Y-42402815D03*
X70129400Y-47638155D03*
X70129400Y-45738155D03*
X73131680Y-46688155D03*
X70129400Y-51923495D03*
X70129400Y-50023495D03*
X73131680Y-50973495D03*
X70129400Y-56208835D03*
X70129400Y-54308835D03*
X73131680Y-55258835D03*
X70129400Y-60494175D03*
X70129400Y-58594175D03*
X73131680Y-59544175D03*
X70129400Y-64779515D03*
X70129400Y-62879515D03*
X73131680Y-63829515D03*
X70129400Y-69064855D03*
X70129400Y-67164855D03*
X73131680Y-68114855D03*
X70129400Y-73350195D03*
X70129400Y-71450195D03*
X73131680Y-72400195D03*
D21*
X33622000Y-24388480D03*
X36322000Y-24388480D03*
D20*
X51311007Y-27352000D03*
X51311007Y-30052000D03*
X51311007Y-21082000D03*
X51311007Y-23782000D03*
X56558335Y-27352000D03*
X56558335Y-30052000D03*
X56558335Y-21082000D03*
X56558335Y-23782000D03*
X53934671Y-27352000D03*
X53934671Y-30052000D03*
X53934671Y-21082000D03*
X53934671Y-23782000D03*
X59182000Y-27352000D03*
X59182000Y-30052000D03*
X59182000Y-21082000D03*
X59182000Y-23782000D03*
X51308000Y-48768000D03*
X51308000Y-51468000D03*
X51308000Y-42418000D03*
X51308000Y-45118000D03*
X56388000Y-48768000D03*
X56388000Y-51468000D03*
X56388000Y-42418000D03*
X56388000Y-45118000D03*
X53848000Y-48768000D03*
X53848000Y-51468000D03*
X53848000Y-42418000D03*
X53848000Y-45118000D03*
X58928000Y-48768000D03*
X58928000Y-51468000D03*
X58928000Y-42418000D03*
X58928000Y-45118000D03*
X51054000Y-63594000D03*
X51054000Y-66294000D03*
X56134000Y-70024000D03*
X56134000Y-72724000D03*
X56134000Y-63594000D03*
X56134000Y-66294000D03*
X53594000Y-70024000D03*
X53594000Y-72724000D03*
X53594000Y-63594000D03*
X53594000Y-66294000D03*
X58674000Y-70024000D03*
X58674000Y-72724000D03*
X58674000Y-63594000D03*
X58674000Y-66294000D03*
D21*
X26162000Y-22286800D03*
X23462000Y-22286800D03*
X26162000Y-24434932D03*
X23462000Y-24434932D03*
D20*
X29718000Y-28528000D03*
X29718000Y-25828000D03*
D21*
X23462000Y-28731196D03*
X26162000Y-28731196D03*
X26162000Y-26583064D03*
X23462000Y-26583064D03*
X33622000Y-28731200D03*
X36322000Y-28731200D03*
X43100000Y-19050000D03*
X45800000Y-19050000D03*
X54022000Y-33020000D03*
X56722000Y-33020000D03*
X53768000Y-53975000D03*
X56468000Y-53975000D03*
X56214000Y-75692000D03*
X53514000Y-75692000D03*
D19*
X25400000Y-78486000D03*
D18*
X27940000Y-78486000D03*
X30480000Y-78486000D03*
X33020000Y-78486000D03*
X35560000Y-78486000D03*
X38100000Y-78486000D03*
D13*
G36*
X15367000Y-80137000D02*
X13817600Y-80137000D01*
X13817600Y-12776200D01*
X15367000Y-12776200D01*
X15367000Y-80137000D01*
X15367000Y-80137000D01*
G37*
X15367000Y-80137000D02*
X13817600Y-80137000D01*
X13817600Y-12776200D01*
X15367000Y-12776200D01*
X15367000Y-80137000D01*
M02*
