G04 #@! TF.FileFunction,Copper,L1,Top,Signal*
%FSLAX46Y46*%
G04 Gerber Fmt 4.6, Leading zero omitted, Abs format (unit mm)*
G04 Created by KiCad (PCBNEW 4.0.2+dfsg1-stable) date Sun 27 May 2018 10:56:58 CEST*
%MOMM*%
G01*
G04 APERTURE LIST*
%ADD10C,0.100000*%
%ADD11O,1.998980X1.998980*%
%ADD12R,1.998980X1.998980*%
%ADD13O,2.250000X1.727200*%
%ADD14R,2.250000X1.727200*%
%ADD15O,1.727200X2.032000*%
%ADD16R,1.727200X2.032000*%
%ADD17R,1.500000X1.300000*%
%ADD18R,1.500000X0.600000*%
%ADD19R,0.600000X1.500000*%
%ADD20R,1.300000X1.500000*%
%ADD21C,0.600000*%
%ADD22C,0.500000*%
%ADD23C,0.250000*%
%ADD24C,0.254000*%
G04 APERTURE END LIST*
D10*
D11*
X45720000Y-15240000D03*
D12*
X43180000Y-15240000D03*
D11*
X77978000Y-70826000D03*
X77978000Y-75906000D03*
X77978000Y-73366000D03*
X77978000Y-68286000D03*
X77978000Y-65746000D03*
X77978000Y-63206000D03*
X77978000Y-60666000D03*
X77978000Y-58126000D03*
X77978000Y-55586000D03*
X77978000Y-53046000D03*
X77978000Y-50506000D03*
X77978000Y-78446000D03*
X77978000Y-37795200D03*
X77978000Y-42875200D03*
X77978000Y-40335200D03*
X77978000Y-35255200D03*
X77978000Y-32715200D03*
X77978000Y-30175200D03*
X77978000Y-27635200D03*
X77978000Y-25095200D03*
X77978000Y-22555200D03*
X77978000Y-20015200D03*
X77978000Y-17475200D03*
X77978000Y-45415200D03*
X17018000Y-58166000D03*
X17018000Y-53086000D03*
X17018000Y-55626000D03*
X17018000Y-60706000D03*
X17018000Y-63246000D03*
X17018000Y-65786000D03*
X17018000Y-68326000D03*
X17018000Y-70866000D03*
X17018000Y-73406000D03*
X17018000Y-75946000D03*
X17018000Y-78486000D03*
X17018000Y-50546000D03*
X17018000Y-25146000D03*
X17018000Y-20066000D03*
X17018000Y-22606000D03*
X17018000Y-27686000D03*
X17018000Y-30226000D03*
X17018000Y-32766000D03*
X17018000Y-35306000D03*
X17018000Y-37846000D03*
X17018000Y-40386000D03*
X17018000Y-42926000D03*
X17018000Y-45466000D03*
X17018000Y-17526000D03*
D13*
X62605080Y-68944376D03*
X62605080Y-66404376D03*
X62605080Y-63864376D03*
X62605080Y-61324376D03*
X62605080Y-58784376D03*
X62605080Y-56244376D03*
X62605080Y-53704376D03*
X62605080Y-51164376D03*
X62605080Y-48624376D03*
X62605080Y-46084376D03*
X62605080Y-43544376D03*
X62605080Y-41004376D03*
X62605080Y-38464376D03*
X62605080Y-35924376D03*
X62605080Y-33384376D03*
X62605080Y-30844376D03*
X62605080Y-28304376D03*
X47365080Y-23224376D03*
X47365080Y-25764376D03*
X47365080Y-28304376D03*
X47365080Y-30844376D03*
X47365080Y-33384376D03*
X47365080Y-35924376D03*
X47365080Y-38464376D03*
X47365080Y-41004376D03*
X47365080Y-43544376D03*
X47365080Y-46084376D03*
X47365080Y-48624376D03*
X47365080Y-51164376D03*
X47365080Y-53704376D03*
X47365080Y-56244376D03*
X47365080Y-58784376D03*
X47365080Y-61324376D03*
X47365080Y-63864376D03*
X47365080Y-66404376D03*
X47365080Y-71535176D03*
D14*
X47365080Y-68944376D03*
X62605080Y-25764376D03*
X62605080Y-23224376D03*
D13*
X62605080Y-71432401D03*
D15*
X68588242Y-78445360D03*
X71128242Y-78445360D03*
X66048242Y-78445360D03*
D16*
X68580000Y-17486000D03*
D15*
X66040000Y-17486000D03*
X71120000Y-17486000D03*
D17*
X35146000Y-70110160D03*
X37846000Y-70110160D03*
X35146000Y-55570160D03*
X37846000Y-55570160D03*
X35146000Y-41030160D03*
X37846000Y-41030160D03*
D10*
G36*
X25364020Y-71784721D02*
X24368162Y-72620345D01*
X23403980Y-71471279D01*
X24399838Y-70635655D01*
X25364020Y-71784721D01*
X25364020Y-71784721D01*
G37*
G36*
X23628494Y-69716401D02*
X22632636Y-70552025D01*
X21668454Y-69402959D01*
X22664312Y-68567335D01*
X23628494Y-69716401D01*
X23628494Y-69716401D01*
G37*
G36*
X25321546Y-57343041D02*
X24325688Y-58178665D01*
X23361506Y-57029599D01*
X24357364Y-56193975D01*
X25321546Y-57343041D01*
X25321546Y-57343041D01*
G37*
G36*
X23586020Y-55274721D02*
X22590162Y-56110345D01*
X21625980Y-54961279D01*
X22621838Y-54125655D01*
X23586020Y-55274721D01*
X23586020Y-55274721D01*
G37*
G36*
X25364020Y-42828721D02*
X24368162Y-43664345D01*
X23403980Y-42515279D01*
X24399838Y-41679655D01*
X25364020Y-42828721D01*
X25364020Y-42828721D01*
G37*
G36*
X23628494Y-40760401D02*
X22632636Y-41596025D01*
X21668454Y-40446959D01*
X22664312Y-39611335D01*
X23628494Y-40760401D01*
X23628494Y-40760401D01*
G37*
D17*
X35146000Y-72211840D03*
X37846000Y-72211840D03*
X35146000Y-57671840D03*
X37846000Y-57671840D03*
X35146000Y-43131840D03*
X37846000Y-43131840D03*
D18*
X26937001Y-65262000D03*
X26937001Y-66532000D03*
X26937001Y-67802000D03*
X26937001Y-69072000D03*
X26937001Y-70342000D03*
X26937001Y-71612000D03*
X26937001Y-72882000D03*
X32337001Y-72882000D03*
X32337001Y-71612000D03*
X32337001Y-70342000D03*
X32337001Y-69072000D03*
X32337001Y-67802000D03*
X32337001Y-66532000D03*
X32337001Y-65262000D03*
X26937001Y-50722000D03*
X26937001Y-51992000D03*
X26937001Y-53262000D03*
X26937001Y-54532000D03*
X26937001Y-55802000D03*
X26937001Y-57072000D03*
X26937001Y-58342000D03*
X32337001Y-58342000D03*
X32337001Y-57072000D03*
X32337001Y-55802000D03*
X32337001Y-54532000D03*
X32337001Y-53262000D03*
X32337001Y-51992000D03*
X32337001Y-50722000D03*
X26937001Y-36182000D03*
X26937001Y-37452000D03*
X26937001Y-38722000D03*
X26937001Y-39992000D03*
X26937001Y-41262000D03*
X26937001Y-42532000D03*
X26937001Y-43802000D03*
X32337001Y-43802000D03*
X32337001Y-42532000D03*
X32337001Y-41262000D03*
X32337001Y-39992000D03*
X32337001Y-38722000D03*
X32337001Y-37452000D03*
X32337001Y-36182000D03*
D17*
X35146000Y-65767440D03*
X37846000Y-65767440D03*
X35146000Y-51227440D03*
X37846000Y-51227440D03*
X35146000Y-36687440D03*
X37846000Y-36687440D03*
X35146000Y-67869120D03*
X37846000Y-67869120D03*
X35146000Y-53329120D03*
X37846000Y-53329120D03*
X35146000Y-38789120D03*
X37846000Y-38789120D03*
D10*
G36*
X25469783Y-68432881D02*
X24473925Y-69268505D01*
X23509743Y-68119439D01*
X24505601Y-67283815D01*
X25469783Y-68432881D01*
X25469783Y-68432881D01*
G37*
G36*
X23734257Y-66364561D02*
X22738399Y-67200185D01*
X21774217Y-66051119D01*
X22770075Y-65215495D01*
X23734257Y-66364561D01*
X23734257Y-66364561D01*
G37*
G36*
X25469783Y-53892881D02*
X24473925Y-54728505D01*
X23509743Y-53579439D01*
X24505601Y-52743815D01*
X25469783Y-53892881D01*
X25469783Y-53892881D01*
G37*
G36*
X23734257Y-51824561D02*
X22738399Y-52660185D01*
X21774217Y-51511119D01*
X22770075Y-50675495D01*
X23734257Y-51824561D01*
X23734257Y-51824561D01*
G37*
G36*
X25469783Y-39352881D02*
X24473925Y-40188505D01*
X23509743Y-39039439D01*
X24505601Y-38203815D01*
X25469783Y-39352881D01*
X25469783Y-39352881D01*
G37*
G36*
X23734257Y-37284561D02*
X22738399Y-38120185D01*
X21774217Y-36971119D01*
X22770075Y-36135495D01*
X23734257Y-37284561D01*
X23734257Y-37284561D01*
G37*
D19*
X51054000Y-71534000D03*
X52324000Y-71534000D03*
X53594000Y-71534000D03*
X54864000Y-71534000D03*
X56134000Y-71534000D03*
X57404000Y-71534000D03*
X58674000Y-71534000D03*
X58674000Y-66134000D03*
X57404000Y-66134000D03*
X56134000Y-66134000D03*
X54864000Y-66134000D03*
X53594000Y-66134000D03*
X52324000Y-66134000D03*
X51054000Y-66134000D03*
D10*
G36*
X25469783Y-24812881D02*
X24473925Y-25648505D01*
X23509743Y-24499439D01*
X24505601Y-23663815D01*
X25469783Y-24812881D01*
X25469783Y-24812881D01*
G37*
G36*
X23734257Y-22744561D02*
X22738399Y-23580185D01*
X21774217Y-22431119D01*
X22770075Y-21595495D01*
X23734257Y-22744561D01*
X23734257Y-22744561D01*
G37*
D17*
X35146000Y-28591840D03*
X37846000Y-28591840D03*
X35146000Y-22147440D03*
X37846000Y-22147440D03*
X40640000Y-72211840D03*
X43340000Y-72211840D03*
X40640000Y-65767440D03*
X43340000Y-65767440D03*
X40640000Y-57671840D03*
X43340000Y-57671840D03*
X40640000Y-51227440D03*
X43340000Y-51227440D03*
X40640000Y-43131840D03*
X43340000Y-43131840D03*
X40640000Y-36687440D03*
X43340000Y-36687440D03*
X40640000Y-28591840D03*
X43340000Y-28591840D03*
X40640000Y-24249120D03*
X43340000Y-24249120D03*
D20*
X43383200Y-48615600D03*
X43383200Y-45915600D03*
D17*
X35146000Y-24249120D03*
X37846000Y-24249120D03*
D20*
X56391007Y-32458829D03*
X56391007Y-35158829D03*
X53851007Y-35158829D03*
X53851007Y-32458829D03*
X58931007Y-32458829D03*
X58931007Y-35158829D03*
X51311007Y-35158829D03*
X51311007Y-32458829D03*
X56642000Y-19998829D03*
X56642000Y-17298829D03*
X53934671Y-19998829D03*
X53934671Y-17298829D03*
X58931007Y-19998829D03*
X58931007Y-17298829D03*
X51311007Y-17298829D03*
X51311007Y-19998829D03*
X56388000Y-53688000D03*
X56388000Y-56388000D03*
X53848000Y-56388000D03*
X53848000Y-53688000D03*
X58928000Y-53688000D03*
X58928000Y-56388000D03*
X51308000Y-56388000D03*
X51308000Y-53688000D03*
X56388000Y-41308000D03*
X56388000Y-38608000D03*
X53848000Y-41308000D03*
X53848000Y-38608000D03*
X58928000Y-41308000D03*
X58928000Y-38608000D03*
X51308000Y-38608000D03*
X51308000Y-41308000D03*
X56134000Y-75024000D03*
X56134000Y-77724000D03*
X53594000Y-77724000D03*
X53594000Y-75024000D03*
X58674000Y-75024000D03*
X58674000Y-77724000D03*
X51054000Y-77724000D03*
X51054000Y-75024000D03*
X56134000Y-62484000D03*
X56134000Y-59784000D03*
X53594000Y-62484000D03*
X53594000Y-59784000D03*
X58674000Y-62484000D03*
X58674000Y-59784000D03*
X51054000Y-59784000D03*
X51054000Y-62484000D03*
D17*
X70278000Y-25261455D03*
X72978000Y-25261455D03*
X70278000Y-29545868D03*
X72978000Y-29545868D03*
X70278000Y-33830281D03*
X72978000Y-33830281D03*
X70278000Y-38114694D03*
X72978000Y-38114694D03*
X70278000Y-42399107D03*
X72978000Y-42399107D03*
X70278000Y-46683520D03*
X72978000Y-46683520D03*
X70278000Y-50967933D03*
X72978000Y-50967933D03*
X70278000Y-55252346D03*
X72978000Y-55252346D03*
X70278000Y-59536759D03*
X72978000Y-59536759D03*
X70278000Y-63821172D03*
X72978000Y-63821172D03*
X70278000Y-68105585D03*
X72978000Y-68105585D03*
X70278000Y-72389998D03*
X72978000Y-72389998D03*
D18*
X26937001Y-21642000D03*
X26937001Y-22912000D03*
X26937001Y-24182000D03*
X26937001Y-25452000D03*
X26937001Y-26722000D03*
X26937001Y-27992000D03*
X26937001Y-29262000D03*
X32337001Y-29262000D03*
X32337001Y-27992000D03*
X32337001Y-26722000D03*
X32337001Y-25452000D03*
X32337001Y-24182000D03*
X32337001Y-22912000D03*
X32337001Y-21642000D03*
D19*
X51562000Y-29022000D03*
X52832000Y-29022000D03*
X54102000Y-29022000D03*
X55372000Y-29022000D03*
X56642000Y-29022000D03*
X57912000Y-29022000D03*
X59182000Y-29022000D03*
X59182000Y-23622000D03*
X57912000Y-23622000D03*
X56642000Y-23622000D03*
X55372000Y-23622000D03*
X54102000Y-23622000D03*
X52832000Y-23622000D03*
X51562000Y-23622000D03*
X51308000Y-50358000D03*
X52578000Y-50358000D03*
X53848000Y-50358000D03*
X55118000Y-50358000D03*
X56388000Y-50358000D03*
X57658000Y-50358000D03*
X58928000Y-50358000D03*
X58928000Y-44958000D03*
X57658000Y-44958000D03*
X56388000Y-44958000D03*
X55118000Y-44958000D03*
X53848000Y-44958000D03*
X52578000Y-44958000D03*
X51308000Y-44958000D03*
D10*
G36*
X25321546Y-28350721D02*
X24325688Y-29186345D01*
X23361506Y-28037279D01*
X24357364Y-27201655D01*
X25321546Y-28350721D01*
X25321546Y-28350721D01*
G37*
G36*
X23586020Y-26282401D02*
X22590162Y-27118025D01*
X21625980Y-25968959D01*
X22621838Y-25133335D01*
X23586020Y-26282401D01*
X23586020Y-26282401D01*
G37*
D17*
X35146000Y-26490160D03*
X37846000Y-26490160D03*
D16*
X25400000Y-78486000D03*
D15*
X27940000Y-78486000D03*
X30480000Y-78486000D03*
X33020000Y-78486000D03*
X35560000Y-78486000D03*
X38100000Y-78486000D03*
D21*
X30782606Y-62850229D03*
X28443758Y-54535045D03*
X38481000Y-19050547D03*
X30782515Y-33778271D03*
X45546000Y-19050000D03*
X30777744Y-48252092D03*
X28449428Y-39974723D03*
X28449428Y-69054723D03*
X28449428Y-25434723D03*
X68078639Y-50054931D03*
X64311113Y-52449987D03*
X49657000Y-79248000D03*
X39748185Y-79439489D03*
X54864000Y-79248000D03*
X19050000Y-79248000D03*
X60872282Y-75648000D03*
X61472282Y-75648000D03*
X61472282Y-75048000D03*
X60872282Y-75048000D03*
X72092086Y-48581438D03*
X80010075Y-13716000D03*
X73660000Y-13716000D03*
X67564000Y-13716000D03*
X61468000Y-13716000D03*
X49784000Y-13716000D03*
X48260000Y-13716000D03*
X40640000Y-13716000D03*
X15748000Y-13716000D03*
X62103000Y-21560800D03*
X62103000Y-20560800D03*
X62103000Y-19560800D03*
X62103000Y-18560800D03*
X62103000Y-17560800D03*
X62103000Y-16560800D03*
X72644000Y-21590000D03*
X25603200Y-14071600D03*
X39888160Y-22354540D03*
X39507160Y-30373320D03*
X19514820Y-33848040D03*
X39055040Y-44958000D03*
X36842700Y-61015880D03*
X20665440Y-61925200D03*
X80010075Y-28905493D03*
X80010075Y-26365493D03*
X80010075Y-33985493D03*
X80010075Y-31445493D03*
X80010075Y-16205493D03*
X80010075Y-23825493D03*
X80010075Y-21285493D03*
X80010075Y-18745493D03*
X80010075Y-72085493D03*
X80010075Y-74625493D03*
X80010075Y-67005493D03*
X80010075Y-69545493D03*
X80010075Y-77165493D03*
X80010075Y-51765493D03*
X80010075Y-56845493D03*
X80010075Y-59385493D03*
X80010075Y-64465493D03*
X80010075Y-54305493D03*
X80010075Y-61925493D03*
X80010075Y-49225493D03*
X80010075Y-46685493D03*
X80010075Y-41605493D03*
X80010075Y-36525493D03*
X80010075Y-39065493D03*
X80010075Y-44145493D03*
X14859075Y-77216293D03*
X14859075Y-74676293D03*
X14859075Y-72136293D03*
X14859075Y-69596293D03*
X14859075Y-67056293D03*
X14859075Y-64516293D03*
X14859075Y-61976293D03*
X14859075Y-59436293D03*
X14859075Y-56896293D03*
X14859075Y-54356293D03*
X14859075Y-51816293D03*
X14859075Y-49276293D03*
X14859075Y-46736293D03*
X14859075Y-44196293D03*
X14859075Y-41656293D03*
X14859075Y-39116293D03*
X14859075Y-36576293D03*
X14859075Y-34036293D03*
X14859075Y-31496293D03*
X14859075Y-28956293D03*
X14859075Y-26416293D03*
X14859075Y-23876293D03*
X14859075Y-21336293D03*
X14859075Y-18796293D03*
X14859075Y-16256293D03*
X62673142Y-75048000D03*
X63273142Y-75048000D03*
X64473142Y-75048000D03*
X65073142Y-75048000D03*
X62673142Y-75648000D03*
X63273142Y-75648000D03*
X64473142Y-75648000D03*
X65073142Y-75648000D03*
X60873142Y-76848000D03*
X61473142Y-76848000D03*
X60873142Y-77448000D03*
X61473142Y-77448000D03*
X62673142Y-78648000D03*
X63273142Y-78648000D03*
X62673142Y-79248000D03*
X63273142Y-79248000D03*
X68076493Y-28596763D03*
X68076493Y-32898089D03*
X61136265Y-62600541D03*
X40311683Y-26481415D03*
X28279659Y-61663021D03*
X31291236Y-39996357D03*
X40311683Y-54456454D03*
X68072000Y-24333200D03*
X30780236Y-20174521D03*
X68078639Y-71451936D03*
X68087534Y-67160079D03*
X68087533Y-62881569D03*
X68083087Y-58603058D03*
X68078639Y-54320098D03*
X68083088Y-45723049D03*
X68085310Y-41446880D03*
X68086662Y-37158741D03*
X64310214Y-32121599D03*
X64311047Y-42290413D03*
X28324885Y-32547859D03*
X31292579Y-25153197D03*
X28128233Y-46820650D03*
X31293118Y-54243217D03*
X31259906Y-68828102D03*
X40311683Y-68992983D03*
X40311683Y-39914925D03*
X30781766Y-64128560D03*
X30776169Y-49508516D03*
X30782519Y-35028824D03*
X53888011Y-21527558D03*
X53857827Y-42869607D03*
X53612791Y-64037358D03*
X43329531Y-48615600D03*
X60817220Y-49889391D03*
X57446886Y-68225242D03*
X54107202Y-30066344D03*
X53595011Y-72273534D03*
X53847999Y-51105140D03*
X22034094Y-19723208D03*
X30780238Y-21757585D03*
X33074360Y-24180339D03*
X27687323Y-57071824D03*
X43329531Y-45915600D03*
X29709826Y-57629922D03*
X51318863Y-26904783D03*
X56557022Y-26900201D03*
X53958394Y-26013862D03*
X59181104Y-24070183D03*
X51313330Y-48317149D03*
X56392240Y-48318457D03*
X53858618Y-47253841D03*
X58928000Y-45118000D03*
X51053815Y-69577431D03*
X56133874Y-69277024D03*
X53625301Y-68004980D03*
X58673473Y-66582327D03*
X27687323Y-71611824D03*
X26615130Y-24182802D03*
X33008514Y-30926407D03*
X33081615Y-26722917D03*
X21246852Y-33801975D03*
X30778995Y-36289701D03*
X33074360Y-38720339D03*
X26615130Y-38722802D03*
X32975001Y-45474423D03*
X33081615Y-41262917D03*
X21557611Y-48541339D03*
X30781971Y-50809512D03*
X33074360Y-53260339D03*
X27687323Y-42531824D03*
X26615130Y-53262802D03*
X33040521Y-59809849D03*
X33081615Y-55802917D03*
X22445676Y-62895843D03*
X30781768Y-65376484D03*
X33074360Y-67800339D03*
X27687323Y-27991824D03*
X26615130Y-67802802D03*
X30701530Y-74055654D03*
X33081615Y-70342917D03*
X29681755Y-72064650D03*
X29712785Y-43027217D03*
X29700882Y-28443248D03*
X51311007Y-32458829D03*
X27661765Y-50721343D03*
X27669510Y-36182943D03*
X27692861Y-21644289D03*
X53848000Y-38608000D03*
X43342560Y-34660840D03*
X51311007Y-35158829D03*
X26658186Y-17899347D03*
X51308180Y-16850900D03*
X58928041Y-16847836D03*
X53844261Y-55929821D03*
X43329531Y-53436276D03*
X58939757Y-56833805D03*
X51311142Y-56837797D03*
X51007217Y-46998224D03*
X43329531Y-43131840D03*
X51308000Y-38608000D03*
X43329531Y-36687440D03*
X50678959Y-68138794D03*
X43329531Y-65767440D03*
X58678071Y-58441422D03*
X51208496Y-58420240D03*
X43329531Y-57671840D03*
X53854540Y-34712939D03*
X43329531Y-72211840D03*
X58672055Y-78174278D03*
X51056363Y-78174278D03*
X27676333Y-65263521D03*
X51305688Y-40858613D03*
X56132292Y-60050658D03*
D22*
X38222119Y-48250633D02*
X39370000Y-47102752D01*
X39370000Y-47102752D02*
X42023545Y-44449207D01*
X42023545Y-49756297D02*
X39370000Y-47102752D01*
X42023545Y-58836549D02*
X42023545Y-49756297D01*
X38009865Y-62850229D02*
X30782606Y-62850229D01*
X42023545Y-58836549D02*
X38009865Y-62850229D01*
D23*
X38222119Y-48252092D02*
X38222119Y-48250633D01*
D22*
X30777744Y-48252092D02*
X38222119Y-48252092D01*
D23*
X26937001Y-54532000D02*
X28440713Y-54532000D01*
X28440713Y-54532000D02*
X28443758Y-54535045D01*
D22*
X42000511Y-22590887D02*
X45541398Y-19050000D01*
X42000511Y-22570058D02*
X38481000Y-19050547D01*
X30782515Y-33778271D02*
X40388589Y-33778271D01*
X42000024Y-32166836D02*
X42000024Y-22570545D01*
X40388589Y-33778271D02*
X42000024Y-32166836D01*
D23*
X42000024Y-22570545D02*
X42000511Y-22570058D01*
D22*
X45541398Y-19050000D02*
X45546000Y-19050000D01*
X45539573Y-19053877D02*
X45544973Y-19053877D01*
X70278000Y-23702000D02*
X71120000Y-22860000D01*
X70278000Y-25261455D02*
X70278000Y-23702000D01*
X71120000Y-22860000D02*
X71120000Y-17886010D01*
X40410316Y-33771663D02*
X42023545Y-35384892D01*
X42023545Y-35384892D02*
X42023545Y-44449207D01*
D23*
X70278000Y-72389998D02*
X70278000Y-76749858D01*
X70278000Y-76749858D02*
X68582498Y-78445360D01*
X68582498Y-78445360D02*
X68580000Y-78445360D01*
D22*
X70278000Y-72389998D02*
X70278000Y-68105585D01*
X70278000Y-63821172D02*
X70278000Y-68105585D01*
X70278000Y-59536759D02*
X70278000Y-63821172D01*
X70278000Y-55252346D02*
X70278000Y-59536759D01*
X70278000Y-50967933D02*
X70278000Y-55252346D01*
X70278000Y-46683520D02*
X70278000Y-50967933D01*
X70278000Y-42399107D02*
X70278000Y-46683520D01*
X70278000Y-38114694D02*
X70278000Y-42399107D01*
X70278000Y-33830281D02*
X70278000Y-38114694D01*
X70278000Y-29545868D02*
X70278000Y-33830281D01*
X70278000Y-25261455D02*
X70278000Y-29545868D01*
D23*
X28432151Y-69072000D02*
X28449428Y-69054723D01*
X28432151Y-39992000D02*
X28449428Y-39974723D01*
X26937001Y-39992000D02*
X28432151Y-39992000D01*
X26937001Y-69072000D02*
X28432151Y-69072000D01*
X28432151Y-25452000D02*
X28449428Y-25434723D01*
X26937001Y-25452000D02*
X28432151Y-25452000D01*
X71120000Y-17333600D02*
X71120000Y-17486000D01*
X80010075Y-16205493D02*
X80010075Y-13716000D01*
X80010075Y-13716000D02*
X73660000Y-13716000D01*
X68083088Y-50050482D02*
X68078639Y-50054931D01*
X68078639Y-50054931D02*
X68078639Y-54320098D01*
X68083088Y-45723049D02*
X68083088Y-50050482D01*
X68078639Y-54320098D02*
X67019938Y-54320098D01*
X67019938Y-54320098D02*
X65149827Y-52449987D01*
X65149827Y-52449987D02*
X64311113Y-52449987D01*
X67564000Y-13716000D02*
X61468000Y-13716000D01*
X60872282Y-75648000D02*
X60872282Y-76847140D01*
X60872282Y-76847140D02*
X60873142Y-76848000D01*
X60910858Y-62821759D02*
X60910858Y-76156820D01*
X60910858Y-76156820D02*
X60910858Y-76738790D01*
X60872282Y-75648000D02*
X60872282Y-76072264D01*
X60872282Y-76072264D02*
X60910858Y-76110840D01*
X60910858Y-76110840D02*
X60910858Y-76156820D01*
X60873142Y-77448000D02*
X61473142Y-77448000D01*
X61473142Y-76848000D02*
X60873142Y-76848000D01*
X61472282Y-75648000D02*
X60872282Y-75648000D01*
X61472282Y-75048000D02*
X61472282Y-75648000D01*
X61057481Y-62675136D02*
X60910858Y-62821759D01*
X60872282Y-75048000D02*
X61472282Y-75048000D01*
X15748000Y-13716000D02*
X16688168Y-13716000D01*
X16688168Y-13716000D02*
X17043768Y-14071600D01*
X40640000Y-13716000D02*
X25958800Y-13716000D01*
X25958800Y-13716000D02*
X25603200Y-14071600D01*
X40640000Y-13716000D02*
X40640000Y-14380847D01*
X40640000Y-14380847D02*
X39941461Y-15079386D01*
X47472600Y-13487400D02*
X47701200Y-13716000D01*
X47701200Y-13716000D02*
X48260000Y-13716000D01*
X43180000Y-13487400D02*
X47472600Y-13487400D01*
X43180000Y-13487400D02*
X43172183Y-13479583D01*
X43172183Y-13479583D02*
X40876417Y-13479583D01*
X40876417Y-13479583D02*
X40640000Y-13716000D01*
X49784000Y-13716000D02*
X48260000Y-13716000D01*
X49784000Y-13716000D02*
X61468000Y-13716000D01*
X61468000Y-13716000D02*
X61468000Y-15925800D01*
X61468000Y-15925800D02*
X62103000Y-16560800D01*
X67564000Y-13716000D02*
X68580000Y-14732000D01*
X68580000Y-14732000D02*
X68580000Y-14986000D01*
X73660000Y-13716000D02*
X67564000Y-13716000D01*
X80010075Y-69545493D02*
X80010075Y-72085493D01*
X80010075Y-67005493D02*
X80010075Y-69545493D01*
X80010075Y-64465493D02*
X80010075Y-67005493D01*
X80010075Y-61925493D02*
X80010075Y-64465493D01*
X80010075Y-59385493D02*
X80010075Y-61925493D01*
X80010075Y-56845493D02*
X80010075Y-59385493D01*
X80010075Y-54305493D02*
X80010075Y-56845493D01*
X80010075Y-51765493D02*
X80010075Y-54305493D01*
X80010075Y-49225493D02*
X80010075Y-51765493D01*
X80010075Y-46685493D02*
X80010075Y-49225493D01*
X80010075Y-44145493D02*
X80010075Y-46685493D01*
X80010075Y-41605493D02*
X80010075Y-44145493D01*
X80010075Y-39065493D02*
X80010075Y-41605493D01*
X80010075Y-36525493D02*
X80010075Y-39065493D01*
X80010075Y-33985493D02*
X80010075Y-36525493D01*
X80010075Y-31445493D02*
X80010075Y-33985493D01*
X80010075Y-28905493D02*
X80010075Y-31445493D01*
X80010075Y-26365493D02*
X80010075Y-28905493D01*
X80010075Y-23825493D02*
X80010075Y-26365493D01*
X80010075Y-21285493D02*
X80010075Y-23825493D01*
X80010075Y-18745493D02*
X80010075Y-21285493D01*
X80010075Y-16205493D02*
X80010075Y-18745493D01*
X80010075Y-74625493D02*
X80010075Y-72085493D01*
X80010075Y-77165493D02*
X80010075Y-74625493D01*
X14859075Y-74676293D02*
X14859075Y-77216293D01*
X14859075Y-72136293D02*
X14859075Y-74676293D01*
X14859075Y-69596293D02*
X14859075Y-72136293D01*
X14859075Y-67056293D02*
X14859075Y-69596293D01*
X14859075Y-64516293D02*
X14859075Y-67056293D01*
X14859075Y-64516293D02*
X14859075Y-61976293D01*
X14859075Y-59436293D02*
X14859075Y-61976293D01*
X14859075Y-56896293D02*
X14859075Y-59436293D01*
X14859075Y-54356293D02*
X14859075Y-56896293D01*
X14859075Y-51816293D02*
X14859075Y-54356293D01*
X14859075Y-49276293D02*
X14859075Y-51816293D01*
X27021539Y-47503080D02*
X15625862Y-47503080D01*
X15625862Y-47503080D02*
X14859075Y-46736293D01*
X28128233Y-46820650D02*
X27703969Y-46820650D01*
X27703969Y-46820650D02*
X27021539Y-47503080D01*
X14859075Y-46736293D02*
X14859075Y-49276293D01*
X14859075Y-44196293D02*
X14859075Y-46736293D01*
X14859075Y-41656293D02*
X14859075Y-44196293D01*
X14859075Y-39116293D02*
X14859075Y-41656293D01*
X14859075Y-36576293D02*
X14859075Y-39116293D01*
X14859075Y-34036293D02*
X14859075Y-36576293D01*
X14859075Y-31496293D02*
X14859075Y-34036293D01*
X14859075Y-28956293D02*
X14859075Y-31496293D01*
X14859075Y-26416293D02*
X14859075Y-28956293D01*
X14859075Y-23876293D02*
X14859075Y-26416293D01*
X14859075Y-21336293D02*
X14859075Y-23876293D01*
X14859075Y-18796293D02*
X14859075Y-21336293D01*
X14859075Y-16256293D02*
X14859075Y-18796293D01*
X25603200Y-14071600D02*
X17043768Y-14071600D01*
X17043768Y-14071600D02*
X14859075Y-16256293D01*
X39507160Y-30373320D02*
X39082896Y-30373320D01*
X39082896Y-30373320D02*
X36908357Y-32547859D01*
X36908357Y-32547859D02*
X28324885Y-32547859D01*
X20530820Y-31610300D02*
X27387326Y-31610300D01*
X27387326Y-31610300D02*
X28324885Y-32547859D01*
X19514820Y-32626300D02*
X20530820Y-31610300D01*
X19514820Y-33848040D02*
X19514820Y-32626300D01*
X28279659Y-61663021D02*
X20927619Y-61663021D01*
X20927619Y-61663021D02*
X20665440Y-61925200D01*
X39055040Y-44958000D02*
X38630776Y-44958000D01*
X36768126Y-46820650D02*
X28128233Y-46820650D01*
X38630776Y-44958000D02*
X36768126Y-46820650D01*
X64473142Y-75648000D02*
X63273142Y-75648000D01*
X63627000Y-75903575D02*
X68078639Y-71451936D01*
X62687564Y-76843011D02*
X63627000Y-75903575D01*
X63273142Y-75648000D02*
X63573141Y-75947999D01*
X63573141Y-75947999D02*
X63582576Y-75947999D01*
X63582576Y-75947999D02*
X63627000Y-75903575D01*
X61259897Y-76843011D02*
X62687564Y-76843011D01*
X62673142Y-78648000D02*
X61473142Y-77448000D01*
X62673142Y-78648000D02*
X63273142Y-78648000D01*
X62673142Y-78648000D02*
X62673142Y-79248000D01*
X62673142Y-78648000D02*
X63273142Y-79248000D01*
X61473142Y-77448000D02*
X61473142Y-76848000D01*
X64473142Y-75048000D02*
X64422425Y-75048000D01*
X65073142Y-75648000D02*
X64473142Y-75648000D01*
X65073142Y-75048000D02*
X65073142Y-75648000D01*
X64473142Y-75048000D02*
X65073142Y-75048000D01*
X63273142Y-75648000D02*
X63273142Y-75048000D01*
X62673142Y-75648000D02*
X63273142Y-75648000D01*
X62673142Y-75048000D02*
X62673142Y-75648000D01*
D22*
X68580000Y-14986000D02*
X68580000Y-17486000D01*
X43180000Y-15240000D02*
X40102075Y-15240000D01*
D23*
X40102075Y-15240000D02*
X39941461Y-15079386D01*
D22*
X43180000Y-15240000D02*
X43180000Y-13487400D01*
X68072000Y-24333200D02*
X68072000Y-22973369D01*
X68580000Y-22465369D02*
X68580000Y-17486000D01*
X68072000Y-22973369D02*
X68580000Y-22465369D01*
D23*
X66737120Y-32898089D02*
X68076493Y-32898089D01*
X68076493Y-28596763D02*
X68076493Y-24337693D01*
X68076493Y-24337693D02*
X68072000Y-24333200D01*
X68076493Y-28596763D02*
X68076493Y-32898089D01*
X68086662Y-37158741D02*
X68086662Y-32908258D01*
X68086662Y-32908258D02*
X68076493Y-32898089D01*
X32337001Y-39992000D02*
X32419827Y-39909174D01*
X32419827Y-39909174D02*
X40313443Y-39909174D01*
X40313443Y-39909174D02*
X40314944Y-39910675D01*
X32337001Y-54532000D02*
X32422336Y-54446665D01*
X32422336Y-54446665D02*
X40311989Y-54446665D01*
X40311989Y-54446665D02*
X40312118Y-54446794D01*
X32337001Y-69072000D02*
X32419537Y-68989464D01*
X32419537Y-68989464D02*
X40305160Y-68989464D01*
X40305160Y-68989464D02*
X40309593Y-68993897D01*
X67382241Y-62600541D02*
X61136265Y-62600541D01*
X67663269Y-62881569D02*
X67382241Y-62600541D01*
X68087533Y-62881569D02*
X67663269Y-62881569D01*
X32337001Y-25452000D02*
X32418443Y-25370558D01*
X32418443Y-25370558D02*
X39200826Y-25370558D01*
X39200826Y-25370558D02*
X40311683Y-26481415D01*
X30781766Y-64128560D02*
X28316227Y-61663021D01*
X28316227Y-61663021D02*
X28279659Y-61663021D01*
X64310214Y-32121599D02*
X65960630Y-32121599D01*
X65960630Y-32121599D02*
X66737120Y-32898089D01*
X31295593Y-39992000D02*
X31291236Y-39996357D01*
X32337001Y-39992000D02*
X31295593Y-39992000D01*
X64311047Y-42290413D02*
X65653612Y-42290413D01*
X65653612Y-42290413D02*
X66497145Y-41446880D01*
X66497145Y-41446880D02*
X68085310Y-41446880D01*
X68085310Y-41446880D02*
X68085310Y-45720827D01*
X68085310Y-45720827D02*
X68083088Y-45723049D01*
X68087534Y-71443041D02*
X68078639Y-71451936D01*
X68087534Y-67160079D02*
X68087534Y-71443041D01*
X68087534Y-63305834D02*
X68087534Y-67160079D01*
X68087533Y-62881569D02*
X68087534Y-63305834D01*
X68083087Y-62877123D02*
X68087533Y-62881569D01*
X68083087Y-58603058D02*
X68083087Y-62877123D01*
X68078639Y-54320098D02*
X68078639Y-58598610D01*
X68078639Y-58598610D02*
X68083087Y-58603058D01*
X68086662Y-41445528D02*
X68085310Y-41446880D01*
X68086662Y-37158741D02*
X68086662Y-41445528D01*
X30782519Y-35028824D02*
X28324885Y-32571190D01*
X28324885Y-32571190D02*
X28324885Y-32547859D01*
X28128233Y-46860580D02*
X28128233Y-46820650D01*
X30776169Y-49508516D02*
X28128233Y-46860580D01*
X32337001Y-54532000D02*
X31581901Y-54532000D01*
X31581901Y-54532000D02*
X31293118Y-54243217D01*
X32337001Y-69072000D02*
X31503804Y-69072000D01*
X31503804Y-69072000D02*
X31259906Y-68828102D01*
X54102000Y-21741547D02*
X53888011Y-21527558D01*
X54102000Y-23622000D02*
X54102000Y-21741547D01*
X53848000Y-42879434D02*
X53857827Y-42869607D01*
X53848000Y-44958000D02*
X53848000Y-42879434D01*
X53594000Y-64056149D02*
X53612791Y-64037358D01*
X53594000Y-66134000D02*
X53594000Y-64056149D01*
X32337001Y-54532000D02*
X32421786Y-54447215D01*
X53594000Y-71534000D02*
X53594000Y-72272523D01*
X53594000Y-72272523D02*
X53595011Y-72273534D01*
D22*
X59283674Y-68225242D02*
X57446886Y-68225242D01*
X60122521Y-67386395D02*
X59283674Y-68225242D01*
X60122521Y-58041442D02*
X60122521Y-67386395D01*
X60817220Y-57346743D02*
X60122521Y-58041442D01*
X60817220Y-49889391D02*
X60817220Y-57346743D01*
X60823293Y-49893613D02*
X60824010Y-49894330D01*
X60823293Y-29861549D02*
X60823293Y-49893613D01*
X62407041Y-28277801D02*
X60823293Y-29861549D01*
D23*
X35560000Y-78486000D02*
X35560000Y-78333600D01*
X35560000Y-78333600D02*
X36982400Y-76911200D01*
X36982400Y-76911200D02*
X43906546Y-76911200D01*
X43906546Y-76911200D02*
X47362401Y-73455345D01*
X47362401Y-73455345D02*
X47362401Y-71534001D01*
X62602401Y-28303201D02*
X62341001Y-28303201D01*
X62602401Y-28303201D02*
X62863801Y-28303201D01*
X54102000Y-30061142D02*
X54107202Y-30066344D01*
X54102000Y-29022000D02*
X54102000Y-30061142D01*
X32337001Y-22912000D02*
X30542624Y-22912000D01*
X28258030Y-20627406D02*
X20115848Y-20627406D01*
X30542624Y-22912000D02*
X28258030Y-20627406D01*
X20115848Y-20627406D02*
X17018000Y-17529558D01*
X17018000Y-17529558D02*
X17018000Y-17526000D01*
X34131178Y-22147440D02*
X35146000Y-22147440D01*
X35146000Y-22147440D02*
X35146000Y-24249120D01*
X32337001Y-22912000D02*
X33366618Y-22912000D01*
X33366618Y-22912000D02*
X34131178Y-22147440D01*
X32337001Y-22912000D02*
X31887001Y-22912000D01*
X32337001Y-22912000D02*
X32031737Y-22912000D01*
X28745861Y-19723208D02*
X22034094Y-19723208D01*
X30780238Y-21757585D02*
X28745861Y-19723208D01*
X32650096Y-24180339D02*
X33074360Y-24180339D01*
X32338662Y-24180339D02*
X32650096Y-24180339D01*
X32337001Y-24182000D02*
X32338662Y-24180339D01*
X27940000Y-78486000D02*
X27940000Y-78282800D01*
X27940000Y-78282800D02*
X32337001Y-73885799D01*
X32337001Y-73885799D02*
X32337001Y-72882000D01*
X33938504Y-73483503D02*
X36474337Y-73483503D01*
X37746000Y-72211840D02*
X37846000Y-72211840D01*
X32337001Y-72882000D02*
X33337001Y-72882000D01*
X36474337Y-73483503D02*
X37746000Y-72211840D01*
X33337001Y-72882000D02*
X33938504Y-73483503D01*
X37846000Y-72211840D02*
X40640000Y-72211840D01*
X37846000Y-70110160D02*
X37846000Y-72211840D01*
X26937001Y-58342000D02*
X26937001Y-57072000D01*
X26937177Y-57071824D02*
X27263059Y-57071824D01*
X27263059Y-57071824D02*
X27687323Y-57071824D01*
X26937001Y-57072000D02*
X26937177Y-57071824D01*
D22*
X72978000Y-25261455D02*
X72978000Y-23782592D01*
X72978000Y-23782592D02*
X75438147Y-21322445D01*
X75438147Y-21322445D02*
X75438147Y-20025853D01*
X75438147Y-20025853D02*
X77978000Y-17486000D01*
X75438000Y-28085868D02*
X75438000Y-25106000D01*
X75438000Y-25106000D02*
X77978000Y-22566000D01*
X72978000Y-29545868D02*
X73978000Y-29545868D01*
X73978000Y-29545868D02*
X75438000Y-28085868D01*
X72978000Y-33830281D02*
X72978000Y-32646000D01*
X72978000Y-32646000D02*
X77978000Y-27646000D01*
X72978000Y-38114694D02*
X72978000Y-37214694D01*
X72978000Y-37214694D02*
X77466699Y-32725995D01*
X77466699Y-32725995D02*
X77977995Y-32725995D01*
X77977995Y-32725995D02*
X77978000Y-32726000D01*
X72978000Y-42399107D02*
X73078000Y-42399107D01*
X73078000Y-42399107D02*
X77671107Y-37806000D01*
X77671107Y-37806000D02*
X77978000Y-37806000D01*
X72978000Y-46683520D02*
X72978000Y-45783520D01*
X72978000Y-45783520D02*
X75875520Y-42886000D01*
X75875520Y-42886000D02*
X77978000Y-42886000D01*
X72978000Y-50967933D02*
X77516067Y-50967933D01*
X77516067Y-50967933D02*
X77978000Y-50506000D01*
X72978000Y-55252346D02*
X77644346Y-55252346D01*
X77644346Y-55252346D02*
X77978000Y-55586000D01*
X72978000Y-59536759D02*
X74996092Y-59536759D01*
X74996092Y-59536759D02*
X76125333Y-60666000D01*
X76125333Y-60666000D02*
X77978000Y-60666000D01*
X72978000Y-63821172D02*
X74406223Y-63821172D01*
X74406223Y-63821172D02*
X76331051Y-65746000D01*
X76331051Y-65746000D02*
X77978000Y-65746000D01*
X72978000Y-68105585D02*
X75696437Y-70824022D01*
X77976022Y-70824022D02*
X77978000Y-70826000D01*
X75696437Y-70824022D02*
X77976022Y-70824022D01*
X72978000Y-72389998D02*
X74461998Y-72389998D01*
X74461998Y-72389998D02*
X77974081Y-75902081D01*
X77974081Y-75902081D02*
X77978000Y-75906000D01*
D23*
X72978000Y-72389998D02*
X72978000Y-76595602D01*
X71128242Y-78445360D02*
X71120000Y-78445360D01*
X72978000Y-76595602D02*
X71128242Y-78445360D01*
X62863801Y-53703201D02*
X62602401Y-53703201D01*
X62882799Y-43543201D02*
X62602401Y-43543201D01*
X62863801Y-41003201D02*
X62602401Y-41003201D01*
X62863801Y-38463201D02*
X62602401Y-38463201D01*
X43383200Y-45915600D02*
X43430648Y-45915600D01*
X26937001Y-55802000D02*
X27880761Y-55802000D01*
X27880761Y-55802000D02*
X29708683Y-57629922D01*
X29708683Y-57629922D02*
X29709826Y-57629922D01*
X52832000Y-23622000D02*
X52657400Y-23447400D01*
X52657400Y-23447400D02*
X52657400Y-18673764D01*
X52657400Y-18673764D02*
X53934671Y-17396493D01*
X53934671Y-17396493D02*
X53934671Y-17298829D01*
X47362401Y-25763201D02*
X49008086Y-25763201D01*
X49008086Y-25763201D02*
X49637157Y-25134130D01*
X49637157Y-25134130D02*
X52224010Y-25134130D01*
X52224010Y-25134130D02*
X52832000Y-24526140D01*
X52832000Y-24526140D02*
X52832000Y-23622000D01*
X52832000Y-29022000D02*
X52832000Y-31162142D01*
X52832000Y-31162142D02*
X53851007Y-32181149D01*
X53851007Y-32181149D02*
X53851007Y-32458829D01*
X52832000Y-29022000D02*
X52832000Y-28048624D01*
X52832000Y-28048624D02*
X52517102Y-27733726D01*
X49996034Y-28303201D02*
X47362401Y-28303201D01*
X52517102Y-27733726D02*
X50565509Y-27733726D01*
X50565509Y-27733726D02*
X49996034Y-28303201D01*
X38100000Y-78486000D02*
X44777264Y-78486000D01*
X44777264Y-78486000D02*
X49196632Y-74066632D01*
X51054000Y-75024000D02*
X50154000Y-75024000D01*
X48465414Y-65143773D02*
X46356237Y-65143773D01*
X46356237Y-65143773D02*
X45128947Y-63916483D01*
X49196632Y-74066632D02*
X49196632Y-65874991D01*
X45128947Y-48055255D02*
X47101001Y-46083201D01*
X45128947Y-63916483D02*
X45128947Y-48055255D01*
X49196632Y-65874991D02*
X48465414Y-65143773D01*
X50154000Y-75024000D02*
X49196632Y-74066632D01*
X47101001Y-46083201D02*
X47362401Y-46083201D01*
X47623801Y-46083201D02*
X47362401Y-46083201D01*
X51054000Y-75124000D02*
X51054000Y-75024000D01*
X51054000Y-71534000D02*
X51054000Y-75024000D01*
X51692000Y-49022000D02*
X52578000Y-49908000D01*
X50203794Y-48425794D02*
X50800000Y-49022000D01*
X47362401Y-33383201D02*
X47362401Y-33494258D01*
X47362401Y-33494258D02*
X50203794Y-36335651D01*
X50203794Y-36335651D02*
X50203794Y-48425794D01*
X50800000Y-49022000D02*
X51692000Y-49022000D01*
X52578000Y-49908000D02*
X52578000Y-50358000D01*
X53848000Y-53688000D02*
X53848000Y-52661455D01*
X52578000Y-51391455D02*
X52578000Y-50358000D01*
X53848000Y-52661455D02*
X52578000Y-51391455D01*
X51308000Y-50358000D02*
X50758000Y-50358000D01*
X50758000Y-50358000D02*
X49785509Y-49385509D01*
X49785509Y-49385509D02*
X49785509Y-38346309D01*
X49785509Y-38346309D02*
X47362401Y-35923201D01*
X51308000Y-53688000D02*
X51308000Y-50358000D01*
X53594000Y-59784000D02*
X53594000Y-58731805D01*
X53594000Y-58731805D02*
X52520195Y-57658000D01*
X47623801Y-38463201D02*
X47362401Y-38463201D01*
X52520195Y-57658000D02*
X50399038Y-57658000D01*
X49368206Y-49798916D02*
X49368206Y-40207606D01*
X50399038Y-57658000D02*
X49957163Y-57216125D01*
X49957163Y-57216125D02*
X49957163Y-50387873D01*
X49957163Y-50387873D02*
X49368206Y-49798916D01*
X49368206Y-40207606D02*
X47623801Y-38463201D01*
X52324000Y-66134000D02*
X52324000Y-61158488D01*
X52324000Y-61158488D02*
X53594000Y-59888488D01*
X53594000Y-59888488D02*
X53594000Y-59784000D01*
X51054000Y-62484000D02*
X50154000Y-62484000D01*
X50154000Y-62484000D02*
X49756484Y-62086484D01*
X49756484Y-62086484D02*
X49756484Y-58018639D01*
X49756484Y-58018639D02*
X49180393Y-57442548D01*
X47365722Y-48623201D02*
X47362401Y-48623201D01*
X49180393Y-57442548D02*
X49180393Y-50437872D01*
X49180393Y-50437872D02*
X47365722Y-48623201D01*
X47362401Y-48623201D02*
X47101001Y-48623201D01*
X51054000Y-66134000D02*
X51054000Y-62484000D01*
X30480000Y-78486000D02*
X30480550Y-78486000D01*
X30480550Y-78486000D02*
X34239750Y-74726800D01*
X34239750Y-74726800D02*
X40688225Y-74726800D01*
X40688225Y-74726800D02*
X41988443Y-73426582D01*
X41988443Y-73426582D02*
X41988443Y-71114867D01*
X41988443Y-71114867D02*
X46700109Y-66403201D01*
X46700109Y-66403201D02*
X47362401Y-66403201D01*
X55372000Y-29022000D02*
X55372000Y-31163940D01*
X55372000Y-31163940D02*
X56391007Y-32182947D01*
X56391007Y-32182947D02*
X56391007Y-32458829D01*
X55372000Y-29022000D02*
X55372000Y-28071041D01*
X55372000Y-28071041D02*
X54217417Y-26916458D01*
X54217417Y-26916458D02*
X51326303Y-26916458D01*
X51318863Y-26909018D02*
X51318863Y-26904783D01*
X51326303Y-26916458D02*
X51318863Y-26909018D01*
X57912000Y-29022000D02*
X57912000Y-30094257D01*
X57912000Y-30094257D02*
X58931007Y-31113264D01*
X58931007Y-31113264D02*
X58931007Y-32458829D01*
X57912000Y-29022000D02*
X57912000Y-27692928D01*
X57912000Y-27692928D02*
X57119273Y-26900201D01*
X57119273Y-26900201D02*
X56557022Y-26900201D01*
X56642000Y-23622000D02*
X56642000Y-24966961D01*
X56642000Y-24966961D02*
X55595099Y-26013862D01*
X55595099Y-26013862D02*
X53958394Y-26013862D01*
X56642000Y-23622000D02*
X56642000Y-19998829D01*
X58931007Y-19998829D02*
X58931007Y-20003471D01*
X58931007Y-20003471D02*
X59181691Y-20254155D01*
X59181691Y-20254155D02*
X59181691Y-24069596D01*
X59181691Y-24069596D02*
X59181104Y-24070183D01*
X55118000Y-50358000D02*
X55118000Y-51390862D01*
X55118000Y-51390862D02*
X56388000Y-52660862D01*
X56388000Y-52660862D02*
X56388000Y-53688000D01*
X54080819Y-48317149D02*
X51313330Y-48317149D01*
X55118000Y-49354330D02*
X54080819Y-48317149D01*
X55118000Y-50358000D02*
X55118000Y-49354330D01*
X57658000Y-50358000D02*
X57658000Y-51389177D01*
X57658000Y-51389177D02*
X58928000Y-52659177D01*
X58928000Y-52659177D02*
X58928000Y-53688000D01*
X57658000Y-50358000D02*
X57658000Y-49186475D01*
X57658000Y-49186475D02*
X56789982Y-48318457D01*
X56789982Y-48318457D02*
X56392240Y-48318457D01*
X56388000Y-44958000D02*
X56388000Y-46354093D01*
X56388000Y-46354093D02*
X55488252Y-47253841D01*
X55488252Y-47253841D02*
X53858618Y-47253841D01*
X56388000Y-41308000D02*
X56388000Y-44958000D01*
X58928000Y-41308000D02*
X58928000Y-44958000D01*
X54864000Y-71534000D02*
X54864000Y-72642614D01*
X54864000Y-72642614D02*
X56134000Y-73912614D01*
X56134000Y-73912614D02*
X56134000Y-75024000D01*
X51058806Y-69572440D02*
X51053815Y-69577431D01*
X54864000Y-71084000D02*
X53352440Y-69572440D01*
X53352440Y-69572440D02*
X51058806Y-69572440D01*
X54864000Y-71534000D02*
X54864000Y-71084000D01*
X57404000Y-71534000D02*
X57404000Y-72642286D01*
X57404000Y-72642286D02*
X58674000Y-73912286D01*
X58674000Y-73912286D02*
X58674000Y-75024000D01*
X57404000Y-71534000D02*
X57404000Y-70531624D01*
X57404000Y-70531624D02*
X56154243Y-69281867D01*
X56134000Y-66134000D02*
X56134000Y-67214140D01*
X56134000Y-67214140D02*
X55343160Y-68004980D01*
X55343160Y-68004980D02*
X53625301Y-68004980D01*
X56134000Y-62484000D02*
X56134000Y-66134000D01*
X58674000Y-66134000D02*
X58674000Y-62484000D01*
X66040000Y-27667002D02*
X66040000Y-17486000D01*
X66040000Y-27667002D02*
X62863801Y-30843201D01*
X62863801Y-30843201D02*
X62602401Y-30843201D01*
X26937001Y-71612000D02*
X27687147Y-71612000D01*
X27687147Y-71612000D02*
X27687323Y-71611824D01*
X26937001Y-71612000D02*
X26937001Y-72882000D01*
X26937001Y-72882000D02*
X27387001Y-72882000D01*
X24489763Y-24656160D02*
X24483958Y-24661965D01*
X24483958Y-24661965D02*
X24483958Y-28051568D01*
X24483958Y-28051568D02*
X24341526Y-28194000D01*
X26937001Y-22912000D02*
X25703617Y-22912000D01*
X25354566Y-23261051D02*
X25354566Y-23791357D01*
X25703617Y-22912000D02*
X25354566Y-23261051D01*
X25354566Y-23791357D02*
X24489763Y-24656160D01*
X24341526Y-28194000D02*
X22606000Y-28194000D01*
X22606000Y-28194000D02*
X17018000Y-22606000D01*
X32337001Y-27992000D02*
X31538576Y-27992000D01*
X31538576Y-27992000D02*
X29308922Y-30221654D01*
X29308922Y-30221654D02*
X19553654Y-30221654D01*
X19553654Y-30221654D02*
X17018000Y-27686000D01*
X32337001Y-27992000D02*
X33475309Y-27992000D01*
X33475309Y-27992000D02*
X34075149Y-28591840D01*
X34075149Y-28591840D02*
X35146000Y-28591840D01*
X35146000Y-26490160D02*
X35146000Y-28591840D01*
X17026732Y-30226000D02*
X17727139Y-30926407D01*
X17727139Y-30926407D02*
X33008514Y-30926407D01*
X32337001Y-37452000D02*
X30597165Y-37452000D01*
X30597165Y-37452000D02*
X28199643Y-35054478D01*
X28199643Y-35054478D02*
X19306478Y-35054478D01*
X19306478Y-35054478D02*
X17018000Y-32766000D01*
X35146000Y-36687440D02*
X35146000Y-38789120D01*
X34131178Y-36687440D02*
X35146000Y-36687440D01*
X33366618Y-37452000D02*
X34131178Y-36687440D01*
X32337001Y-37452000D02*
X31887001Y-37452000D01*
X32337001Y-37452000D02*
X33366618Y-37452000D01*
X32337001Y-37452000D02*
X32031737Y-37452000D01*
X28291269Y-33801975D02*
X21246852Y-33801975D01*
X30778995Y-36289701D02*
X28291269Y-33801975D01*
X32338662Y-38720339D02*
X32650096Y-38720339D01*
X32650096Y-38720339D02*
X33074360Y-38720339D01*
X32337001Y-38722000D02*
X32338662Y-38720339D01*
X26937001Y-37452000D02*
X25703617Y-37452000D01*
X25703617Y-37452000D02*
X25295993Y-37859624D01*
X25295993Y-37859624D02*
X25295993Y-38389930D01*
X25295993Y-38389930D02*
X24489763Y-39196160D01*
X17018000Y-37846000D02*
X21844000Y-42672000D01*
X21844000Y-42672000D02*
X24384000Y-42672000D01*
X24489763Y-39196160D02*
X24489763Y-42566237D01*
X24489763Y-42566237D02*
X24384000Y-42672000D01*
X32337001Y-42532000D02*
X31329742Y-42532000D01*
X31329742Y-42532000D02*
X29101385Y-44760357D01*
X29101385Y-44760357D02*
X18852357Y-44760357D01*
X18852357Y-44760357D02*
X17018000Y-42926000D01*
X32337001Y-42532000D02*
X33475309Y-42532000D01*
X33475309Y-42532000D02*
X34075149Y-43131840D01*
X34075149Y-43131840D02*
X35146000Y-43131840D01*
X35146000Y-41030160D02*
X35146000Y-43131840D01*
X32966578Y-45466000D02*
X32975001Y-45474423D01*
X17018000Y-45466000D02*
X32966578Y-45466000D01*
X32337001Y-51992000D02*
X30412158Y-51992000D01*
X30412158Y-51992000D02*
X27949998Y-49529840D01*
X27949998Y-49529840D02*
X19493347Y-49529840D01*
X19493347Y-49529840D02*
X18477187Y-50546000D01*
X18477187Y-50546000D02*
X17018000Y-50546000D01*
X35146000Y-51227440D02*
X35146000Y-53329120D01*
X34131178Y-51227440D02*
X35146000Y-51227440D01*
X33366618Y-51992000D02*
X34131178Y-51227440D01*
X32337001Y-51992000D02*
X31887001Y-51992000D01*
X32337001Y-51992000D02*
X33366618Y-51992000D01*
X32337001Y-51992000D02*
X32031737Y-51992000D01*
X28513798Y-48541339D02*
X21557611Y-48541339D01*
X30781971Y-50809512D02*
X28513798Y-48541339D01*
X32338662Y-53260339D02*
X32650096Y-53260339D01*
X32650096Y-53260339D02*
X33074360Y-53260339D01*
X32337001Y-53262000D02*
X32338662Y-53260339D01*
X26937001Y-43802000D02*
X26937001Y-42532000D01*
X26937177Y-42531824D02*
X27263059Y-42531824D01*
X27263059Y-42531824D02*
X27687323Y-42531824D01*
X26937001Y-42532000D02*
X26937177Y-42531824D01*
X26937001Y-51992000D02*
X25703617Y-51992000D01*
X25703617Y-51992000D02*
X25295993Y-52399624D01*
X25295993Y-52399624D02*
X25295993Y-52929930D01*
X25295993Y-52929930D02*
X24489763Y-53736160D01*
X24489763Y-53736160D02*
X24489763Y-57038083D01*
X24489763Y-57038083D02*
X24341526Y-57186320D01*
X17018000Y-55626000D02*
X18578320Y-57186320D01*
X18578320Y-57186320D02*
X24341526Y-57186320D01*
X32337001Y-57072000D02*
X31887001Y-57072000D01*
X31887001Y-57072000D02*
X29337561Y-59621440D01*
X29337561Y-59621440D02*
X18102560Y-59621440D01*
X18102560Y-59621440D02*
X17018000Y-60706000D01*
X32337001Y-57072000D02*
X33475309Y-57072000D01*
X33475309Y-57072000D02*
X34075149Y-57671840D01*
X34075149Y-57671840D02*
X35146000Y-57671840D01*
X35146000Y-55570160D02*
X35146000Y-57671840D01*
X17018000Y-63246000D02*
X19873165Y-60390835D01*
X19873165Y-60390835D02*
X32459535Y-60390835D01*
X32459535Y-60390835D02*
X33040521Y-59809849D01*
X32337001Y-66532000D02*
X30464249Y-66532000D01*
X30464249Y-66532000D02*
X27999069Y-64066820D01*
X18721057Y-64066820D02*
X17018000Y-65769877D01*
X27999069Y-64066820D02*
X18721057Y-64066820D01*
X35146000Y-65767440D02*
X35146000Y-67869120D01*
X34131178Y-65767440D02*
X35146000Y-65767440D01*
X33366618Y-66532000D02*
X34131178Y-65767440D01*
X32337001Y-66532000D02*
X31887001Y-66532000D01*
X32337001Y-66532000D02*
X33366618Y-66532000D01*
X32337001Y-66532000D02*
X32031737Y-66532000D01*
X28301127Y-62895843D02*
X22445676Y-62895843D01*
X30781768Y-65376484D02*
X28301127Y-62895843D01*
X32338662Y-67800339D02*
X32650096Y-67800339D01*
X32650096Y-67800339D02*
X33074360Y-67800339D01*
X32337001Y-67802000D02*
X32338662Y-67800339D01*
X27263059Y-27991824D02*
X27687323Y-27991824D01*
X26937177Y-27991824D02*
X27263059Y-27991824D01*
X26937001Y-27992000D02*
X26937177Y-27991824D01*
X26937001Y-29262000D02*
X26937001Y-27992000D01*
X26937001Y-66532000D02*
X25703617Y-66532000D01*
X25703617Y-66532000D02*
X25295993Y-66939624D01*
X25295993Y-66939624D02*
X25295993Y-67469930D01*
X25295993Y-67469930D02*
X24489763Y-68276160D01*
X17018000Y-70868822D02*
X17777178Y-71628000D01*
X17777178Y-71628000D02*
X24384000Y-71628000D01*
X24489763Y-68276160D02*
X24489763Y-71522237D01*
X24489763Y-71522237D02*
X24384000Y-71628000D01*
X17036026Y-75946000D02*
X18425624Y-74556402D01*
X18425624Y-74556402D02*
X28726301Y-74556402D01*
X28726301Y-74556402D02*
X31670703Y-71612000D01*
X31670703Y-71612000D02*
X32337001Y-71612000D01*
X32337001Y-71612000D02*
X33475309Y-71612000D01*
X33475309Y-71612000D02*
X34075149Y-72211840D01*
X34075149Y-72211840D02*
X35146000Y-72211840D01*
X35146000Y-70110160D02*
X35146000Y-72211840D01*
X28698364Y-76058820D02*
X30701530Y-74055654D01*
X19445180Y-76058820D02*
X28698364Y-76058820D01*
X17018000Y-78486000D02*
X19445180Y-76058820D01*
X27959105Y-70342000D02*
X29681755Y-72064650D01*
X26937001Y-70342000D02*
X27959105Y-70342000D01*
X27947568Y-41262000D02*
X29712785Y-43027217D01*
X26937001Y-41262000D02*
X27947568Y-41262000D01*
X27979634Y-26722000D02*
X29700882Y-28443248D01*
X26937001Y-26722000D02*
X27979634Y-26722000D01*
X51562000Y-29022000D02*
X51562000Y-32207836D01*
X51562000Y-32207836D02*
X51311007Y-32458829D01*
X37846000Y-65767440D02*
X40640000Y-65767440D01*
X32337001Y-65262000D02*
X33337001Y-65262000D01*
X33337001Y-65262000D02*
X34068854Y-64530147D01*
X34068854Y-64530147D02*
X36508707Y-64530147D01*
X36508707Y-64530147D02*
X37746000Y-65767440D01*
X37746000Y-65767440D02*
X37846000Y-65767440D01*
X37846000Y-65767440D02*
X37846000Y-67869120D01*
X40640000Y-57671840D02*
X37846000Y-57671840D01*
X32337001Y-58342000D02*
X33337001Y-58342000D01*
X33337001Y-58342000D02*
X33925004Y-58930003D01*
X33925004Y-58930003D02*
X36487837Y-58930003D01*
X36487837Y-58930003D02*
X37746000Y-57671840D01*
X37746000Y-57671840D02*
X37846000Y-57671840D01*
X37846000Y-55570160D02*
X37846000Y-57671840D01*
X22606000Y-55118000D02*
X22606000Y-51816077D01*
X22606000Y-51816077D02*
X22754237Y-51667840D01*
X27237501Y-50721343D02*
X27661765Y-50721343D01*
X26937658Y-50721343D02*
X27237501Y-50721343D01*
X26937001Y-50722000D02*
X26937658Y-50721343D01*
X26937001Y-50722000D02*
X23700077Y-50722000D01*
X23700077Y-50722000D02*
X22754237Y-51667840D01*
X22902474Y-55205680D02*
X22491259Y-54794465D01*
X22491259Y-51930818D02*
X22754237Y-51667840D01*
X40640000Y-51227440D02*
X37846000Y-51227440D01*
X32337001Y-50722000D02*
X33337001Y-50722000D01*
X33337001Y-50722000D02*
X34060726Y-49998275D01*
X36516835Y-49998275D02*
X37746000Y-51227440D01*
X34060726Y-49998275D02*
X36516835Y-49998275D01*
X37746000Y-51227440D02*
X37846000Y-51227440D01*
X37846000Y-51227440D02*
X37846000Y-53329120D01*
X40640000Y-43131840D02*
X37846000Y-43131840D01*
X32337001Y-43802000D02*
X33337001Y-43802000D01*
X33933131Y-44398130D02*
X36479710Y-44398130D01*
X36479710Y-44398130D02*
X37746000Y-43131840D01*
X33337001Y-43802000D02*
X33933131Y-44398130D01*
X37746000Y-43131840D02*
X37846000Y-43131840D01*
X37846000Y-41030160D02*
X37846000Y-43131840D01*
X22754237Y-37127840D02*
X22754237Y-40497917D01*
X22754237Y-40497917D02*
X22648474Y-40603680D01*
X26937001Y-36182000D02*
X26937944Y-36182943D01*
X27245246Y-36182943D02*
X27669510Y-36182943D01*
X26937944Y-36182943D02*
X27245246Y-36182943D01*
X23700077Y-36182000D02*
X22754237Y-37127840D01*
X22902474Y-40665680D02*
X22491259Y-40254465D01*
X22491259Y-37390818D02*
X22754237Y-37127840D01*
X26937001Y-36182000D02*
X23700077Y-36182000D01*
X40640000Y-36687440D02*
X37846000Y-36687440D01*
X32337001Y-36182000D02*
X33337001Y-36182000D01*
X33337001Y-36182000D02*
X34074226Y-35444775D01*
X34074226Y-35444775D02*
X36503335Y-35444775D01*
X36503335Y-35444775D02*
X37746000Y-36687440D01*
X37746000Y-36687440D02*
X37846000Y-36687440D01*
X37846000Y-36687440D02*
X37846000Y-38789120D01*
X40640000Y-28591840D02*
X37846000Y-28591840D01*
X32337001Y-29262000D02*
X33337001Y-29262000D01*
X33337001Y-29262000D02*
X33919632Y-29844631D01*
X36493209Y-29844631D02*
X37746000Y-28591840D01*
X33919632Y-29844631D02*
X36493209Y-29844631D01*
X37746000Y-28591840D02*
X37846000Y-28591840D01*
X37846000Y-26490160D02*
X37846000Y-28591840D01*
X22754237Y-22587840D02*
X22754237Y-25977443D01*
X22754237Y-25977443D02*
X22606000Y-26125680D01*
X27268597Y-21644289D02*
X27692861Y-21644289D01*
X26939290Y-21644289D02*
X27268597Y-21644289D01*
X26937001Y-21642000D02*
X26939290Y-21644289D01*
X26937001Y-21642000D02*
X23700077Y-21642000D01*
X23700077Y-21642000D02*
X22754237Y-22587840D01*
X37846000Y-24249120D02*
X40640000Y-24249120D01*
X34087725Y-20891276D02*
X36489836Y-20891276D01*
X36489836Y-20891276D02*
X37746000Y-22147440D01*
X33337001Y-21642000D02*
X34087725Y-20891276D01*
X32337001Y-21642000D02*
X33337001Y-21642000D01*
X37746000Y-22147440D02*
X37846000Y-22147440D01*
X37846000Y-22147440D02*
X37846000Y-24249120D01*
X53848000Y-38608000D02*
X53848000Y-38708000D01*
X52578000Y-39978000D02*
X52578000Y-44958000D01*
X53848000Y-38708000D02*
X52578000Y-39978000D01*
X51562000Y-23622000D02*
X49632274Y-23622000D01*
X49233475Y-23223201D02*
X47362401Y-23223201D01*
X49632274Y-23622000D02*
X49233475Y-23223201D01*
X51562000Y-23622000D02*
X51562000Y-20249822D01*
X51562000Y-20249822D02*
X51311007Y-19998829D01*
X43340000Y-28591840D02*
X43340000Y-34658280D01*
X43340000Y-34658280D02*
X43342560Y-34660840D01*
X59182000Y-29022000D02*
X59182000Y-30110695D01*
X59182000Y-30110695D02*
X60134631Y-31063326D01*
X60134631Y-31063326D02*
X60134631Y-33855205D01*
X60134631Y-33855205D02*
X58931007Y-35058829D01*
X58931007Y-35058829D02*
X58931007Y-35158829D01*
X51311007Y-35158829D02*
X50854021Y-35158829D01*
X58931007Y-35158829D02*
X58931007Y-35258829D01*
X58931007Y-35258829D02*
X57704366Y-36485470D01*
X57704366Y-36485470D02*
X52537648Y-36485470D01*
X52537648Y-36485470D02*
X51311007Y-35258829D01*
X51311007Y-35258829D02*
X51311007Y-35158829D01*
X43340000Y-24249120D02*
X43340000Y-25330657D01*
X45041615Y-27032272D02*
X49705711Y-27032272D01*
X43340000Y-25330657D02*
X45041615Y-27032272D01*
X50852009Y-25885974D02*
X52670020Y-25885974D01*
X49705711Y-27032272D02*
X50852009Y-25885974D01*
X53492867Y-25063127D02*
X54945582Y-25063127D01*
X52670020Y-25885974D02*
X53492867Y-25063127D01*
X54945582Y-25063127D02*
X55372000Y-24636709D01*
X55372000Y-24636709D02*
X55372000Y-23622000D01*
X55372000Y-21436158D02*
X53934671Y-19998829D01*
X55372000Y-23622000D02*
X55372000Y-21436158D01*
X56642000Y-17298829D02*
X56616584Y-17298829D01*
X56616584Y-17298829D02*
X53934671Y-19980742D01*
X53934671Y-19980742D02*
X53934671Y-19998829D01*
X26667134Y-17893382D02*
X27151306Y-17409210D01*
X27151306Y-17409210D02*
X51288647Y-17409210D01*
X51304214Y-16850900D02*
X51308180Y-16850900D01*
X57912000Y-23622000D02*
X57912000Y-18398613D01*
X57912000Y-18398613D02*
X58628042Y-17682571D01*
X58628042Y-17682571D02*
X58628042Y-17147835D01*
X58628042Y-17147835D02*
X58928041Y-16847836D01*
X51311007Y-16853727D02*
X51308180Y-16850900D01*
X51311007Y-17198829D02*
X51311007Y-16853727D01*
X58931007Y-17198829D02*
X58931007Y-16850802D01*
X58931007Y-16850802D02*
X58928041Y-16847836D01*
X56388000Y-56388000D02*
X56388000Y-56288000D01*
X56388000Y-51395359D02*
X56388000Y-50358000D01*
X56388000Y-56288000D02*
X57658590Y-55017410D01*
X57658590Y-55017410D02*
X57658590Y-52665949D01*
X57658590Y-52665949D02*
X56388000Y-51395359D01*
X54302440Y-56388000D02*
X54144260Y-56229820D01*
X56388000Y-56388000D02*
X54302440Y-56388000D01*
X54144260Y-56229820D02*
X53844261Y-55929821D01*
X58928000Y-50358000D02*
X58928000Y-51393674D01*
X58928000Y-51393674D02*
X60139955Y-52605629D01*
X60139955Y-52605629D02*
X60139955Y-55252298D01*
X60139955Y-55252298D02*
X58982712Y-56409541D01*
X58982712Y-56409541D02*
X58939757Y-56409541D01*
X58939757Y-56409541D02*
X58939757Y-56833805D01*
X43340000Y-53425807D02*
X43329531Y-53436276D01*
X43340000Y-51227440D02*
X43340000Y-53425807D01*
X58928000Y-56822048D02*
X58939757Y-56833805D01*
X58928000Y-56488000D02*
X58928000Y-56822048D01*
X51311142Y-56413533D02*
X51311142Y-56837797D01*
X51308000Y-56288000D02*
X51311142Y-56291142D01*
X51311142Y-56291142D02*
X51311142Y-56413533D01*
X43340000Y-51227440D02*
X43349888Y-51227440D01*
X51019791Y-47010796D02*
X51651078Y-46379509D01*
X51651078Y-46379509D02*
X54706887Y-46379509D01*
X54706887Y-46379509D02*
X55118000Y-45968396D01*
X55118000Y-45968396D02*
X55118000Y-44958000D01*
X43340000Y-43131840D02*
X43440000Y-43131840D01*
X53848000Y-41308000D02*
X53848000Y-41404297D01*
X53848000Y-41404297D02*
X55118000Y-42674297D01*
X55118000Y-42674297D02*
X55118000Y-44958000D01*
X56388000Y-38708000D02*
X53848000Y-41248000D01*
X56388000Y-38608000D02*
X56388000Y-38708000D01*
X53848000Y-41248000D02*
X53848000Y-41308000D01*
X51308000Y-38608000D02*
X51308000Y-38508000D01*
X52514528Y-37301472D02*
X57721472Y-37301472D01*
X57721472Y-37301472D02*
X58928000Y-38508000D01*
X51308000Y-38508000D02*
X52514528Y-37301472D01*
X58928000Y-38508000D02*
X58928000Y-38608000D01*
X57658000Y-39878000D02*
X57658000Y-44958000D01*
X58928000Y-38608000D02*
X57658000Y-39878000D01*
X56134000Y-71534000D02*
X56134000Y-72653214D01*
X56134000Y-72653214D02*
X57404000Y-73923214D01*
X57404000Y-73923214D02*
X57404000Y-76528533D01*
X57404000Y-76528533D02*
X56208533Y-77724000D01*
X56208533Y-77724000D02*
X56134000Y-77724000D01*
X56134000Y-71534000D02*
X56134000Y-71084000D01*
X53848291Y-68798291D02*
X52440528Y-68798291D01*
X56134000Y-71084000D02*
X53848291Y-68798291D01*
X52440528Y-68798291D02*
X51781031Y-68138794D01*
X51781031Y-68138794D02*
X50678959Y-68138794D01*
X43340000Y-65767440D02*
X43440000Y-65767440D01*
X53594000Y-77724000D02*
X56134000Y-77724000D01*
X57404000Y-66134000D02*
X57404000Y-61153173D01*
X57404000Y-61153173D02*
X58678070Y-59879103D01*
X58678070Y-59879103D02*
X58678070Y-59505532D01*
X58678070Y-58441423D02*
X58678071Y-58441422D01*
X58678071Y-59679929D02*
X58678071Y-58441422D01*
X58674000Y-59684000D02*
X58678071Y-59679929D01*
X51208496Y-59140690D02*
X51208496Y-58420240D01*
X51224153Y-59156347D02*
X51208496Y-59140690D01*
X43340000Y-57671840D02*
X43339081Y-57671840D01*
X43339081Y-57671840D02*
X43486559Y-57524362D01*
X56642000Y-29022000D02*
X56642000Y-30114236D01*
X56642000Y-30114236D02*
X57654310Y-31126546D01*
X57654310Y-31126546D02*
X57654310Y-33795526D01*
X57654310Y-33795526D02*
X56391007Y-35058829D01*
X56391007Y-35058829D02*
X56391007Y-35158829D01*
X54154539Y-35012938D02*
X53854540Y-34712939D01*
X54300430Y-35158829D02*
X54154539Y-35012938D01*
X56391007Y-35158829D02*
X54300430Y-35158829D01*
X58674000Y-71534000D02*
X58674000Y-72669032D01*
X58674000Y-72669032D02*
X59944000Y-73939032D01*
X59944000Y-73939032D02*
X59944000Y-76530617D01*
X59944000Y-76530617D02*
X58972054Y-77502563D01*
X58972054Y-77502563D02*
X58972054Y-77874279D01*
X58972054Y-77874279D02*
X58672055Y-78174278D01*
X33020000Y-78486000D02*
X33020000Y-78483279D01*
X33020000Y-78483279D02*
X35608079Y-75895200D01*
X42190785Y-75895200D02*
X43340000Y-74745985D01*
X35608079Y-75895200D02*
X42190785Y-75895200D01*
X43340000Y-74745985D02*
X43340000Y-72211840D01*
X58674000Y-77824000D02*
X58674000Y-78172333D01*
X58674000Y-78172333D02*
X58672055Y-78174278D01*
X51054000Y-78171915D02*
X51056363Y-78174278D01*
X51054000Y-77824000D02*
X51054000Y-78171915D01*
X50756364Y-77874279D02*
X51056363Y-78174278D01*
X22754237Y-66207840D02*
X22754237Y-69453917D01*
X22754237Y-69453917D02*
X22648474Y-69559680D01*
X27252069Y-65263521D02*
X27676333Y-65263521D01*
X26938522Y-65263521D02*
X27252069Y-65263521D01*
X26937001Y-65262000D02*
X26938522Y-65263521D01*
X26937001Y-65262000D02*
X23700077Y-65262000D01*
X23700077Y-65262000D02*
X22754237Y-66207840D01*
X22902474Y-69745680D02*
X22491259Y-69334465D01*
X22491259Y-66470818D02*
X22754237Y-66207840D01*
X51305688Y-41282877D02*
X51305688Y-40858613D01*
X51305688Y-41305688D02*
X51305688Y-41282877D01*
X51308000Y-41308000D02*
X51305688Y-41305688D01*
X51308000Y-41308000D02*
X51308000Y-44958000D01*
X55927342Y-60050658D02*
X56132292Y-60050658D01*
X53594000Y-62484000D02*
X53594000Y-62384000D01*
X53594000Y-62384000D02*
X55927342Y-60050658D01*
X54864000Y-66134000D02*
X54864000Y-63849641D01*
X54864000Y-63849641D02*
X53594000Y-62579641D01*
X53594000Y-62579641D02*
X53594000Y-62484000D01*
X52324000Y-71534000D02*
X52324000Y-70528059D01*
X48248037Y-57496259D02*
X46386039Y-57496259D01*
X52324000Y-70528059D02*
X52114969Y-70319028D01*
X52114969Y-70319028D02*
X50581911Y-70319028D01*
X49887643Y-63712341D02*
X49160580Y-62985278D01*
X50581911Y-70319028D02*
X49887643Y-69624760D01*
X49887643Y-69624760D02*
X49887643Y-63712341D01*
X49160580Y-62985278D02*
X49160580Y-58408802D01*
X49160580Y-58408802D02*
X48248037Y-57496259D01*
X46386039Y-57496259D02*
X45713029Y-56823249D01*
X45713029Y-56823249D02*
X45713029Y-52551173D01*
X45713029Y-52551173D02*
X47101001Y-51163201D01*
X47101001Y-51163201D02*
X47362401Y-51163201D01*
X52324000Y-71534000D02*
X52324000Y-72634061D01*
X52324000Y-72634061D02*
X53594000Y-73904061D01*
X53594000Y-73904061D02*
X53594000Y-75024000D01*
D24*
G36*
X80665400Y-79629080D02*
X79136900Y-79629080D01*
X79488072Y-79103514D01*
X79612490Y-78478022D01*
X79612490Y-78413978D01*
X79488072Y-77788486D01*
X79133759Y-77258219D01*
X79010710Y-77176000D01*
X79133759Y-77093781D01*
X79488072Y-76563514D01*
X79612490Y-75938022D01*
X79612490Y-75873978D01*
X79488072Y-75248486D01*
X79133759Y-74718219D01*
X79010710Y-74636000D01*
X79133759Y-74553781D01*
X79488072Y-74023514D01*
X79612490Y-73398022D01*
X79612490Y-73333978D01*
X79488072Y-72708486D01*
X79133759Y-72178219D01*
X79010710Y-72096000D01*
X79133759Y-72013781D01*
X79488072Y-71483514D01*
X79612490Y-70858022D01*
X79612490Y-70793978D01*
X79488072Y-70168486D01*
X79133759Y-69638219D01*
X79010710Y-69556000D01*
X79133759Y-69473781D01*
X79488072Y-68943514D01*
X79612490Y-68318022D01*
X79612490Y-68253978D01*
X79488072Y-67628486D01*
X79133759Y-67098219D01*
X79010710Y-67016000D01*
X79133759Y-66933781D01*
X79488072Y-66403514D01*
X79612490Y-65778022D01*
X79612490Y-65713978D01*
X79488072Y-65088486D01*
X79133759Y-64558219D01*
X79010710Y-64476000D01*
X79133759Y-64393781D01*
X79488072Y-63863514D01*
X79612490Y-63238022D01*
X79612490Y-63173978D01*
X79488072Y-62548486D01*
X79133759Y-62018219D01*
X79010710Y-61936000D01*
X79133759Y-61853781D01*
X79488072Y-61323514D01*
X79612490Y-60698022D01*
X79612490Y-60633978D01*
X79488072Y-60008486D01*
X79133759Y-59478219D01*
X79010710Y-59396000D01*
X79133759Y-59313781D01*
X79488072Y-58783514D01*
X79612490Y-58158022D01*
X79612490Y-58093978D01*
X79488072Y-57468486D01*
X79133759Y-56938219D01*
X79010710Y-56856000D01*
X79133759Y-56773781D01*
X79488072Y-56243514D01*
X79612490Y-55618022D01*
X79612490Y-55553978D01*
X79488072Y-54928486D01*
X79133759Y-54398219D01*
X79010710Y-54316000D01*
X79133759Y-54233781D01*
X79488072Y-53703514D01*
X79612490Y-53078022D01*
X79612490Y-53013978D01*
X79488072Y-52388486D01*
X79133759Y-51858219D01*
X79010710Y-51776000D01*
X79133759Y-51693781D01*
X79488072Y-51163514D01*
X79612490Y-50538022D01*
X79612490Y-50473978D01*
X79488072Y-49848486D01*
X79133759Y-49318219D01*
X78603492Y-48963906D01*
X77978000Y-48839488D01*
X77352508Y-48963906D01*
X76822241Y-49318219D01*
X76467928Y-49848486D01*
X76421294Y-50082933D01*
X74331222Y-50082933D01*
X74331162Y-50082616D01*
X74192090Y-49866492D01*
X73979890Y-49721502D01*
X73728000Y-49670493D01*
X72228000Y-49670493D01*
X71992683Y-49714771D01*
X71776559Y-49853843D01*
X71631569Y-50066043D01*
X71628919Y-50079130D01*
X71492090Y-49866492D01*
X71279890Y-49721502D01*
X71163000Y-49697831D01*
X71163000Y-47955558D01*
X71263317Y-47936682D01*
X71479441Y-47797610D01*
X71624431Y-47585410D01*
X71627081Y-47572323D01*
X71763910Y-47784961D01*
X71976110Y-47929951D01*
X72228000Y-47980960D01*
X73728000Y-47980960D01*
X73963317Y-47936682D01*
X74179441Y-47797610D01*
X74324431Y-47585410D01*
X74375440Y-47333520D01*
X74375440Y-46033520D01*
X74331162Y-45798203D01*
X74285640Y-45727460D01*
X76242099Y-43771000D01*
X76627146Y-43771000D01*
X76822241Y-44062981D01*
X76945290Y-44145200D01*
X76822241Y-44227419D01*
X76467928Y-44757686D01*
X76343510Y-45383178D01*
X76343510Y-45447222D01*
X76467928Y-46072714D01*
X76822241Y-46602981D01*
X77352508Y-46957294D01*
X77978000Y-47081712D01*
X78603492Y-46957294D01*
X79133759Y-46602981D01*
X79488072Y-46072714D01*
X79612490Y-45447222D01*
X79612490Y-45383178D01*
X79488072Y-44757686D01*
X79133759Y-44227419D01*
X79010710Y-44145200D01*
X79133759Y-44062981D01*
X79488072Y-43532714D01*
X79612490Y-42907222D01*
X79612490Y-42843178D01*
X79488072Y-42217686D01*
X79133759Y-41687419D01*
X79010710Y-41605200D01*
X79133759Y-41522981D01*
X79488072Y-40992714D01*
X79612490Y-40367222D01*
X79612490Y-40303178D01*
X79488072Y-39677686D01*
X79133759Y-39147419D01*
X79010710Y-39065200D01*
X79133759Y-38982981D01*
X79488072Y-38452714D01*
X79612490Y-37827222D01*
X79612490Y-37763178D01*
X79488072Y-37137686D01*
X79133759Y-36607419D01*
X79010710Y-36525200D01*
X79133759Y-36442981D01*
X79488072Y-35912714D01*
X79612490Y-35287222D01*
X79612490Y-35223178D01*
X79488072Y-34597686D01*
X79133759Y-34067419D01*
X79010710Y-33985200D01*
X79133759Y-33902981D01*
X79488072Y-33372714D01*
X79612490Y-32747222D01*
X79612490Y-32683178D01*
X79488072Y-32057686D01*
X79133759Y-31527419D01*
X79010710Y-31445200D01*
X79133759Y-31362981D01*
X79488072Y-30832714D01*
X79612490Y-30207222D01*
X79612490Y-30143178D01*
X79488072Y-29517686D01*
X79133759Y-28987419D01*
X79010710Y-28905200D01*
X79133759Y-28822981D01*
X79488072Y-28292714D01*
X79612490Y-27667222D01*
X79612490Y-27603178D01*
X79488072Y-26977686D01*
X79133759Y-26447419D01*
X79010710Y-26365200D01*
X79133759Y-26282981D01*
X79488072Y-25752714D01*
X79612490Y-25127222D01*
X79612490Y-25063178D01*
X79488072Y-24437686D01*
X79133759Y-23907419D01*
X79010710Y-23825200D01*
X79133759Y-23742981D01*
X79488072Y-23212714D01*
X79612490Y-22587222D01*
X79612490Y-22523178D01*
X79488072Y-21897686D01*
X79133759Y-21367419D01*
X79010710Y-21285200D01*
X79133759Y-21202981D01*
X79488072Y-20672714D01*
X79612490Y-20047222D01*
X79612490Y-19983178D01*
X79488072Y-19357686D01*
X79133759Y-18827419D01*
X79010710Y-18745200D01*
X79133759Y-18662981D01*
X79488072Y-18132714D01*
X79612490Y-17507222D01*
X79612490Y-17443178D01*
X79488072Y-16817686D01*
X79133759Y-16287419D01*
X78603492Y-15933106D01*
X77978000Y-15808688D01*
X77352508Y-15933106D01*
X76822241Y-16287419D01*
X76467928Y-16817686D01*
X76343510Y-17443178D01*
X76343510Y-17507222D01*
X76403518Y-17808903D01*
X74812357Y-19400063D01*
X74620514Y-19687178D01*
X74620514Y-19687179D01*
X74553146Y-20025853D01*
X74553147Y-20025858D01*
X74553147Y-20955866D01*
X72352210Y-23156802D01*
X72160367Y-23443917D01*
X72152038Y-23485789D01*
X72092999Y-23782592D01*
X72093000Y-23782597D01*
X72093000Y-23989417D01*
X71992683Y-24008293D01*
X71776559Y-24147365D01*
X71631569Y-24359565D01*
X71628919Y-24372652D01*
X71492090Y-24160014D01*
X71279890Y-24015024D01*
X71227221Y-24004358D01*
X71745787Y-23485792D01*
X71745790Y-23485790D01*
X71937633Y-23198675D01*
X71968199Y-23045010D01*
X72005001Y-22860000D01*
X72005000Y-22859995D01*
X72005000Y-18847126D01*
X72179670Y-18730415D01*
X72504526Y-18244234D01*
X72618600Y-17670745D01*
X72618600Y-17301255D01*
X72504526Y-16727766D01*
X72179670Y-16241585D01*
X71693489Y-15916729D01*
X71120000Y-15802655D01*
X70546511Y-15916729D01*
X70060330Y-16241585D01*
X70045500Y-16263780D01*
X69981927Y-16110302D01*
X69803299Y-15931673D01*
X69569910Y-15835000D01*
X68865750Y-15835000D01*
X68707000Y-15993750D01*
X68707000Y-17359000D01*
X68727000Y-17359000D01*
X68727000Y-17613000D01*
X68707000Y-17613000D01*
X68707000Y-18978250D01*
X68865750Y-19137000D01*
X69569910Y-19137000D01*
X69803299Y-19040327D01*
X69981927Y-18861698D01*
X70045500Y-18708220D01*
X70060330Y-18730415D01*
X70235000Y-18847126D01*
X70235000Y-22493421D01*
X69652210Y-23076210D01*
X69460367Y-23363325D01*
X69460367Y-23363326D01*
X69392999Y-23702000D01*
X69393000Y-23702005D01*
X69393000Y-23989417D01*
X69292683Y-24008293D01*
X69076559Y-24147365D01*
X68931569Y-24359565D01*
X68880560Y-24611455D01*
X68880560Y-25911455D01*
X68924838Y-26146772D01*
X69063910Y-26362896D01*
X69276110Y-26507886D01*
X69393000Y-26531557D01*
X69393000Y-28273830D01*
X69292683Y-28292706D01*
X69076559Y-28431778D01*
X68931569Y-28643978D01*
X68880560Y-28895868D01*
X68880560Y-30195868D01*
X68924838Y-30431185D01*
X69063910Y-30647309D01*
X69276110Y-30792299D01*
X69393000Y-30815970D01*
X69393000Y-32558243D01*
X69292683Y-32577119D01*
X69076559Y-32716191D01*
X68931569Y-32928391D01*
X68880560Y-33180281D01*
X68880560Y-34480281D01*
X68924838Y-34715598D01*
X69063910Y-34931722D01*
X69276110Y-35076712D01*
X69393000Y-35100383D01*
X69393000Y-36842656D01*
X69292683Y-36861532D01*
X69076559Y-37000604D01*
X68931569Y-37212804D01*
X68880560Y-37464694D01*
X68880560Y-38764694D01*
X68924838Y-39000011D01*
X69063910Y-39216135D01*
X69276110Y-39361125D01*
X69393000Y-39384796D01*
X69393000Y-41127069D01*
X69292683Y-41145945D01*
X69076559Y-41285017D01*
X68931569Y-41497217D01*
X68880560Y-41749107D01*
X68880560Y-43049107D01*
X68924838Y-43284424D01*
X69063910Y-43500548D01*
X69276110Y-43645538D01*
X69393000Y-43669209D01*
X69393000Y-45411482D01*
X69292683Y-45430358D01*
X69076559Y-45569430D01*
X68931569Y-45781630D01*
X68880560Y-46033520D01*
X68880560Y-47333520D01*
X68924838Y-47568837D01*
X69063910Y-47784961D01*
X69276110Y-47929951D01*
X69393000Y-47953622D01*
X69393000Y-49695895D01*
X69292683Y-49714771D01*
X69076559Y-49853843D01*
X68931569Y-50066043D01*
X68880560Y-50317933D01*
X68880560Y-51617933D01*
X68924838Y-51853250D01*
X69063910Y-52069374D01*
X69276110Y-52214364D01*
X69393000Y-52238035D01*
X69393000Y-53980308D01*
X69292683Y-53999184D01*
X69076559Y-54138256D01*
X68931569Y-54350456D01*
X68880560Y-54602346D01*
X68880560Y-55902346D01*
X68924838Y-56137663D01*
X69063910Y-56353787D01*
X69276110Y-56498777D01*
X69393000Y-56522448D01*
X69393000Y-58264721D01*
X69292683Y-58283597D01*
X69076559Y-58422669D01*
X68931569Y-58634869D01*
X68880560Y-58886759D01*
X68880560Y-60186759D01*
X68924838Y-60422076D01*
X69063910Y-60638200D01*
X69276110Y-60783190D01*
X69393000Y-60806861D01*
X69393000Y-62549134D01*
X69292683Y-62568010D01*
X69076559Y-62707082D01*
X68931569Y-62919282D01*
X68880560Y-63171172D01*
X68880560Y-64471172D01*
X68924838Y-64706489D01*
X69063910Y-64922613D01*
X69276110Y-65067603D01*
X69393000Y-65091274D01*
X69393000Y-66833547D01*
X69292683Y-66852423D01*
X69076559Y-66991495D01*
X68931569Y-67203695D01*
X68880560Y-67455585D01*
X68880560Y-68755585D01*
X68924838Y-68990902D01*
X69063910Y-69207026D01*
X69276110Y-69352016D01*
X69393000Y-69375687D01*
X69393000Y-71117960D01*
X69292683Y-71136836D01*
X69076559Y-71275908D01*
X68931569Y-71488108D01*
X68880560Y-71739998D01*
X68880560Y-73039998D01*
X68924838Y-73275315D01*
X69063910Y-73491439D01*
X69276110Y-73636429D01*
X69518000Y-73685413D01*
X69518000Y-76435056D01*
X69091030Y-76862026D01*
X68588242Y-76762015D01*
X68014753Y-76876089D01*
X67528572Y-77200945D01*
X67318242Y-77515726D01*
X67107912Y-77200945D01*
X66621731Y-76876089D01*
X66048242Y-76762015D01*
X65474753Y-76876089D01*
X64988572Y-77200945D01*
X64663716Y-77687126D01*
X64549642Y-78260615D01*
X64549642Y-78630105D01*
X64663716Y-79203594D01*
X64948017Y-79629080D01*
X39227380Y-79629080D01*
X39483346Y-79246000D01*
X44777264Y-79246000D01*
X45068103Y-79188148D01*
X45314665Y-79023401D01*
X49196632Y-75141434D01*
X49616599Y-75561401D01*
X49756560Y-75654920D01*
X49756560Y-75774000D01*
X49800838Y-76009317D01*
X49939910Y-76225441D01*
X50152110Y-76370431D01*
X50165197Y-76373081D01*
X49952559Y-76509910D01*
X49807569Y-76722110D01*
X49756560Y-76974000D01*
X49756560Y-78474000D01*
X49800838Y-78709317D01*
X49939910Y-78925441D01*
X50152110Y-79070431D01*
X50404000Y-79121440D01*
X51704000Y-79121440D01*
X51939317Y-79077162D01*
X52155441Y-78938090D01*
X52300431Y-78725890D01*
X52322993Y-78614477D01*
X52340838Y-78709317D01*
X52479910Y-78925441D01*
X52692110Y-79070431D01*
X52944000Y-79121440D01*
X54244000Y-79121440D01*
X54479317Y-79077162D01*
X54695441Y-78938090D01*
X54840431Y-78725890D01*
X54862993Y-78614477D01*
X54880838Y-78709317D01*
X55019910Y-78925441D01*
X55232110Y-79070431D01*
X55484000Y-79121440D01*
X56784000Y-79121440D01*
X57019317Y-79077162D01*
X57235441Y-78938090D01*
X57380431Y-78725890D01*
X57402993Y-78614477D01*
X57420838Y-78709317D01*
X57559910Y-78925441D01*
X57772110Y-79070431D01*
X58024000Y-79121440D01*
X59324000Y-79121440D01*
X59559317Y-79077162D01*
X59775441Y-78938090D01*
X59920431Y-78725890D01*
X59971440Y-78474000D01*
X59971440Y-77577979D01*
X60481401Y-77068018D01*
X60646148Y-76821457D01*
X60704000Y-76530617D01*
X60704000Y-73939032D01*
X60690041Y-73868855D01*
X60646148Y-73648192D01*
X60481401Y-73401631D01*
X59578048Y-72498278D01*
X59621440Y-72284000D01*
X59621440Y-70784000D01*
X59577162Y-70548683D01*
X59438090Y-70332559D01*
X59225890Y-70187569D01*
X58974000Y-70136560D01*
X58374000Y-70136560D01*
X58138683Y-70180838D01*
X58087920Y-70213503D01*
X57941401Y-69994223D01*
X57069010Y-69121832D01*
X57069036Y-69091857D01*
X57063495Y-69078448D01*
X57260087Y-69160080D01*
X57632053Y-69160404D01*
X57753455Y-69110242D01*
X59283669Y-69110242D01*
X59283674Y-69110243D01*
X59566158Y-69054052D01*
X59622349Y-69042875D01*
X59909464Y-68851032D01*
X60748308Y-68012187D01*
X60748311Y-68012185D01*
X60940154Y-67725070D01*
X60959366Y-67628486D01*
X61007522Y-67386395D01*
X61007521Y-67386390D01*
X61007521Y-67101854D01*
X61249530Y-67464046D01*
X61564311Y-67674376D01*
X61249530Y-67884706D01*
X60924674Y-68370887D01*
X60810600Y-68944376D01*
X60924674Y-69517865D01*
X61249530Y-70004046D01*
X61525418Y-70188389D01*
X61249530Y-70372731D01*
X60924674Y-70858912D01*
X60810600Y-71432401D01*
X60924674Y-72005890D01*
X61249530Y-72492071D01*
X61735711Y-72816927D01*
X62309200Y-72931001D01*
X62900960Y-72931001D01*
X63474449Y-72816927D01*
X63960630Y-72492071D01*
X64285486Y-72005890D01*
X64399560Y-71432401D01*
X64285486Y-70858912D01*
X63960630Y-70372731D01*
X63684742Y-70188389D01*
X63960630Y-70004046D01*
X64285486Y-69517865D01*
X64399560Y-68944376D01*
X64285486Y-68370887D01*
X63960630Y-67884706D01*
X63645849Y-67674376D01*
X63960630Y-67464046D01*
X64285486Y-66977865D01*
X64399560Y-66404376D01*
X64285486Y-65830887D01*
X63960630Y-65344706D01*
X63645849Y-65134376D01*
X63960630Y-64924046D01*
X64285486Y-64437865D01*
X64399560Y-63864376D01*
X64285486Y-63290887D01*
X63960630Y-62804706D01*
X63645849Y-62594376D01*
X63960630Y-62384046D01*
X64285486Y-61897865D01*
X64399560Y-61324376D01*
X64285486Y-60750887D01*
X63960630Y-60264706D01*
X63645849Y-60054376D01*
X63960630Y-59844046D01*
X64285486Y-59357865D01*
X64399560Y-58784376D01*
X64285486Y-58210887D01*
X63960630Y-57724706D01*
X63645849Y-57514376D01*
X63960630Y-57304046D01*
X64285486Y-56817865D01*
X64399560Y-56244376D01*
X64285486Y-55670887D01*
X63960630Y-55184706D01*
X63645849Y-54974376D01*
X63960630Y-54764046D01*
X64285486Y-54277865D01*
X64399560Y-53704376D01*
X64285486Y-53130887D01*
X63960630Y-52644706D01*
X63645849Y-52434376D01*
X63960630Y-52224046D01*
X64285486Y-51737865D01*
X64399560Y-51164376D01*
X64285486Y-50590887D01*
X63960630Y-50104706D01*
X63645849Y-49894376D01*
X63960630Y-49684046D01*
X64285486Y-49197865D01*
X64399560Y-48624376D01*
X64285486Y-48050887D01*
X63960630Y-47564706D01*
X63645849Y-47354376D01*
X63960630Y-47144046D01*
X64285486Y-46657865D01*
X64399560Y-46084376D01*
X64285486Y-45510887D01*
X63960630Y-45024706D01*
X63645849Y-44814376D01*
X63960630Y-44604046D01*
X64285486Y-44117865D01*
X64399560Y-43544376D01*
X64285486Y-42970887D01*
X63960630Y-42484706D01*
X63645849Y-42274376D01*
X63960630Y-42064046D01*
X64285486Y-41577865D01*
X64399560Y-41004376D01*
X64285486Y-40430887D01*
X63960630Y-39944706D01*
X63645849Y-39734376D01*
X63960630Y-39524046D01*
X64285486Y-39037865D01*
X64399560Y-38464376D01*
X64285486Y-37890887D01*
X63960630Y-37404706D01*
X63645849Y-37194376D01*
X63960630Y-36984046D01*
X64285486Y-36497865D01*
X64399560Y-35924376D01*
X64285486Y-35350887D01*
X63960630Y-34864706D01*
X63645849Y-34654376D01*
X63960630Y-34444046D01*
X64285486Y-33957865D01*
X64399560Y-33384376D01*
X64285486Y-32810887D01*
X63960630Y-32324706D01*
X63645849Y-32114376D01*
X63960630Y-31904046D01*
X64285486Y-31417865D01*
X64399560Y-30844376D01*
X64322887Y-30458917D01*
X66577401Y-28204403D01*
X66742148Y-27957841D01*
X66800000Y-27667002D01*
X66800000Y-18930648D01*
X67099670Y-18730415D01*
X67114500Y-18708220D01*
X67178073Y-18861698D01*
X67356701Y-19040327D01*
X67590090Y-19137000D01*
X68294250Y-19137000D01*
X68453000Y-18978250D01*
X68453000Y-17613000D01*
X68433000Y-17613000D01*
X68433000Y-17359000D01*
X68453000Y-17359000D01*
X68453000Y-15993750D01*
X68294250Y-15835000D01*
X67590090Y-15835000D01*
X67356701Y-15931673D01*
X67178073Y-16110302D01*
X67114500Y-16263780D01*
X67099670Y-16241585D01*
X66613489Y-15916729D01*
X66040000Y-15802655D01*
X65466511Y-15916729D01*
X64980330Y-16241585D01*
X64655474Y-16727766D01*
X64541400Y-17301255D01*
X64541400Y-17670745D01*
X64655474Y-18244234D01*
X64980330Y-18730415D01*
X65280000Y-18930648D01*
X65280000Y-27352200D01*
X64387658Y-28244542D01*
X64285486Y-27730887D01*
X63960630Y-27244706D01*
X63937618Y-27229330D01*
X64089779Y-27166303D01*
X64268407Y-26987674D01*
X64365080Y-26754285D01*
X64365080Y-26050126D01*
X64206330Y-25891376D01*
X62732080Y-25891376D01*
X62732080Y-25911376D01*
X62478080Y-25911376D01*
X62478080Y-25891376D01*
X61003830Y-25891376D01*
X60845080Y-26050126D01*
X60845080Y-26754285D01*
X60941753Y-26987674D01*
X61120381Y-27166303D01*
X61272542Y-27229330D01*
X61249530Y-27244706D01*
X60924674Y-27730887D01*
X60810600Y-28304376D01*
X60863407Y-28569855D01*
X60197503Y-29235759D01*
X60129440Y-29337623D01*
X60129440Y-28272000D01*
X60085162Y-28036683D01*
X59946090Y-27820559D01*
X59733890Y-27675569D01*
X59482000Y-27624560D01*
X58882000Y-27624560D01*
X58666468Y-27665115D01*
X58657216Y-27618606D01*
X58614148Y-27402088D01*
X58449401Y-27155527D01*
X57656674Y-26362800D01*
X57410112Y-26198053D01*
X57119537Y-26140254D01*
X57087349Y-26108009D01*
X56743821Y-25965363D01*
X56718422Y-25965341D01*
X57179401Y-25504362D01*
X57344148Y-25257800D01*
X57400097Y-24976529D01*
X57612000Y-25019440D01*
X58212000Y-25019440D01*
X58447317Y-24975162D01*
X58546528Y-24911322D01*
X58630110Y-24968431D01*
X58882000Y-25019440D01*
X59482000Y-25019440D01*
X59717317Y-24975162D01*
X59933441Y-24836090D01*
X60078431Y-24623890D01*
X60129440Y-24372000D01*
X60129440Y-23510126D01*
X60845080Y-23510126D01*
X60845080Y-24214285D01*
X60941753Y-24447674D01*
X60988455Y-24494376D01*
X60941753Y-24541078D01*
X60845080Y-24774467D01*
X60845080Y-25478626D01*
X61003830Y-25637376D01*
X62478080Y-25637376D01*
X62478080Y-23351376D01*
X62732080Y-23351376D01*
X62732080Y-25637376D01*
X64206330Y-25637376D01*
X64365080Y-25478626D01*
X64365080Y-24774467D01*
X64268407Y-24541078D01*
X64221705Y-24494376D01*
X64268407Y-24447674D01*
X64365080Y-24214285D01*
X64365080Y-23510126D01*
X64206330Y-23351376D01*
X62732080Y-23351376D01*
X62478080Y-23351376D01*
X61003830Y-23351376D01*
X60845080Y-23510126D01*
X60129440Y-23510126D01*
X60129440Y-22872000D01*
X60085162Y-22636683D01*
X59946090Y-22420559D01*
X59941691Y-22417553D01*
X59941691Y-22234467D01*
X60845080Y-22234467D01*
X60845080Y-22938626D01*
X61003830Y-23097376D01*
X62478080Y-23097376D01*
X62478080Y-21884526D01*
X62732080Y-21884526D01*
X62732080Y-23097376D01*
X64206330Y-23097376D01*
X64365080Y-22938626D01*
X64365080Y-22234467D01*
X64268407Y-22001078D01*
X64089779Y-21822449D01*
X63856390Y-21725776D01*
X62890830Y-21725776D01*
X62732080Y-21884526D01*
X62478080Y-21884526D01*
X62319330Y-21725776D01*
X61353770Y-21725776D01*
X61120381Y-21822449D01*
X60941753Y-22001078D01*
X60845080Y-22234467D01*
X59941691Y-22234467D01*
X59941691Y-21271320D01*
X60032448Y-21212919D01*
X60177438Y-21000719D01*
X60228447Y-20748829D01*
X60228447Y-19248829D01*
X60184169Y-19013512D01*
X60045097Y-18797388D01*
X59832897Y-18652398D01*
X59819810Y-18649748D01*
X60032448Y-18512919D01*
X60177438Y-18300719D01*
X60228447Y-18048829D01*
X60228447Y-16548829D01*
X60184169Y-16313512D01*
X60045097Y-16097388D01*
X59832897Y-15952398D01*
X59581007Y-15901389D01*
X58281007Y-15901389D01*
X58045690Y-15945667D01*
X57829566Y-16084739D01*
X57787535Y-16146254D01*
X57756090Y-16097388D01*
X57543890Y-15952398D01*
X57292000Y-15901389D01*
X55992000Y-15901389D01*
X55756683Y-15945667D01*
X55540559Y-16084739D01*
X55395569Y-16296939D01*
X55344560Y-16548829D01*
X55344560Y-17496051D01*
X55232111Y-17608500D01*
X55232111Y-16548829D01*
X55187833Y-16313512D01*
X55048761Y-16097388D01*
X54836561Y-15952398D01*
X54584671Y-15901389D01*
X53284671Y-15901389D01*
X53049354Y-15945667D01*
X52833230Y-16084739D01*
X52688240Y-16296939D01*
X52637231Y-16548829D01*
X52637231Y-17619131D01*
X52608447Y-17647915D01*
X52608447Y-16548829D01*
X52564169Y-16313512D01*
X52425097Y-16097388D01*
X52212897Y-15952398D01*
X51961007Y-15901389D01*
X50661007Y-15901389D01*
X50425690Y-15945667D01*
X50209566Y-16084739D01*
X50064576Y-16296939D01*
X50013567Y-16548829D01*
X50013567Y-16649210D01*
X46528465Y-16649210D01*
X46907781Y-16395759D01*
X47262094Y-15865492D01*
X47386512Y-15240000D01*
X47262094Y-14614508D01*
X46907781Y-14084241D01*
X46377514Y-13729928D01*
X45752022Y-13605510D01*
X45687978Y-13605510D01*
X45062486Y-13729928D01*
X44743582Y-13943013D01*
X44717817Y-13880811D01*
X44539188Y-13702183D01*
X44305799Y-13605510D01*
X43465750Y-13605510D01*
X43307000Y-13764260D01*
X43307000Y-15113000D01*
X43327000Y-15113000D01*
X43327000Y-15367000D01*
X43307000Y-15367000D01*
X43307000Y-15387000D01*
X43053000Y-15387000D01*
X43053000Y-15367000D01*
X41704260Y-15367000D01*
X41545510Y-15525750D01*
X41545510Y-16365800D01*
X41642183Y-16599189D01*
X41692204Y-16649210D01*
X27151306Y-16649210D01*
X26860467Y-16707062D01*
X26613905Y-16871809D01*
X26521487Y-16964227D01*
X26473019Y-16964185D01*
X26129243Y-17106230D01*
X25865994Y-17369020D01*
X25723348Y-17712548D01*
X25723024Y-18084514D01*
X25865069Y-18428290D01*
X26127859Y-18691539D01*
X26471387Y-18834185D01*
X26843353Y-18834509D01*
X27187129Y-18692464D01*
X27450378Y-18429674D01*
X27558533Y-18169210D01*
X38165566Y-18169210D01*
X37952057Y-18257430D01*
X37688808Y-18520220D01*
X37546162Y-18863748D01*
X37545838Y-19235714D01*
X37687883Y-19579490D01*
X37950673Y-19842739D01*
X38071986Y-19893113D01*
X41115024Y-22936150D01*
X41115024Y-22951680D01*
X39890000Y-22951680D01*
X39654683Y-22995958D01*
X39438559Y-23135030D01*
X39293569Y-23347230D01*
X39264836Y-23489120D01*
X39222742Y-23489120D01*
X39199162Y-23363803D01*
X39091684Y-23196778D01*
X39192431Y-23049330D01*
X39243440Y-22797440D01*
X39243440Y-21497440D01*
X39199162Y-21262123D01*
X39060090Y-21045999D01*
X38847890Y-20901009D01*
X38596000Y-20850000D01*
X37523362Y-20850000D01*
X37027237Y-20353875D01*
X36780675Y-20189128D01*
X36489836Y-20131276D01*
X34087725Y-20131276D01*
X33796886Y-20189128D01*
X33550324Y-20353875D01*
X33188986Y-20715213D01*
X33087001Y-20694560D01*
X31587001Y-20694560D01*
X31351684Y-20738838D01*
X31135560Y-20877910D01*
X31127675Y-20889450D01*
X30967037Y-20822747D01*
X30920161Y-20822706D01*
X29283262Y-19185807D01*
X29036700Y-19021060D01*
X28745861Y-18963208D01*
X22596557Y-18963208D01*
X22564421Y-18931016D01*
X22220893Y-18788370D01*
X21848927Y-18788046D01*
X21505151Y-18930091D01*
X21241902Y-19192881D01*
X21099256Y-19536409D01*
X21098968Y-19867406D01*
X20430650Y-19867406D01*
X18564354Y-18001110D01*
X18652490Y-17558022D01*
X18652490Y-17493978D01*
X18528072Y-16868486D01*
X18173759Y-16338219D01*
X17643492Y-15983906D01*
X17018000Y-15859488D01*
X16392508Y-15983906D01*
X15862241Y-16338219D01*
X15507928Y-16868486D01*
X15383510Y-17493978D01*
X15383510Y-17558022D01*
X15507928Y-18183514D01*
X15862241Y-18713781D01*
X15985290Y-18796000D01*
X15862241Y-18878219D01*
X15507928Y-19408486D01*
X15383510Y-20033978D01*
X15383510Y-20098022D01*
X15507928Y-20723514D01*
X15862241Y-21253781D01*
X15985290Y-21336000D01*
X15862241Y-21418219D01*
X15507928Y-21948486D01*
X15383510Y-22573978D01*
X15383510Y-22638022D01*
X15507928Y-23263514D01*
X15862241Y-23793781D01*
X15985290Y-23876000D01*
X15862241Y-23958219D01*
X15507928Y-24488486D01*
X15383510Y-25113978D01*
X15383510Y-25178022D01*
X15507928Y-25803514D01*
X15862241Y-26333781D01*
X15985290Y-26416000D01*
X15862241Y-26498219D01*
X15507928Y-27028486D01*
X15383510Y-27653978D01*
X15383510Y-27718022D01*
X15507928Y-28343514D01*
X15862241Y-28873781D01*
X15985290Y-28956000D01*
X15862241Y-29038219D01*
X15507928Y-29568486D01*
X15383510Y-30193978D01*
X15383510Y-30258022D01*
X15507928Y-30883514D01*
X15862241Y-31413781D01*
X15985290Y-31496000D01*
X15862241Y-31578219D01*
X15507928Y-32108486D01*
X15383510Y-32733978D01*
X15383510Y-32798022D01*
X15507928Y-33423514D01*
X15862241Y-33953781D01*
X15985290Y-34036000D01*
X15862241Y-34118219D01*
X15507928Y-34648486D01*
X15383510Y-35273978D01*
X15383510Y-35338022D01*
X15507928Y-35963514D01*
X15862241Y-36493781D01*
X15985290Y-36576000D01*
X15862241Y-36658219D01*
X15507928Y-37188486D01*
X15383510Y-37813978D01*
X15383510Y-37878022D01*
X15507928Y-38503514D01*
X15862241Y-39033781D01*
X15985290Y-39116000D01*
X15862241Y-39198219D01*
X15507928Y-39728486D01*
X15383510Y-40353978D01*
X15383510Y-40418022D01*
X15507928Y-41043514D01*
X15862241Y-41573781D01*
X15985290Y-41656000D01*
X15862241Y-41738219D01*
X15507928Y-42268486D01*
X15383510Y-42893978D01*
X15383510Y-42958022D01*
X15507928Y-43583514D01*
X15862241Y-44113781D01*
X15985290Y-44196000D01*
X15862241Y-44278219D01*
X15507928Y-44808486D01*
X15383510Y-45433978D01*
X15383510Y-45498022D01*
X15507928Y-46123514D01*
X15862241Y-46653781D01*
X16392508Y-47008094D01*
X17018000Y-47132512D01*
X17643492Y-47008094D01*
X18173759Y-46653781D01*
X18459593Y-46226000D01*
X32404130Y-46226000D01*
X32444674Y-46266615D01*
X32788202Y-46409261D01*
X33160168Y-46409585D01*
X33503944Y-46267540D01*
X33767193Y-46004750D01*
X33909839Y-45661222D01*
X33910163Y-45289256D01*
X33849074Y-45141410D01*
X33933131Y-45158130D01*
X36479710Y-45158130D01*
X36770549Y-45100278D01*
X37017111Y-44935531D01*
X37523362Y-44429280D01*
X38596000Y-44429280D01*
X38831317Y-44385002D01*
X39047441Y-44245930D01*
X39192431Y-44033730D01*
X39221164Y-43891840D01*
X39263258Y-43891840D01*
X39286838Y-44017157D01*
X39425910Y-44233281D01*
X39638110Y-44378271D01*
X39890000Y-44429280D01*
X40791893Y-44429280D01*
X38744210Y-46476962D01*
X38744208Y-46476965D01*
X37854080Y-47367092D01*
X31084566Y-47367092D01*
X30964543Y-47317254D01*
X30592577Y-47316930D01*
X30248801Y-47458975D01*
X29985552Y-47721765D01*
X29842906Y-48065293D01*
X29842582Y-48437259D01*
X29984627Y-48781035D01*
X30247417Y-49044284D01*
X30590945Y-49186930D01*
X30962911Y-49187254D01*
X31084313Y-49137092D01*
X38222119Y-49137092D01*
X38560794Y-49069725D01*
X38847909Y-48877882D01*
X38850847Y-48873485D01*
X39370000Y-48354332D01*
X40945669Y-49930000D01*
X39890000Y-49930000D01*
X39654683Y-49974278D01*
X39438559Y-50113350D01*
X39293569Y-50325550D01*
X39264836Y-50467440D01*
X39222742Y-50467440D01*
X39199162Y-50342123D01*
X39060090Y-50125999D01*
X38847890Y-49981009D01*
X38596000Y-49930000D01*
X37523362Y-49930000D01*
X37054236Y-49460874D01*
X36807674Y-49296127D01*
X36516835Y-49238275D01*
X34060726Y-49238275D01*
X33769887Y-49296127D01*
X33523325Y-49460874D01*
X33188986Y-49795213D01*
X33087001Y-49774560D01*
X31587001Y-49774560D01*
X31351684Y-49818838D01*
X31148763Y-49949414D01*
X30968770Y-49874674D01*
X30921894Y-49874633D01*
X29051199Y-48003938D01*
X28804637Y-47839191D01*
X28513798Y-47781339D01*
X22120074Y-47781339D01*
X22087938Y-47749147D01*
X21744410Y-47606501D01*
X21372444Y-47606177D01*
X21028668Y-47748222D01*
X20765419Y-48011012D01*
X20622773Y-48354540D01*
X20622449Y-48726506D01*
X20640354Y-48769840D01*
X19493347Y-48769840D01*
X19202507Y-48827692D01*
X18955946Y-48992439D01*
X18340548Y-49607837D01*
X18173759Y-49358219D01*
X17643492Y-49003906D01*
X17018000Y-48879488D01*
X16392508Y-49003906D01*
X15862241Y-49358219D01*
X15507928Y-49888486D01*
X15383510Y-50513978D01*
X15383510Y-50578022D01*
X15507928Y-51203514D01*
X15862241Y-51733781D01*
X15985290Y-51816000D01*
X15862241Y-51898219D01*
X15507928Y-52428486D01*
X15383510Y-53053978D01*
X15383510Y-53118022D01*
X15507928Y-53743514D01*
X15862241Y-54273781D01*
X15985290Y-54356000D01*
X15862241Y-54438219D01*
X15507928Y-54968486D01*
X15383510Y-55593978D01*
X15383510Y-55658022D01*
X15507928Y-56283514D01*
X15862241Y-56813781D01*
X15985290Y-56896000D01*
X15862241Y-56978219D01*
X15507928Y-57508486D01*
X15383510Y-58133978D01*
X15383510Y-58198022D01*
X15507928Y-58823514D01*
X15862241Y-59353781D01*
X15985290Y-59436000D01*
X15862241Y-59518219D01*
X15507928Y-60048486D01*
X15383510Y-60673978D01*
X15383510Y-60738022D01*
X15507928Y-61363514D01*
X15862241Y-61893781D01*
X15985290Y-61976000D01*
X15862241Y-62058219D01*
X15507928Y-62588486D01*
X15383510Y-63213978D01*
X15383510Y-63278022D01*
X15507928Y-63903514D01*
X15862241Y-64433781D01*
X15985290Y-64516000D01*
X15862241Y-64598219D01*
X15507928Y-65128486D01*
X15383510Y-65753978D01*
X15383510Y-65818022D01*
X15507928Y-66443514D01*
X15862241Y-66973781D01*
X15985290Y-67056000D01*
X15862241Y-67138219D01*
X15507928Y-67668486D01*
X15383510Y-68293978D01*
X15383510Y-68358022D01*
X15507928Y-68983514D01*
X15862241Y-69513781D01*
X15985290Y-69596000D01*
X15862241Y-69678219D01*
X15507928Y-70208486D01*
X15383510Y-70833978D01*
X15383510Y-70898022D01*
X15507928Y-71523514D01*
X15862241Y-72053781D01*
X15985290Y-72136000D01*
X15862241Y-72218219D01*
X15507928Y-72748486D01*
X15383510Y-73373978D01*
X15383510Y-73438022D01*
X15507928Y-74063514D01*
X15862241Y-74593781D01*
X15985290Y-74676000D01*
X15862241Y-74758219D01*
X15507928Y-75288486D01*
X15383510Y-75913978D01*
X15383510Y-75978022D01*
X15507928Y-76603514D01*
X15862241Y-77133781D01*
X15985290Y-77216000D01*
X15862241Y-77298219D01*
X15507928Y-77828486D01*
X15383510Y-78453978D01*
X15383510Y-78518022D01*
X15507928Y-79143514D01*
X15832373Y-79629080D01*
X14330600Y-79629080D01*
X14330600Y-14114200D01*
X41545510Y-14114200D01*
X41545510Y-14954250D01*
X41704260Y-15113000D01*
X43053000Y-15113000D01*
X43053000Y-13764260D01*
X42894250Y-13605510D01*
X42054201Y-13605510D01*
X41820812Y-13702183D01*
X41642183Y-13880811D01*
X41545510Y-14114200D01*
X14330600Y-14114200D01*
X14330600Y-13294280D01*
X80665400Y-13294280D01*
X80665400Y-79629080D01*
X80665400Y-79629080D01*
G37*
X80665400Y-79629080D02*
X79136900Y-79629080D01*
X79488072Y-79103514D01*
X79612490Y-78478022D01*
X79612490Y-78413978D01*
X79488072Y-77788486D01*
X79133759Y-77258219D01*
X79010710Y-77176000D01*
X79133759Y-77093781D01*
X79488072Y-76563514D01*
X79612490Y-75938022D01*
X79612490Y-75873978D01*
X79488072Y-75248486D01*
X79133759Y-74718219D01*
X79010710Y-74636000D01*
X79133759Y-74553781D01*
X79488072Y-74023514D01*
X79612490Y-73398022D01*
X79612490Y-73333978D01*
X79488072Y-72708486D01*
X79133759Y-72178219D01*
X79010710Y-72096000D01*
X79133759Y-72013781D01*
X79488072Y-71483514D01*
X79612490Y-70858022D01*
X79612490Y-70793978D01*
X79488072Y-70168486D01*
X79133759Y-69638219D01*
X79010710Y-69556000D01*
X79133759Y-69473781D01*
X79488072Y-68943514D01*
X79612490Y-68318022D01*
X79612490Y-68253978D01*
X79488072Y-67628486D01*
X79133759Y-67098219D01*
X79010710Y-67016000D01*
X79133759Y-66933781D01*
X79488072Y-66403514D01*
X79612490Y-65778022D01*
X79612490Y-65713978D01*
X79488072Y-65088486D01*
X79133759Y-64558219D01*
X79010710Y-64476000D01*
X79133759Y-64393781D01*
X79488072Y-63863514D01*
X79612490Y-63238022D01*
X79612490Y-63173978D01*
X79488072Y-62548486D01*
X79133759Y-62018219D01*
X79010710Y-61936000D01*
X79133759Y-61853781D01*
X79488072Y-61323514D01*
X79612490Y-60698022D01*
X79612490Y-60633978D01*
X79488072Y-60008486D01*
X79133759Y-59478219D01*
X79010710Y-59396000D01*
X79133759Y-59313781D01*
X79488072Y-58783514D01*
X79612490Y-58158022D01*
X79612490Y-58093978D01*
X79488072Y-57468486D01*
X79133759Y-56938219D01*
X79010710Y-56856000D01*
X79133759Y-56773781D01*
X79488072Y-56243514D01*
X79612490Y-55618022D01*
X79612490Y-55553978D01*
X79488072Y-54928486D01*
X79133759Y-54398219D01*
X79010710Y-54316000D01*
X79133759Y-54233781D01*
X79488072Y-53703514D01*
X79612490Y-53078022D01*
X79612490Y-53013978D01*
X79488072Y-52388486D01*
X79133759Y-51858219D01*
X79010710Y-51776000D01*
X79133759Y-51693781D01*
X79488072Y-51163514D01*
X79612490Y-50538022D01*
X79612490Y-50473978D01*
X79488072Y-49848486D01*
X79133759Y-49318219D01*
X78603492Y-48963906D01*
X77978000Y-48839488D01*
X77352508Y-48963906D01*
X76822241Y-49318219D01*
X76467928Y-49848486D01*
X76421294Y-50082933D01*
X74331222Y-50082933D01*
X74331162Y-50082616D01*
X74192090Y-49866492D01*
X73979890Y-49721502D01*
X73728000Y-49670493D01*
X72228000Y-49670493D01*
X71992683Y-49714771D01*
X71776559Y-49853843D01*
X71631569Y-50066043D01*
X71628919Y-50079130D01*
X71492090Y-49866492D01*
X71279890Y-49721502D01*
X71163000Y-49697831D01*
X71163000Y-47955558D01*
X71263317Y-47936682D01*
X71479441Y-47797610D01*
X71624431Y-47585410D01*
X71627081Y-47572323D01*
X71763910Y-47784961D01*
X71976110Y-47929951D01*
X72228000Y-47980960D01*
X73728000Y-47980960D01*
X73963317Y-47936682D01*
X74179441Y-47797610D01*
X74324431Y-47585410D01*
X74375440Y-47333520D01*
X74375440Y-46033520D01*
X74331162Y-45798203D01*
X74285640Y-45727460D01*
X76242099Y-43771000D01*
X76627146Y-43771000D01*
X76822241Y-44062981D01*
X76945290Y-44145200D01*
X76822241Y-44227419D01*
X76467928Y-44757686D01*
X76343510Y-45383178D01*
X76343510Y-45447222D01*
X76467928Y-46072714D01*
X76822241Y-46602981D01*
X77352508Y-46957294D01*
X77978000Y-47081712D01*
X78603492Y-46957294D01*
X79133759Y-46602981D01*
X79488072Y-46072714D01*
X79612490Y-45447222D01*
X79612490Y-45383178D01*
X79488072Y-44757686D01*
X79133759Y-44227419D01*
X79010710Y-44145200D01*
X79133759Y-44062981D01*
X79488072Y-43532714D01*
X79612490Y-42907222D01*
X79612490Y-42843178D01*
X79488072Y-42217686D01*
X79133759Y-41687419D01*
X79010710Y-41605200D01*
X79133759Y-41522981D01*
X79488072Y-40992714D01*
X79612490Y-40367222D01*
X79612490Y-40303178D01*
X79488072Y-39677686D01*
X79133759Y-39147419D01*
X79010710Y-39065200D01*
X79133759Y-38982981D01*
X79488072Y-38452714D01*
X79612490Y-37827222D01*
X79612490Y-37763178D01*
X79488072Y-37137686D01*
X79133759Y-36607419D01*
X79010710Y-36525200D01*
X79133759Y-36442981D01*
X79488072Y-35912714D01*
X79612490Y-35287222D01*
X79612490Y-35223178D01*
X79488072Y-34597686D01*
X79133759Y-34067419D01*
X79010710Y-33985200D01*
X79133759Y-33902981D01*
X79488072Y-33372714D01*
X79612490Y-32747222D01*
X79612490Y-32683178D01*
X79488072Y-32057686D01*
X79133759Y-31527419D01*
X79010710Y-31445200D01*
X79133759Y-31362981D01*
X79488072Y-30832714D01*
X79612490Y-30207222D01*
X79612490Y-30143178D01*
X79488072Y-29517686D01*
X79133759Y-28987419D01*
X79010710Y-28905200D01*
X79133759Y-28822981D01*
X79488072Y-28292714D01*
X79612490Y-27667222D01*
X79612490Y-27603178D01*
X79488072Y-26977686D01*
X79133759Y-26447419D01*
X79010710Y-26365200D01*
X79133759Y-26282981D01*
X79488072Y-25752714D01*
X79612490Y-25127222D01*
X79612490Y-25063178D01*
X79488072Y-24437686D01*
X79133759Y-23907419D01*
X79010710Y-23825200D01*
X79133759Y-23742981D01*
X79488072Y-23212714D01*
X79612490Y-22587222D01*
X79612490Y-22523178D01*
X79488072Y-21897686D01*
X79133759Y-21367419D01*
X79010710Y-21285200D01*
X79133759Y-21202981D01*
X79488072Y-20672714D01*
X79612490Y-20047222D01*
X79612490Y-19983178D01*
X79488072Y-19357686D01*
X79133759Y-18827419D01*
X79010710Y-18745200D01*
X79133759Y-18662981D01*
X79488072Y-18132714D01*
X79612490Y-17507222D01*
X79612490Y-17443178D01*
X79488072Y-16817686D01*
X79133759Y-16287419D01*
X78603492Y-15933106D01*
X77978000Y-15808688D01*
X77352508Y-15933106D01*
X76822241Y-16287419D01*
X76467928Y-16817686D01*
X76343510Y-17443178D01*
X76343510Y-17507222D01*
X76403518Y-17808903D01*
X74812357Y-19400063D01*
X74620514Y-19687178D01*
X74620514Y-19687179D01*
X74553146Y-20025853D01*
X74553147Y-20025858D01*
X74553147Y-20955866D01*
X72352210Y-23156802D01*
X72160367Y-23443917D01*
X72152038Y-23485789D01*
X72092999Y-23782592D01*
X72093000Y-23782597D01*
X72093000Y-23989417D01*
X71992683Y-24008293D01*
X71776559Y-24147365D01*
X71631569Y-24359565D01*
X71628919Y-24372652D01*
X71492090Y-24160014D01*
X71279890Y-24015024D01*
X71227221Y-24004358D01*
X71745787Y-23485792D01*
X71745790Y-23485790D01*
X71937633Y-23198675D01*
X71968199Y-23045010D01*
X72005001Y-22860000D01*
X72005000Y-22859995D01*
X72005000Y-18847126D01*
X72179670Y-18730415D01*
X72504526Y-18244234D01*
X72618600Y-17670745D01*
X72618600Y-17301255D01*
X72504526Y-16727766D01*
X72179670Y-16241585D01*
X71693489Y-15916729D01*
X71120000Y-15802655D01*
X70546511Y-15916729D01*
X70060330Y-16241585D01*
X70045500Y-16263780D01*
X69981927Y-16110302D01*
X69803299Y-15931673D01*
X69569910Y-15835000D01*
X68865750Y-15835000D01*
X68707000Y-15993750D01*
X68707000Y-17359000D01*
X68727000Y-17359000D01*
X68727000Y-17613000D01*
X68707000Y-17613000D01*
X68707000Y-18978250D01*
X68865750Y-19137000D01*
X69569910Y-19137000D01*
X69803299Y-19040327D01*
X69981927Y-18861698D01*
X70045500Y-18708220D01*
X70060330Y-18730415D01*
X70235000Y-18847126D01*
X70235000Y-22493421D01*
X69652210Y-23076210D01*
X69460367Y-23363325D01*
X69460367Y-23363326D01*
X69392999Y-23702000D01*
X69393000Y-23702005D01*
X69393000Y-23989417D01*
X69292683Y-24008293D01*
X69076559Y-24147365D01*
X68931569Y-24359565D01*
X68880560Y-24611455D01*
X68880560Y-25911455D01*
X68924838Y-26146772D01*
X69063910Y-26362896D01*
X69276110Y-26507886D01*
X69393000Y-26531557D01*
X69393000Y-28273830D01*
X69292683Y-28292706D01*
X69076559Y-28431778D01*
X68931569Y-28643978D01*
X68880560Y-28895868D01*
X68880560Y-30195868D01*
X68924838Y-30431185D01*
X69063910Y-30647309D01*
X69276110Y-30792299D01*
X69393000Y-30815970D01*
X69393000Y-32558243D01*
X69292683Y-32577119D01*
X69076559Y-32716191D01*
X68931569Y-32928391D01*
X68880560Y-33180281D01*
X68880560Y-34480281D01*
X68924838Y-34715598D01*
X69063910Y-34931722D01*
X69276110Y-35076712D01*
X69393000Y-35100383D01*
X69393000Y-36842656D01*
X69292683Y-36861532D01*
X69076559Y-37000604D01*
X68931569Y-37212804D01*
X68880560Y-37464694D01*
X68880560Y-38764694D01*
X68924838Y-39000011D01*
X69063910Y-39216135D01*
X69276110Y-39361125D01*
X69393000Y-39384796D01*
X69393000Y-41127069D01*
X69292683Y-41145945D01*
X69076559Y-41285017D01*
X68931569Y-41497217D01*
X68880560Y-41749107D01*
X68880560Y-43049107D01*
X68924838Y-43284424D01*
X69063910Y-43500548D01*
X69276110Y-43645538D01*
X69393000Y-43669209D01*
X69393000Y-45411482D01*
X69292683Y-45430358D01*
X69076559Y-45569430D01*
X68931569Y-45781630D01*
X68880560Y-46033520D01*
X68880560Y-47333520D01*
X68924838Y-47568837D01*
X69063910Y-47784961D01*
X69276110Y-47929951D01*
X69393000Y-47953622D01*
X69393000Y-49695895D01*
X69292683Y-49714771D01*
X69076559Y-49853843D01*
X68931569Y-50066043D01*
X68880560Y-50317933D01*
X68880560Y-51617933D01*
X68924838Y-51853250D01*
X69063910Y-52069374D01*
X69276110Y-52214364D01*
X69393000Y-52238035D01*
X69393000Y-53980308D01*
X69292683Y-53999184D01*
X69076559Y-54138256D01*
X68931569Y-54350456D01*
X68880560Y-54602346D01*
X68880560Y-55902346D01*
X68924838Y-56137663D01*
X69063910Y-56353787D01*
X69276110Y-56498777D01*
X69393000Y-56522448D01*
X69393000Y-58264721D01*
X69292683Y-58283597D01*
X69076559Y-58422669D01*
X68931569Y-58634869D01*
X68880560Y-58886759D01*
X68880560Y-60186759D01*
X68924838Y-60422076D01*
X69063910Y-60638200D01*
X69276110Y-60783190D01*
X69393000Y-60806861D01*
X69393000Y-62549134D01*
X69292683Y-62568010D01*
X69076559Y-62707082D01*
X68931569Y-62919282D01*
X68880560Y-63171172D01*
X68880560Y-64471172D01*
X68924838Y-64706489D01*
X69063910Y-64922613D01*
X69276110Y-65067603D01*
X69393000Y-65091274D01*
X69393000Y-66833547D01*
X69292683Y-66852423D01*
X69076559Y-66991495D01*
X68931569Y-67203695D01*
X68880560Y-67455585D01*
X68880560Y-68755585D01*
X68924838Y-68990902D01*
X69063910Y-69207026D01*
X69276110Y-69352016D01*
X69393000Y-69375687D01*
X69393000Y-71117960D01*
X69292683Y-71136836D01*
X69076559Y-71275908D01*
X68931569Y-71488108D01*
X68880560Y-71739998D01*
X68880560Y-73039998D01*
X68924838Y-73275315D01*
X69063910Y-73491439D01*
X69276110Y-73636429D01*
X69518000Y-73685413D01*
X69518000Y-76435056D01*
X69091030Y-76862026D01*
X68588242Y-76762015D01*
X68014753Y-76876089D01*
X67528572Y-77200945D01*
X67318242Y-77515726D01*
X67107912Y-77200945D01*
X66621731Y-76876089D01*
X66048242Y-76762015D01*
X65474753Y-76876089D01*
X64988572Y-77200945D01*
X64663716Y-77687126D01*
X64549642Y-78260615D01*
X64549642Y-78630105D01*
X64663716Y-79203594D01*
X64948017Y-79629080D01*
X39227380Y-79629080D01*
X39483346Y-79246000D01*
X44777264Y-79246000D01*
X45068103Y-79188148D01*
X45314665Y-79023401D01*
X49196632Y-75141434D01*
X49616599Y-75561401D01*
X49756560Y-75654920D01*
X49756560Y-75774000D01*
X49800838Y-76009317D01*
X49939910Y-76225441D01*
X50152110Y-76370431D01*
X50165197Y-76373081D01*
X49952559Y-76509910D01*
X49807569Y-76722110D01*
X49756560Y-76974000D01*
X49756560Y-78474000D01*
X49800838Y-78709317D01*
X49939910Y-78925441D01*
X50152110Y-79070431D01*
X50404000Y-79121440D01*
X51704000Y-79121440D01*
X51939317Y-79077162D01*
X52155441Y-78938090D01*
X52300431Y-78725890D01*
X52322993Y-78614477D01*
X52340838Y-78709317D01*
X52479910Y-78925441D01*
X52692110Y-79070431D01*
X52944000Y-79121440D01*
X54244000Y-79121440D01*
X54479317Y-79077162D01*
X54695441Y-78938090D01*
X54840431Y-78725890D01*
X54862993Y-78614477D01*
X54880838Y-78709317D01*
X55019910Y-78925441D01*
X55232110Y-79070431D01*
X55484000Y-79121440D01*
X56784000Y-79121440D01*
X57019317Y-79077162D01*
X57235441Y-78938090D01*
X57380431Y-78725890D01*
X57402993Y-78614477D01*
X57420838Y-78709317D01*
X57559910Y-78925441D01*
X57772110Y-79070431D01*
X58024000Y-79121440D01*
X59324000Y-79121440D01*
X59559317Y-79077162D01*
X59775441Y-78938090D01*
X59920431Y-78725890D01*
X59971440Y-78474000D01*
X59971440Y-77577979D01*
X60481401Y-77068018D01*
X60646148Y-76821457D01*
X60704000Y-76530617D01*
X60704000Y-73939032D01*
X60690041Y-73868855D01*
X60646148Y-73648192D01*
X60481401Y-73401631D01*
X59578048Y-72498278D01*
X59621440Y-72284000D01*
X59621440Y-70784000D01*
X59577162Y-70548683D01*
X59438090Y-70332559D01*
X59225890Y-70187569D01*
X58974000Y-70136560D01*
X58374000Y-70136560D01*
X58138683Y-70180838D01*
X58087920Y-70213503D01*
X57941401Y-69994223D01*
X57069010Y-69121832D01*
X57069036Y-69091857D01*
X57063495Y-69078448D01*
X57260087Y-69160080D01*
X57632053Y-69160404D01*
X57753455Y-69110242D01*
X59283669Y-69110242D01*
X59283674Y-69110243D01*
X59566158Y-69054052D01*
X59622349Y-69042875D01*
X59909464Y-68851032D01*
X60748308Y-68012187D01*
X60748311Y-68012185D01*
X60940154Y-67725070D01*
X60959366Y-67628486D01*
X61007522Y-67386395D01*
X61007521Y-67386390D01*
X61007521Y-67101854D01*
X61249530Y-67464046D01*
X61564311Y-67674376D01*
X61249530Y-67884706D01*
X60924674Y-68370887D01*
X60810600Y-68944376D01*
X60924674Y-69517865D01*
X61249530Y-70004046D01*
X61525418Y-70188389D01*
X61249530Y-70372731D01*
X60924674Y-70858912D01*
X60810600Y-71432401D01*
X60924674Y-72005890D01*
X61249530Y-72492071D01*
X61735711Y-72816927D01*
X62309200Y-72931001D01*
X62900960Y-72931001D01*
X63474449Y-72816927D01*
X63960630Y-72492071D01*
X64285486Y-72005890D01*
X64399560Y-71432401D01*
X64285486Y-70858912D01*
X63960630Y-70372731D01*
X63684742Y-70188389D01*
X63960630Y-70004046D01*
X64285486Y-69517865D01*
X64399560Y-68944376D01*
X64285486Y-68370887D01*
X63960630Y-67884706D01*
X63645849Y-67674376D01*
X63960630Y-67464046D01*
X64285486Y-66977865D01*
X64399560Y-66404376D01*
X64285486Y-65830887D01*
X63960630Y-65344706D01*
X63645849Y-65134376D01*
X63960630Y-64924046D01*
X64285486Y-64437865D01*
X64399560Y-63864376D01*
X64285486Y-63290887D01*
X63960630Y-62804706D01*
X63645849Y-62594376D01*
X63960630Y-62384046D01*
X64285486Y-61897865D01*
X64399560Y-61324376D01*
X64285486Y-60750887D01*
X63960630Y-60264706D01*
X63645849Y-60054376D01*
X63960630Y-59844046D01*
X64285486Y-59357865D01*
X64399560Y-58784376D01*
X64285486Y-58210887D01*
X63960630Y-57724706D01*
X63645849Y-57514376D01*
X63960630Y-57304046D01*
X64285486Y-56817865D01*
X64399560Y-56244376D01*
X64285486Y-55670887D01*
X63960630Y-55184706D01*
X63645849Y-54974376D01*
X63960630Y-54764046D01*
X64285486Y-54277865D01*
X64399560Y-53704376D01*
X64285486Y-53130887D01*
X63960630Y-52644706D01*
X63645849Y-52434376D01*
X63960630Y-52224046D01*
X64285486Y-51737865D01*
X64399560Y-51164376D01*
X64285486Y-50590887D01*
X63960630Y-50104706D01*
X63645849Y-49894376D01*
X63960630Y-49684046D01*
X64285486Y-49197865D01*
X64399560Y-48624376D01*
X64285486Y-48050887D01*
X63960630Y-47564706D01*
X63645849Y-47354376D01*
X63960630Y-47144046D01*
X64285486Y-46657865D01*
X64399560Y-46084376D01*
X64285486Y-45510887D01*
X63960630Y-45024706D01*
X63645849Y-44814376D01*
X63960630Y-44604046D01*
X64285486Y-44117865D01*
X64399560Y-43544376D01*
X64285486Y-42970887D01*
X63960630Y-42484706D01*
X63645849Y-42274376D01*
X63960630Y-42064046D01*
X64285486Y-41577865D01*
X64399560Y-41004376D01*
X64285486Y-40430887D01*
X63960630Y-39944706D01*
X63645849Y-39734376D01*
X63960630Y-39524046D01*
X64285486Y-39037865D01*
X64399560Y-38464376D01*
X64285486Y-37890887D01*
X63960630Y-37404706D01*
X63645849Y-37194376D01*
X63960630Y-36984046D01*
X64285486Y-36497865D01*
X64399560Y-35924376D01*
X64285486Y-35350887D01*
X63960630Y-34864706D01*
X63645849Y-34654376D01*
X63960630Y-34444046D01*
X64285486Y-33957865D01*
X64399560Y-33384376D01*
X64285486Y-32810887D01*
X63960630Y-32324706D01*
X63645849Y-32114376D01*
X63960630Y-31904046D01*
X64285486Y-31417865D01*
X64399560Y-30844376D01*
X64322887Y-30458917D01*
X66577401Y-28204403D01*
X66742148Y-27957841D01*
X66800000Y-27667002D01*
X66800000Y-18930648D01*
X67099670Y-18730415D01*
X67114500Y-18708220D01*
X67178073Y-18861698D01*
X67356701Y-19040327D01*
X67590090Y-19137000D01*
X68294250Y-19137000D01*
X68453000Y-18978250D01*
X68453000Y-17613000D01*
X68433000Y-17613000D01*
X68433000Y-17359000D01*
X68453000Y-17359000D01*
X68453000Y-15993750D01*
X68294250Y-15835000D01*
X67590090Y-15835000D01*
X67356701Y-15931673D01*
X67178073Y-16110302D01*
X67114500Y-16263780D01*
X67099670Y-16241585D01*
X66613489Y-15916729D01*
X66040000Y-15802655D01*
X65466511Y-15916729D01*
X64980330Y-16241585D01*
X64655474Y-16727766D01*
X64541400Y-17301255D01*
X64541400Y-17670745D01*
X64655474Y-18244234D01*
X64980330Y-18730415D01*
X65280000Y-18930648D01*
X65280000Y-27352200D01*
X64387658Y-28244542D01*
X64285486Y-27730887D01*
X63960630Y-27244706D01*
X63937618Y-27229330D01*
X64089779Y-27166303D01*
X64268407Y-26987674D01*
X64365080Y-26754285D01*
X64365080Y-26050126D01*
X64206330Y-25891376D01*
X62732080Y-25891376D01*
X62732080Y-25911376D01*
X62478080Y-25911376D01*
X62478080Y-25891376D01*
X61003830Y-25891376D01*
X60845080Y-26050126D01*
X60845080Y-26754285D01*
X60941753Y-26987674D01*
X61120381Y-27166303D01*
X61272542Y-27229330D01*
X61249530Y-27244706D01*
X60924674Y-27730887D01*
X60810600Y-28304376D01*
X60863407Y-28569855D01*
X60197503Y-29235759D01*
X60129440Y-29337623D01*
X60129440Y-28272000D01*
X60085162Y-28036683D01*
X59946090Y-27820559D01*
X59733890Y-27675569D01*
X59482000Y-27624560D01*
X58882000Y-27624560D01*
X58666468Y-27665115D01*
X58657216Y-27618606D01*
X58614148Y-27402088D01*
X58449401Y-27155527D01*
X57656674Y-26362800D01*
X57410112Y-26198053D01*
X57119537Y-26140254D01*
X57087349Y-26108009D01*
X56743821Y-25965363D01*
X56718422Y-25965341D01*
X57179401Y-25504362D01*
X57344148Y-25257800D01*
X57400097Y-24976529D01*
X57612000Y-25019440D01*
X58212000Y-25019440D01*
X58447317Y-24975162D01*
X58546528Y-24911322D01*
X58630110Y-24968431D01*
X58882000Y-25019440D01*
X59482000Y-25019440D01*
X59717317Y-24975162D01*
X59933441Y-24836090D01*
X60078431Y-24623890D01*
X60129440Y-24372000D01*
X60129440Y-23510126D01*
X60845080Y-23510126D01*
X60845080Y-24214285D01*
X60941753Y-24447674D01*
X60988455Y-24494376D01*
X60941753Y-24541078D01*
X60845080Y-24774467D01*
X60845080Y-25478626D01*
X61003830Y-25637376D01*
X62478080Y-25637376D01*
X62478080Y-23351376D01*
X62732080Y-23351376D01*
X62732080Y-25637376D01*
X64206330Y-25637376D01*
X64365080Y-25478626D01*
X64365080Y-24774467D01*
X64268407Y-24541078D01*
X64221705Y-24494376D01*
X64268407Y-24447674D01*
X64365080Y-24214285D01*
X64365080Y-23510126D01*
X64206330Y-23351376D01*
X62732080Y-23351376D01*
X62478080Y-23351376D01*
X61003830Y-23351376D01*
X60845080Y-23510126D01*
X60129440Y-23510126D01*
X60129440Y-22872000D01*
X60085162Y-22636683D01*
X59946090Y-22420559D01*
X59941691Y-22417553D01*
X59941691Y-22234467D01*
X60845080Y-22234467D01*
X60845080Y-22938626D01*
X61003830Y-23097376D01*
X62478080Y-23097376D01*
X62478080Y-21884526D01*
X62732080Y-21884526D01*
X62732080Y-23097376D01*
X64206330Y-23097376D01*
X64365080Y-22938626D01*
X64365080Y-22234467D01*
X64268407Y-22001078D01*
X64089779Y-21822449D01*
X63856390Y-21725776D01*
X62890830Y-21725776D01*
X62732080Y-21884526D01*
X62478080Y-21884526D01*
X62319330Y-21725776D01*
X61353770Y-21725776D01*
X61120381Y-21822449D01*
X60941753Y-22001078D01*
X60845080Y-22234467D01*
X59941691Y-22234467D01*
X59941691Y-21271320D01*
X60032448Y-21212919D01*
X60177438Y-21000719D01*
X60228447Y-20748829D01*
X60228447Y-19248829D01*
X60184169Y-19013512D01*
X60045097Y-18797388D01*
X59832897Y-18652398D01*
X59819810Y-18649748D01*
X60032448Y-18512919D01*
X60177438Y-18300719D01*
X60228447Y-18048829D01*
X60228447Y-16548829D01*
X60184169Y-16313512D01*
X60045097Y-16097388D01*
X59832897Y-15952398D01*
X59581007Y-15901389D01*
X58281007Y-15901389D01*
X58045690Y-15945667D01*
X57829566Y-16084739D01*
X57787535Y-16146254D01*
X57756090Y-16097388D01*
X57543890Y-15952398D01*
X57292000Y-15901389D01*
X55992000Y-15901389D01*
X55756683Y-15945667D01*
X55540559Y-16084739D01*
X55395569Y-16296939D01*
X55344560Y-16548829D01*
X55344560Y-17496051D01*
X55232111Y-17608500D01*
X55232111Y-16548829D01*
X55187833Y-16313512D01*
X55048761Y-16097388D01*
X54836561Y-15952398D01*
X54584671Y-15901389D01*
X53284671Y-15901389D01*
X53049354Y-15945667D01*
X52833230Y-16084739D01*
X52688240Y-16296939D01*
X52637231Y-16548829D01*
X52637231Y-17619131D01*
X52608447Y-17647915D01*
X52608447Y-16548829D01*
X52564169Y-16313512D01*
X52425097Y-16097388D01*
X52212897Y-15952398D01*
X51961007Y-15901389D01*
X50661007Y-15901389D01*
X50425690Y-15945667D01*
X50209566Y-16084739D01*
X50064576Y-16296939D01*
X50013567Y-16548829D01*
X50013567Y-16649210D01*
X46528465Y-16649210D01*
X46907781Y-16395759D01*
X47262094Y-15865492D01*
X47386512Y-15240000D01*
X47262094Y-14614508D01*
X46907781Y-14084241D01*
X46377514Y-13729928D01*
X45752022Y-13605510D01*
X45687978Y-13605510D01*
X45062486Y-13729928D01*
X44743582Y-13943013D01*
X44717817Y-13880811D01*
X44539188Y-13702183D01*
X44305799Y-13605510D01*
X43465750Y-13605510D01*
X43307000Y-13764260D01*
X43307000Y-15113000D01*
X43327000Y-15113000D01*
X43327000Y-15367000D01*
X43307000Y-15367000D01*
X43307000Y-15387000D01*
X43053000Y-15387000D01*
X43053000Y-15367000D01*
X41704260Y-15367000D01*
X41545510Y-15525750D01*
X41545510Y-16365800D01*
X41642183Y-16599189D01*
X41692204Y-16649210D01*
X27151306Y-16649210D01*
X26860467Y-16707062D01*
X26613905Y-16871809D01*
X26521487Y-16964227D01*
X26473019Y-16964185D01*
X26129243Y-17106230D01*
X25865994Y-17369020D01*
X25723348Y-17712548D01*
X25723024Y-18084514D01*
X25865069Y-18428290D01*
X26127859Y-18691539D01*
X26471387Y-18834185D01*
X26843353Y-18834509D01*
X27187129Y-18692464D01*
X27450378Y-18429674D01*
X27558533Y-18169210D01*
X38165566Y-18169210D01*
X37952057Y-18257430D01*
X37688808Y-18520220D01*
X37546162Y-18863748D01*
X37545838Y-19235714D01*
X37687883Y-19579490D01*
X37950673Y-19842739D01*
X38071986Y-19893113D01*
X41115024Y-22936150D01*
X41115024Y-22951680D01*
X39890000Y-22951680D01*
X39654683Y-22995958D01*
X39438559Y-23135030D01*
X39293569Y-23347230D01*
X39264836Y-23489120D01*
X39222742Y-23489120D01*
X39199162Y-23363803D01*
X39091684Y-23196778D01*
X39192431Y-23049330D01*
X39243440Y-22797440D01*
X39243440Y-21497440D01*
X39199162Y-21262123D01*
X39060090Y-21045999D01*
X38847890Y-20901009D01*
X38596000Y-20850000D01*
X37523362Y-20850000D01*
X37027237Y-20353875D01*
X36780675Y-20189128D01*
X36489836Y-20131276D01*
X34087725Y-20131276D01*
X33796886Y-20189128D01*
X33550324Y-20353875D01*
X33188986Y-20715213D01*
X33087001Y-20694560D01*
X31587001Y-20694560D01*
X31351684Y-20738838D01*
X31135560Y-20877910D01*
X31127675Y-20889450D01*
X30967037Y-20822747D01*
X30920161Y-20822706D01*
X29283262Y-19185807D01*
X29036700Y-19021060D01*
X28745861Y-18963208D01*
X22596557Y-18963208D01*
X22564421Y-18931016D01*
X22220893Y-18788370D01*
X21848927Y-18788046D01*
X21505151Y-18930091D01*
X21241902Y-19192881D01*
X21099256Y-19536409D01*
X21098968Y-19867406D01*
X20430650Y-19867406D01*
X18564354Y-18001110D01*
X18652490Y-17558022D01*
X18652490Y-17493978D01*
X18528072Y-16868486D01*
X18173759Y-16338219D01*
X17643492Y-15983906D01*
X17018000Y-15859488D01*
X16392508Y-15983906D01*
X15862241Y-16338219D01*
X15507928Y-16868486D01*
X15383510Y-17493978D01*
X15383510Y-17558022D01*
X15507928Y-18183514D01*
X15862241Y-18713781D01*
X15985290Y-18796000D01*
X15862241Y-18878219D01*
X15507928Y-19408486D01*
X15383510Y-20033978D01*
X15383510Y-20098022D01*
X15507928Y-20723514D01*
X15862241Y-21253781D01*
X15985290Y-21336000D01*
X15862241Y-21418219D01*
X15507928Y-21948486D01*
X15383510Y-22573978D01*
X15383510Y-22638022D01*
X15507928Y-23263514D01*
X15862241Y-23793781D01*
X15985290Y-23876000D01*
X15862241Y-23958219D01*
X15507928Y-24488486D01*
X15383510Y-25113978D01*
X15383510Y-25178022D01*
X15507928Y-25803514D01*
X15862241Y-26333781D01*
X15985290Y-26416000D01*
X15862241Y-26498219D01*
X15507928Y-27028486D01*
X15383510Y-27653978D01*
X15383510Y-27718022D01*
X15507928Y-28343514D01*
X15862241Y-28873781D01*
X15985290Y-28956000D01*
X15862241Y-29038219D01*
X15507928Y-29568486D01*
X15383510Y-30193978D01*
X15383510Y-30258022D01*
X15507928Y-30883514D01*
X15862241Y-31413781D01*
X15985290Y-31496000D01*
X15862241Y-31578219D01*
X15507928Y-32108486D01*
X15383510Y-32733978D01*
X15383510Y-32798022D01*
X15507928Y-33423514D01*
X15862241Y-33953781D01*
X15985290Y-34036000D01*
X15862241Y-34118219D01*
X15507928Y-34648486D01*
X15383510Y-35273978D01*
X15383510Y-35338022D01*
X15507928Y-35963514D01*
X15862241Y-36493781D01*
X15985290Y-36576000D01*
X15862241Y-36658219D01*
X15507928Y-37188486D01*
X15383510Y-37813978D01*
X15383510Y-37878022D01*
X15507928Y-38503514D01*
X15862241Y-39033781D01*
X15985290Y-39116000D01*
X15862241Y-39198219D01*
X15507928Y-39728486D01*
X15383510Y-40353978D01*
X15383510Y-40418022D01*
X15507928Y-41043514D01*
X15862241Y-41573781D01*
X15985290Y-41656000D01*
X15862241Y-41738219D01*
X15507928Y-42268486D01*
X15383510Y-42893978D01*
X15383510Y-42958022D01*
X15507928Y-43583514D01*
X15862241Y-44113781D01*
X15985290Y-44196000D01*
X15862241Y-44278219D01*
X15507928Y-44808486D01*
X15383510Y-45433978D01*
X15383510Y-45498022D01*
X15507928Y-46123514D01*
X15862241Y-46653781D01*
X16392508Y-47008094D01*
X17018000Y-47132512D01*
X17643492Y-47008094D01*
X18173759Y-46653781D01*
X18459593Y-46226000D01*
X32404130Y-46226000D01*
X32444674Y-46266615D01*
X32788202Y-46409261D01*
X33160168Y-46409585D01*
X33503944Y-46267540D01*
X33767193Y-46004750D01*
X33909839Y-45661222D01*
X33910163Y-45289256D01*
X33849074Y-45141410D01*
X33933131Y-45158130D01*
X36479710Y-45158130D01*
X36770549Y-45100278D01*
X37017111Y-44935531D01*
X37523362Y-44429280D01*
X38596000Y-44429280D01*
X38831317Y-44385002D01*
X39047441Y-44245930D01*
X39192431Y-44033730D01*
X39221164Y-43891840D01*
X39263258Y-43891840D01*
X39286838Y-44017157D01*
X39425910Y-44233281D01*
X39638110Y-44378271D01*
X39890000Y-44429280D01*
X40791893Y-44429280D01*
X38744210Y-46476962D01*
X38744208Y-46476965D01*
X37854080Y-47367092D01*
X31084566Y-47367092D01*
X30964543Y-47317254D01*
X30592577Y-47316930D01*
X30248801Y-47458975D01*
X29985552Y-47721765D01*
X29842906Y-48065293D01*
X29842582Y-48437259D01*
X29984627Y-48781035D01*
X30247417Y-49044284D01*
X30590945Y-49186930D01*
X30962911Y-49187254D01*
X31084313Y-49137092D01*
X38222119Y-49137092D01*
X38560794Y-49069725D01*
X38847909Y-48877882D01*
X38850847Y-48873485D01*
X39370000Y-48354332D01*
X40945669Y-49930000D01*
X39890000Y-49930000D01*
X39654683Y-49974278D01*
X39438559Y-50113350D01*
X39293569Y-50325550D01*
X39264836Y-50467440D01*
X39222742Y-50467440D01*
X39199162Y-50342123D01*
X39060090Y-50125999D01*
X38847890Y-49981009D01*
X38596000Y-49930000D01*
X37523362Y-49930000D01*
X37054236Y-49460874D01*
X36807674Y-49296127D01*
X36516835Y-49238275D01*
X34060726Y-49238275D01*
X33769887Y-49296127D01*
X33523325Y-49460874D01*
X33188986Y-49795213D01*
X33087001Y-49774560D01*
X31587001Y-49774560D01*
X31351684Y-49818838D01*
X31148763Y-49949414D01*
X30968770Y-49874674D01*
X30921894Y-49874633D01*
X29051199Y-48003938D01*
X28804637Y-47839191D01*
X28513798Y-47781339D01*
X22120074Y-47781339D01*
X22087938Y-47749147D01*
X21744410Y-47606501D01*
X21372444Y-47606177D01*
X21028668Y-47748222D01*
X20765419Y-48011012D01*
X20622773Y-48354540D01*
X20622449Y-48726506D01*
X20640354Y-48769840D01*
X19493347Y-48769840D01*
X19202507Y-48827692D01*
X18955946Y-48992439D01*
X18340548Y-49607837D01*
X18173759Y-49358219D01*
X17643492Y-49003906D01*
X17018000Y-48879488D01*
X16392508Y-49003906D01*
X15862241Y-49358219D01*
X15507928Y-49888486D01*
X15383510Y-50513978D01*
X15383510Y-50578022D01*
X15507928Y-51203514D01*
X15862241Y-51733781D01*
X15985290Y-51816000D01*
X15862241Y-51898219D01*
X15507928Y-52428486D01*
X15383510Y-53053978D01*
X15383510Y-53118022D01*
X15507928Y-53743514D01*
X15862241Y-54273781D01*
X15985290Y-54356000D01*
X15862241Y-54438219D01*
X15507928Y-54968486D01*
X15383510Y-55593978D01*
X15383510Y-55658022D01*
X15507928Y-56283514D01*
X15862241Y-56813781D01*
X15985290Y-56896000D01*
X15862241Y-56978219D01*
X15507928Y-57508486D01*
X15383510Y-58133978D01*
X15383510Y-58198022D01*
X15507928Y-58823514D01*
X15862241Y-59353781D01*
X15985290Y-59436000D01*
X15862241Y-59518219D01*
X15507928Y-60048486D01*
X15383510Y-60673978D01*
X15383510Y-60738022D01*
X15507928Y-61363514D01*
X15862241Y-61893781D01*
X15985290Y-61976000D01*
X15862241Y-62058219D01*
X15507928Y-62588486D01*
X15383510Y-63213978D01*
X15383510Y-63278022D01*
X15507928Y-63903514D01*
X15862241Y-64433781D01*
X15985290Y-64516000D01*
X15862241Y-64598219D01*
X15507928Y-65128486D01*
X15383510Y-65753978D01*
X15383510Y-65818022D01*
X15507928Y-66443514D01*
X15862241Y-66973781D01*
X15985290Y-67056000D01*
X15862241Y-67138219D01*
X15507928Y-67668486D01*
X15383510Y-68293978D01*
X15383510Y-68358022D01*
X15507928Y-68983514D01*
X15862241Y-69513781D01*
X15985290Y-69596000D01*
X15862241Y-69678219D01*
X15507928Y-70208486D01*
X15383510Y-70833978D01*
X15383510Y-70898022D01*
X15507928Y-71523514D01*
X15862241Y-72053781D01*
X15985290Y-72136000D01*
X15862241Y-72218219D01*
X15507928Y-72748486D01*
X15383510Y-73373978D01*
X15383510Y-73438022D01*
X15507928Y-74063514D01*
X15862241Y-74593781D01*
X15985290Y-74676000D01*
X15862241Y-74758219D01*
X15507928Y-75288486D01*
X15383510Y-75913978D01*
X15383510Y-75978022D01*
X15507928Y-76603514D01*
X15862241Y-77133781D01*
X15985290Y-77216000D01*
X15862241Y-77298219D01*
X15507928Y-77828486D01*
X15383510Y-78453978D01*
X15383510Y-78518022D01*
X15507928Y-79143514D01*
X15832373Y-79629080D01*
X14330600Y-79629080D01*
X14330600Y-14114200D01*
X41545510Y-14114200D01*
X41545510Y-14954250D01*
X41704260Y-15113000D01*
X43053000Y-15113000D01*
X43053000Y-13764260D01*
X42894250Y-13605510D01*
X42054201Y-13605510D01*
X41820812Y-13702183D01*
X41642183Y-13880811D01*
X41545510Y-14114200D01*
X14330600Y-14114200D01*
X14330600Y-13294280D01*
X80665400Y-13294280D01*
X80665400Y-79629080D01*
G36*
X27366511Y-76916729D02*
X26880330Y-77241585D01*
X26865500Y-77263780D01*
X26801927Y-77110302D01*
X26623299Y-76931673D01*
X26389910Y-76835000D01*
X25685750Y-76835000D01*
X25527000Y-76993750D01*
X25527000Y-78359000D01*
X25547000Y-78359000D01*
X25547000Y-78613000D01*
X25527000Y-78613000D01*
X25527000Y-78633000D01*
X25273000Y-78633000D01*
X25273000Y-78613000D01*
X24060150Y-78613000D01*
X23901400Y-78771750D01*
X23901400Y-79628309D01*
X23901719Y-79629080D01*
X18203627Y-79629080D01*
X18528072Y-79143514D01*
X18652490Y-78518022D01*
X18652490Y-78453978D01*
X18564945Y-78013857D01*
X19235111Y-77343691D01*
X23901400Y-77343691D01*
X23901400Y-78200250D01*
X24060150Y-78359000D01*
X25273000Y-78359000D01*
X25273000Y-76993750D01*
X25114250Y-76835000D01*
X24410090Y-76835000D01*
X24176701Y-76931673D01*
X23998073Y-77110302D01*
X23901400Y-77343691D01*
X19235111Y-77343691D01*
X19759982Y-76818820D01*
X27858733Y-76818820D01*
X27366511Y-76916729D01*
X27366511Y-76916729D01*
G37*
X27366511Y-76916729D02*
X26880330Y-77241585D01*
X26865500Y-77263780D01*
X26801927Y-77110302D01*
X26623299Y-76931673D01*
X26389910Y-76835000D01*
X25685750Y-76835000D01*
X25527000Y-76993750D01*
X25527000Y-78359000D01*
X25547000Y-78359000D01*
X25547000Y-78613000D01*
X25527000Y-78613000D01*
X25527000Y-78633000D01*
X25273000Y-78633000D01*
X25273000Y-78613000D01*
X24060150Y-78613000D01*
X23901400Y-78771750D01*
X23901400Y-79628309D01*
X23901719Y-79629080D01*
X18203627Y-79629080D01*
X18528072Y-79143514D01*
X18652490Y-78518022D01*
X18652490Y-78453978D01*
X18564945Y-78013857D01*
X19235111Y-77343691D01*
X23901400Y-77343691D01*
X23901400Y-78200250D01*
X24060150Y-78359000D01*
X25273000Y-78359000D01*
X25273000Y-76993750D01*
X25114250Y-76835000D01*
X24410090Y-76835000D01*
X24176701Y-76931673D01*
X23998073Y-77110302D01*
X23901400Y-77343691D01*
X19235111Y-77343691D01*
X19759982Y-76818820D01*
X27858733Y-76818820D01*
X27366511Y-76916729D01*
G36*
X45605080Y-68658626D02*
X45763830Y-68817376D01*
X47238080Y-68817376D01*
X47238080Y-68797376D01*
X47492080Y-68797376D01*
X47492080Y-68817376D01*
X47512080Y-68817376D01*
X47512080Y-69071376D01*
X47492080Y-69071376D01*
X47492080Y-69091376D01*
X47238080Y-69091376D01*
X47238080Y-69071376D01*
X45763830Y-69071376D01*
X45605080Y-69230126D01*
X45605080Y-69934285D01*
X45701753Y-70167674D01*
X45880381Y-70346303D01*
X46079475Y-70428770D01*
X46009530Y-70475506D01*
X45684674Y-70961687D01*
X45570600Y-71535176D01*
X45684674Y-72108665D01*
X46009530Y-72594846D01*
X46495711Y-72919702D01*
X46602401Y-72940924D01*
X46602401Y-73140543D01*
X43591744Y-76151200D01*
X43009587Y-76151200D01*
X43877401Y-75283386D01*
X44042148Y-75036825D01*
X44051746Y-74988571D01*
X44100000Y-74745985D01*
X44100000Y-73507398D01*
X44325317Y-73465002D01*
X44541441Y-73325930D01*
X44686431Y-73113730D01*
X44737440Y-72861840D01*
X44737440Y-71561840D01*
X44693162Y-71326523D01*
X44554090Y-71110399D01*
X44341890Y-70965409D01*
X44090000Y-70914400D01*
X43263712Y-70914400D01*
X45605080Y-68573032D01*
X45605080Y-68658626D01*
X45605080Y-68658626D01*
G37*
X45605080Y-68658626D02*
X45763830Y-68817376D01*
X47238080Y-68817376D01*
X47238080Y-68797376D01*
X47492080Y-68797376D01*
X47492080Y-68817376D01*
X47512080Y-68817376D01*
X47512080Y-69071376D01*
X47492080Y-69071376D01*
X47492080Y-69091376D01*
X47238080Y-69091376D01*
X47238080Y-69071376D01*
X45763830Y-69071376D01*
X45605080Y-69230126D01*
X45605080Y-69934285D01*
X45701753Y-70167674D01*
X45880381Y-70346303D01*
X46079475Y-70428770D01*
X46009530Y-70475506D01*
X45684674Y-70961687D01*
X45570600Y-71535176D01*
X45684674Y-72108665D01*
X46009530Y-72594846D01*
X46495711Y-72919702D01*
X46602401Y-72940924D01*
X46602401Y-73140543D01*
X43591744Y-76151200D01*
X43009587Y-76151200D01*
X43877401Y-75283386D01*
X44042148Y-75036825D01*
X44051746Y-74988571D01*
X44100000Y-74745985D01*
X44100000Y-73507398D01*
X44325317Y-73465002D01*
X44541441Y-73325930D01*
X44686431Y-73113730D01*
X44737440Y-72861840D01*
X44737440Y-71561840D01*
X44693162Y-71326523D01*
X44554090Y-71110399D01*
X44341890Y-70965409D01*
X44090000Y-70914400D01*
X43263712Y-70914400D01*
X45605080Y-68573032D01*
X45605080Y-68658626D01*
G36*
X29926848Y-67069401D02*
X30173410Y-67234148D01*
X30464249Y-67292000D01*
X30982087Y-67292000D01*
X30939561Y-67502000D01*
X30939561Y-68102000D01*
X30983839Y-68337317D01*
X31042179Y-68427980D01*
X30952001Y-68645690D01*
X30952001Y-68786250D01*
X31110751Y-68945000D01*
X32210001Y-68945000D01*
X32210001Y-68925000D01*
X32464001Y-68925000D01*
X32464001Y-68945000D01*
X33563251Y-68945000D01*
X33722001Y-68786250D01*
X33722001Y-68645690D01*
X33671971Y-68524908D01*
X33748560Y-68448452D01*
X33748560Y-68519120D01*
X33792838Y-68754437D01*
X33931910Y-68970561D01*
X33957271Y-68987890D01*
X33944559Y-68996070D01*
X33799569Y-69208270D01*
X33748560Y-69460160D01*
X33748560Y-69687582D01*
X33674381Y-69613274D01*
X33722001Y-69498310D01*
X33722001Y-69357750D01*
X33563251Y-69199000D01*
X32464001Y-69199000D01*
X32464001Y-69219000D01*
X32210001Y-69219000D01*
X32210001Y-69199000D01*
X31110751Y-69199000D01*
X30952001Y-69357750D01*
X30952001Y-69498310D01*
X31041807Y-69715122D01*
X30990570Y-69790110D01*
X30939561Y-70042000D01*
X30939561Y-70642000D01*
X30983839Y-70877317D01*
X31047679Y-70976528D01*
X30990570Y-71060110D01*
X30950647Y-71257254D01*
X30532565Y-71675336D01*
X30474872Y-71535707D01*
X30212082Y-71272458D01*
X29868554Y-71129812D01*
X29821678Y-71129771D01*
X28667992Y-69976085D01*
X28978371Y-69847840D01*
X29241620Y-69585050D01*
X29384266Y-69241522D01*
X29384590Y-68869556D01*
X29242545Y-68525780D01*
X28979755Y-68262531D01*
X28636227Y-68119885D01*
X28330873Y-68119619D01*
X28334441Y-68102000D01*
X28334441Y-67502000D01*
X28290163Y-67266683D01*
X28226323Y-67167472D01*
X28283432Y-67083890D01*
X28334441Y-66832000D01*
X28334441Y-66232000D01*
X28290163Y-65996683D01*
X28280453Y-65981593D01*
X28468525Y-65793848D01*
X28522151Y-65664704D01*
X29926848Y-67069401D01*
X29926848Y-67069401D01*
G37*
X29926848Y-67069401D02*
X30173410Y-67234148D01*
X30464249Y-67292000D01*
X30982087Y-67292000D01*
X30939561Y-67502000D01*
X30939561Y-68102000D01*
X30983839Y-68337317D01*
X31042179Y-68427980D01*
X30952001Y-68645690D01*
X30952001Y-68786250D01*
X31110751Y-68945000D01*
X32210001Y-68945000D01*
X32210001Y-68925000D01*
X32464001Y-68925000D01*
X32464001Y-68945000D01*
X33563251Y-68945000D01*
X33722001Y-68786250D01*
X33722001Y-68645690D01*
X33671971Y-68524908D01*
X33748560Y-68448452D01*
X33748560Y-68519120D01*
X33792838Y-68754437D01*
X33931910Y-68970561D01*
X33957271Y-68987890D01*
X33944559Y-68996070D01*
X33799569Y-69208270D01*
X33748560Y-69460160D01*
X33748560Y-69687582D01*
X33674381Y-69613274D01*
X33722001Y-69498310D01*
X33722001Y-69357750D01*
X33563251Y-69199000D01*
X32464001Y-69199000D01*
X32464001Y-69219000D01*
X32210001Y-69219000D01*
X32210001Y-69199000D01*
X31110751Y-69199000D01*
X30952001Y-69357750D01*
X30952001Y-69498310D01*
X31041807Y-69715122D01*
X30990570Y-69790110D01*
X30939561Y-70042000D01*
X30939561Y-70642000D01*
X30983839Y-70877317D01*
X31047679Y-70976528D01*
X30990570Y-71060110D01*
X30950647Y-71257254D01*
X30532565Y-71675336D01*
X30474872Y-71535707D01*
X30212082Y-71272458D01*
X29868554Y-71129812D01*
X29821678Y-71129771D01*
X28667992Y-69976085D01*
X28978371Y-69847840D01*
X29241620Y-69585050D01*
X29384266Y-69241522D01*
X29384590Y-68869556D01*
X29242545Y-68525780D01*
X28979755Y-68262531D01*
X28636227Y-68119885D01*
X28330873Y-68119619D01*
X28334441Y-68102000D01*
X28334441Y-67502000D01*
X28290163Y-67266683D01*
X28226323Y-67167472D01*
X28283432Y-67083890D01*
X28334441Y-66832000D01*
X28334441Y-66232000D01*
X28290163Y-65996683D01*
X28280453Y-65981593D01*
X28468525Y-65793848D01*
X28522151Y-65664704D01*
X29926848Y-67069401D01*
G36*
X39286838Y-58557157D02*
X39425910Y-58773281D01*
X39638110Y-58918271D01*
X39890000Y-58969280D01*
X40639235Y-58969280D01*
X37643285Y-61965229D01*
X31089428Y-61965229D01*
X30969405Y-61915391D01*
X30597439Y-61915067D01*
X30253663Y-62057112D01*
X29990414Y-62319902D01*
X29847768Y-62663430D01*
X29847444Y-63035396D01*
X29989489Y-63379172D01*
X30252279Y-63642421D01*
X30595807Y-63785067D01*
X30967773Y-63785391D01*
X31089175Y-63735229D01*
X38009860Y-63735229D01*
X38009865Y-63735230D01*
X38292349Y-63679039D01*
X38348540Y-63667862D01*
X38635655Y-63476019D01*
X42649332Y-59462341D01*
X42649335Y-59462339D01*
X42841178Y-59175224D01*
X42868178Y-59039488D01*
X42882144Y-58969280D01*
X44090000Y-58969280D01*
X44325317Y-58925002D01*
X44368947Y-58896927D01*
X44368947Y-63916483D01*
X44426799Y-64207322D01*
X44591546Y-64453884D01*
X45798378Y-65660716D01*
X45684674Y-65830887D01*
X45570600Y-66404376D01*
X45579482Y-66449026D01*
X41451042Y-70577466D01*
X41286295Y-70824028D01*
X41268319Y-70914400D01*
X39890000Y-70914400D01*
X39654683Y-70958678D01*
X39438559Y-71097750D01*
X39293569Y-71309950D01*
X39264836Y-71451840D01*
X39222742Y-71451840D01*
X39199162Y-71326523D01*
X39091684Y-71159498D01*
X39192431Y-71012050D01*
X39243440Y-70760160D01*
X39243440Y-69460160D01*
X39199162Y-69224843D01*
X39060090Y-69008719D01*
X39034729Y-68991390D01*
X39047441Y-68983210D01*
X39192431Y-68771010D01*
X39243440Y-68519120D01*
X39243440Y-67219120D01*
X39199162Y-66983803D01*
X39091684Y-66816778D01*
X39192431Y-66669330D01*
X39221164Y-66527440D01*
X39263258Y-66527440D01*
X39286838Y-66652757D01*
X39425910Y-66868881D01*
X39638110Y-67013871D01*
X39890000Y-67064880D01*
X41390000Y-67064880D01*
X41625317Y-67020602D01*
X41841441Y-66881530D01*
X41986431Y-66669330D01*
X41989081Y-66656243D01*
X42125910Y-66868881D01*
X42338110Y-67013871D01*
X42590000Y-67064880D01*
X44090000Y-67064880D01*
X44325317Y-67020602D01*
X44541441Y-66881530D01*
X44686431Y-66669330D01*
X44737440Y-66417440D01*
X44737440Y-65117440D01*
X44693162Y-64882123D01*
X44554090Y-64665999D01*
X44341890Y-64521009D01*
X44090000Y-64470000D01*
X42590000Y-64470000D01*
X42354683Y-64514278D01*
X42138559Y-64653350D01*
X41993569Y-64865550D01*
X41990919Y-64878637D01*
X41854090Y-64665999D01*
X41641890Y-64521009D01*
X41390000Y-64470000D01*
X39890000Y-64470000D01*
X39654683Y-64514278D01*
X39438559Y-64653350D01*
X39293569Y-64865550D01*
X39264836Y-65007440D01*
X39222742Y-65007440D01*
X39199162Y-64882123D01*
X39060090Y-64665999D01*
X38847890Y-64521009D01*
X38596000Y-64470000D01*
X37523362Y-64470000D01*
X37046108Y-63992746D01*
X36799546Y-63827999D01*
X36508707Y-63770147D01*
X34068854Y-63770147D01*
X33826268Y-63818401D01*
X33778014Y-63827999D01*
X33531453Y-63992746D01*
X33188986Y-64335213D01*
X33087001Y-64314560D01*
X31587001Y-64314560D01*
X31351684Y-64358838D01*
X31135560Y-64497910D01*
X31128599Y-64508097D01*
X30968567Y-64441646D01*
X30921691Y-64441605D01*
X28838528Y-62358442D01*
X28591966Y-62193695D01*
X28301127Y-62135843D01*
X23008139Y-62135843D01*
X22976003Y-62103651D01*
X22632475Y-61961005D01*
X22260509Y-61960681D01*
X21916733Y-62102726D01*
X21653484Y-62365516D01*
X21510838Y-62709044D01*
X21510514Y-63081010D01*
X21603817Y-63306820D01*
X18721057Y-63306820D01*
X18643701Y-63322207D01*
X18652490Y-63278022D01*
X18652490Y-63213978D01*
X18564945Y-62773857D01*
X20187967Y-61150835D01*
X32459535Y-61150835D01*
X32750374Y-61092983D01*
X32996936Y-60928236D01*
X33180201Y-60744971D01*
X33225688Y-60745011D01*
X33569464Y-60602966D01*
X33832713Y-60340176D01*
X33975359Y-59996648D01*
X33975626Y-59690003D01*
X36487837Y-59690003D01*
X36778676Y-59632151D01*
X37025238Y-59467404D01*
X37523362Y-58969280D01*
X38596000Y-58969280D01*
X38831317Y-58925002D01*
X39047441Y-58785930D01*
X39192431Y-58573730D01*
X39221164Y-58431840D01*
X39263258Y-58431840D01*
X39286838Y-58557157D01*
X39286838Y-58557157D01*
G37*
X39286838Y-58557157D02*
X39425910Y-58773281D01*
X39638110Y-58918271D01*
X39890000Y-58969280D01*
X40639235Y-58969280D01*
X37643285Y-61965229D01*
X31089428Y-61965229D01*
X30969405Y-61915391D01*
X30597439Y-61915067D01*
X30253663Y-62057112D01*
X29990414Y-62319902D01*
X29847768Y-62663430D01*
X29847444Y-63035396D01*
X29989489Y-63379172D01*
X30252279Y-63642421D01*
X30595807Y-63785067D01*
X30967773Y-63785391D01*
X31089175Y-63735229D01*
X38009860Y-63735229D01*
X38009865Y-63735230D01*
X38292349Y-63679039D01*
X38348540Y-63667862D01*
X38635655Y-63476019D01*
X42649332Y-59462341D01*
X42649335Y-59462339D01*
X42841178Y-59175224D01*
X42868178Y-59039488D01*
X42882144Y-58969280D01*
X44090000Y-58969280D01*
X44325317Y-58925002D01*
X44368947Y-58896927D01*
X44368947Y-63916483D01*
X44426799Y-64207322D01*
X44591546Y-64453884D01*
X45798378Y-65660716D01*
X45684674Y-65830887D01*
X45570600Y-66404376D01*
X45579482Y-66449026D01*
X41451042Y-70577466D01*
X41286295Y-70824028D01*
X41268319Y-70914400D01*
X39890000Y-70914400D01*
X39654683Y-70958678D01*
X39438559Y-71097750D01*
X39293569Y-71309950D01*
X39264836Y-71451840D01*
X39222742Y-71451840D01*
X39199162Y-71326523D01*
X39091684Y-71159498D01*
X39192431Y-71012050D01*
X39243440Y-70760160D01*
X39243440Y-69460160D01*
X39199162Y-69224843D01*
X39060090Y-69008719D01*
X39034729Y-68991390D01*
X39047441Y-68983210D01*
X39192431Y-68771010D01*
X39243440Y-68519120D01*
X39243440Y-67219120D01*
X39199162Y-66983803D01*
X39091684Y-66816778D01*
X39192431Y-66669330D01*
X39221164Y-66527440D01*
X39263258Y-66527440D01*
X39286838Y-66652757D01*
X39425910Y-66868881D01*
X39638110Y-67013871D01*
X39890000Y-67064880D01*
X41390000Y-67064880D01*
X41625317Y-67020602D01*
X41841441Y-66881530D01*
X41986431Y-66669330D01*
X41989081Y-66656243D01*
X42125910Y-66868881D01*
X42338110Y-67013871D01*
X42590000Y-67064880D01*
X44090000Y-67064880D01*
X44325317Y-67020602D01*
X44541441Y-66881530D01*
X44686431Y-66669330D01*
X44737440Y-66417440D01*
X44737440Y-65117440D01*
X44693162Y-64882123D01*
X44554090Y-64665999D01*
X44341890Y-64521009D01*
X44090000Y-64470000D01*
X42590000Y-64470000D01*
X42354683Y-64514278D01*
X42138559Y-64653350D01*
X41993569Y-64865550D01*
X41990919Y-64878637D01*
X41854090Y-64665999D01*
X41641890Y-64521009D01*
X41390000Y-64470000D01*
X39890000Y-64470000D01*
X39654683Y-64514278D01*
X39438559Y-64653350D01*
X39293569Y-64865550D01*
X39264836Y-65007440D01*
X39222742Y-65007440D01*
X39199162Y-64882123D01*
X39060090Y-64665999D01*
X38847890Y-64521009D01*
X38596000Y-64470000D01*
X37523362Y-64470000D01*
X37046108Y-63992746D01*
X36799546Y-63827999D01*
X36508707Y-63770147D01*
X34068854Y-63770147D01*
X33826268Y-63818401D01*
X33778014Y-63827999D01*
X33531453Y-63992746D01*
X33188986Y-64335213D01*
X33087001Y-64314560D01*
X31587001Y-64314560D01*
X31351684Y-64358838D01*
X31135560Y-64497910D01*
X31128599Y-64508097D01*
X30968567Y-64441646D01*
X30921691Y-64441605D01*
X28838528Y-62358442D01*
X28591966Y-62193695D01*
X28301127Y-62135843D01*
X23008139Y-62135843D01*
X22976003Y-62103651D01*
X22632475Y-61961005D01*
X22260509Y-61960681D01*
X21916733Y-62102726D01*
X21653484Y-62365516D01*
X21510838Y-62709044D01*
X21510514Y-63081010D01*
X21603817Y-63306820D01*
X18721057Y-63306820D01*
X18643701Y-63322207D01*
X18652490Y-63278022D01*
X18652490Y-63213978D01*
X18564945Y-62773857D01*
X20187967Y-61150835D01*
X32459535Y-61150835D01*
X32750374Y-61092983D01*
X32996936Y-60928236D01*
X33180201Y-60744971D01*
X33225688Y-60745011D01*
X33569464Y-60602966D01*
X33832713Y-60340176D01*
X33975359Y-59996648D01*
X33975626Y-59690003D01*
X36487837Y-59690003D01*
X36778676Y-59632151D01*
X37025238Y-59467404D01*
X37523362Y-58969280D01*
X38596000Y-58969280D01*
X38831317Y-58925002D01*
X39047441Y-58785930D01*
X39192431Y-58573730D01*
X39221164Y-58431840D01*
X39263258Y-58431840D01*
X39286838Y-58557157D01*
G36*
X54104000Y-64164443D02*
X54104000Y-64783666D01*
X54020310Y-64749000D01*
X53879750Y-64749000D01*
X53721000Y-64907750D01*
X53721000Y-66007000D01*
X53741000Y-66007000D01*
X53741000Y-66261000D01*
X53721000Y-66261000D01*
X53721000Y-66281000D01*
X53467000Y-66281000D01*
X53467000Y-66261000D01*
X53447000Y-66261000D01*
X53447000Y-66007000D01*
X53467000Y-66007000D01*
X53467000Y-64907750D01*
X53308250Y-64749000D01*
X53167690Y-64749000D01*
X53084000Y-64783666D01*
X53084000Y-63881440D01*
X53820997Y-63881440D01*
X54104000Y-64164443D01*
X54104000Y-64164443D01*
G37*
X54104000Y-64164443D02*
X54104000Y-64783666D01*
X54020310Y-64749000D01*
X53879750Y-64749000D01*
X53721000Y-64907750D01*
X53721000Y-66007000D01*
X53741000Y-66007000D01*
X53741000Y-66261000D01*
X53721000Y-66261000D01*
X53721000Y-66281000D01*
X53467000Y-66281000D01*
X53467000Y-66261000D01*
X53447000Y-66261000D01*
X53447000Y-66007000D01*
X53467000Y-66007000D01*
X53467000Y-64907750D01*
X53308250Y-64749000D01*
X53167690Y-64749000D01*
X53084000Y-64783666D01*
X53084000Y-63881440D01*
X53820997Y-63881440D01*
X54104000Y-64164443D01*
G36*
X61249530Y-62384046D02*
X61564311Y-62594376D01*
X61249530Y-62804706D01*
X61007521Y-63166898D01*
X61007521Y-62021854D01*
X61249530Y-62384046D01*
X61249530Y-62384046D01*
G37*
X61249530Y-62384046D02*
X61564311Y-62594376D01*
X61249530Y-62804706D01*
X61007521Y-63166898D01*
X61007521Y-62021854D01*
X61249530Y-62384046D01*
G36*
X29874757Y-52529401D02*
X30121319Y-52694148D01*
X30412158Y-52752000D01*
X30982087Y-52752000D01*
X30939561Y-52962000D01*
X30939561Y-53562000D01*
X30983839Y-53797317D01*
X31042179Y-53887980D01*
X30952001Y-54105690D01*
X30952001Y-54246250D01*
X31110751Y-54405000D01*
X32210001Y-54405000D01*
X32210001Y-54385000D01*
X32464001Y-54385000D01*
X32464001Y-54405000D01*
X33563251Y-54405000D01*
X33722001Y-54246250D01*
X33722001Y-54105690D01*
X33671971Y-53984908D01*
X33748560Y-53908452D01*
X33748560Y-53979120D01*
X33792838Y-54214437D01*
X33931910Y-54430561D01*
X33957271Y-54447890D01*
X33944559Y-54456070D01*
X33799569Y-54668270D01*
X33748560Y-54920160D01*
X33748560Y-55147582D01*
X33674381Y-55073274D01*
X33722001Y-54958310D01*
X33722001Y-54817750D01*
X33563251Y-54659000D01*
X32464001Y-54659000D01*
X32464001Y-54679000D01*
X32210001Y-54679000D01*
X32210001Y-54659000D01*
X31110751Y-54659000D01*
X30952001Y-54817750D01*
X30952001Y-54958310D01*
X31041807Y-55175122D01*
X30990570Y-55250110D01*
X30939561Y-55502000D01*
X30939561Y-56102000D01*
X30983839Y-56337317D01*
X31047679Y-56436528D01*
X30990570Y-56520110D01*
X30939561Y-56772000D01*
X30939561Y-56944638D01*
X30584891Y-57299308D01*
X30502943Y-57100979D01*
X30240153Y-56837730D01*
X29896625Y-56695084D01*
X29848605Y-56695042D01*
X28623766Y-55470203D01*
X28628925Y-55470207D01*
X28972701Y-55328162D01*
X29235950Y-55065372D01*
X29378596Y-54721844D01*
X29378920Y-54349878D01*
X29236875Y-54006102D01*
X28974085Y-53742853D01*
X28630557Y-53600207D01*
X28326757Y-53599942D01*
X28334441Y-53562000D01*
X28334441Y-52962000D01*
X28290163Y-52726683D01*
X28226323Y-52627472D01*
X28283432Y-52543890D01*
X28334441Y-52292000D01*
X28334441Y-51692000D01*
X28290163Y-51456683D01*
X28273901Y-51431412D01*
X28453957Y-51251670D01*
X28495934Y-51150578D01*
X29874757Y-52529401D01*
X29874757Y-52529401D01*
G37*
X29874757Y-52529401D02*
X30121319Y-52694148D01*
X30412158Y-52752000D01*
X30982087Y-52752000D01*
X30939561Y-52962000D01*
X30939561Y-53562000D01*
X30983839Y-53797317D01*
X31042179Y-53887980D01*
X30952001Y-54105690D01*
X30952001Y-54246250D01*
X31110751Y-54405000D01*
X32210001Y-54405000D01*
X32210001Y-54385000D01*
X32464001Y-54385000D01*
X32464001Y-54405000D01*
X33563251Y-54405000D01*
X33722001Y-54246250D01*
X33722001Y-54105690D01*
X33671971Y-53984908D01*
X33748560Y-53908452D01*
X33748560Y-53979120D01*
X33792838Y-54214437D01*
X33931910Y-54430561D01*
X33957271Y-54447890D01*
X33944559Y-54456070D01*
X33799569Y-54668270D01*
X33748560Y-54920160D01*
X33748560Y-55147582D01*
X33674381Y-55073274D01*
X33722001Y-54958310D01*
X33722001Y-54817750D01*
X33563251Y-54659000D01*
X32464001Y-54659000D01*
X32464001Y-54679000D01*
X32210001Y-54679000D01*
X32210001Y-54659000D01*
X31110751Y-54659000D01*
X30952001Y-54817750D01*
X30952001Y-54958310D01*
X31041807Y-55175122D01*
X30990570Y-55250110D01*
X30939561Y-55502000D01*
X30939561Y-56102000D01*
X30983839Y-56337317D01*
X31047679Y-56436528D01*
X30990570Y-56520110D01*
X30939561Y-56772000D01*
X30939561Y-56944638D01*
X30584891Y-57299308D01*
X30502943Y-57100979D01*
X30240153Y-56837730D01*
X29896625Y-56695084D01*
X29848605Y-56695042D01*
X28623766Y-55470203D01*
X28628925Y-55470207D01*
X28972701Y-55328162D01*
X29235950Y-55065372D01*
X29378596Y-54721844D01*
X29378920Y-54349878D01*
X29236875Y-54006102D01*
X28974085Y-53742853D01*
X28630557Y-53600207D01*
X28326757Y-53599942D01*
X28334441Y-53562000D01*
X28334441Y-52962000D01*
X28290163Y-52726683D01*
X28226323Y-52627472D01*
X28283432Y-52543890D01*
X28334441Y-52292000D01*
X28334441Y-51692000D01*
X28290163Y-51456683D01*
X28273901Y-51431412D01*
X28453957Y-51251670D01*
X28495934Y-51150578D01*
X29874757Y-52529401D01*
G36*
X39286838Y-52112757D02*
X39425910Y-52328881D01*
X39638110Y-52473871D01*
X39890000Y-52524880D01*
X41138545Y-52524880D01*
X41138545Y-56374400D01*
X39890000Y-56374400D01*
X39654683Y-56418678D01*
X39438559Y-56557750D01*
X39293569Y-56769950D01*
X39264836Y-56911840D01*
X39222742Y-56911840D01*
X39199162Y-56786523D01*
X39091684Y-56619498D01*
X39192431Y-56472050D01*
X39243440Y-56220160D01*
X39243440Y-54920160D01*
X39199162Y-54684843D01*
X39060090Y-54468719D01*
X39034729Y-54451390D01*
X39047441Y-54443210D01*
X39192431Y-54231010D01*
X39243440Y-53979120D01*
X39243440Y-52679120D01*
X39199162Y-52443803D01*
X39091684Y-52276778D01*
X39192431Y-52129330D01*
X39221164Y-51987440D01*
X39263258Y-51987440D01*
X39286838Y-52112757D01*
X39286838Y-52112757D01*
G37*
X39286838Y-52112757D02*
X39425910Y-52328881D01*
X39638110Y-52473871D01*
X39890000Y-52524880D01*
X41138545Y-52524880D01*
X41138545Y-56374400D01*
X39890000Y-56374400D01*
X39654683Y-56418678D01*
X39438559Y-56557750D01*
X39293569Y-56769950D01*
X39264836Y-56911840D01*
X39222742Y-56911840D01*
X39199162Y-56786523D01*
X39091684Y-56619498D01*
X39192431Y-56472050D01*
X39243440Y-56220160D01*
X39243440Y-54920160D01*
X39199162Y-54684843D01*
X39060090Y-54468719D01*
X39034729Y-54451390D01*
X39047441Y-54443210D01*
X39192431Y-54231010D01*
X39243440Y-53979120D01*
X39243440Y-52679120D01*
X39199162Y-52443803D01*
X39091684Y-52276778D01*
X39192431Y-52129330D01*
X39221164Y-51987440D01*
X39263258Y-51987440D01*
X39286838Y-52112757D01*
G36*
X54358000Y-42989099D02*
X54358000Y-43607666D01*
X54274310Y-43573000D01*
X54133750Y-43573000D01*
X53975000Y-43731750D01*
X53975000Y-44831000D01*
X53995000Y-44831000D01*
X53995000Y-45085000D01*
X53975000Y-45085000D01*
X53975000Y-45105000D01*
X53721000Y-45105000D01*
X53721000Y-45085000D01*
X53701000Y-45085000D01*
X53701000Y-44831000D01*
X53721000Y-44831000D01*
X53721000Y-43731750D01*
X53562250Y-43573000D01*
X53421690Y-43573000D01*
X53338000Y-43607666D01*
X53338000Y-42705440D01*
X54074341Y-42705440D01*
X54358000Y-42989099D01*
X54358000Y-42989099D01*
G37*
X54358000Y-42989099D02*
X54358000Y-43607666D01*
X54274310Y-43573000D01*
X54133750Y-43573000D01*
X53975000Y-43731750D01*
X53975000Y-44831000D01*
X53995000Y-44831000D01*
X53995000Y-45085000D01*
X53975000Y-45085000D01*
X53975000Y-45105000D01*
X53721000Y-45105000D01*
X53721000Y-45085000D01*
X53701000Y-45085000D01*
X53701000Y-44831000D01*
X53721000Y-44831000D01*
X53721000Y-43731750D01*
X53562250Y-43573000D01*
X53421690Y-43573000D01*
X53338000Y-43607666D01*
X53338000Y-42705440D01*
X54074341Y-42705440D01*
X54358000Y-42989099D01*
G36*
X30059764Y-37989401D02*
X30306326Y-38154148D01*
X30597165Y-38212000D01*
X30982087Y-38212000D01*
X30939561Y-38422000D01*
X30939561Y-39022000D01*
X30983839Y-39257317D01*
X31042179Y-39347980D01*
X30952001Y-39565690D01*
X30952001Y-39706250D01*
X31110751Y-39865000D01*
X32210001Y-39865000D01*
X32210001Y-39845000D01*
X32464001Y-39845000D01*
X32464001Y-39865000D01*
X33563251Y-39865000D01*
X33722001Y-39706250D01*
X33722001Y-39565690D01*
X33671971Y-39444908D01*
X33748560Y-39368452D01*
X33748560Y-39439120D01*
X33792838Y-39674437D01*
X33931910Y-39890561D01*
X33957271Y-39907890D01*
X33944559Y-39916070D01*
X33799569Y-40128270D01*
X33748560Y-40380160D01*
X33748560Y-40607582D01*
X33674381Y-40533274D01*
X33722001Y-40418310D01*
X33722001Y-40277750D01*
X33563251Y-40119000D01*
X32464001Y-40119000D01*
X32464001Y-40139000D01*
X32210001Y-40139000D01*
X32210001Y-40119000D01*
X31110751Y-40119000D01*
X30952001Y-40277750D01*
X30952001Y-40418310D01*
X31041807Y-40635122D01*
X30990570Y-40710110D01*
X30939561Y-40962000D01*
X30939561Y-41562000D01*
X30983839Y-41797317D01*
X31015036Y-41845799D01*
X30792341Y-41994599D01*
X30397379Y-42389561D01*
X30243112Y-42235025D01*
X29899584Y-42092379D01*
X29852708Y-42092338D01*
X28659829Y-40899459D01*
X28978371Y-40767840D01*
X29241620Y-40505050D01*
X29384266Y-40161522D01*
X29384590Y-39789556D01*
X29242545Y-39445780D01*
X28979755Y-39182531D01*
X28636227Y-39039885D01*
X28330873Y-39039619D01*
X28334441Y-39022000D01*
X28334441Y-38422000D01*
X28290163Y-38186683D01*
X28226323Y-38087472D01*
X28283432Y-38003890D01*
X28334441Y-37752000D01*
X28334441Y-37152000D01*
X28290163Y-36916683D01*
X28277557Y-36897093D01*
X28461702Y-36713270D01*
X28556158Y-36485795D01*
X30059764Y-37989401D01*
X30059764Y-37989401D01*
G37*
X30059764Y-37989401D02*
X30306326Y-38154148D01*
X30597165Y-38212000D01*
X30982087Y-38212000D01*
X30939561Y-38422000D01*
X30939561Y-39022000D01*
X30983839Y-39257317D01*
X31042179Y-39347980D01*
X30952001Y-39565690D01*
X30952001Y-39706250D01*
X31110751Y-39865000D01*
X32210001Y-39865000D01*
X32210001Y-39845000D01*
X32464001Y-39845000D01*
X32464001Y-39865000D01*
X33563251Y-39865000D01*
X33722001Y-39706250D01*
X33722001Y-39565690D01*
X33671971Y-39444908D01*
X33748560Y-39368452D01*
X33748560Y-39439120D01*
X33792838Y-39674437D01*
X33931910Y-39890561D01*
X33957271Y-39907890D01*
X33944559Y-39916070D01*
X33799569Y-40128270D01*
X33748560Y-40380160D01*
X33748560Y-40607582D01*
X33674381Y-40533274D01*
X33722001Y-40418310D01*
X33722001Y-40277750D01*
X33563251Y-40119000D01*
X32464001Y-40119000D01*
X32464001Y-40139000D01*
X32210001Y-40139000D01*
X32210001Y-40119000D01*
X31110751Y-40119000D01*
X30952001Y-40277750D01*
X30952001Y-40418310D01*
X31041807Y-40635122D01*
X30990570Y-40710110D01*
X30939561Y-40962000D01*
X30939561Y-41562000D01*
X30983839Y-41797317D01*
X31015036Y-41845799D01*
X30792341Y-41994599D01*
X30397379Y-42389561D01*
X30243112Y-42235025D01*
X29899584Y-42092379D01*
X29852708Y-42092338D01*
X28659829Y-40899459D01*
X28978371Y-40767840D01*
X29241620Y-40505050D01*
X29384266Y-40161522D01*
X29384590Y-39789556D01*
X29242545Y-39445780D01*
X28979755Y-39182531D01*
X28636227Y-39039885D01*
X28330873Y-39039619D01*
X28334441Y-39022000D01*
X28334441Y-38422000D01*
X28290163Y-38186683D01*
X28226323Y-38087472D01*
X28283432Y-38003890D01*
X28334441Y-37752000D01*
X28334441Y-37152000D01*
X28290163Y-36916683D01*
X28277557Y-36897093D01*
X28461702Y-36713270D01*
X28556158Y-36485795D01*
X30059764Y-37989401D01*
G36*
X39286838Y-37572757D02*
X39425910Y-37788881D01*
X39638110Y-37933871D01*
X39890000Y-37984880D01*
X41138545Y-37984880D01*
X41138545Y-41834400D01*
X39890000Y-41834400D01*
X39654683Y-41878678D01*
X39438559Y-42017750D01*
X39293569Y-42229950D01*
X39264836Y-42371840D01*
X39222742Y-42371840D01*
X39199162Y-42246523D01*
X39091684Y-42079498D01*
X39192431Y-41932050D01*
X39243440Y-41680160D01*
X39243440Y-40380160D01*
X39199162Y-40144843D01*
X39060090Y-39928719D01*
X39034729Y-39911390D01*
X39047441Y-39903210D01*
X39192431Y-39691010D01*
X39243440Y-39439120D01*
X39243440Y-38139120D01*
X39199162Y-37903803D01*
X39091684Y-37736778D01*
X39192431Y-37589330D01*
X39221164Y-37447440D01*
X39263258Y-37447440D01*
X39286838Y-37572757D01*
X39286838Y-37572757D01*
G37*
X39286838Y-37572757D02*
X39425910Y-37788881D01*
X39638110Y-37933871D01*
X39890000Y-37984880D01*
X41138545Y-37984880D01*
X41138545Y-41834400D01*
X39890000Y-41834400D01*
X39654683Y-41878678D01*
X39438559Y-42017750D01*
X39293569Y-42229950D01*
X39264836Y-42371840D01*
X39222742Y-42371840D01*
X39199162Y-42246523D01*
X39091684Y-42079498D01*
X39192431Y-41932050D01*
X39243440Y-41680160D01*
X39243440Y-40380160D01*
X39199162Y-40144843D01*
X39060090Y-39928719D01*
X39034729Y-39911390D01*
X39047441Y-39903210D01*
X39192431Y-39691010D01*
X39243440Y-39439120D01*
X39243440Y-38139120D01*
X39199162Y-37903803D01*
X39091684Y-37736778D01*
X39192431Y-37589330D01*
X39221164Y-37447440D01*
X39263258Y-37447440D01*
X39286838Y-37572757D01*
G36*
X39286838Y-29477157D02*
X39425910Y-29693281D01*
X39638110Y-29838271D01*
X39890000Y-29889280D01*
X41115024Y-29889280D01*
X41115024Y-31800257D01*
X40022009Y-32893271D01*
X31089337Y-32893271D01*
X30969314Y-32843433D01*
X30597348Y-32843109D01*
X30253572Y-32985154D01*
X29990323Y-33247944D01*
X29847677Y-33591472D01*
X29847353Y-33963438D01*
X29989398Y-34307214D01*
X30252188Y-34570463D01*
X30595716Y-34713109D01*
X30967682Y-34713433D01*
X31089084Y-34663271D01*
X40050344Y-34663271D01*
X40777074Y-35390000D01*
X39890000Y-35390000D01*
X39654683Y-35434278D01*
X39438559Y-35573350D01*
X39293569Y-35785550D01*
X39264836Y-35927440D01*
X39222742Y-35927440D01*
X39199162Y-35802123D01*
X39060090Y-35585999D01*
X38847890Y-35441009D01*
X38596000Y-35390000D01*
X37523362Y-35390000D01*
X37040736Y-34907374D01*
X36794174Y-34742627D01*
X36503335Y-34684775D01*
X34074226Y-34684775D01*
X33783387Y-34742627D01*
X33536825Y-34907374D01*
X33188986Y-35255213D01*
X33087001Y-35234560D01*
X31587001Y-35234560D01*
X31351684Y-35278838D01*
X31135560Y-35417910D01*
X31131597Y-35423711D01*
X30965794Y-35354863D01*
X30918918Y-35354822D01*
X28828670Y-33264574D01*
X28582108Y-33099827D01*
X28291269Y-33041975D01*
X21809315Y-33041975D01*
X21777179Y-33009783D01*
X21433651Y-32867137D01*
X21061685Y-32866813D01*
X20717909Y-33008858D01*
X20454660Y-33271648D01*
X20312014Y-33615176D01*
X20311690Y-33987142D01*
X20438678Y-34294478D01*
X19621280Y-34294478D01*
X18564945Y-33238143D01*
X18652490Y-32798022D01*
X18652490Y-32733978D01*
X18528072Y-32108486D01*
X18246048Y-31686407D01*
X32446051Y-31686407D01*
X32478187Y-31718599D01*
X32821715Y-31861245D01*
X33193681Y-31861569D01*
X33537457Y-31719524D01*
X33800706Y-31456734D01*
X33943352Y-31113206D01*
X33943676Y-30741240D01*
X33884329Y-30597609D01*
X33919632Y-30604631D01*
X36493209Y-30604631D01*
X36784048Y-30546779D01*
X37030610Y-30382032D01*
X37523362Y-29889280D01*
X38596000Y-29889280D01*
X38831317Y-29845002D01*
X39047441Y-29705930D01*
X39192431Y-29493730D01*
X39221164Y-29351840D01*
X39263258Y-29351840D01*
X39286838Y-29477157D01*
X39286838Y-29477157D01*
G37*
X39286838Y-29477157D02*
X39425910Y-29693281D01*
X39638110Y-29838271D01*
X39890000Y-29889280D01*
X41115024Y-29889280D01*
X41115024Y-31800257D01*
X40022009Y-32893271D01*
X31089337Y-32893271D01*
X30969314Y-32843433D01*
X30597348Y-32843109D01*
X30253572Y-32985154D01*
X29990323Y-33247944D01*
X29847677Y-33591472D01*
X29847353Y-33963438D01*
X29989398Y-34307214D01*
X30252188Y-34570463D01*
X30595716Y-34713109D01*
X30967682Y-34713433D01*
X31089084Y-34663271D01*
X40050344Y-34663271D01*
X40777074Y-35390000D01*
X39890000Y-35390000D01*
X39654683Y-35434278D01*
X39438559Y-35573350D01*
X39293569Y-35785550D01*
X39264836Y-35927440D01*
X39222742Y-35927440D01*
X39199162Y-35802123D01*
X39060090Y-35585999D01*
X38847890Y-35441009D01*
X38596000Y-35390000D01*
X37523362Y-35390000D01*
X37040736Y-34907374D01*
X36794174Y-34742627D01*
X36503335Y-34684775D01*
X34074226Y-34684775D01*
X33783387Y-34742627D01*
X33536825Y-34907374D01*
X33188986Y-35255213D01*
X33087001Y-35234560D01*
X31587001Y-35234560D01*
X31351684Y-35278838D01*
X31135560Y-35417910D01*
X31131597Y-35423711D01*
X30965794Y-35354863D01*
X30918918Y-35354822D01*
X28828670Y-33264574D01*
X28582108Y-33099827D01*
X28291269Y-33041975D01*
X21809315Y-33041975D01*
X21777179Y-33009783D01*
X21433651Y-32867137D01*
X21061685Y-32866813D01*
X20717909Y-33008858D01*
X20454660Y-33271648D01*
X20312014Y-33615176D01*
X20311690Y-33987142D01*
X20438678Y-34294478D01*
X19621280Y-34294478D01*
X18564945Y-33238143D01*
X18652490Y-32798022D01*
X18652490Y-32733978D01*
X18528072Y-32108486D01*
X18246048Y-31686407D01*
X32446051Y-31686407D01*
X32478187Y-31718599D01*
X32821715Y-31861245D01*
X33193681Y-31861569D01*
X33537457Y-31719524D01*
X33800706Y-31456734D01*
X33943352Y-31113206D01*
X33943676Y-30741240D01*
X33884329Y-30597609D01*
X33919632Y-30604631D01*
X36493209Y-30604631D01*
X36784048Y-30546779D01*
X37030610Y-30382032D01*
X37523362Y-29889280D01*
X38596000Y-29889280D01*
X38831317Y-29845002D01*
X39047441Y-29705930D01*
X39192431Y-29493730D01*
X39221164Y-29351840D01*
X39263258Y-29351840D01*
X39286838Y-29477157D01*
G36*
X30005223Y-23449401D02*
X30251785Y-23614148D01*
X30542624Y-23672000D01*
X30982087Y-23672000D01*
X30939561Y-23882000D01*
X30939561Y-24482000D01*
X30983839Y-24717317D01*
X31042179Y-24807980D01*
X30952001Y-25025690D01*
X30952001Y-25166250D01*
X31110751Y-25325000D01*
X32210001Y-25325000D01*
X32210001Y-25305000D01*
X32464001Y-25305000D01*
X32464001Y-25325000D01*
X33563251Y-25325000D01*
X33722001Y-25166250D01*
X33722001Y-25025690D01*
X33671971Y-24904908D01*
X33748560Y-24828452D01*
X33748560Y-24899120D01*
X33792838Y-25134437D01*
X33931910Y-25350561D01*
X33957271Y-25367890D01*
X33944559Y-25376070D01*
X33799569Y-25588270D01*
X33748560Y-25840160D01*
X33748560Y-26067582D01*
X33674381Y-25993274D01*
X33722001Y-25878310D01*
X33722001Y-25737750D01*
X33563251Y-25579000D01*
X32464001Y-25579000D01*
X32464001Y-25599000D01*
X32210001Y-25599000D01*
X32210001Y-25579000D01*
X31110751Y-25579000D01*
X30952001Y-25737750D01*
X30952001Y-25878310D01*
X31041807Y-26095122D01*
X30990570Y-26170110D01*
X30939561Y-26422000D01*
X30939561Y-27022000D01*
X30983839Y-27257317D01*
X31047679Y-27356528D01*
X30990570Y-27440110D01*
X30984198Y-27471576D01*
X30507878Y-27947896D01*
X30493999Y-27914305D01*
X30231209Y-27651056D01*
X29887681Y-27508410D01*
X29840805Y-27508369D01*
X28682519Y-26350083D01*
X28978371Y-26227840D01*
X29241620Y-25965050D01*
X29384266Y-25621522D01*
X29384590Y-25249556D01*
X29242545Y-24905780D01*
X28979755Y-24642531D01*
X28636227Y-24499885D01*
X28330873Y-24499619D01*
X28334441Y-24482000D01*
X28334441Y-23882000D01*
X28290163Y-23646683D01*
X28226323Y-23547472D01*
X28283432Y-23463890D01*
X28334441Y-23212000D01*
X28334441Y-22612000D01*
X28290163Y-22376683D01*
X28287218Y-22372106D01*
X28485053Y-22174616D01*
X28557050Y-22001228D01*
X30005223Y-23449401D01*
X30005223Y-23449401D01*
G37*
X30005223Y-23449401D02*
X30251785Y-23614148D01*
X30542624Y-23672000D01*
X30982087Y-23672000D01*
X30939561Y-23882000D01*
X30939561Y-24482000D01*
X30983839Y-24717317D01*
X31042179Y-24807980D01*
X30952001Y-25025690D01*
X30952001Y-25166250D01*
X31110751Y-25325000D01*
X32210001Y-25325000D01*
X32210001Y-25305000D01*
X32464001Y-25305000D01*
X32464001Y-25325000D01*
X33563251Y-25325000D01*
X33722001Y-25166250D01*
X33722001Y-25025690D01*
X33671971Y-24904908D01*
X33748560Y-24828452D01*
X33748560Y-24899120D01*
X33792838Y-25134437D01*
X33931910Y-25350561D01*
X33957271Y-25367890D01*
X33944559Y-25376070D01*
X33799569Y-25588270D01*
X33748560Y-25840160D01*
X33748560Y-26067582D01*
X33674381Y-25993274D01*
X33722001Y-25878310D01*
X33722001Y-25737750D01*
X33563251Y-25579000D01*
X32464001Y-25579000D01*
X32464001Y-25599000D01*
X32210001Y-25599000D01*
X32210001Y-25579000D01*
X31110751Y-25579000D01*
X30952001Y-25737750D01*
X30952001Y-25878310D01*
X31041807Y-26095122D01*
X30990570Y-26170110D01*
X30939561Y-26422000D01*
X30939561Y-27022000D01*
X30983839Y-27257317D01*
X31047679Y-27356528D01*
X30990570Y-27440110D01*
X30984198Y-27471576D01*
X30507878Y-27947896D01*
X30493999Y-27914305D01*
X30231209Y-27651056D01*
X29887681Y-27508410D01*
X29840805Y-27508369D01*
X28682519Y-26350083D01*
X28978371Y-26227840D01*
X29241620Y-25965050D01*
X29384266Y-25621522D01*
X29384590Y-25249556D01*
X29242545Y-24905780D01*
X28979755Y-24642531D01*
X28636227Y-24499885D01*
X28330873Y-24499619D01*
X28334441Y-24482000D01*
X28334441Y-23882000D01*
X28290163Y-23646683D01*
X28226323Y-23547472D01*
X28283432Y-23463890D01*
X28334441Y-23212000D01*
X28334441Y-22612000D01*
X28290163Y-22376683D01*
X28287218Y-22372106D01*
X28485053Y-22174616D01*
X28557050Y-22001228D01*
X30005223Y-23449401D01*
G36*
X39286838Y-25134437D02*
X39425910Y-25350561D01*
X39638110Y-25495551D01*
X39890000Y-25546560D01*
X41115024Y-25546560D01*
X41115024Y-27294400D01*
X39890000Y-27294400D01*
X39654683Y-27338678D01*
X39438559Y-27477750D01*
X39293569Y-27689950D01*
X39264836Y-27831840D01*
X39222742Y-27831840D01*
X39199162Y-27706523D01*
X39091684Y-27539498D01*
X39192431Y-27392050D01*
X39243440Y-27140160D01*
X39243440Y-25840160D01*
X39199162Y-25604843D01*
X39060090Y-25388719D01*
X39034729Y-25371390D01*
X39047441Y-25363210D01*
X39192431Y-25151010D01*
X39221164Y-25009120D01*
X39263258Y-25009120D01*
X39286838Y-25134437D01*
X39286838Y-25134437D01*
G37*
X39286838Y-25134437D02*
X39425910Y-25350561D01*
X39638110Y-25495551D01*
X39890000Y-25546560D01*
X41115024Y-25546560D01*
X41115024Y-27294400D01*
X39890000Y-27294400D01*
X39654683Y-27338678D01*
X39438559Y-27477750D01*
X39293569Y-27689950D01*
X39264836Y-27831840D01*
X39222742Y-27831840D01*
X39199162Y-27706523D01*
X39091684Y-27539498D01*
X39192431Y-27392050D01*
X39243440Y-27140160D01*
X39243440Y-25840160D01*
X39199162Y-25604843D01*
X39060090Y-25388719D01*
X39034729Y-25371390D01*
X39047441Y-25363210D01*
X39192431Y-25151010D01*
X39221164Y-25009120D01*
X39263258Y-25009120D01*
X39286838Y-25134437D01*
G36*
X54612000Y-21750960D02*
X54612000Y-22271666D01*
X54528310Y-22237000D01*
X54387750Y-22237000D01*
X54229000Y-22395750D01*
X54229000Y-23495000D01*
X54249000Y-23495000D01*
X54249000Y-23749000D01*
X54229000Y-23749000D01*
X54229000Y-23769000D01*
X53975000Y-23769000D01*
X53975000Y-23749000D01*
X53955000Y-23749000D01*
X53955000Y-23495000D01*
X53975000Y-23495000D01*
X53975000Y-22395750D01*
X53816250Y-22237000D01*
X53675690Y-22237000D01*
X53458878Y-22326806D01*
X53417400Y-22298465D01*
X53417400Y-21396269D01*
X54257309Y-21396269D01*
X54612000Y-21750960D01*
X54612000Y-21750960D01*
G37*
X54612000Y-21750960D02*
X54612000Y-22271666D01*
X54528310Y-22237000D01*
X54387750Y-22237000D01*
X54229000Y-22395750D01*
X54229000Y-23495000D01*
X54249000Y-23495000D01*
X54249000Y-23749000D01*
X54229000Y-23749000D01*
X54229000Y-23769000D01*
X53975000Y-23769000D01*
X53975000Y-23749000D01*
X53955000Y-23749000D01*
X53955000Y-23495000D01*
X53975000Y-23495000D01*
X53975000Y-22395750D01*
X53816250Y-22237000D01*
X53675690Y-22237000D01*
X53458878Y-22326806D01*
X53417400Y-22298465D01*
X53417400Y-21396269D01*
X54257309Y-21396269D01*
X54612000Y-21750960D01*
M02*
