M48
;DRILL file {KiCad 4.0.2+dfsg1-stable} date Sun 27 May 2018 08:17:24 CEST
;FORMAT={-:-/ absolute / metric / decimal}
FMAT,2
METRIC,TZ
T1C0.400
T2C1.016
T3C1.097
%
G90
G05
M71
T1
X14.859Y-16.256
X14.859Y-18.796
X14.859Y-21.336
X14.859Y-23.876
X14.859Y-26.416
X14.859Y-28.956
X14.859Y-31.496
X14.859Y-34.036
X14.859Y-36.576
X14.859Y-39.116
X14.859Y-41.656
X14.859Y-44.196
X14.859Y-46.736
X14.859Y-49.276
X14.859Y-51.816
X14.859Y-54.356
X14.859Y-56.896
X14.859Y-59.436
X14.859Y-61.976
X14.859Y-64.516
X14.859Y-67.056
X14.859Y-69.596
X14.859Y-72.136
X14.859Y-74.676
X14.859Y-77.216
X15.748Y-13.716
X19.05Y-79.248
X19.515Y-33.848
X20.665Y-61.925
X21.247Y-33.802
X21.558Y-48.541
X22.034Y-19.723
X22.446Y-62.896
X25.603Y-14.072
X26.615Y-24.183
X26.615Y-38.723
X26.615Y-53.263
X26.615Y-67.803
X26.658Y-17.899
X27.662Y-50.721
X27.67Y-36.183
X27.676Y-65.264
X27.687Y-27.992
X27.687Y-42.532
X27.687Y-57.072
X27.687Y-71.612
X27.693Y-21.644
X28.128Y-46.821
X28.28Y-61.663
X28.325Y-32.548
X28.444Y-54.535
X28.449Y-25.435
X28.449Y-39.975
X28.449Y-69.055
X29.682Y-72.065
X29.701Y-28.443
X29.71Y-57.63
X29.713Y-43.027
X30.702Y-74.056
X30.776Y-49.509
X30.778Y-48.252
X30.779Y-36.29
X30.78Y-20.175
X30.78Y-21.758
X30.782Y-64.129
X30.782Y-65.376
X30.782Y-50.81
X30.783Y-33.778
X30.783Y-35.029
X30.783Y-62.85
X31.26Y-68.828
X31.291Y-39.996
X31.293Y-25.153
X31.293Y-54.243
X32.975Y-45.474
X33.009Y-30.926
X33.041Y-59.81
X33.074Y-24.18
X33.074Y-38.72
X33.074Y-53.26
X33.074Y-67.8
X33.082Y-26.723
X33.082Y-41.263
X33.082Y-55.803
X33.082Y-70.343
X36.843Y-61.016
X38.481Y-19.051
X39.055Y-44.958
X39.507Y-30.373
X39.748Y-79.439
X39.888Y-22.355
X40.312Y-26.481
X40.312Y-39.915
X40.312Y-54.456
X40.312Y-68.993
X40.64Y-13.716
X43.33Y-36.687
X43.33Y-43.132
X43.33Y-45.916
X43.33Y-48.616
X43.33Y-53.436
X43.33Y-57.672
X43.33Y-65.767
X43.33Y-72.212
X43.343Y-34.661
X45.546Y-19.05
X48.26Y-13.716
X49.657Y-79.248
X49.784Y-13.716
X50.679Y-68.139
X51.007Y-46.998
X51.054Y-69.577
X51.056Y-78.174
X51.208Y-58.42
X51.306Y-40.859
X51.308Y-38.608
X51.308Y-16.851
X51.311Y-32.459
X51.311Y-35.159
X51.311Y-56.838
X51.313Y-48.317
X51.319Y-26.905
X53.595Y-72.274
X53.613Y-64.037
X53.625Y-68.005
X53.844Y-55.93
X53.848Y-51.105
X53.848Y-38.608
X53.855Y-34.713
X53.858Y-42.87
X53.859Y-47.254
X53.888Y-21.528
X53.958Y-26.014
X54.107Y-30.066
X54.864Y-79.248
X56.132Y-60.051
X56.134Y-69.277
X56.392Y-48.318
X56.557Y-26.9
X57.447Y-68.225
X58.672Y-78.174
X58.673Y-66.582
X58.678Y-58.441
X58.928Y-45.118
X58.928Y-16.848
X58.94Y-56.834
X59.181Y-24.07
X60.817Y-49.889
X60.872Y-75.048
X60.872Y-75.648
X60.873Y-76.848
X60.873Y-77.448
X61.136Y-62.601
X61.468Y-13.716
X61.472Y-75.048
X61.472Y-75.648
X61.473Y-76.848
X61.473Y-77.448
X62.103Y-16.561
X62.103Y-17.561
X62.103Y-18.561
X62.103Y-19.561
X62.103Y-20.561
X62.103Y-21.561
X62.673Y-75.048
X62.673Y-75.648
X62.673Y-78.648
X62.673Y-79.248
X63.273Y-75.048
X63.273Y-75.648
X63.273Y-78.648
X63.273Y-79.248
X64.31Y-32.122
X64.311Y-42.29
X64.311Y-52.45
X64.473Y-75.048
X64.473Y-75.648
X65.073Y-75.048
X65.073Y-75.648
X67.564Y-13.716
X68.072Y-24.333
X68.076Y-28.597
X68.076Y-32.898
X68.079Y-50.055
X68.079Y-54.32
X68.079Y-71.452
X68.083Y-58.603
X68.083Y-45.723
X68.085Y-41.447
X68.087Y-37.159
X68.088Y-62.882
X68.088Y-67.16
X72.092Y-48.581
X72.644Y-21.59
X73.66Y-13.716
X80.01Y-13.716
X80.01Y-16.205
X80.01Y-18.745
X80.01Y-21.285
X80.01Y-23.825
X80.01Y-26.365
X80.01Y-28.905
X80.01Y-31.445
X80.01Y-33.985
X80.01Y-36.525
X80.01Y-39.065
X80.01Y-41.605
X80.01Y-44.145
X80.01Y-46.685
X80.01Y-49.225
X80.01Y-51.765
X80.01Y-54.305
X80.01Y-56.845
X80.01Y-59.385
X80.01Y-61.925
X80.01Y-64.465
X80.01Y-67.005
X80.01Y-69.545
X80.01Y-72.085
X80.01Y-74.625
X80.01Y-77.165
T2
X25.4Y-78.486
X27.94Y-78.486
X30.48Y-78.486
X33.02Y-78.486
X35.56Y-78.486
X38.1Y-78.486
X47.365Y-23.224
X47.365Y-25.764
X47.365Y-28.304
X47.365Y-30.844
X47.365Y-33.384
X47.365Y-35.924
X47.365Y-38.464
X47.365Y-41.004
X47.365Y-43.544
X47.365Y-46.084
X47.365Y-48.624
X47.365Y-51.164
X47.365Y-53.704
X47.365Y-56.244
X47.365Y-58.784
X47.365Y-61.324
X47.365Y-63.864
X47.365Y-66.404
X47.365Y-68.944
X47.365Y-71.535
X62.605Y-23.224
X62.605Y-25.764
X62.605Y-28.304
X62.605Y-30.844
X62.605Y-33.384
X62.605Y-35.924
X62.605Y-38.464
X62.605Y-41.004
X62.605Y-43.544
X62.605Y-46.084
X62.605Y-48.624
X62.605Y-51.164
X62.605Y-53.704
X62.605Y-56.244
X62.605Y-58.784
X62.605Y-61.324
X62.605Y-63.864
X62.605Y-66.404
X62.605Y-68.944
X62.605Y-71.432
X66.04Y-17.486
X66.048Y-78.445
X68.58Y-17.486
X68.588Y-78.445
X71.12Y-17.486
X71.128Y-78.445
T3
X17.018Y-17.526
X17.018Y-20.066
X17.018Y-22.606
X17.018Y-25.146
X17.018Y-27.686
X17.018Y-30.226
X17.018Y-32.766
X17.018Y-35.306
X17.018Y-37.846
X17.018Y-40.386
X17.018Y-42.926
X17.018Y-45.466
X17.018Y-50.546
X17.018Y-53.086
X17.018Y-55.626
X17.018Y-58.166
X17.018Y-60.706
X17.018Y-63.246
X17.018Y-65.786
X17.018Y-68.326
X17.018Y-70.866
X17.018Y-73.406
X17.018Y-75.946
X17.018Y-78.486
X43.18Y-15.24
X45.72Y-15.24
X77.978Y-17.475
X77.978Y-20.015
X77.978Y-22.555
X77.978Y-25.095
X77.978Y-27.635
X77.978Y-30.175
X77.978Y-32.715
X77.978Y-35.255
X77.978Y-37.795
X77.978Y-40.335
X77.978Y-42.875
X77.978Y-45.415
X77.978Y-50.506
X77.978Y-53.046
X77.978Y-55.586
X77.978Y-58.126
X77.978Y-60.666
X77.978Y-63.206
X77.978Y-65.746
X77.978Y-68.286
X77.978Y-70.826
X77.978Y-73.366
X77.978Y-75.906
X77.978Y-78.446
T0
M30
