G04 #@! TF.FileFunction,Soldermask,Top*
%FSLAX46Y46*%
G04 Gerber Fmt 4.6, Leading zero omitted, Abs format (unit mm)*
G04 Created by KiCad (PCBNEW 4.0.2+dfsg1-stable) date Sun 27 May 2018 08:18:09 CEST*
%MOMM*%
G01*
G04 APERTURE LIST*
%ADD10C,0.100000*%
%ADD11O,2.398980X2.398980*%
%ADD12R,2.398980X2.398980*%
%ADD13O,2.650000X2.127200*%
%ADD14R,2.650000X2.127200*%
%ADD15O,2.127200X2.432000*%
%ADD16R,2.127200X2.432000*%
%ADD17R,1.900000X1.700000*%
%ADD18R,1.900000X1.000000*%
%ADD19R,1.000000X1.900000*%
%ADD20R,1.700000X1.900000*%
G04 APERTURE END LIST*
D10*
D11*
X45720000Y-15240000D03*
D12*
X43180000Y-15240000D03*
D11*
X77978000Y-70826000D03*
X77978000Y-75906000D03*
X77978000Y-73366000D03*
X77978000Y-68286000D03*
X77978000Y-65746000D03*
X77978000Y-63206000D03*
X77978000Y-60666000D03*
X77978000Y-58126000D03*
X77978000Y-55586000D03*
X77978000Y-53046000D03*
X77978000Y-50506000D03*
X77978000Y-78446000D03*
X77978000Y-37795200D03*
X77978000Y-42875200D03*
X77978000Y-40335200D03*
X77978000Y-35255200D03*
X77978000Y-32715200D03*
X77978000Y-30175200D03*
X77978000Y-27635200D03*
X77978000Y-25095200D03*
X77978000Y-22555200D03*
X77978000Y-20015200D03*
X77978000Y-17475200D03*
X77978000Y-45415200D03*
X17018000Y-58166000D03*
X17018000Y-53086000D03*
X17018000Y-55626000D03*
X17018000Y-60706000D03*
X17018000Y-63246000D03*
X17018000Y-65786000D03*
X17018000Y-68326000D03*
X17018000Y-70866000D03*
X17018000Y-73406000D03*
X17018000Y-75946000D03*
X17018000Y-78486000D03*
X17018000Y-50546000D03*
X17018000Y-25146000D03*
X17018000Y-20066000D03*
X17018000Y-22606000D03*
X17018000Y-27686000D03*
X17018000Y-30226000D03*
X17018000Y-32766000D03*
X17018000Y-35306000D03*
X17018000Y-37846000D03*
X17018000Y-40386000D03*
X17018000Y-42926000D03*
X17018000Y-45466000D03*
X17018000Y-17526000D03*
D13*
X62605080Y-68944376D03*
X62605080Y-66404376D03*
X62605080Y-63864376D03*
X62605080Y-61324376D03*
X62605080Y-58784376D03*
X62605080Y-56244376D03*
X62605080Y-53704376D03*
X62605080Y-51164376D03*
X62605080Y-48624376D03*
X62605080Y-46084376D03*
X62605080Y-43544376D03*
X62605080Y-41004376D03*
X62605080Y-38464376D03*
X62605080Y-35924376D03*
X62605080Y-33384376D03*
X62605080Y-30844376D03*
X62605080Y-28304376D03*
X47365080Y-23224376D03*
X47365080Y-25764376D03*
X47365080Y-28304376D03*
X47365080Y-30844376D03*
X47365080Y-33384376D03*
X47365080Y-35924376D03*
X47365080Y-38464376D03*
X47365080Y-41004376D03*
X47365080Y-43544376D03*
X47365080Y-46084376D03*
X47365080Y-48624376D03*
X47365080Y-51164376D03*
X47365080Y-53704376D03*
X47365080Y-56244376D03*
X47365080Y-58784376D03*
X47365080Y-61324376D03*
X47365080Y-63864376D03*
X47365080Y-66404376D03*
X47365080Y-71535176D03*
D14*
X47365080Y-68944376D03*
X62605080Y-25764376D03*
X62605080Y-23224376D03*
D13*
X62605080Y-71432401D03*
D15*
X68588242Y-78445360D03*
X71128242Y-78445360D03*
X66048242Y-78445360D03*
D16*
X68580000Y-17486000D03*
D15*
X66040000Y-17486000D03*
X71120000Y-17486000D03*
D17*
X35146000Y-70110160D03*
X37846000Y-70110160D03*
X35146000Y-55570160D03*
X37846000Y-55570160D03*
X35146000Y-41030160D03*
X37846000Y-41030160D03*
D10*
G36*
X25645786Y-71809373D02*
X24343510Y-72902112D01*
X23122214Y-71446627D01*
X24424490Y-70353888D01*
X25645786Y-71809373D01*
X25645786Y-71809373D01*
G37*
G36*
X23910260Y-69741053D02*
X22607984Y-70833792D01*
X21386688Y-69378307D01*
X22688964Y-68285568D01*
X23910260Y-69741053D01*
X23910260Y-69741053D01*
G37*
G36*
X25603312Y-57367693D02*
X24301036Y-58460432D01*
X23079740Y-57004947D01*
X24382016Y-55912208D01*
X25603312Y-57367693D01*
X25603312Y-57367693D01*
G37*
G36*
X23867786Y-55299373D02*
X22565510Y-56392112D01*
X21344214Y-54936627D01*
X22646490Y-53843888D01*
X23867786Y-55299373D01*
X23867786Y-55299373D01*
G37*
G36*
X25645786Y-42853373D02*
X24343510Y-43946112D01*
X23122214Y-42490627D01*
X24424490Y-41397888D01*
X25645786Y-42853373D01*
X25645786Y-42853373D01*
G37*
G36*
X23910260Y-40785053D02*
X22607984Y-41877792D01*
X21386688Y-40422307D01*
X22688964Y-39329568D01*
X23910260Y-40785053D01*
X23910260Y-40785053D01*
G37*
D17*
X35146000Y-72211840D03*
X37846000Y-72211840D03*
X35146000Y-57671840D03*
X37846000Y-57671840D03*
X35146000Y-43131840D03*
X37846000Y-43131840D03*
D18*
X26937001Y-65262000D03*
X26937001Y-66532000D03*
X26937001Y-67802000D03*
X26937001Y-69072000D03*
X26937001Y-70342000D03*
X26937001Y-71612000D03*
X26937001Y-72882000D03*
X32337001Y-72882000D03*
X32337001Y-71612000D03*
X32337001Y-70342000D03*
X32337001Y-69072000D03*
X32337001Y-67802000D03*
X32337001Y-66532000D03*
X32337001Y-65262000D03*
X26937001Y-50722000D03*
X26937001Y-51992000D03*
X26937001Y-53262000D03*
X26937001Y-54532000D03*
X26937001Y-55802000D03*
X26937001Y-57072000D03*
X26937001Y-58342000D03*
X32337001Y-58342000D03*
X32337001Y-57072000D03*
X32337001Y-55802000D03*
X32337001Y-54532000D03*
X32337001Y-53262000D03*
X32337001Y-51992000D03*
X32337001Y-50722000D03*
X26937001Y-36182000D03*
X26937001Y-37452000D03*
X26937001Y-38722000D03*
X26937001Y-39992000D03*
X26937001Y-41262000D03*
X26937001Y-42532000D03*
X26937001Y-43802000D03*
X32337001Y-43802000D03*
X32337001Y-42532000D03*
X32337001Y-41262000D03*
X32337001Y-39992000D03*
X32337001Y-38722000D03*
X32337001Y-37452000D03*
X32337001Y-36182000D03*
D17*
X35146000Y-65767440D03*
X37846000Y-65767440D03*
X35146000Y-51227440D03*
X37846000Y-51227440D03*
X35146000Y-36687440D03*
X37846000Y-36687440D03*
X35146000Y-67869120D03*
X37846000Y-67869120D03*
X35146000Y-53329120D03*
X37846000Y-53329120D03*
X35146000Y-38789120D03*
X37846000Y-38789120D03*
D10*
G36*
X25751549Y-68457533D02*
X24449273Y-69550272D01*
X23227977Y-68094787D01*
X24530253Y-67002048D01*
X25751549Y-68457533D01*
X25751549Y-68457533D01*
G37*
G36*
X24016023Y-66389213D02*
X22713747Y-67481952D01*
X21492451Y-66026467D01*
X22794727Y-64933728D01*
X24016023Y-66389213D01*
X24016023Y-66389213D01*
G37*
G36*
X25751549Y-53917533D02*
X24449273Y-55010272D01*
X23227977Y-53554787D01*
X24530253Y-52462048D01*
X25751549Y-53917533D01*
X25751549Y-53917533D01*
G37*
G36*
X24016023Y-51849213D02*
X22713747Y-52941952D01*
X21492451Y-51486467D01*
X22794727Y-50393728D01*
X24016023Y-51849213D01*
X24016023Y-51849213D01*
G37*
G36*
X25751549Y-39377533D02*
X24449273Y-40470272D01*
X23227977Y-39014787D01*
X24530253Y-37922048D01*
X25751549Y-39377533D01*
X25751549Y-39377533D01*
G37*
G36*
X24016023Y-37309213D02*
X22713747Y-38401952D01*
X21492451Y-36946467D01*
X22794727Y-35853728D01*
X24016023Y-37309213D01*
X24016023Y-37309213D01*
G37*
D19*
X51054000Y-71534000D03*
X52324000Y-71534000D03*
X53594000Y-71534000D03*
X54864000Y-71534000D03*
X56134000Y-71534000D03*
X57404000Y-71534000D03*
X58674000Y-71534000D03*
X58674000Y-66134000D03*
X57404000Y-66134000D03*
X56134000Y-66134000D03*
X54864000Y-66134000D03*
X53594000Y-66134000D03*
X52324000Y-66134000D03*
X51054000Y-66134000D03*
D10*
G36*
X25751549Y-24837533D02*
X24449273Y-25930272D01*
X23227977Y-24474787D01*
X24530253Y-23382048D01*
X25751549Y-24837533D01*
X25751549Y-24837533D01*
G37*
G36*
X24016023Y-22769213D02*
X22713747Y-23861952D01*
X21492451Y-22406467D01*
X22794727Y-21313728D01*
X24016023Y-22769213D01*
X24016023Y-22769213D01*
G37*
D17*
X35146000Y-28591840D03*
X37846000Y-28591840D03*
X35146000Y-22147440D03*
X37846000Y-22147440D03*
X40640000Y-72211840D03*
X43340000Y-72211840D03*
X40640000Y-65767440D03*
X43340000Y-65767440D03*
X40640000Y-57671840D03*
X43340000Y-57671840D03*
X40640000Y-51227440D03*
X43340000Y-51227440D03*
X40640000Y-43131840D03*
X43340000Y-43131840D03*
X40640000Y-36687440D03*
X43340000Y-36687440D03*
X40640000Y-28591840D03*
X43340000Y-28591840D03*
X40640000Y-24249120D03*
X43340000Y-24249120D03*
D20*
X43383200Y-48615600D03*
X43383200Y-45915600D03*
D17*
X35146000Y-24249120D03*
X37846000Y-24249120D03*
D20*
X56391007Y-32458829D03*
X56391007Y-35158829D03*
X53851007Y-35158829D03*
X53851007Y-32458829D03*
X58931007Y-32458829D03*
X58931007Y-35158829D03*
X51311007Y-35158829D03*
X51311007Y-32458829D03*
X56642000Y-19998829D03*
X56642000Y-17298829D03*
X53934671Y-19998829D03*
X53934671Y-17298829D03*
X58931007Y-19998829D03*
X58931007Y-17298829D03*
X51311007Y-17298829D03*
X51311007Y-19998829D03*
X56388000Y-53688000D03*
X56388000Y-56388000D03*
X53848000Y-56388000D03*
X53848000Y-53688000D03*
X58928000Y-53688000D03*
X58928000Y-56388000D03*
X51308000Y-56388000D03*
X51308000Y-53688000D03*
X56388000Y-41308000D03*
X56388000Y-38608000D03*
X53848000Y-41308000D03*
X53848000Y-38608000D03*
X58928000Y-41308000D03*
X58928000Y-38608000D03*
X51308000Y-38608000D03*
X51308000Y-41308000D03*
X56134000Y-75024000D03*
X56134000Y-77724000D03*
X53594000Y-77724000D03*
X53594000Y-75024000D03*
X58674000Y-75024000D03*
X58674000Y-77724000D03*
X51054000Y-77724000D03*
X51054000Y-75024000D03*
X56134000Y-62484000D03*
X56134000Y-59784000D03*
X53594000Y-62484000D03*
X53594000Y-59784000D03*
X58674000Y-62484000D03*
X58674000Y-59784000D03*
X51054000Y-59784000D03*
X51054000Y-62484000D03*
D17*
X70278000Y-25261455D03*
X72978000Y-25261455D03*
X70278000Y-29545868D03*
X72978000Y-29545868D03*
X70278000Y-33830281D03*
X72978000Y-33830281D03*
X70278000Y-38114694D03*
X72978000Y-38114694D03*
X70278000Y-42399107D03*
X72978000Y-42399107D03*
X70278000Y-46683520D03*
X72978000Y-46683520D03*
X70278000Y-50967933D03*
X72978000Y-50967933D03*
X70278000Y-55252346D03*
X72978000Y-55252346D03*
X70278000Y-59536759D03*
X72978000Y-59536759D03*
X70278000Y-63821172D03*
X72978000Y-63821172D03*
X70278000Y-68105585D03*
X72978000Y-68105585D03*
X70278000Y-72389998D03*
X72978000Y-72389998D03*
D18*
X26937001Y-21642000D03*
X26937001Y-22912000D03*
X26937001Y-24182000D03*
X26937001Y-25452000D03*
X26937001Y-26722000D03*
X26937001Y-27992000D03*
X26937001Y-29262000D03*
X32337001Y-29262000D03*
X32337001Y-27992000D03*
X32337001Y-26722000D03*
X32337001Y-25452000D03*
X32337001Y-24182000D03*
X32337001Y-22912000D03*
X32337001Y-21642000D03*
D19*
X51562000Y-29022000D03*
X52832000Y-29022000D03*
X54102000Y-29022000D03*
X55372000Y-29022000D03*
X56642000Y-29022000D03*
X57912000Y-29022000D03*
X59182000Y-29022000D03*
X59182000Y-23622000D03*
X57912000Y-23622000D03*
X56642000Y-23622000D03*
X55372000Y-23622000D03*
X54102000Y-23622000D03*
X52832000Y-23622000D03*
X51562000Y-23622000D03*
X51308000Y-50358000D03*
X52578000Y-50358000D03*
X53848000Y-50358000D03*
X55118000Y-50358000D03*
X56388000Y-50358000D03*
X57658000Y-50358000D03*
X58928000Y-50358000D03*
X58928000Y-44958000D03*
X57658000Y-44958000D03*
X56388000Y-44958000D03*
X55118000Y-44958000D03*
X53848000Y-44958000D03*
X52578000Y-44958000D03*
X51308000Y-44958000D03*
D10*
G36*
X25603312Y-28375373D02*
X24301036Y-29468112D01*
X23079740Y-28012627D01*
X24382016Y-26919888D01*
X25603312Y-28375373D01*
X25603312Y-28375373D01*
G37*
G36*
X23867786Y-26307053D02*
X22565510Y-27399792D01*
X21344214Y-25944307D01*
X22646490Y-24851568D01*
X23867786Y-26307053D01*
X23867786Y-26307053D01*
G37*
D17*
X35146000Y-26490160D03*
X37846000Y-26490160D03*
D16*
X25400000Y-78486000D03*
D15*
X27940000Y-78486000D03*
X30480000Y-78486000D03*
X33020000Y-78486000D03*
X35560000Y-78486000D03*
X38100000Y-78486000D03*
M02*
